<?xml version="1.0" encoding="utf-8"?>
<!-- Generator: Adobe Illustrator 21.0.2, SVG Export Plug-In . SVG Version: 6.00 Build 0)  -->
<svg version="1.1" id="Layer_1" xmlns="http://www.w3.org/2000/svg" xmlns:xlink="http://www.w3.org/1999/xlink" x="0px" y="0px"
	 viewBox="0 0 314.3 194" style="enable-background:new 0 0 314.3 194;" xml:space="preserve">
<style type="text/css">
	.st0{fill:#FF0000;}
	.st1{fill:#FFFFFF;stroke:#000000;stroke-width:0.75;stroke-miterlimit:10;}
</style>
<g>
	<path class="st0" d="M157,191c-0.3-0.2-0.5-2-0.7-3.5c-0.6-4.7-1.6-12.5-6.8-19.1c-1.3-1.7-8.5-10-19.6-10.4c-0.2,0-0.4,0-0.7,0
		c-12.8,0-21.2,10.9-23.5,14.3c-2.6,3.8-4.1,7.8-5,10.9c0.4-3.1,0.5-7-0.9-10.8c-2.6-6.9-10.3-12.8-18.6-14.3
		c-0.7-0.1-1.6-0.3-2.7-0.3c-6,0-15.1,3.7-27.6,11.3C40.6,175.2,33,181,28,184.9c-2.5,1.9-4.6,3.5-5.5,3.9c0.4-0.8,2.2-2.9,4.3-5.4
		c3.8-4.5,9.6-11.3,15.5-19.9c10.1-14.7,19.7-28.7,15.6-36.8c-2.7-5.4-10.4-6.1-25.9-7.3l-1.7-0.1c-4.8-0.4-9.6-0.6-14.7-0.6
		c-4,0-7.3,0.1-9.8,0.2c0,0-0.1,0-0.1,0c4.8-0.6,12.9-1.7,21.6-4.8c8.4-2.9,25.8-8.9,26.6-19c0.7-8.7-11.4-16.1-17.2-19.6
		c-11.9-7.3-24.2-9.4-29.5-10.3c0,0,0,0,0,0c0.5,0,1.1,0.1,1.8,0.1c3.6,0.3,9,0.7,15.4,0.7c4.3,0,8.6-0.2,12.5-0.6
		c13.7-1.3,27.9-2.6,31.4-10.7c3.2-7.5-4.4-17.4-14-29.9c-6.5-8.5-13-14.8-16.5-18.2c-0.4-0.4-0.9-0.9-1.2-1.2
		c0.5,0.4,1,0.8,1.5,1.2c4.3,3.4,12.2,9.8,22.3,16c9.3,5.7,21.9,13.5,32,13.5c2.8,0,5.4-0.6,7.6-1.9c3.3-1.9,5.1-4.6,6.2-6.3
		c5.1-7.9,4-17.5,3.4-22.1c-0.1-0.6-0.2-1.3-0.2-1.8c0.2,0.5,0.4,1.2,0.5,1.9c1.2,4.5,3.5,12.7,9.9,19.7c2.4,2.6,7.9,8.6,15.8,8.6
		l0.3,0c6.6-0.1,11.5-4.4,13.7-6.9c6.4-7.1,6.9-17,7.2-22.3c0.1-1.5,0.2-3.2,0.4-3.6c0.3,0.4,0.5,2,0.8,3.6
		c0.8,5.3,2.4,15.2,9.5,21.9c6.9,6.6,16,7.3,19.6,7.3c0.8,0,1.3,0,1.4,0c2.4-0.2,10.9-1.4,17.2-8c6.1-6.4,7.4-14.9,8.1-19.9
		c0.2-1.6,0.5-3.3,0.8-3.5c0.2,0.2,0.4,2.1,0.5,3.8c0.4,5.2,1.1,15,7.6,21.4c5.6,5.5,12.6,7.4,16.2,8c1.6,0.3,3.1,0.4,4.6,0.4
		c5.5,0,11.5-1.7,20.2-5.6c14.1-6.4,24.5-14,30.1-18c1.6-1.1,3-2.2,3.7-2.6c-0.8,1.2-3.4,4.1-6.3,7.4c-4.1,4.6-9.8,11-16.1,18.7
		c-11.9,14.6-13.3,18.5-12.2,22c2.1,6.2,12.4,8.2,23.7,9.9c8.8,1.3,16.3,1.3,20.7,1.3c1.7,0,3.3,0,4.1,0.1c-0.7,0.2-2,0.5-3.4,0.8
		c-4.9,1-14,2.8-23.7,7.3c-7,3.3-21.7,10.1-21.5,18.9c0.2,7.7,12.2,13.1,18.6,16c8.4,3.8,16.5,5.5,22.6,6.3c-0.2,0-0.4,0-0.5,0
		c-7.4,0-14.4,0.4-21,1.2c-10.8,1.3-21.1,3.4-23.6,9.8c-0.6,1.6-2.5,6.5,16.3,27.2c8.8,9.7,17.2,17.5,22.3,22.1
		c1.2,1.1,2.4,2.2,3.3,3c-0.1-0.1-0.3-0.2-0.4-0.3c-5.5-4.1-18.3-13.8-35.9-19.9c-2.2-0.8-8.8-3-17.7-3.7c-3-0.2-6-0.4-8.9-0.4
		c-6.8,0-11.3,1.2-14.6,4c-6.8,5.7-6.5,16.9-6.3,23.6c0.1,2.1,0.1,4.4-0.2,4.7c-0.2-0.2-0.7-1.9-1-3.4c-1.1-4.5-2.8-11.9-8.4-18.3
		c-2.2-2.5-10.3-10.8-21.8-10.8c-0.6,0-1.1,0-1.7,0.1c-10.5,0.7-17.2,8-19,10.2c-5.5,6.7-6.6,14.8-7.3,19.6
		C157.6,189,157.4,190.8,157,191z"/>
	<path d="M157.4,3.2c0.1,0.6,0.2,1.3,0.3,1.9c0.8,5.4,2.4,15.3,9.6,22.1c7,6.7,16.2,7.4,19.8,7.4c0.8,0,1.4,0,1.5,0
		c2.5-0.2,11-1.4,17.5-8.1c6.2-6.5,7.5-15.4,8.2-20.1c0.1-0.7,0.2-1.5,0.3-2.1c0.1,0.7,0.2,1.6,0.2,2.4c0.4,5.3,1.1,15.1,7.7,21.6
		c5.7,5.6,12.7,7.5,16.4,8.1c1.6,0.3,3.1,0.4,4.7,0.4c5.5,0,11.6-1.7,20.3-5.7c14.2-6.5,24.6-14,30.2-18.1c0.6-0.4,1.2-0.9,1.8-1.3
		c-1.2,1.4-2.9,3.4-4.8,5.5c-4.1,4.6-9.8,11-16.1,18.7c-12,14.7-13.5,18.8-12.2,22.3c2.2,6.4,12.6,8.5,24,10.1
		c8.8,1.3,16.3,1.3,20.8,1.3c0.4,0,0.8,0,1.2,0c-0.2,0-0.4,0.1-0.6,0.1c-4.9,1-14.1,2.8-23.8,7.3c-7.1,3.3-21.9,10.2-21.7,19.2
		c0.2,7.9,12.3,13.4,18.9,16.4c6.5,2.9,12.9,4.6,18.2,5.7c-6,0.1-11.7,0.5-17.1,1.2c-10.9,1.3-21.4,3.5-23.9,10
		c-0.6,1.7-2.5,6.8,16.4,27.6c8,8.8,15.6,15.9,20.7,20.7c-6.7-4.8-17.5-11.6-31-16.3c-2.2-0.8-8.9-3.1-17.8-3.7
		c-3-0.2-6.1-0.4-9-0.4c-6.9,0-11.5,1.3-14.8,4.1c-6.9,5.9-6.6,17.2-6.4,23.9c0,1.1,0.1,2.3,0,3.2c-0.2-0.6-0.3-1.3-0.5-2
		c-1.1-4.5-2.9-12-8.5-18.5c-2.2-2.6-10.4-10.9-22.1-10.9c-0.6,0-1.2,0-1.7,0.1c-10.7,0.7-17.4,8.1-19.3,10.3
		c-5.6,6.8-6.7,14.9-7.4,19.8c-0.1,0.9-0.3,1.9-0.4,2.6c-0.1-0.7-0.2-1.6-0.4-2.5c-0.6-4.7-1.6-12.6-6.9-19.3
		c-1.3-1.7-8.6-10.2-19.9-10.5c-0.2,0-0.4,0-0.7,0c-13,0-21.5,11-23.8,14.4c-1.9,2.7-3.2,5.5-4.1,8.1c0.1-2.5-0.2-5.2-1.2-7.9
		c-2.7-7-10.4-13-18.9-14.6c-0.7-0.1-1.6-0.3-2.8-0.3c-6.1,0-15.2,3.7-27.8,11.4c-10.2,6.2-17.8,12-22.9,15.9
		c-1.4,1.1-2.8,2.1-3.8,2.9c0.8-1,2-2.4,3.1-3.8c3.8-4.5,9.6-11.3,15.5-19.9C52.7,149,62.3,135,58.2,126.6
		c-2.8-5.6-10.6-6.2-26.2-7.5l-1.7-0.1c-4.8-0.4-9.6-0.6-14.8-0.6c-1.2,0-2.3,0-3.3,0c4.3-0.7,9.6-1.9,15.2-3.8
		c8.5-2.9,26-9,26.9-19.4c0.7-8.9-11.5-16.4-17.3-20c-8.5-5.3-17.3-7.8-23.5-9.2c3.1,0.2,6.8,0.4,11,0.4c4.3,0,8.6-0.2,12.6-0.6
		c13.8-1.3,28.1-2.6,31.7-10.9c3.3-7.7-4.4-17.7-14.1-30.3c-4.7-6.1-9.4-11.2-13-14.8c4.5,3.5,10.9,8.3,18.6,13
		c9.3,5.7,22,13.5,32.1,13.5c2.9,0,5.5-0.6,7.8-1.9c3.4-1.9,5.3-4.8,6.3-6.4c4.3-6.7,4.2-14.6,3.8-19.6c1.4,4.7,3.9,11.5,9.3,17.4
		c2.4,2.6,8.1,8.7,16.1,8.7c0.1,0,0.2,0,0.3,0c6.8-0.1,11.7-4.4,14-7c6.5-7.2,7-17.2,7.3-22.5C157.3,4.4,157.3,3.7,157.4,3.2
		 M157.3,1C157.2,1,157.2,1,157.3,1c-1.8,0.1,1.4,15.9-7.8,26c-0.9,1-6,6.6-13.5,6.8c-0.1,0-0.2,0-0.3,0c-7.7,0-13.2-5.9-15.5-8.5
		c-9-9.7-9.8-22.4-10.9-22.4c0,0,0,0,0,0c-1.1,0.2,3.6,13.9-3.3,24.7c-1,1.6-2.8,4.4-6.1,6.2c-2.2,1.3-4.7,1.8-7.4,1.8
		c-9.7,0-21.6-7.2-31.8-13.4c-15-9.2-25.1-18.7-26-18.7c0,0,0,0,0,0c-0.5,0.6,9.3,8.3,19.4,21.5c9.6,12.5,17.1,22.2,14,29.5
		C64.7,62.5,50.5,63.8,37,65c-4.4,0.4-8.6,0.6-12.5,0.6c-9.6,0-16.9-0.9-19.3-0.9c-0.5,0-0.8,0-0.8,0.1c-0.1,0.8,16.3,1.2,32.2,11
		c5.8,3.6,17.6,10.9,17,19.3c-0.8,9.9-18.3,15.9-26.4,18.7c-14,4.8-26.2,4.9-26.2,5.4c0,0.1,0.5,0.2,1.3,0.2c2.2,0,6.9-0.3,13.2-0.3
		c4.3,0,9.3,0.1,14.7,0.6c16.2,1.4,24.6,1.9,27.3,7.3c3.9,7.9-5.5,21.7-15.6,36.4c-10.5,15.3-20.7,25-19.8,25.8c0,0,0.1,0.1,0.2,0.1
		c1.6,0,11.8-9.6,28.8-19.9c15.7-9.5,23.3-11.2,27.4-11.2c1.1,0,2,0.1,2.7,0.2c7.6,1.4,15.6,6.7,18.4,14.1c2.9,7.8-0.6,16.1,0,16.2
		c0,0,0,0,0,0c0.6,0,1.4-8.6,6.6-16.2c1.9-2.8,10.2-14.1,23.2-14.1c0.2,0,0.4,0,0.6,0c11.3,0.3,18.4,9.1,19.3,10.2
		c7.9,9.9,6,22.7,7.8,22.8c0,0,0,0,0,0c1.8,0,0.1-13.3,8.4-23.3c1.1-1.3,7.8-9.3,18.7-10c0.6,0,1.1-0.1,1.7-0.1
		c11.9,0,20,8.9,21.6,10.7c8.3,9.6,8.1,21.8,9.7,21.8c0,0,0,0,0,0c2.1-0.2-3.1-20.2,6.6-28.3c3.7-3.1,8.8-3.9,14.3-3.9
		c2.9,0,5.9,0.2,8.9,0.4c8.2,0.6,14.3,2.5,17.6,3.7c22.4,7.8,37.4,21.6,38.4,21.6c0,0,0,0,0,0c0.5-0.7-12.8-11.1-27.3-27.2
		c-18-19.9-16.9-25.1-16.2-26.9c2.3-6.1,12.3-8.2,23.2-9.5c8-1,15.4-1.2,21-1.2c5.1,0,8.6,0.2,9.9,0.2c0.3,0,0.5,0,0.5,0
		c0-0.3-15.8,0.3-32.3-7.2c-6.4-2.9-18.2-8.3-18.4-15.7c-0.2-8.5,14.2-15.2,21.3-18.5c14.6-6.8,27.8-7.4,27.7-8.5
		c-0.1-1-10.9,0.4-25.6-1.7c-10.2-1.5-21.3-3.4-23.4-9.6c-1.1-3.2,0.3-7.1,12.1-21.6c12.9-15.8,23.3-26,22.6-26.8c0,0-0.1,0-0.1,0
		c-1.5,0-14.1,11.6-34.4,20.9c-8.6,3.9-14.6,5.6-20,5.6c-1.6,0-3.1-0.1-4.6-0.4c-2.4-0.4-10-2-16-7.9c-9.3-9.2-6.5-25.2-8.4-25.3
		c0,0,0,0,0,0c-1.7,0-0.2,14.1-9.2,23.5c-6.6,6.9-15.5,7.8-17,7.9c-0.1,0-0.6,0-1.4,0c-3.5,0-12.5-0.7-19.3-7.2
		C157.7,17,159,1,157.3,1L157.3,1z"/>
</g>
<g>
	<path class="st1" d="M71.4,121.7c0.6-1.9,1.2-3.7,1.8-5.5c0.2-0.8,0.5-1.6,0.8-2.4c0.3-0.8,0.5-1.7,0.8-2.5
		c0.3-0.8,0.5-1.6,0.7-2.4c0.2-0.8,0.4-1.5,0.6-2.1c0.8,0,1.5,0,2.2-0.1c0.7-0.1,1.5-0.2,2.3-0.2c0,0.3-0.1,0.7-0.1,1.1
		c-0.1,0.4-0.1,0.8-0.2,1.2c-0.1,0.4-0.1,0.9-0.2,1.3c-0.1,0.5-0.2,1-0.3,1.7c-0.1,0.7-0.2,1.6-0.4,2.7h0.3c0.4-1.1,0.8-2,1-2.7
		c0.3-0.7,0.5-1.3,0.7-1.8c0.2-0.5,0.3-0.9,0.5-1.3c0.2-0.4,0.4-0.8,0.5-1.2c0.2-0.4,0.3-0.7,0.5-1c0.4,0,0.7-0.1,1-0.1
		c0.3,0,0.6-0.1,0.9-0.1c0.3,0,0.6-0.1,1-0.1c0.3,0,0.7-0.1,1.1-0.2c-0.1,0.8-0.3,1.7-0.4,2.5c-0.1,0.9-0.2,1.7-0.3,2.6
		c-0.1,0.9-0.2,1.7-0.3,2.5c-0.1,0.8-0.2,1.6-0.2,2.4c-0.2,1.8-0.3,3.5-0.5,5.1l-3.7,0.7c0-0.1,0-0.3,0-0.6c0-0.3,0.1-0.7,0.1-1.1
		c0-0.5,0.1-1,0.2-1.5c0.1-0.6,0.1-1.1,0.2-1.7c0.1-0.6,0.1-1.1,0.2-1.6c0.1-0.5,0.1-1,0.2-1.3H82c-0.2,0.6-0.4,1.2-0.7,1.9
		c-0.2,0.7-0.5,1.3-0.7,2c-0.3,0.7-0.5,1.3-0.7,2c-0.2,0.7-0.5,1.3-0.6,1.9c-0.5,0-0.9,0-1.3,0.1c-0.4,0-0.8,0-1.2,0.1l0.7-7.9h-0.3
		c0,0.2-0.1,0.5-0.2,0.9c-0.1,0.4-0.2,0.9-0.4,1.5c-0.2,0.6-0.3,1.1-0.5,1.7c-0.2,0.6-0.3,1.2-0.5,1.7c-0.2,0.5-0.3,0.9-0.4,1.3
		c-0.1,0.3-0.2,0.5-0.2,0.6L71.4,121.7z"/>
	<path class="st1" d="M94,118.9c0,0-0.2,0.3-0.5,0.8c-0.4,0.6-0.8,1-1.3,1.4c-0.5,0.4-1,0.6-1.6,0.8c-0.6,0.2-1.1,0.3-1.7,0.3
		c-0.3,0-0.7-0.1-1-0.2c-0.3-0.1-0.7-0.3-0.9-0.5c-0.3-0.2-0.5-0.5-0.7-0.8c-0.2-0.3-0.3-0.7-0.3-1.1c0-0.1,0-0.1,0-0.2
		c0-0.1,0-0.1,0-0.2c0.1-0.6,0.2-1.3,0.3-2.1c0.1-0.8,0.3-1.7,0.4-2.6c0.1-0.9,0.3-1.8,0.5-2.7c0.2-0.9,0.3-1.7,0.5-2.5
		c0.1-0.7,0.3-1.3,0.4-1.8c0.1-0.5,0.2-0.8,0.2-0.9c0.3,0,0.7-0.1,1.1-0.1c0.4,0,0.8-0.1,1.2-0.1c0.4,0,0.9-0.1,1.3-0.1
		c-0.4,1.7-0.7,3.3-1,4.6c-0.1,0.6-0.3,1.2-0.4,1.8c-0.1,0.6-0.2,1.1-0.3,1.6c-0.1,0.5-0.2,0.9-0.3,1.3c-0.1,0.4-0.1,0.7-0.2,0.9
		c-0.1,0.2-0.1,0.5-0.2,0.9c-0.1,0.3-0.1,0.7-0.1,0.9c0,0.2,0.1,0.4,0.2,0.6c0.1,0.1,0.3,0.2,0.4,0.2c0.2,0,0.4-0.1,0.6-0.3
		c0.2-0.2,0.3-0.4,0.4-0.7c0.1-0.3,0.2-0.5,0.2-0.8c0-0.3,0.1-0.5,0.1-0.6c0.1-0.4,0.2-0.9,0.3-1.4c0.1-0.5,0.2-1,0.3-1.6
		c0.1-0.5,0.2-1.1,0.3-1.7c0.1-0.6,0.2-1.1,0.3-1.7c0.2-1.2,0.5-2.5,0.7-3.9l3.3-0.2c-0.1,0.7-0.3,1.4-0.4,2
		c-0.1,0.6-0.2,1.3-0.4,2.1c-0.1,0.8-0.3,1.6-0.5,2.4c-0.2,0.8-0.3,1.7-0.5,2.5c-0.2,0.8-0.3,1.6-0.5,2.2
		C94.1,118.5,94,118.9,94,118.9z"/>
	<path class="st1" d="M103.4,118.7c-0.3,0.6-0.7,1.2-1.2,1.7c-0.5,0.5-1.1,0.8-1.8,1.1c-0.7,0.3-1.5,0.4-2.3,0.4
		c-0.6,0-1.1-0.2-1.7-0.5c-0.6-0.3-1.1-0.8-1.7-1.5l1.6-3.1c0.1,0.2,0.3,0.4,0.5,0.6c0.2,0.2,0.4,0.4,0.7,0.5
		c0.3,0.1,0.5,0.3,0.8,0.4c0.3,0.1,0.5,0.1,0.7,0.1c0.2,0,0.4,0,0.5-0.1c0.2-0.1,0.4-0.1,0.5-0.3c0.2-0.1,0.3-0.2,0.4-0.4
		c0.1-0.1,0.1-0.3,0.1-0.5c0-0.3-0.1-0.7-0.3-0.9c-0.2-0.3-0.5-0.6-0.8-0.8c-0.3-0.3-0.7-0.5-1.1-0.8c-0.4-0.3-0.7-0.6-1.1-0.8
		c-0.3-0.3-0.6-0.6-0.8-1c-0.2-0.4-0.3-0.8-0.3-1.2c0-0.7,0.2-1.4,0.7-2.1c0.4-0.6,1-1.2,1.7-1.6c0.7-0.5,1.4-0.8,2.2-1.1
		c0.8-0.3,1.5-0.4,2.2-0.4c0.4,0,0.8,0,1.1,0.1c0.3,0.1,0.6,0.2,0.9,0.4c0.3,0.2,0.5,0.5,0.6,0.8c0.2,0.3,0.2,0.7,0.2,1.2
		c0,0.2,0,0.4-0.1,0.6c0,0.2-0.1,0.4-0.1,0.6l-3.1,0.9c0-0.1,0.1-0.2,0.1-0.3c0-0.1,0-0.2,0-0.3c0-0.4-0.1-0.7-0.2-0.9
		c-0.2-0.2-0.3-0.3-0.6-0.3c-0.1,0-0.3,0-0.4,0.1c-0.2,0.1-0.3,0.2-0.5,0.3c-0.2,0.1-0.3,0.3-0.4,0.5c-0.1,0.2-0.2,0.4-0.2,0.6
		c0,0.3,0.1,0.6,0.3,0.8c0.2,0.2,0.4,0.4,0.7,0.6c0.3,0.2,0.6,0.4,0.9,0.6c0.3,0.2,0.6,0.5,0.9,0.8c0.3,0.3,0.5,0.7,0.7,1.2
		c0.2,0.5,0.3,1.1,0.3,1.9C103.9,117.4,103.7,118.1,103.4,118.7z"/>
	<path class="st1" d="M106.5,121.4c-0.4,0-0.8,0.1-1.2,0.1c-0.4,0-0.8,0.1-1.1,0.1c-0.3,0-0.5,0.1-0.5,0.1c0.1-0.6,0.3-1.3,0.4-2
		c0.2-0.7,0.3-1.5,0.5-2.3c0.2-0.8,0.3-1.6,0.5-2.5c0.1-0.8,0.3-1.6,0.4-2.4c0.3-1.8,0.6-3.7,0.9-5.6l3.4-0.5
		c-0.3,1.9-0.7,3.8-1,5.6c-0.1,0.8-0.3,1.6-0.4,2.4c-0.1,0.8-0.3,1.7-0.4,2.5c-0.1,0.8-0.3,1.6-0.4,2.4c-0.1,0.8-0.2,1.5-0.3,2.1
		C107.1,121.4,106.9,121.4,106.5,121.4z"/>
	<path class="st1" d="M115.9,119.3c-0.4,0.6-0.9,1.1-1.3,1.4c-0.5,0.4-0.9,0.7-1.4,0.9c-0.5,0.2-0.9,0.3-1.4,0.3
		c-0.4,0-0.8-0.1-1.2-0.3c-0.4-0.2-0.7-0.5-1-0.9c-0.3-0.4-0.5-0.9-0.7-1.5c-0.2-0.6-0.2-1.3-0.2-2c0-1.3,0.2-2.6,0.6-3.9
		c0.4-1.3,0.9-2.5,1.6-3.5c0.7-1,1.5-1.9,2.4-2.5c0.9-0.6,1.9-0.9,3.1-0.9c0.3,0,0.7,0.1,1,0.2c0.3,0.1,0.6,0.3,0.8,0.6
		c0.2,0.3,0.4,0.6,0.5,0.9c0.1,0.4,0.2,0.8,0.2,1.2c0,0.1,0,0.2,0,0.3c0,0.1,0,0.2,0,0.3l-2.8,0.7c-0.2-0.4-0.4-0.5-0.6-0.5
		c-0.2,0-0.5,0.1-0.7,0.4c-0.3,0.3-0.5,0.6-0.7,1c-0.2,0.4-0.5,0.9-0.7,1.4c-0.2,0.5-0.4,1-0.6,1.6c-0.2,0.5-0.3,1-0.4,1.5
		c-0.1,0.5-0.2,0.9-0.2,1.2c0,0.5,0.1,0.8,0.2,1c0.1,0.2,0.3,0.3,0.5,0.3c0.2,0,0.3-0.1,0.5-0.2c0.2-0.1,0.4-0.3,0.6-0.5
		c0.2-0.2,0.3-0.4,0.5-0.6c0.1-0.2,0.2-0.5,0.3-0.7l2.4,1C116.7,118,116.4,118.7,115.9,119.3z"/>
	<path class="st1" d="M123.5,121.6c-0.4,0.1-0.8,0.1-1.2,0.2c0.1-0.5,0.1-0.9,0.2-1.4c0-0.4,0.1-0.8,0.1-1.2c0-0.4,0.1-0.7,0.1-1
		h-1.9l-0.9,3.1c-0.3,0-0.7,0.1-1.1,0.1c-0.4,0-0.8,0.1-1.2,0.1c-0.5,0.1-0.9,0.1-1.4,0.2c0.6-1.9,1.1-3.7,1.7-5.6
		c0.2-0.8,0.5-1.6,0.7-2.4c0.3-0.8,0.5-1.7,0.8-2.5c0.3-0.8,0.5-1.6,0.7-2.4c0.2-0.8,0.4-1.5,0.6-2.1c1-0.1,2-0.2,3-0.3
		c1-0.1,2-0.2,3-0.4c0,0.5-0.1,1-0.1,1.7c-0.1,0.7-0.1,1.4-0.1,2.2c0,0.8-0.1,1.6-0.1,2.5c0,0.9-0.1,1.7-0.1,2.5
		c-0.1,2-0.2,4-0.2,6.2c-0.4,0.1-0.9,0.1-1.3,0.2C124.4,121.4,124,121.5,123.5,121.6z M121.4,116.1c0.1,0,0.2,0,0.3,0
		c0.2,0,0.3,0,0.5,0c0.2,0,0.3,0,0.5,0c0.1,0,0.2,0,0.3,0c0-0.1,0-0.2,0-0.4c0-0.2,0-0.4,0.1-0.7c0-0.3,0-0.5,0.1-0.9
		c0-0.3,0.1-0.6,0.1-0.9c0.1-0.7,0.1-1.5,0.2-2.3l0.1-1.8l-0.3,0l-0.5,1.8L121.4,116.1z"/>
	<path class="st1" d="M130.6,121.2c-0.5,0-1,0.1-1.5,0.1c-0.5,0.1-1,0.1-1.5,0.2c-0.5,0.1-0.9,0.2-1.3,0.3c0.1-0.6,0.2-1.3,0.3-2.1
		c0.1-0.8,0.2-1.6,0.4-2.4c0.2-0.8,0.3-1.7,0.5-2.5c0.2-0.8,0.3-1.7,0.5-2.4c0.4-1.9,0.7-3.7,1.1-5.7l3.8-0.5
		c-0.4,1.6-0.8,3.2-1.1,4.8c-0.2,0.7-0.3,1.4-0.5,2.1c-0.2,0.7-0.3,1.4-0.5,2.1c-0.1,0.7-0.3,1.3-0.4,2c-0.1,0.6-0.2,1.2-0.3,1.7
		c0.4,0,0.7,0,1.1-0.1c0.4,0,0.8,0,1.1,0c0,0.3,0,0.5,0.1,0.8c0,0.3,0.1,0.5,0.1,0.7c0,0.2,0.1,0.4,0.1,0.6c0,0.2,0,0.3,0.1,0.3
		c-0.1,0-0.2,0-0.3,0c-0.1,0-0.2,0-0.3,0C131.6,121.1,131.1,121.2,130.6,121.2z"/>
	<path class="st1" d="M137.7,121.9l1.6-15.1c0.7,0,1.3-0.1,1.9-0.2c0.6-0.1,1.2-0.2,1.8-0.2c0,0,0,0.2-0.1,0.4
		c0,0.3-0.1,0.6-0.2,1.1c-0.1,0.4-0.2,0.9-0.2,1.5c-0.1,0.6-0.2,1.3-0.4,2.3c-0.2,1-0.4,2.3-0.7,4.1h0.3c0.4-1.3,0.7-2.4,0.9-3.2
		c0.2-0.8,0.4-1.5,0.6-2c0.2-0.5,0.3-1,0.4-1.5c0.1-0.5,0.3-0.9,0.4-1.3c0.1-0.4,0.2-0.8,0.3-1h0.2c0.3,0,0.5,0,0.8,0
		c0.3,0,0.5-0.1,0.8-0.1c0.2,0,0.5-0.1,0.7-0.1c0,0.1-0.1,0.4-0.1,0.8c0,0.4-0.1,0.9-0.1,1.4c-0.1,0.6-0.1,1.2-0.2,1.8
		c-0.1,0.7-0.1,1.3-0.2,2c-0.1,0.6-0.1,1.3-0.2,1.8c-0.1,0.6-0.1,1.1-0.1,1.5h0.4l2-9.1c0.5-0.1,1-0.1,1.4-0.2
		c0.4-0.1,0.8-0.1,1.3-0.2c0.4-0.1,0.8-0.1,1.2-0.2c-0.2,0.6-0.4,1.3-0.6,2c-0.2,0.7-0.4,1.5-0.7,2.3c-0.2,0.8-0.4,1.6-0.7,2.4
		c-0.2,0.8-0.4,1.6-0.6,2.4c-0.5,1.8-0.9,3.7-1.3,5.6l-4.9,0.8l0.9-8.2h-0.3l-2.1,7.7L137.7,121.9z"/>
	<path class="st1" d="M149.8,121.8c0.4-1.9,0.8-3.7,1.1-5.5c0.1-0.8,0.3-1.6,0.4-2.4c0.2-0.8,0.3-1.6,0.4-2.5
		c0.1-0.8,0.3-1.6,0.4-2.4c0.1-0.8,0.2-1.4,0.3-2.1c0.8-0.3,1.7-0.4,2.6-0.6c0.9-0.1,1.9-0.2,2.8-0.2c0.6,0,1,0.1,1.4,0.2
		c0.4,0.1,0.7,0.3,0.9,0.5c0.2,0.2,0.4,0.5,0.4,0.8c0.1,0.3,0.1,0.7,0.1,1c0,0.6-0.1,1.1-0.3,1.7c-0.2,0.5-0.5,1.1-0.8,1.5
		c-0.3,0.5-0.7,0.9-1.2,1.3c-0.4,0.4-0.9,0.7-1.4,1c0.3,0.6,0.5,1.2,0.8,1.9c0.3,0.7,0.6,1.3,0.8,1.9c0.3,0.7,0.6,1.4,0.9,2.1
		l-3.3,1.1c-0.3-0.9-0.5-1.8-0.8-2.5c-0.1-0.3-0.2-0.7-0.3-1c-0.1-0.3-0.2-0.7-0.3-1c-0.1-0.3-0.2-0.6-0.2-0.8
		c-0.1-0.2-0.1-0.4-0.1-0.6l-0.3,0.1c-0.1,0.5-0.2,1-0.3,1.6c-0.1,0.6-0.2,1.2-0.3,1.8c-0.1,0.7-0.3,1.3-0.4,2L149.8,121.8z
		 M154.8,112.6c0.3,0,0.6-0.1,1-0.3c0.4-0.2,0.8-0.4,1.1-0.7c0.4-0.3,0.7-0.6,0.9-0.9c0.3-0.3,0.4-0.6,0.4-0.8
		c0-0.2-0.1-0.3-0.2-0.4c-0.1-0.1-0.2-0.2-0.4-0.2c-0.2,0-0.4-0.1-0.6-0.1c-0.2,0-0.4,0-0.7,0c-0.2,0-0.3,0-0.5,0
		c-0.2,0-0.3,0-0.4,0L154.8,112.6z"/>
	<path class="st1" d="M162.1,121.4c-0.4,0-0.8,0.1-1.2,0.1c-0.4,0-0.8,0.1-1.1,0.1c-0.3,0-0.5,0.1-0.5,0.1c0.1-0.6,0.3-1.3,0.4-2
		c0.2-0.7,0.3-1.5,0.5-2.3c0.2-0.8,0.3-1.6,0.5-2.5c0.1-0.8,0.3-1.6,0.4-2.4c0.3-1.8,0.6-3.7,0.9-5.6l3.4-0.5
		c-0.3,1.9-0.7,3.8-1,5.6c-0.1,0.8-0.3,1.6-0.4,2.4c-0.1,0.8-0.3,1.7-0.4,2.5c-0.1,0.8-0.3,1.6-0.4,2.4c-0.1,0.8-0.2,1.5-0.3,2.1
		C162.7,121.4,162.5,121.4,162.1,121.4z"/>
	<path class="st1" d="M165.5,121.8c0.3-1.6,0.6-3.1,0.9-4.6c0.1-0.6,0.3-1.3,0.4-2c0.1-0.7,0.3-1.4,0.4-2c0.1-0.7,0.2-1.3,0.3-2
		c0.1-0.6,0.2-1.2,0.2-1.7c-0.3,0-0.7-0.1-1,0c-0.3,0-0.7,0-1-0.1c0-0.2,0-0.5,0-0.8c0-0.3,0-0.6,0-0.9c0-0.3,0-0.7,0-1
		c0.4,0,0.7,0,1.1,0.1c0.4,0,0.7,0,1.1,0c0.7,0,1.4,0,2.1-0.1c0.7,0,1.3-0.1,1.9-0.1c0.6,0,1.1-0.1,1.7-0.2l-0.2,1.1
		c-0.1,0.3-0.1,0.7-0.2,1c-0.1,0.3-0.1,0.6-0.2,0.9c-0.3,0.1-0.6,0.1-1,0.2c-0.3,0-0.6,0.1-1,0.1c-0.1,0.5-0.2,1-0.3,1.6
		c-0.1,0.6-0.2,1.2-0.3,1.8c-0.1,0.6-0.2,1.3-0.3,1.9c-0.1,0.7-0.2,1.3-0.3,1.9c-0.2,1.4-0.4,2.8-0.6,4.3L165.5,121.8z"/>
	<path class="st1" d="M174.2,121.4c-0.4,0-0.8,0.1-1.2,0.1c-0.4,0-0.8,0.1-1.1,0.1c-0.3,0-0.5,0.1-0.5,0.1c0.1-0.6,0.3-1.3,0.4-2
		c0.2-0.7,0.3-1.5,0.5-2.3c0.2-0.8,0.3-1.6,0.5-2.5c0.1-0.8,0.3-1.6,0.4-2.4c0.3-1.8,0.6-3.7,0.9-5.6l3.4-0.5
		c-0.3,1.9-0.7,3.8-1,5.6c-0.1,0.8-0.3,1.6-0.4,2.4c-0.1,0.8-0.3,1.7-0.4,2.5c-0.1,0.8-0.3,1.6-0.4,2.4c-0.1,0.8-0.2,1.5-0.3,2.1
		C174.9,121.4,174.6,121.4,174.2,121.4z"/>
	<path class="st1" d="M175.8,121.9c0.4-2,0.8-4,1.2-5.9c0.1-0.8,0.3-1.7,0.5-2.5c0.2-0.9,0.3-1.7,0.5-2.6c0.1-0.9,0.3-1.7,0.4-2.5
		c0.1-0.8,0.2-1.5,0.3-2.1c0.2,0,0.3,0,0.5,0c0.1,0,0.3,0,0.5,0c0.2,0,0.4,0,0.7,0c0.3,0,0.6,0,0.9,0c0.3,0,0.6,0,0.9,0
		c0.2,1,0.4,1.9,0.5,2.9c0.2,0.8,0.3,1.6,0.5,2.5c0.2,0.8,0.3,1.6,0.4,2.2c0.1-0.3,0.1-0.6,0.2-1c0.1-0.4,0.2-0.8,0.2-1.2
		c0.1-0.4,0.2-0.8,0.2-1.2c0.1-0.4,0.2-0.8,0.2-1.2c0.2-0.9,0.4-1.9,0.6-2.8l2.6-0.3c-0.5,2.2-0.9,4.2-1.3,6.2
		c-0.2,0.8-0.3,1.7-0.5,2.5c-0.2,0.9-0.3,1.7-0.5,2.5c-0.1,0.8-0.3,1.5-0.4,2.2c-0.1,0.7-0.2,1.2-0.2,1.7c0,0-0.2,0-0.5,0.1
		c-0.3,0.1-0.6,0.1-1,0.2c-0.4,0.1-0.8,0.2-1.1,0.3c-0.4,0.1-0.7,0.2-0.8,0.2c-0.1-1.1-0.2-2.2-0.3-3.2c0-0.4-0.1-0.9-0.1-1.3
		c-0.1-0.5-0.1-0.9-0.2-1.3c-0.1-0.4-0.1-0.8-0.2-1.2c-0.1-0.4-0.1-0.7-0.2-1c0,0.3-0.1,0.6-0.2,0.9c-0.1,0.4-0.1,0.7-0.2,1.1
		c-0.1,0.4-0.1,0.8-0.2,1.2c-0.1,0.4-0.2,0.8-0.2,1.2c-0.2,0.9-0.4,1.9-0.6,3L175.8,121.9z"/>
	<path class="st1" d="M196.2,117.5c-0.5,1.1-1,2-1.7,2.7c-0.7,0.7-1.4,1.3-2.1,1.6c-0.8,0.4-1.5,0.5-2.2,0.5c-0.5,0-1-0.1-1.5-0.3
		c-0.5-0.2-0.9-0.6-1.2-1c-0.4-0.5-0.6-1-0.8-1.7c-0.2-0.7-0.3-1.5-0.3-2.4c0-1.8,0.3-3.4,0.8-4.8c0.5-1.4,1.2-2.5,2-3.4
		c0.8-0.9,1.7-1.6,2.6-2c0.9-0.4,1.8-0.7,2.6-0.7c0.6,0,1.1,0.1,1.5,0.3c0.4,0.2,0.8,0.5,1,0.8c0.3,0.3,0.5,0.7,0.6,1.2
		c0.1,0.4,0.2,0.9,0.2,1.4l-2.9,0.6c-0.1-0.6-0.3-1-0.5-1.2c-0.2-0.2-0.5-0.4-0.7-0.4c-0.4,0-0.8,0.3-1.2,0.8
		c-0.4,0.5-0.8,1.1-1.2,1.9c-0.4,0.8-0.7,1.7-0.9,2.6c-0.3,0.9-0.4,1.9-0.4,2.8c0,0.9,0.1,1.5,0.4,1.9c0.3,0.4,0.6,0.6,1,0.6
		c0.3,0,0.6-0.1,0.9-0.2c0.3-0.1,0.6-0.3,0.8-0.6c0.2-0.3,0.4-0.6,0.6-0.9c0.2-0.3,0.3-0.7,0.3-1.1l-2.3,0.3l0.4-2.1
		c0.7-0.1,1.3-0.2,2-0.3c0.5-0.1,1.1-0.2,1.7-0.3c0.6-0.1,1.1-0.2,1.6-0.3C197,115.2,196.7,116.4,196.2,117.5z"/>
	<path class="st1" d="M202.2,121.8c0.3-1.6,0.6-3.1,0.9-4.6c0.1-0.6,0.3-1.3,0.4-2c0.1-0.7,0.3-1.4,0.4-2c0.1-0.7,0.2-1.3,0.3-2
		c0.1-0.6,0.2-1.2,0.2-1.7c-0.3,0-0.7-0.1-1,0c-0.3,0-0.7,0-1-0.1c0-0.2,0-0.5,0-0.8c0-0.3,0-0.6,0-0.9c0-0.3,0-0.7,0-1
		c0.4,0,0.7,0,1.1,0.1c0.4,0,0.7,0,1.1,0c0.7,0,1.4,0,2.1-0.1c0.7,0,1.3-0.1,1.9-0.1c0.6,0,1.1-0.1,1.7-0.2l-0.2,1.1
		c-0.1,0.3-0.1,0.7-0.2,1c-0.1,0.3-0.1,0.6-0.2,0.9c-0.3,0.1-0.6,0.1-1,0.2c-0.3,0-0.6,0.1-1,0.1c-0.1,0.5-0.2,1-0.3,1.6
		c-0.1,0.6-0.2,1.2-0.3,1.8c-0.1,0.6-0.2,1.3-0.3,1.9c-0.1,0.7-0.2,1.3-0.3,1.9c-0.2,1.4-0.4,2.8-0.6,4.3L202.2,121.8z"/>
	<path class="st1" d="M208.2,121.8l2.8-15.1l6.8-0.6c-0.1,0.3-0.2,0.6-0.3,1c-0.1,0.3-0.1,0.5-0.2,0.8c-0.1,0.3-0.1,0.5-0.2,0.8
		c-0.1,0-0.3,0-0.6,0c-0.3,0-0.5,0-0.8,0c-0.3,0-0.6,0-0.9,0c-0.3,0-0.6,0-0.8,0l-0.8,3.8c0.4,0,0.9,0,1.2-0.1c0.3,0,0.6,0,1,0
		c0.3,0,0.6,0,0.7,0c-0.1,0.4-0.1,0.8-0.2,1.2c-0.1,0.4-0.1,0.8-0.2,1.2c-0.1,0-0.4,0-0.7,0c-0.3,0-0.6,0-1,0c-0.4,0-0.8,0-1.2,0
		l-0.7,3.9l3.1-0.5l-0.2,2.4L208.2,121.8z"/>
	<path class="st1" d="M222.1,121.6c-0.4,0.1-0.8,0.1-1.2,0.2c0.1-0.5,0.1-0.9,0.2-1.4c0-0.4,0.1-0.8,0.1-1.2c0-0.4,0.1-0.7,0.1-1
		h-1.9l-0.9,3.1c-0.3,0-0.7,0.1-1.1,0.1c-0.4,0-0.8,0.1-1.2,0.1c-0.5,0.1-0.9,0.1-1.4,0.2c0.6-1.9,1.1-3.7,1.7-5.6
		c0.2-0.8,0.5-1.6,0.7-2.4c0.3-0.8,0.5-1.7,0.8-2.5c0.3-0.8,0.5-1.6,0.7-2.4c0.2-0.8,0.4-1.5,0.6-2.1c1-0.1,2-0.2,3-0.3
		c1-0.1,2-0.2,3-0.4c0,0.5-0.1,1-0.1,1.7c-0.1,0.7-0.1,1.4-0.1,2.2c0,0.8-0.1,1.6-0.1,2.5c0,0.9-0.1,1.7-0.1,2.5
		c-0.1,2-0.2,4-0.2,6.2c-0.4,0.1-0.9,0.1-1.3,0.2C222.9,121.4,222.5,121.5,222.1,121.6z M220,116.1c0.1,0,0.2,0,0.3,0
		c0.2,0,0.3,0,0.5,0c0.2,0,0.3,0,0.5,0c0.1,0,0.2,0,0.3,0c0-0.1,0-0.2,0-0.4c0-0.2,0-0.4,0.1-0.7c0-0.3,0-0.5,0.1-0.9
		c0-0.3,0.1-0.6,0.1-0.9c0.1-0.7,0.1-1.5,0.2-2.3l0.1-1.8l-0.3,0l-0.5,1.8L220,116.1z"/>
	<path class="st1" d="M224,121.7c0.6-1.9,1.2-3.7,1.8-5.5c0.2-0.8,0.5-1.6,0.8-2.4c0.3-0.8,0.5-1.7,0.8-2.5c0.3-0.8,0.5-1.6,0.7-2.4
		c0.2-0.8,0.4-1.5,0.6-2.1c0.8,0,1.5,0,2.2-0.1c0.7-0.1,1.5-0.2,2.3-0.2c0,0.3-0.1,0.7-0.1,1.1c-0.1,0.4-0.1,0.8-0.2,1.2
		c-0.1,0.4-0.1,0.9-0.2,1.3c-0.1,0.5-0.2,1-0.3,1.7c-0.1,0.7-0.2,1.6-0.4,2.7h0.3c0.4-1.1,0.8-2,1-2.7c0.3-0.7,0.5-1.3,0.7-1.8
		c0.2-0.5,0.3-0.9,0.5-1.3c0.2-0.4,0.4-0.8,0.5-1.2c0.2-0.4,0.3-0.7,0.5-1c0.4,0,0.7-0.1,1-0.1c0.3,0,0.6-0.1,0.9-0.1
		c0.3,0,0.6-0.1,1-0.1c0.3,0,0.7-0.1,1.1-0.2c-0.1,0.8-0.3,1.7-0.4,2.5c-0.1,0.9-0.2,1.7-0.3,2.6c-0.1,0.9-0.2,1.7-0.3,2.5
		c-0.1,0.8-0.2,1.6-0.2,2.4c-0.2,1.8-0.3,3.5-0.5,5.1l-3.7,0.7c0-0.1,0-0.3,0-0.6c0-0.3,0.1-0.7,0.1-1.1c0-0.5,0.1-1,0.2-1.5
		c0.1-0.6,0.1-1.1,0.2-1.7c0.1-0.6,0.1-1.1,0.2-1.6c0.1-0.5,0.1-1,0.2-1.3h-0.2c-0.2,0.6-0.4,1.2-0.7,1.9c-0.2,0.7-0.5,1.3-0.7,2
		c-0.3,0.7-0.5,1.3-0.7,2c-0.2,0.7-0.5,1.3-0.6,1.9c-0.5,0-0.9,0-1.3,0.1c-0.4,0-0.8,0-1.2,0.1l0.7-7.9h-0.3c0,0.2-0.1,0.5-0.2,0.9
		c-0.1,0.4-0.2,0.9-0.4,1.5c-0.2,0.6-0.3,1.1-0.5,1.7c-0.2,0.6-0.3,1.2-0.5,1.7c-0.2,0.5-0.3,0.9-0.4,1.3c-0.1,0.3-0.2,0.5-0.2,0.6
		L224,121.7z"/>
	<path class="st1" d="M247,118.7c-0.3,0.6-0.7,1.2-1.2,1.7c-0.5,0.5-1.1,0.8-1.8,1.1c-0.7,0.3-1.5,0.4-2.3,0.4
		c-0.6,0-1.1-0.2-1.7-0.5c-0.6-0.3-1.1-0.8-1.7-1.5l1.6-3.1c0.1,0.2,0.3,0.4,0.5,0.6c0.2,0.2,0.4,0.4,0.7,0.5
		c0.3,0.1,0.5,0.3,0.8,0.4c0.3,0.1,0.5,0.1,0.7,0.1c0.2,0,0.4,0,0.5-0.1c0.2-0.1,0.4-0.1,0.5-0.3c0.2-0.1,0.3-0.2,0.4-0.4
		c0.1-0.1,0.1-0.3,0.1-0.5c0-0.3-0.1-0.7-0.3-0.9c-0.2-0.3-0.5-0.6-0.8-0.8c-0.3-0.3-0.7-0.5-1.1-0.8c-0.4-0.3-0.7-0.6-1.1-0.8
		c-0.3-0.3-0.6-0.6-0.8-1c-0.2-0.4-0.3-0.8-0.3-1.2c0-0.7,0.2-1.4,0.7-2.1c0.4-0.6,1-1.2,1.7-1.6c0.7-0.5,1.4-0.8,2.2-1.1
		c0.8-0.3,1.5-0.4,2.2-0.4c0.4,0,0.8,0,1.1,0.1c0.3,0.1,0.6,0.2,0.9,0.4c0.3,0.2,0.5,0.5,0.6,0.8c0.2,0.3,0.2,0.7,0.2,1.2
		c0,0.2,0,0.4-0.1,0.6c0,0.2-0.1,0.4-0.1,0.6l-3.1,0.9c0-0.1,0.1-0.2,0.1-0.3c0-0.1,0-0.2,0-0.3c0-0.4-0.1-0.7-0.2-0.9
		c-0.2-0.2-0.3-0.3-0.6-0.3c-0.1,0-0.3,0-0.4,0.1c-0.2,0.1-0.3,0.2-0.5,0.3c-0.2,0.1-0.3,0.3-0.4,0.5c-0.1,0.2-0.2,0.4-0.2,0.6
		c0,0.3,0.1,0.6,0.3,0.8c0.2,0.2,0.4,0.4,0.7,0.6c0.3,0.2,0.6,0.4,0.9,0.6c0.3,0.2,0.6,0.5,0.9,0.8c0.3,0.3,0.5,0.7,0.7,1.2
		c0.2,0.5,0.3,1.1,0.3,1.9C247.5,117.4,247.3,118.1,247,118.7z"/>
</g>
<g>
	<path class="st1" d="M94.8,75.9c-0.3,1.3-0.8,2.5-1.4,3.8c-0.6,1.3-1.3,2.5-2.2,3.6c-0.9,1.1-1.9,2.2-3,3c-1.1,0.9-2.3,1.6-3.6,2.1
		c-1.3,0.5-2.7,0.8-4.2,0.8c-0.3,0-0.6,0-0.9,0c-0.3,0-0.6-0.1-0.9-0.1c0.6-3,1.2-6,1.8-8.8c0.2-1.2,0.5-2.5,0.7-3.8
		c0.2-1.3,0.5-2.6,0.7-3.9c0.2-1.3,0.4-2.5,0.6-3.6c0.2-1.2,0.4-2.2,0.5-3.1c1-0.2,1.9-0.3,2.9-0.5c1-0.2,2-0.2,3-0.2
		c1.2,0,2.2,0.2,3,0.6c0.8,0.4,1.5,0.9,2,1.5c0.5,0.7,0.9,1.4,1.1,2.3c0.2,0.9,0.4,1.8,0.4,2.8C95.3,73.4,95.1,74.6,94.8,75.9z
		 M86.7,73.4c-0.3,1.2-0.5,2.4-0.8,3.6c-0.3,1.2-0.5,2.5-0.8,3.8c-0.3,1.3-0.5,2.7-0.8,4.3c0.5-0.3,1-0.8,1.5-1.4
		c0.5-0.6,1-1.3,1.4-2.1c0.4-0.8,0.8-1.6,1.2-2.5c0.4-0.9,0.7-1.7,0.9-2.6c0.3-0.8,0.5-1.6,0.6-2.3c0.1-0.7,0.2-1.3,0.2-1.9
		c0-0.8-0.2-1.4-0.7-1.9c-0.5-0.5-1.2-0.7-2.1-0.7C87.2,71,86.9,72.2,86.7,73.4z"/>
	<path class="st1" d="M95.1,88.5l1.5-6.6c0-0.9,0-2,0-3.1c0-1.1-0.1-2.2-0.1-3.3c-0.1-1.1-0.1-2.2-0.2-3.2c-0.1-1-0.1-2-0.2-2.8
		c0-0.8-0.1-1.7-0.2-2.6l5.4-2v4c0,0.5,0,1.1,0,1.7c0,0.6,0,1.1,0,1.7c0,0.5,0,1.1,0,1.5c0,0.5,0,0.9,0,1.2c0.3-0.7,0.6-1.7,1-2.8
		c0.4-1.1,0.8-2.2,1.1-3.2c0.4-1.2,0.9-2.5,1.3-3.8l5.1,1.1c-1,1.9-1.9,3.7-2.8,5.6c-0.4,0.8-0.8,1.6-1.2,2.5
		c-0.4,0.9-0.8,1.7-1.3,2.6c-0.4,0.9-0.8,1.7-1.2,2.5c-0.4,0.8-0.8,1.6-1.1,2.3c-0.1,0.6-0.2,1.2-0.4,1.9c-0.2,0.7-0.3,1.3-0.5,1.9
		c-0.2,0.7-0.4,1.4-0.6,2.2L95.1,88.5z"/>
	<path class="st1" d="M105.5,89.2c0.6-3.1,1.2-6.1,1.8-9c0.2-1.2,0.5-2.5,0.7-3.9c0.3-1.3,0.5-2.7,0.7-4c0.2-1.3,0.4-2.6,0.6-3.8
		c0.2-1.2,0.3-2.3,0.4-3.3c0.7,0,1.3-0.1,2-0.1c0.6,0,1.2-0.1,1.8-0.1c0.6,0,1.1-0.1,1.6-0.1c0.3,1.7,0.5,3.3,0.8,4.8
		c0.1,0.7,0.2,1.3,0.3,2c0.1,0.7,0.2,1.4,0.3,2c0.1,0.7,0.2,1.3,0.3,1.9c0.1,0.6,0.2,1.1,0.3,1.6c0.1-0.5,0.2-1,0.3-1.6
		c0.1-0.6,0.2-1.2,0.4-1.9c0.1-0.7,0.3-1.3,0.4-2c0.1-0.7,0.3-1.4,0.4-2c0.3-1.5,0.7-3.1,1-4.8l4-0.5c-0.8,3.3-1.4,6.4-2,9.3
		c-0.3,1.3-0.5,2.5-0.8,3.8c-0.3,1.3-0.5,2.5-0.7,3.7c-0.2,1.2-0.4,2.3-0.6,3.3c-0.2,1-0.3,1.9-0.4,2.6c-0.1,0-0.3,0-0.8,0.1
		c-0.5,0.1-1,0.2-1.6,0.3c-0.6,0.1-1.2,0.3-1.8,0.4c-0.6,0.1-1,0.3-1.3,0.3c-0.2-1.8-0.3-3.5-0.5-5c-0.1-0.7-0.1-1.4-0.2-2.1
		c-0.1-0.7-0.2-1.4-0.2-2.1c-0.1-0.7-0.2-1.3-0.2-1.9c-0.1-0.6-0.1-1.1-0.2-1.5c-0.1,0.4-0.2,0.9-0.3,1.4c-0.1,0.6-0.2,1.2-0.3,1.8
		c-0.1,0.6-0.2,1.3-0.3,2c-0.1,0.7-0.2,1.4-0.4,2c-0.3,1.6-0.6,3.2-0.9,4.9L105.5,89.2z"/>
	<path class="st1" d="M130.7,88.6c-0.7,0.1-1.3,0.2-1.8,0.3c0.1-0.7,0.2-1.4,0.3-2.1c0.1-0.6,0.1-1.2,0.2-1.8
		c0.1-0.6,0.1-1.1,0.1-1.6h-2.9l-1.3,4.7c-0.5,0.1-1.1,0.1-1.7,0.2c-0.7,0.1-1.3,0.1-1.9,0.2c-0.7,0.1-1.4,0.2-2.1,0.3
		c0.9-2.9,1.8-5.8,2.6-8.6c0.4-1.2,0.7-2.4,1.1-3.7c0.4-1.3,0.8-2.6,1.2-3.9c0.4-1.3,0.8-2.5,1.1-3.7c0.4-1.2,0.7-2.3,0.9-3.2
		c1.5-0.1,3-0.2,4.6-0.4c1.6-0.2,3.1-0.4,4.6-0.6c-0.1,0.7-0.1,1.6-0.2,2.6c-0.1,1-0.1,2.2-0.2,3.4c-0.1,1.2-0.1,2.5-0.2,3.8
		c-0.1,1.3-0.1,2.6-0.2,3.9c-0.1,3-0.2,6.2-0.4,9.6c-0.7,0.1-1.3,0.2-2,0.3C132,88.4,131.4,88.5,130.7,88.6z M127.4,80.1
		c0.1,0,0.2,0,0.5,0c0.2,0,0.5,0,0.7,0c0.3,0,0.5,0,0.7,0c0.2,0,0.4,0,0.5,0c0-0.1,0-0.4,0-0.7c0-0.3,0.1-0.7,0.1-1.1
		c0-0.4,0.1-0.8,0.1-1.3c0-0.5,0.1-1,0.1-1.4c0.1-1.1,0.2-2.3,0.3-3.6l0.2-2.9l-0.5,0l-0.8,2.8L127.4,80.1z"/>
	<path class="st1" d="M133.7,88.8c1-2.9,1.9-5.8,2.8-8.6c0.4-1.2,0.8-2.4,1.2-3.7c0.4-1.3,0.8-2.6,1.2-3.8c0.4-1.3,0.8-2.5,1.1-3.7
		c0.3-1.2,0.6-2.3,0.9-3.3c1.2,0,2.4-0.1,3.5-0.2c1.1-0.1,2.3-0.3,3.5-0.4c-0.1,0.5-0.1,1-0.2,1.6c-0.1,0.6-0.2,1.2-0.3,1.9
		c-0.1,0.7-0.2,1.3-0.3,2c-0.1,0.7-0.2,1.6-0.4,2.7c-0.2,1.1-0.4,2.5-0.6,4.1h0.4c0.6-1.7,1.2-3,1.6-4.1c0.4-1.1,0.8-2,1-2.7
		c0.3-0.7,0.5-1.4,0.8-2c0.3-0.7,0.5-1.3,0.8-1.9c0.3-0.6,0.5-1.1,0.7-1.6c0.6,0,1.1-0.1,1.6-0.2c0.5-0.1,1-0.1,1.5-0.2
		c0.5-0.1,1-0.2,1.5-0.2c0.5-0.1,1-0.2,1.6-0.3c-0.2,1.3-0.4,2.6-0.6,3.9c-0.2,1.3-0.4,2.7-0.5,4c-0.2,1.3-0.3,2.6-0.4,3.9
		c-0.1,1.3-0.3,2.5-0.4,3.7c-0.3,2.7-0.5,5.4-0.7,7.9l-5.8,1c0-0.1,0-0.4,0-0.9c0-0.5,0.1-1.1,0.1-1.8c0.1-0.7,0.1-1.5,0.2-2.3
		c0.1-0.9,0.2-1.7,0.3-2.6c0.1-0.9,0.2-1.7,0.3-2.5c0.1-0.8,0.2-1.5,0.3-2h-0.3c-0.3,0.9-0.7,1.9-1,2.9c-0.4,1-0.8,2-1.1,3.1
		c-0.4,1-0.8,2.1-1.1,3.1c-0.4,1-0.7,2-1,2.9c-0.8,0-1.4,0-2,0.1c-0.6,0-1.2,0.1-1.9,0.1l1.1-12.2h-0.5c0,0.3-0.2,0.8-0.3,1.4
		c-0.2,0.7-0.4,1.4-0.6,2.3c-0.2,0.9-0.5,1.8-0.7,2.7c-0.3,0.9-0.5,1.8-0.7,2.6c-0.2,0.8-0.4,1.5-0.6,2c-0.2,0.5-0.2,0.8-0.3,0.9
		L133.7,88.8z"/>
	<path class="st1" d="M159.3,88.4c-0.6,0.1-1.2,0.1-1.8,0.2c-0.6,0.1-1.2,0.1-1.7,0.2c-0.5,0.1-0.8,0.1-0.8,0.1
		c0.3-0.9,0.5-2,0.8-3.1c0.3-1.1,0.5-2.3,0.8-3.6c0.3-1.3,0.5-2.5,0.8-3.8c0.3-1.3,0.5-2.5,0.7-3.7c0.6-2.8,1.1-5.7,1.6-8.6l5.2-0.8
		c-0.6,2.9-1.2,5.8-1.7,8.6c-0.2,1.2-0.5,2.4-0.7,3.7c-0.3,1.3-0.5,2.6-0.7,3.8c-0.2,1.3-0.5,2.5-0.7,3.7c-0.2,1.2-0.4,2.3-0.6,3.2
		C160.3,88.3,159.9,88.4,159.3,88.4z"/>
	<path class="st1" d="M174.3,85.1c-0.7,0.9-1.3,1.6-2.1,2.2c-0.7,0.6-1.4,1-2.2,1.3c-0.7,0.3-1.4,0.4-2.1,0.4
		c-0.7,0-1.3-0.2-1.9-0.5c-0.6-0.3-1.1-0.8-1.5-1.4c-0.4-0.6-0.8-1.4-1-2.3c-0.3-0.9-0.4-1.9-0.4-3.1c0-2.1,0.3-4.1,0.9-6.1
		c0.6-2,1.4-3.8,2.4-5.4c1-1.6,2.3-2.9,3.7-3.9c1.4-1,3-1.5,4.7-1.5c0.5,0,1,0.1,1.5,0.3c0.5,0.2,0.9,0.5,1.3,0.9
		c0.4,0.4,0.6,0.9,0.8,1.4c0.2,0.6,0.3,1.2,0.3,1.9c0,0.1,0,0.3,0,0.4c0,0.1,0,0.3,0,0.4l-4.3,1.1c-0.3-0.5-0.6-0.8-0.9-0.8
		c-0.4,0-0.7,0.2-1.1,0.6c-0.4,0.4-0.8,0.9-1.1,1.6c-0.4,0.6-0.7,1.4-1.1,2.2c-0.4,0.8-0.7,1.6-0.9,2.4c-0.3,0.8-0.5,1.6-0.6,2.3
		c-0.2,0.7-0.2,1.3-0.2,1.8c0,0.7,0.1,1.2,0.3,1.5c0.2,0.3,0.4,0.4,0.7,0.4c0.2,0,0.5-0.1,0.8-0.3c0.3-0.2,0.6-0.4,0.9-0.7
		c0.3-0.3,0.5-0.6,0.7-1c0.2-0.4,0.4-0.7,0.5-1.1l3.8,1.5C175.5,83.1,174.9,84.2,174.3,85.1z"/>
	<path class="st1" d="M198.5,75.9c-0.3,1.3-0.8,2.5-1.4,3.8c-0.6,1.3-1.3,2.5-2.2,3.6c-0.9,1.1-1.9,2.2-3,3
		c-1.1,0.9-2.3,1.6-3.6,2.1c-1.3,0.5-2.7,0.8-4.2,0.8c-0.3,0-0.6,0-0.9,0c-0.3,0-0.6-0.1-0.9-0.1c0.6-3,1.2-6,1.8-8.8
		c0.2-1.2,0.5-2.5,0.7-3.8c0.2-1.3,0.5-2.6,0.7-3.9c0.2-1.3,0.4-2.5,0.6-3.6c0.2-1.2,0.4-2.2,0.5-3.1c1-0.2,1.9-0.3,2.9-0.5
		c1-0.2,2-0.2,3-0.2c1.2,0,2.2,0.2,3,0.6c0.8,0.4,1.5,0.9,2,1.5c0.5,0.7,0.9,1.4,1.1,2.3c0.2,0.9,0.4,1.8,0.4,2.8
		C199,73.4,198.8,74.6,198.5,75.9z M190.4,73.4c-0.3,1.2-0.5,2.4-0.8,3.6c-0.3,1.2-0.5,2.5-0.8,3.8c-0.3,1.3-0.5,2.7-0.8,4.3
		c0.5-0.3,1-0.8,1.5-1.4c0.5-0.6,1-1.3,1.4-2.1c0.4-0.8,0.8-1.6,1.2-2.5c0.4-0.9,0.7-1.7,0.9-2.6c0.3-0.8,0.5-1.6,0.6-2.3
		c0.1-0.7,0.2-1.3,0.2-1.9c0-0.8-0.2-1.4-0.7-1.9c-0.5-0.5-1.2-0.7-2.1-0.7C190.9,71,190.7,72.2,190.4,73.4z"/>
	<path class="st1" d="M210.1,84.5c0,0-0.3,0.4-0.8,1.3c-0.6,0.9-1.2,1.6-2,2.2c-0.8,0.6-1.6,1-2.4,1.2c-0.9,0.3-1.7,0.4-2.6,0.4
		c-0.5,0-1-0.1-1.6-0.2c-0.5-0.2-1-0.4-1.4-0.7c-0.4-0.3-0.8-0.7-1-1.2c-0.3-0.5-0.4-1.1-0.4-1.8c0-0.1,0-0.2,0-0.3
		c0-0.1,0-0.2,0-0.3c0.1-0.9,0.2-2,0.4-3.2c0.2-1.3,0.4-2.6,0.6-4c0.2-1.4,0.5-2.8,0.7-4.1c0.3-1.4,0.5-2.6,0.7-3.8
		c0.2-1.1,0.4-2.1,0.5-2.8c0.2-0.8,0.3-1.2,0.3-1.4c0.5,0,1-0.1,1.7-0.2c0.6-0.1,1.2-0.1,1.8-0.2c0.7-0.1,1.4-0.1,2-0.2
		c-0.6,2.6-1.1,5-1.5,7.2c-0.2,0.9-0.4,1.8-0.6,2.8c-0.2,0.9-0.4,1.8-0.5,2.5c-0.2,0.8-0.3,1.4-0.4,2c-0.1,0.6-0.2,1-0.3,1.4
		c-0.1,0.3-0.2,0.8-0.3,1.3c-0.1,0.5-0.1,1-0.1,1.5c0,0.3,0.1,0.6,0.3,0.9c0.2,0.2,0.4,0.3,0.7,0.3c0.4,0,0.7-0.1,0.9-0.4
		c0.2-0.3,0.4-0.7,0.6-1.1c0.2-0.4,0.3-0.8,0.4-1.3c0.1-0.4,0.1-0.8,0.2-1c0.1-0.6,0.3-1.3,0.4-2.1c0.2-0.8,0.3-1.6,0.5-2.4
		c0.2-0.8,0.3-1.7,0.5-2.6c0.2-0.9,0.3-1.7,0.5-2.6c0.4-1.9,0.7-3.9,1.1-6l5-0.3c-0.2,1.1-0.4,2.2-0.6,3.1c-0.2,0.9-0.4,2-0.6,3.2
		c-0.2,1.2-0.4,2.5-0.7,3.8c-0.3,1.3-0.5,2.6-0.8,3.8c-0.3,1.3-0.5,2.4-0.7,3.5C210.2,83.8,210.1,84.5,210.1,84.5z"/>
	<path class="st1" d="M228.6,76.3c-0.4,1.6-0.9,3-1.5,4.4c-0.6,1.3-1.4,2.5-2.2,3.5c-0.9,1-1.7,1.9-2.7,2.7
		c-0.9,0.7-1.9,1.3-2.8,1.7c-1,0.4-1.9,0.6-2.7,0.6c-0.7,0-1.4-0.1-2-0.4c-0.6-0.3-1.1-0.7-1.6-1.2c-0.4-0.5-0.8-1.2-1-2.1
		c-0.3-0.8-0.4-1.9-0.4-3c0-1.2,0.2-2.5,0.5-3.9c0.3-1.4,0.7-2.7,1.3-4c0.5-1.3,1.2-2.6,2-3.8c0.8-1.2,1.6-2.3,2.6-3.2
		c0.9-0.9,1.9-1.7,3-2.2c1.1-0.5,2.2-0.8,3.3-0.8c1,0,1.8,0.2,2.5,0.6c0.7,0.4,1.2,0.9,1.5,1.6c0.4,0.6,0.6,1.4,0.8,2.2
		c0.2,0.8,0.2,1.6,0.2,2.4C229.2,73,229,74.7,228.6,76.3z M216.7,82.3c0.1,0.3,0.2,0.5,0.4,0.7c0.2,0.2,0.3,0.4,0.6,0.5
		c0.2,0.1,0.5,0.2,0.7,0.2c1,0,1.9-0.3,2.7-1c0.8-0.7,1.4-1.5,1.9-2.5c0.5-1,0.9-2,1.2-3.1c0.3-1.1,0.4-2.1,0.4-3c0-0.3,0-0.5,0-0.9
		c0-0.3-0.1-0.6-0.2-0.9c-0.1-0.3-0.3-0.5-0.5-0.7c-0.2-0.2-0.5-0.3-0.8-0.3c-0.7,0-1.4,0.2-2,0.5c-0.6,0.3-1.1,0.8-1.6,1.4
		c-0.5,0.6-0.9,1.2-1.2,2c-0.4,0.7-0.7,1.5-0.9,2.2c-0.3,0.8-0.4,1.5-0.5,2.2c-0.1,0.7-0.2,1.3-0.2,1.9
		C216.6,81.8,216.7,82,216.7,82.3z"/>
	<path class="st1" d="M241,84.2c-0.5,1-1.1,1.9-1.9,2.6c-0.8,0.7-1.8,1.3-2.9,1.7c-1.1,0.4-2.3,0.6-3.5,0.6c-0.9,0-1.8-0.2-2.7-0.7
		c-0.9-0.5-1.7-1.2-2.6-2.2l2.5-4.8c0.2,0.3,0.4,0.6,0.7,0.9c0.3,0.3,0.7,0.6,1,0.8c0.4,0.2,0.8,0.4,1.2,0.5c0.4,0.1,0.7,0.2,1,0.2
		c0.3,0,0.5,0,0.8-0.1c0.3-0.1,0.6-0.2,0.8-0.4c0.2-0.2,0.4-0.4,0.6-0.6c0.1-0.2,0.2-0.5,0.2-0.8c0-0.5-0.2-1-0.5-1.5
		c-0.3-0.4-0.8-0.9-1.3-1.3c-0.5-0.4-1.1-0.8-1.7-1.2c-0.6-0.4-1.1-0.9-1.6-1.3c-0.5-0.5-0.9-1-1.3-1.5c-0.4-0.6-0.5-1.2-0.5-1.9
		c0-1.1,0.3-2.2,1-3.2c0.7-1,1.5-1.8,2.6-2.5c1-0.7,2.2-1.3,3.4-1.7c1.2-0.4,2.4-0.6,3.5-0.6c0.6,0,1.2,0.1,1.7,0.2
		c0.5,0.1,1,0.4,1.4,0.7c0.4,0.3,0.7,0.7,0.9,1.2c0.2,0.5,0.3,1.1,0.3,1.8c0,0.3,0,0.6-0.1,0.9c-0.1,0.3-0.1,0.6-0.1,1l-4.8,1.4
		c0-0.2,0.1-0.3,0.1-0.5c0-0.2,0-0.3,0-0.5c0-0.7-0.1-1.1-0.3-1.4c-0.2-0.3-0.5-0.4-0.9-0.4c-0.2,0-0.4,0.1-0.6,0.2
		c-0.3,0.1-0.5,0.3-0.8,0.5c-0.3,0.2-0.5,0.5-0.6,0.7c-0.2,0.3-0.3,0.6-0.3,0.9c0,0.5,0.1,1,0.4,1.3c0.3,0.3,0.7,0.7,1.1,1
		c0.4,0.3,0.9,0.6,1.4,0.9c0.5,0.3,1,0.7,1.4,1.2c0.4,0.5,0.8,1.1,1.1,1.9c0.3,0.8,0.4,1.7,0.4,2.9C241.7,82.1,241.5,83.2,241,84.2z
		"/>
</g>
</svg>
