<?xml version="1.0" encoding="utf-8"?>
<!-- Generator: Adobe Illustrator 21.0.2, SVG Export Plug-In . SVG Version: 6.00 Build 0)  -->
<svg version="1.1" id="Layer_1" xmlns="http://www.w3.org/2000/svg" xmlns:xlink="http://www.w3.org/1999/xlink" x="0px" y="0px"
	 viewBox="0 0 910.4 562" style="enable-background:new 0 0 910.4 562;" xml:space="preserve">
<style type="text/css">
	.st0{fill:#FF0000;}
	.st1{fill:#FFFFFF;stroke:#000000;stroke-width:2;stroke-miterlimit:10;}
</style>
<g>
	<path class="st0" d="M453.6,552.8c-0.7-1.4-1.2-5.7-1.7-9.5c-1.7-13.5-4.5-36.1-19.7-55.3c-3.9-4.9-24.7-29.1-56.9-30.1
		c-0.6,0-1.3,0-1.9,0c-37.1,0-61.5,31.6-68.1,41.3c-6.4,9.5-10.6,19.3-13.3,27.6c0.7-8.1,0.4-17.8-3.2-27.3
		c-7.6-20.1-29.8-37.2-54.1-41.6c-1.9-0.3-4.6-0.7-8-0.7c-17.5,0-43.7,10.7-79.9,32.7c-29.4,17.9-51.4,34.7-66,45.8
		c-6,4.6-11.5,8.7-14.4,10.5c2-2.9,6.5-8.2,11.5-14.1c11-13,27.7-32.7,44.6-57.4c29.3-42.7,56.9-83,45.2-106.6
		c-7.8-15.8-30.3-17.7-75.1-21.4l-4.8-0.4c-13.8-1.2-27.8-1.7-42.6-1.7c-7.4,0-14,0.1-19.6,0.3c14-2,33.2-5.5,53.8-12.6
		c24.3-8.4,74.8-25.9,77.1-55.3c2-25.3-33-46.8-49.8-57.1c-29.5-18.1-59.8-25.2-77.5-28.5c10.3,0.8,24.8,1.7,41.7,1.7
		c12.5,0,24.7-0.5,36.3-1.6c39.8-3.7,80.9-7.5,91-31.1c9.4-21.9-12.6-50.6-40.5-86.8c-17.6-22.9-35.1-40.5-45.6-50.7
		c12.7,10.1,34.9,27.6,62.6,44.6c26.8,16.5,63.4,39,92.5,39c8.3,0,15.7-1.8,22.1-5.4c9.7-5.4,14.9-13.5,18-18.3
		c14.9-23,11.5-50.7,9.9-64c0-0.1,0-0.3-0.1-0.4c0.1,0.3,0.2,0.6,0.2,0.9c3.5,12.9,10.1,36.9,28.7,57c6.9,7.5,23,25,46,25
		c0.3,0,0.5,0,0.8,0c19.3-0.3,33.3-12.7,40-20c18.7-20.5,20.1-49.2,20.8-64.6c0.2-3.5,0.4-7.3,0.8-9.2c0.6,1.8,1.2,5.6,1.8,9.3
		c2.4,15.4,7,44,27.5,63.5c20.1,19.1,46.4,21.1,56.8,21.1c2.4,0,3.9-0.1,4.2-0.1c7.1-0.6,31.6-4,50-23.3
		c17.8-18.7,21.6-44.1,23.6-57.7c0.5-3.6,1.1-7.6,1.8-9.2c0.6,1.7,0.9,6.1,1.2,10c3.2,43.4,15.5,55.5,22.1,62
		c16.2,16,36.4,21.5,47,23.2c4.6,0.8,9,1.2,13.5,1.2c15.9,0,33.3-4.9,58.4-16.3c40.9-18.6,70.9-40.4,87-52.1c3.5-2.5,6.7-4.9,9-6.4
		c-3.1,4-9.6,11.4-16.9,19.5c-12,13.4-28.3,31.7-46.4,53.9c-34.4,42.2-38.7,53.8-35.2,63.8c6.3,18.2,36.1,24,68.8,28.8
		c25.4,3.7,47,3.8,60,3.9c3.4,0,6.8,0,9.2,0.1c-2,0.5-4.6,1-7.3,1.5c-14.2,2.8-40.6,8.1-68.5,21.1c-20.4,9.5-63,29.4-62.3,54.9
		c0.6,22.5,35.3,38.2,54,46.7c21.7,9.8,42.9,14.9,59.7,17.5c-19.8,0.1-38.9,1.3-56.6,3.4c-31.3,3.8-61.3,9.9-68.3,28.5
		c-1.8,4.7-7.2,19.1,47.2,79.1c25.5,28.1,49.8,50.5,64.3,63.8c1.3,1.2,2.6,2.4,3.8,3.5c-17.9-13.3-52.8-37.7-98.7-53.6
		c-6.3-2.2-25.5-8.8-51.1-10.7c-8.6-0.6-17.5-1.2-25.9-1.2c-19.7,0-32.8,3.6-42.3,11.6c-19.8,16.7-18.8,49.1-18.3,68.5
		c0.1,4.9,0.3,10.4-0.2,12.5c-0.8-1.6-1.7-5.4-2.5-8.8c-3.1-12.9-8.2-34.5-24.3-53c-6.4-7.3-29.8-31.3-63.4-31.3
		c-1.6,0-3.3,0.1-5,0.2c-30.5,2.1-49.9,23.1-55.2,29.5c-16,19.5-19.3,42.8-21.2,56.7C454.9,547,454.3,551.4,453.6,552.8z"/>
	<path d="M454.9,18.9c2.6,15.9,7.6,43.3,27.6,62.3c20.4,19.5,47.2,21.6,57.8,21.6c2.4,0,3.9-0.1,4.3-0.1c7.2-0.6,32.2-4,51-23.8
		c17.9-18.9,21.9-44.2,23.9-58.1c0,0.1,0,0.2,0,0.3C622.8,65,635.3,77.3,642,84c16.5,16.3,37.1,21.8,47.8,23.7
		c4.7,0.8,9.2,1.2,13.7,1.2c16.1,0,33.7-4.9,59-16.4c40.5-18.4,70.3-40,86.6-51.8c-2.8,3.1-6,6.7-9.3,10.5
		c-12,13.4-28.4,31.8-46.5,53.9c-16.9,20.7-26.7,34.3-31.8,43.9c-4.7,8.9-5.8,15.1-3.6,21.3c6.5,19,36.9,24.9,70,29.8
		c22.6,3.3,42.2,3.8,55.4,3.9c-15,3.1-38.2,8.6-62.5,20c-20.7,9.7-63.9,29.8-63.2,56.3c0.6,23.4,35.9,39.4,54.9,48l0.1,0
		c16,7.2,31.7,11.9,45.6,14.9c-14.6,0.5-28.8,1.5-42.2,3.2c-31.8,3.9-62.3,10.1-69.6,29.5c-3.2,8.6-1.8,26.3,47.5,80.7
		c19,20.9,37.3,38.7,51.5,51.9c-19.5-13-47-29-80.4-40.6c-6.3-2.2-25.7-8.9-51.5-10.7c-8.6-0.6-17.5-1.3-26-1.3
		c-20.1,0-33.5,3.7-43.3,12c-20.3,17.2-19.4,50-18.8,69.7c0,0.7,0,1.5,0.1,2.3c-3.1-13.1-8.5-34.4-24.4-52.7
		c-6.5-7.5-30.3-31.8-64.5-31.8c-1.7,0-3.4,0.1-5.1,0.2c-31.1,2.2-50.9,23.6-56.2,30c-16.3,19.9-19.6,43.4-21.5,57.5
		c-0.1,0.7-0.2,1.5-0.3,2.2c-0.1-0.7-0.2-1.3-0.2-2c-1.7-13.7-4.5-36.5-20-56c-3.9-4.9-25.2-29.7-58.1-30.7c-0.7,0-1.3,0-2,0
		c-37.8,0-62.7,32.1-69.4,42c-4.4,6.5-7.8,13.1-10.3,19.3c-0.2-6-1.2-12.4-3.6-18.7c-4-10.6-11.7-20.4-22.3-28.2
		c-9.8-7.2-21.5-12.3-33-14.4c-2-0.4-4.7-0.8-8.2-0.8c-17.8,0-44.2,10.8-80.7,32.9c-29.5,17.9-51.5,34.7-66.1,45.9
		c-2,1.5-3.9,3-5.7,4.3c1.5-1.8,3.2-3.8,4.8-5.7c11-13,27.7-32.7,44.7-57.5c14.8-21.6,28.8-42,38-60.3c10.6-21.3,13-36.5,7.3-47.8
		c-4-8-11.8-13-25.4-16.2c-12.3-2.9-29.4-4.3-50.9-6.1l-4.8-0.4C73.9,343.6,59.9,343,45,343c0,0-0.1,0-0.1,0
		c10.5-2.1,22.4-5.1,34.8-9.4c24.6-8.5,75.7-26.2,78.1-56.6c2.1-26.2-33.4-48-50.5-58.5c-20.9-12.8-42.2-20.2-59.2-24.6
		c6.8,0.3,14.4,0.5,22.6,0.5c12.6,0,24.8-0.5,36.4-1.6c40.2-3.7,81.8-7.6,92.2-32c9.7-22.7-12.5-51.7-40.7-88.3
		C148.2,59,137.9,47.4,129,38c12.1,9.1,27.3,20,44.7,30.7c26.9,16.5,63.8,39.2,93.3,39.2c8.6,0,16.3-1.9,22.9-5.6
		c10-5.6,15.5-14.2,18.5-18.8c10.8-16.7,12.2-35.8,11.5-50.2c4.3,12.9,11.7,29.6,24.9,43.9c7,7.6,23.5,25.5,47.1,25.5
		c0.3,0,0.6,0,0.8,0c19.8-0.4,34.2-13,41.1-20.5C452,62.3,454.1,34.9,454.9,18.9 M454.2,5C454.2,5,454.1,5,454.2,5
		c-5.1,0.3,3.9,46-22.6,75.2c-2.7,2.9-17.4,19.1-38.9,19.5c-0.3,0-0.5,0-0.8,0c-22.3,0-38-17.1-44.9-24.5
		c-25.9-28.1-28.4-64.6-31.5-64.6c0,0-0.1,0-0.1,0c-3.3,0.6,10.5,40.2-9.6,71.3c-3,4.6-8.1,12.6-17.5,17.8
		c-6.5,3.6-13.7,5.2-21.4,5.2c-27.9,0-62.2-20.7-91.7-38.8c-43.4-26.7-72.6-53.9-75-53.9c-0.1,0-0.1,0-0.1,0
		c-1.4,1.6,26.7,23.9,56.2,62.2c27.7,36,49.4,64.2,40.3,85.3c-9.7,22.8-50.6,26.6-89.7,30.2c-12.8,1.2-25,1.6-36.1,1.6
		c-27.7,0-48.8-2.6-55.7-2.6c-1.5,0-2.3,0.1-2.4,0.4c-0.3,2.3,47.1,3.5,93,31.7c16.7,10.3,51,31.3,49,55.7
		c-2.2,28.5-52.7,45.9-76.1,54c-40.5,14-75.7,14.1-75.5,15.6c0,0.4,1.4,0.5,3.9,0.5c6.3,0,19.8-0.9,38-0.9c12.3,0,26.7,0.4,42.5,1.7
		c46.7,3.9,71,5.4,78.8,21c11.3,22.9-15.9,62.5-45.1,105.1c-30.3,44.2-59.7,72.2-57.3,74.6c0.1,0.1,0.3,0.2,0.5,0.2
		c4.6,0,33.9-27.6,83.1-57.5c45.3-27.5,67.2-32.5,79.1-32.5c3.2,0,5.7,0.4,7.7,0.7c21.9,4,45,19.4,53,40.7c8.5,22.5-1.8,46.4,0,46.8
		c0,0,0,0,0,0c1.7,0,4.1-24.7,19.1-46.8c5.4-7.9,29.6-40.7,66.9-40.7c0.6,0,1.2,0,1.9,0c32.5,1,53.2,26.3,55.8,29.5
		c22.7,28.7,17.4,65.7,22.6,65.7c0,0,0,0,0,0c5.2,0,0.4-38.3,24.2-67.4c3.1-3.7,22.5-26.7,54.1-29c1.6-0.1,3.3-0.2,4.9-0.2
		c34.4,0,57.8,25.7,62.2,30.8c24,27.6,23.5,62.9,28.1,62.9c0,0,0.1,0,0.1,0c5.9-0.6-8.8-58.2,19.2-81.9c10.6-9,25.3-11.3,41.3-11.3
		c8.4,0,17.1,0.6,25.8,1.2c23.6,1.7,41.4,7.4,50.7,10.6C829,493,872.3,533,875.1,533c0.1,0,0.1,0,0.1,0c1.5-1.9-36.9-32.1-78.9-78.5
		c-52.1-57.4-48.9-72.3-46.9-77.6c6.6-17.6,35.5-23.7,67.1-27.5c23.1-2.8,44.4-3.5,60.5-3.5c14.6,0,25,0.5,28.7,0.5
		c1,0,1.5,0,1.5-0.1c0.1-0.9-45.7,0.8-93.2-20.8c-18.5-8.4-52.6-23.9-53.2-45.4c-0.6-24.5,41.1-44,61.4-53.5
		c42.3-19.7,80.4-21.5,80.1-24.5c-0.3-2.8-31.6,1.2-73.9-5c-29.5-4.4-61.5-9.9-67.7-27.8c-3.2-9.3,0.7-20.4,35-62.4
		c37.1-45.5,67.4-75.2,65.4-77.4c-0.1-0.1-0.2-0.1-0.3-0.1c-4.3,0-40.7,33.5-99.5,60.3c-24.9,11.4-42.1,16.2-57.8,16.2
		c-4.5,0-8.9-0.4-13.2-1.1c-7-1.2-28.9-5.7-46.2-22.8c-27-26.7-18.8-72.8-24.2-73c0,0,0,0,0,0c-5,0-0.6,40.8-26.5,67.9
		c-19,20-44.8,22.5-49,22.8c-0.4,0-1.8,0.1-4,0.1c-10,0-36-2-55.7-20.7C455.4,51.3,459.2,5,454.2,5L454.2,5z"/>
</g>
<g>
	<path class="st1" d="M206.3,353.5c1.8-5.4,3.6-10.8,5.2-16c0.7-2.2,1.4-4.5,2.2-6.9c0.7-2.4,1.5-4.8,2.2-7.2
		c0.7-2.4,1.4-4.7,2.1-6.9c0.6-2.2,1.2-4.2,1.7-6.1c2.3,0,4.4-0.1,6.4-0.4c2-0.2,4.2-0.5,6.6-0.7c-0.1,0.9-0.3,1.9-0.4,3
		c-0.1,1.1-0.3,2.3-0.5,3.5c-0.2,1.2-0.4,2.5-0.6,3.8c-0.2,1.3-0.5,3-0.7,5c-0.3,2-0.7,4.6-1.2,7.7h0.8c1.2-3.1,2.2-5.7,3-7.7
		c0.8-2.1,1.4-3.7,1.9-5.1c0.5-1.3,1-2.6,1.5-3.8c0.5-1.2,1-2.4,1.5-3.6c0.5-1.1,0.9-2.1,1.3-3c1-0.1,2-0.2,2.9-0.3
		c0.9-0.1,1.8-0.3,2.7-0.4c0.9-0.1,1.8-0.3,2.8-0.4c0.9-0.1,2-0.3,3.1-0.5c-0.4,2.4-0.8,4.8-1.2,7.3c-0.4,2.5-0.7,5-1,7.4
		c-0.3,2.5-0.6,4.9-0.8,7.3c-0.3,2.4-0.5,4.7-0.7,6.9c-0.5,5.1-0.9,10-1.3,14.8l-10.8,1.9c0-0.2,0-0.8,0.1-1.7
		c0.1-0.9,0.1-2,0.2-3.3c0.1-1.3,0.2-2.8,0.4-4.3c0.2-1.6,0.4-3.2,0.6-4.8c0.2-1.6,0.4-3.1,0.6-4.6c0.2-1.5,0.4-2.8,0.6-3.8H237
		c-0.6,1.7-1.2,3.5-1.9,5.4c-0.7,1.9-1.4,3.8-2.1,5.8c-0.7,2-1.4,3.9-2.1,5.8c-0.7,1.9-1.3,3.7-1.9,5.4c-1.4,0-2.7,0.1-3.7,0.2
		c-1,0.1-2.2,0.1-3.6,0.2l2-22.7h-0.9c-0.1,0.5-0.3,1.4-0.6,2.7c-0.3,1.2-0.7,2.7-1.1,4.3c-0.4,1.6-0.9,3.3-1.4,5
		c-0.5,1.7-1,3.3-1.4,4.8c-0.4,1.5-0.8,2.7-1.1,3.7c-0.3,1-0.5,1.5-0.5,1.6L206.3,353.5z"/>
	<path class="st1" d="M271.5,345.4c0,0-0.5,0.8-1.6,2.5c-1.1,1.6-2.3,3-3.7,4c-1.4,1.1-2.9,1.8-4.6,2.3c-1.6,0.5-3.2,0.7-4.8,0.7
		c-1,0-1.9-0.2-2.9-0.5c-1-0.3-1.9-0.8-2.7-1.4c-0.8-0.6-1.4-1.4-2-2.3c-0.5-0.9-0.8-2-0.8-3.3c0-0.2,0-0.3,0-0.5
		c0-0.2,0-0.3,0.1-0.5c0.2-1.7,0.4-3.7,0.8-6.1c0.4-2.4,0.8-4.8,1.2-7.4c0.4-2.6,0.9-5.2,1.4-7.7c0.5-2.6,0.9-5,1.3-7.1
		c0.4-2.1,0.7-3.9,1-5.3c0.3-1.4,0.5-2.3,0.6-2.6c0.9-0.1,1.9-0.2,3.1-0.3c1.2-0.1,2.3-0.2,3.3-0.3c1.3-0.1,2.5-0.2,3.8-0.4
		c-1.1,4.9-2,9.4-2.9,13.4c-0.4,1.7-0.7,3.4-1.1,5.1c-0.4,1.7-0.7,3.3-1,4.7c-0.3,1.4-0.6,2.7-0.8,3.7c-0.2,1-0.4,1.9-0.6,2.5
		c-0.1,0.7-0.3,1.5-0.5,2.5c-0.2,1-0.3,1.9-0.3,2.7c0,0.7,0.2,1.2,0.5,1.6c0.3,0.4,0.7,0.6,1.2,0.6c0.7,0,1.3-0.3,1.7-0.8
		c0.5-0.6,0.8-1.2,1.1-2c0.3-0.8,0.5-1.6,0.7-2.4c0.1-0.8,0.3-1.4,0.4-1.9c0.2-1.2,0.5-2.5,0.8-4c0.3-1.4,0.6-3,0.9-4.5
		c0.3-1.6,0.6-3.2,0.9-4.8c0.3-1.6,0.6-3.2,0.9-4.8c0.7-3.6,1.4-7.3,2-11.1l9.4-0.6c-0.4,2.1-0.8,4.1-1.1,5.8
		c-0.3,1.8-0.7,3.8-1.1,6c-0.4,2.2-0.8,4.6-1.3,7c-0.5,2.4-1,4.8-1.5,7.2c-0.5,2.3-0.9,4.5-1.4,6.5
		C271.8,344.3,271.5,345.4,271.5,345.4z"/>
	<path class="st1" d="M298.7,345c-0.9,1.9-2.1,3.5-3.6,4.8c-1.5,1.3-3.3,2.4-5.3,3.1c-2,0.7-4.2,1.1-6.6,1.1c-1.7,0-3.3-0.4-5-1.3
		c-1.7-0.9-3.2-2.3-4.8-4.2l4.6-8.9c0.3,0.5,0.7,1.1,1.3,1.6c0.6,0.6,1.2,1,2,1.4c0.7,0.4,1.4,0.7,2.2,1c0.7,0.3,1.4,0.4,2,0.4
		c0.5,0,1-0.1,1.6-0.2c0.5-0.2,1-0.4,1.5-0.7c0.5-0.3,0.8-0.7,1.1-1.1c0.3-0.4,0.4-0.9,0.4-1.5c0-1-0.3-1.9-1-2.7
		c-0.6-0.8-1.4-1.6-2.4-2.4c-1-0.8-2-1.5-3.1-2.3c-1.1-0.8-2.1-1.6-3.1-2.5c-0.9-0.9-1.7-1.8-2.4-2.9c-0.7-1.1-1-2.2-1-3.6
		c0-2.1,0.6-4.1,1.9-5.9c1.3-1.8,2.9-3.4,4.8-4.7c1.9-1.3,4-2.4,6.3-3.2c2.3-0.8,4.4-1.2,6.4-1.2c1.1,0,2.2,0.1,3.2,0.4
		c1,0.3,1.8,0.7,2.6,1.3c0.7,0.6,1.3,1.3,1.7,2.2c0.4,0.9,0.7,2,0.7,3.4c0,0.6-0.1,1.1-0.2,1.7c-0.1,0.6-0.2,1.2-0.3,1.8l-9,2.6
		c0.1-0.3,0.2-0.7,0.2-1c0.1-0.3,0.1-0.7,0.1-1c0-1.2-0.2-2.1-0.7-2.7c-0.4-0.6-1-0.8-1.7-0.8c-0.3,0-0.7,0.1-1.2,0.4
		c-0.5,0.2-1,0.6-1.4,0.9c-0.5,0.4-0.9,0.8-1.2,1.4c-0.3,0.5-0.5,1.1-0.5,1.7c0,1,0.3,1.8,0.8,2.5c0.6,0.7,1.2,1.3,2.1,1.8
		c0.8,0.6,1.7,1.2,2.7,1.7c1,0.6,1.9,1.4,2.7,2.3c0.8,0.9,1.5,2.1,2.1,3.5c0.6,1.4,0.8,3.2,0.8,5.4C300,341,299.6,343.1,298.7,345z"
		/>
	<path class="st1" d="M307.6,352.8c-1.1,0.1-2.2,0.2-3.4,0.4c-1.2,0.1-2.2,0.3-3.1,0.4c-0.9,0.1-1.4,0.2-1.5,0.2
		c0.4-1.8,0.8-3.7,1.3-5.9c0.4-2.1,0.9-4.4,1.3-6.7c0.5-2.3,0.9-4.7,1.3-7.1c0.4-2.4,0.8-4.7,1.2-7c0.9-5.2,1.7-10.6,2.6-16.1
		l9.7-1.5c-1,5.5-1.9,10.8-2.8,16.1c-0.4,2.2-0.8,4.6-1.1,7c-0.4,2.4-0.8,4.8-1.2,7.2c-0.4,2.4-0.8,4.7-1.1,6.9
		c-0.3,2.2-0.6,4.2-0.9,6C309.4,352.6,308.6,352.7,307.6,352.8z"/>
	<path class="st1" d="M334.9,346.5c-1.2,1.7-2.5,3-3.8,4.2c-1.3,1.1-2.7,2-4.1,2.5c-1.4,0.5-2.7,0.8-4,0.8c-1.3,0-2.4-0.3-3.5-0.9
		c-1.1-0.6-2-1.4-2.8-2.6c-0.8-1.1-1.4-2.6-1.9-4.2c-0.5-1.7-0.7-3.6-0.7-5.9c0-3.8,0.5-7.6,1.6-11.4c1.1-3.7,2.6-7.1,4.5-10.1
		c1.9-3,4.2-5.4,6.9-7.2c2.7-1.8,5.6-2.7,8.8-2.7c1,0,1.9,0.2,2.9,0.6c0.9,0.4,1.7,1,2.4,1.7c0.7,0.7,1.2,1.6,1.6,2.7
		c0.4,1.1,0.6,2.2,0.6,3.6c0,0.2,0,0.5,0,0.8c0,0.3,0,0.5-0.1,0.8l-8.1,2.1c-0.5-1-1.1-1.5-1.7-1.5c-0.7,0-1.4,0.4-2.1,1.1
		c-0.7,0.8-1.4,1.7-2.1,2.9c-0.7,1.2-1.4,2.6-2,4c-0.7,1.5-1.2,3-1.7,4.5c-0.5,1.5-0.9,3-1.2,4.3c-0.3,1.4-0.5,2.5-0.5,3.3
		c0,1.3,0.2,2.2,0.5,2.8c0.4,0.5,0.8,0.8,1.4,0.8c0.5,0,1-0.2,1.6-0.5c0.6-0.3,1.1-0.8,1.6-1.3c0.5-0.6,1-1.2,1.4-1.9
		c0.4-0.7,0.7-1.4,0.9-2.1l7.1,2.8C337.2,342.9,336.1,344.9,334.9,346.5z"/>
	<path class="st1" d="M356.8,353.2c-1.2,0.2-2.4,0.4-3.3,0.6c0.2-1.3,0.3-2.7,0.5-4c0.1-1.1,0.2-2.3,0.3-3.4
		c0.1-1.1,0.2-2.1,0.3-2.9h-5.4l-2.5,8.8c-0.9,0.1-2,0.3-3.2,0.4c-1.2,0.1-2.4,0.3-3.5,0.4c-1.3,0.2-2.6,0.3-3.9,0.5
		c1.7-5.4,3.3-10.8,4.9-16c0.7-2.2,1.4-4.5,2.1-6.9c0.7-2.4,1.4-4.8,2.2-7.2c0.7-2.4,1.4-4.7,2.1-6.9c0.7-2.2,1.2-4.2,1.7-6.1
		c2.8-0.2,5.7-0.4,8.6-0.7c2.9-0.3,5.8-0.7,8.5-1.2c-0.1,1.3-0.3,2.9-0.4,4.9c-0.1,1.9-0.3,4.1-0.4,6.3c-0.1,2.3-0.2,4.7-0.4,7.2
		c-0.1,2.5-0.2,4.9-0.4,7.4c-0.2,5.6-0.4,11.6-0.7,17.9c-1.2,0.2-2.5,0.4-3.7,0.5C359.2,352.8,358.1,353,356.8,353.2z M350.7,337.3
		c0.2,0,0.5,0,0.9,0c0.4,0,0.9,0,1.4-0.1c0.5,0,0.9,0,1.3-0.1c0.4,0,0.7-0.1,0.9-0.1c0-0.2,0-0.7,0.1-1.3c0.1-0.6,0.1-1.3,0.2-2
		c0.1-0.8,0.1-1.6,0.2-2.5c0.1-0.9,0.2-1.8,0.2-2.6c0.2-2.1,0.4-4.3,0.6-6.7l0.4-5.3l-0.9,0.1l-1.4,5.3L350.7,337.3z"/>
	<path class="st1" d="M377.3,352c-1.4,0.1-2.9,0.2-4.3,0.4c-1.4,0.2-2.9,0.4-4.2,0.6c-1.4,0.3-2.6,0.6-3.8,0.9
		c0.2-1.8,0.5-3.9,0.9-6.1c0.3-2.2,0.7-4.6,1.1-7c0.4-2.4,0.9-4.8,1.3-7.3c0.4-2.5,0.9-4.8,1.3-7c1-5.3,2.1-10.8,3.3-16.4l10.9-1.4
		c-1.1,4.7-2.2,9.4-3.2,13.8c-0.5,1.9-0.9,3.9-1.4,6c-0.5,2.1-0.9,4.1-1.3,6c-0.4,2-0.8,3.9-1.1,5.7c-0.3,1.8-0.6,3.5-0.8,4.9
		c1-0.1,2.1-0.1,3.3-0.2c1.2,0,2.2,0,3.1,0c0,0.8,0.1,1.5,0.2,2.3c0.1,0.8,0.2,1.4,0.3,2.1c0.1,0.6,0.2,1.2,0.2,1.6
		c0.1,0.5,0.1,0.8,0.2,0.9c-0.3,0-0.7,0-1,0c-0.3,0-0.6,0-1,0C380.1,351.9,378.7,351.9,377.3,352z"/>
	<path class="st1" d="M397.6,354.1l4.7-43.5c1.9-0.1,3.8-0.3,5.5-0.6c1.7-0.3,3.4-0.5,5.1-0.6c0,0-0.1,0.5-0.2,1.3
		c-0.1,0.8-0.3,1.8-0.5,3.1c-0.2,1.3-0.4,2.7-0.7,4.3c-0.2,1.6-0.6,3.8-1.1,6.6c-0.5,2.8-1.1,6.7-1.9,11.7h0.9
		c1.1-3.8,2-6.8,2.7-9.2c0.7-2.4,1.3-4.3,1.7-5.8c0.4-1.5,0.8-2.9,1.2-4.3c0.4-1.4,0.8-2.7,1.1-3.9c0.4-1.2,0.6-2.2,0.8-3h0.6
		c0.7,0,1.5,0,2.3-0.1c0.8-0.1,1.5-0.2,2.2-0.3c0.7-0.1,1.4-0.2,2.1-0.4c-0.1,0.4-0.2,1.1-0.3,2.3c-0.1,1.1-0.2,2.5-0.4,4.1
		c-0.2,1.6-0.3,3.4-0.5,5.3c-0.2,1.9-0.3,3.8-0.5,5.7c-0.2,1.9-0.3,3.6-0.5,5.3c-0.1,1.7-0.3,3.1-0.4,4.3h1.1l5.9-26.3
		c1.4-0.2,2.8-0.4,4.2-0.6c1.2-0.2,2.4-0.3,3.7-0.5c1.3-0.2,2.4-0.3,3.4-0.6c-0.6,1.7-1.2,3.6-1.9,5.7c-0.6,2.1-1.3,4.3-1.9,6.6
		c-0.7,2.3-1.3,4.7-1.9,7c-0.6,2.4-1.2,4.7-1.8,6.9c-1.3,5.2-2.6,10.6-3.8,16.1l-14,2.3l2.7-23.6h-0.7l-6.1,22.2L397.6,354.1z"/>
	<path class="st1" d="M432.6,353.9c1.1-5.4,2.2-10.7,3.2-15.9c0.4-2.2,0.8-4.5,1.2-6.9c0.5-2.4,0.9-4.8,1.3-7.1
		c0.4-2.3,0.8-4.6,1.1-6.8c0.4-2.2,0.6-4.2,0.8-6c2.4-0.7,4.9-1.3,7.6-1.6c2.7-0.3,5.4-0.5,8.1-0.5c1.6,0,2.9,0.2,4,0.6
		c1.1,0.4,1.9,0.9,2.5,1.6c0.6,0.7,1,1.5,1.3,2.4c0.2,0.9,0.4,1.9,0.4,3c0,1.6-0.3,3.2-0.9,4.8c-0.6,1.6-1.4,3.1-2.3,4.5
		c-1,1.4-2.1,2.7-3.3,3.9c-1.3,1.2-2.6,2.1-4.1,2.8c0.7,1.6,1.5,3.4,2.4,5.4c0.8,1.9,1.6,3.8,2.4,5.5c0.8,2,1.7,4.1,2.5,6.1
		l-9.6,3.3c-0.8-2.6-1.6-5.1-2.2-7.4c-0.3-0.9-0.6-1.9-0.9-2.9c-0.3-1-0.6-1.9-0.8-2.8c-0.2-0.9-0.5-1.7-0.6-2.4
		c-0.2-0.7-0.3-1.3-0.3-1.7l-0.8,0.2c-0.2,1.3-0.5,2.8-0.9,4.6c-0.4,1.8-0.7,3.5-1,5.1c-0.4,1.9-0.7,3.9-1.1,5.8L432.6,353.9z
		 M447.2,327.3c0.8-0.1,1.7-0.4,2.9-1c1.1-0.6,2.2-1.3,3.3-2.1c1-0.8,1.9-1.6,2.7-2.5c0.7-0.9,1.1-1.6,1.1-2.3
		c0-0.4-0.1-0.8-0.4-1.1c-0.3-0.3-0.7-0.5-1.2-0.6c-0.5-0.1-1.1-0.2-1.7-0.3c-0.6,0-1.3-0.1-1.9-0.1c-0.5,0-0.9,0-1.4,0
		c-0.5,0-0.9,0-1.3,0L447.2,327.3z"/>
	<path class="st1" d="M468.2,352.8c-1.1,0.1-2.2,0.2-3.4,0.4c-1.2,0.1-2.2,0.3-3.1,0.4c-0.9,0.1-1.4,0.2-1.5,0.2
		c0.4-1.8,0.8-3.7,1.3-5.9c0.4-2.1,0.9-4.4,1.3-6.7c0.5-2.3,0.9-4.7,1.3-7.1c0.4-2.4,0.8-4.7,1.2-7c0.9-5.2,1.7-10.6,2.6-16.1
		l9.7-1.5c-1,5.5-1.9,10.8-2.8,16.1c-0.4,2.2-0.8,4.6-1.1,7c-0.4,2.4-0.8,4.8-1.2,7.2c-0.4,2.4-0.8,4.7-1.1,6.9
		c-0.3,2.2-0.6,4.2-0.9,6C470.1,352.6,469.3,352.7,468.2,352.8z"/>
	<path class="st1" d="M478,353.9c1-4.5,1.9-8.9,2.7-13.3c0.4-1.8,0.7-3.8,1.1-5.8c0.4-2,0.7-4,1.1-5.9c0.4-1.9,0.7-3.8,0.9-5.6
		c0.3-1.8,0.5-3.5,0.7-5c-1-0.1-1.9-0.2-2.9-0.1c-1,0-1.9-0.1-2.9-0.4c0-0.7,0.1-1.4,0.1-2.3s0-1.7,0.1-2.6c0-0.9,0.1-1.9,0.1-3
		c1.1,0.1,2.1,0.1,3.2,0.2c1.1,0,2.1,0.1,3.2,0.1c2.1,0,4.1-0.1,6.1-0.2c2-0.1,3.8-0.2,5.5-0.4c1.7-0.1,3.3-0.3,4.9-0.5l-0.7,3.3
		c-0.2,0.9-0.4,1.9-0.6,2.9c-0.2,1-0.4,1.8-0.5,2.5c-0.9,0.2-1.8,0.4-2.8,0.5c-0.9,0.1-1.9,0.2-2.8,0.4c-0.3,1.4-0.6,2.9-0.9,4.6
		c-0.3,1.7-0.7,3.5-1,5.3c-0.3,1.8-0.6,3.7-0.9,5.5c-0.3,1.9-0.6,3.7-0.9,5.4c-0.7,4-1.3,8.2-1.9,12.6L478,353.9z"/>
	<path class="st1" d="M503.2,352.8c-1.1,0.1-2.2,0.2-3.4,0.4c-1.2,0.1-2.2,0.3-3.1,0.4c-0.9,0.1-1.4,0.2-1.5,0.2
		c0.4-1.8,0.8-3.7,1.3-5.9c0.4-2.1,0.9-4.4,1.3-6.7c0.5-2.3,0.9-4.7,1.3-7.1c0.4-2.4,0.8-4.7,1.2-7c0.9-5.2,1.7-10.6,2.6-16.1
		l9.7-1.5c-1,5.5-1.9,10.8-2.8,16.1c-0.4,2.2-0.8,4.6-1.1,7c-0.4,2.4-0.8,4.8-1.2,7.2c-0.4,2.4-0.8,4.7-1.1,6.9
		c-0.3,2.2-0.6,4.2-0.9,6C505,352.6,504.3,352.7,503.2,352.8z"/>
	<path class="st1" d="M507.7,354.2c1.2-5.9,2.4-11.6,3.5-17.1c0.4-2.4,0.9-4.8,1.3-7.4c0.5-2.5,0.9-5,1.3-7.5
		c0.4-2.5,0.8-4.8,1.1-7.1c0.3-2.3,0.6-4.3,0.7-6.2c0.5,0,1,0.1,1.4,0.1c0.4,0,0.8,0,1.3,0c0.6,0,1.3,0,2.1,0c0.8,0,1.7-0.1,2.5-0.1
		c0.8,0,1.7-0.1,2.7-0.1c0.6,2.9,1.1,5.6,1.6,8.3c0.5,2.3,0.9,4.7,1.4,7.2c0.5,2.5,0.9,4.5,1.3,6.2c0.2-0.8,0.4-1.8,0.6-2.8
		c0.2-1.1,0.4-2.2,0.7-3.4c0.2-1.2,0.5-2.4,0.7-3.6c0.2-1.2,0.5-2.4,0.7-3.6c0.6-2.7,1.2-5.4,1.8-8.2l7.6-0.9
		c-1.4,6.2-2.6,12.2-3.7,17.8c-0.5,2.4-1,4.9-1.5,7.3c-0.5,2.5-0.9,4.8-1.3,7.1c-0.4,2.3-0.8,4.4-1.1,6.3c-0.3,1.9-0.5,3.6-0.7,4.9
		c-0.1,0-0.6,0.1-1.5,0.3c-0.8,0.2-1.8,0.4-2.9,0.6c-1.1,0.2-2.2,0.5-3.3,0.7c-1.1,0.2-1.9,0.5-2.4,0.7c-0.2-3.3-0.5-6.4-0.8-9.3
		c-0.1-1.3-0.3-2.6-0.4-3.9c-0.1-1.3-0.3-2.6-0.5-3.8c-0.2-1.2-0.3-2.4-0.5-3.4c-0.2-1.1-0.3-2-0.5-2.8c-0.1,0.8-0.3,1.7-0.5,2.7
		c-0.2,1-0.4,2.1-0.6,3.2c-0.2,1.1-0.4,2.3-0.6,3.6c-0.2,1.2-0.4,2.4-0.7,3.6c-0.5,2.7-1.1,5.6-1.7,8.6L507.7,354.2z"/>
	<path class="st1" d="M566.7,341.4c-1.4,3.1-3,5.7-4.9,7.7c-1.9,2.1-4,3.6-6.2,4.7c-2.2,1-4.3,1.5-6.3,1.5c-1.5,0-3-0.3-4.4-1
		c-1.4-0.7-2.6-1.6-3.6-3c-1-1.3-1.8-3-2.4-5c-0.6-2-0.9-4.3-0.9-7c0-5.3,0.8-9.9,2.3-13.8c1.5-3.9,3.5-7.2,5.8-9.8
		c2.3-2.6,4.8-4.6,7.5-5.8c2.7-1.3,5.2-1.9,7.5-1.9c1.7,0,3.1,0.3,4.3,0.9c1.2,0.6,2.2,1.3,3,2.3c0.8,1,1.4,2.1,1.7,3.4
		c0.4,1.3,0.5,2.6,0.5,4.1l-8.5,1.6c-0.4-1.6-0.9-2.8-1.5-3.5c-0.6-0.7-1.3-1-2.1-1c-1,0-2.2,0.7-3.4,2.2c-1.2,1.5-2.4,3.3-3.5,5.6
		c-1.1,2.3-2,4.8-2.7,7.5c-0.7,2.7-1.2,5.4-1.2,8.1c0,2.5,0.4,4.3,1.1,5.4c0.8,1.1,1.7,1.6,2.9,1.6c0.8,0,1.7-0.2,2.6-0.6
		c0.9-0.4,1.7-1,2.4-1.7c0.7-0.8,1.3-1.6,1.8-2.6c0.5-1,0.7-2.1,0.8-3.3l-6.6,1l1.2-6.1c1.9-0.2,3.8-0.5,5.7-0.7
		c1.6-0.2,3.2-0.4,5-0.7c1.8-0.3,3.3-0.6,4.6-0.8C568.9,334.7,568,338.3,566.7,341.4z"/>
	<path class="st1" d="M584,353.9c1-4.5,1.9-8.9,2.7-13.3c0.4-1.8,0.7-3.8,1.1-5.8c0.4-2,0.7-4,1.1-5.9c0.4-1.9,0.7-3.8,0.9-5.6
		c0.3-1.8,0.5-3.5,0.7-5c-1-0.1-1.9-0.2-2.9-0.1c-1,0-1.9-0.1-2.9-0.4c0-0.7,0.1-1.4,0.1-2.3s0-1.7,0.1-2.6c0-0.9,0.1-1.9,0.1-3
		c1.1,0.1,2.1,0.1,3.2,0.2c1.1,0,2.1,0.1,3.2,0.1c2.1,0,4.1-0.1,6.1-0.2c2-0.1,3.8-0.2,5.5-0.4c1.7-0.1,3.3-0.3,4.9-0.5l-0.7,3.3
		c-0.2,0.9-0.4,1.9-0.6,2.9c-0.2,1-0.4,1.8-0.5,2.5c-0.9,0.2-1.8,0.4-2.8,0.5c-0.9,0.1-1.9,0.2-2.8,0.4c-0.3,1.4-0.6,2.9-0.9,4.6
		c-0.3,1.7-0.7,3.5-1,5.3c-0.3,1.8-0.6,3.7-0.9,5.5c-0.3,1.9-0.6,3.7-0.9,5.4c-0.7,4-1.3,8.2-1.9,12.6L584,353.9z"/>
	<path class="st1" d="M601.4,353.9l8.1-43.6l19.6-1.7c-0.3,0.9-0.5,1.8-0.7,2.8c-0.2,0.8-0.4,1.6-0.6,2.4c-0.2,0.8-0.3,1.6-0.5,2.2
		c-0.4,0-1,0.1-1.8,0.1c-0.8,0-1.6,0-2.4,0.1c-0.9,0-1.7,0-2.6,0c-0.9,0-1.7,0-2.3,0l-2.2,11c1.3-0.1,2.5-0.1,3.6-0.2
		c0.9,0,1.8-0.1,2.8-0.1c1,0,1.7,0,2.1-0.1c-0.2,1.1-0.3,2.3-0.5,3.4c-0.1,1.1-0.3,2.2-0.5,3.4c-0.4,0-1.1,0.1-2,0.1
		c-0.9,0-1.9,0.1-2.8,0.1c-1.1,0-2.3,0.1-3.5,0.1l-2.1,11.3l9.1-1.4l-0.6,7L601.4,353.9z"/>
	<path class="st1" d="M641.5,353.2c-1.2,0.2-2.4,0.4-3.3,0.6c0.2-1.3,0.3-2.7,0.5-4c0.1-1.1,0.2-2.3,0.3-3.4
		c0.1-1.1,0.2-2.1,0.3-2.9h-5.4l-2.5,8.8c-0.9,0.1-2,0.3-3.2,0.4c-1.2,0.1-2.4,0.3-3.5,0.4c-1.3,0.2-2.6,0.3-3.9,0.5
		c1.7-5.4,3.3-10.8,4.9-16c0.7-2.2,1.4-4.5,2.1-6.9c0.7-2.4,1.4-4.8,2.2-7.2c0.7-2.4,1.4-4.7,2.1-6.9c0.7-2.2,1.2-4.2,1.7-6.1
		c2.8-0.2,5.7-0.4,8.6-0.7c2.9-0.3,5.8-0.7,8.5-1.2c-0.1,1.3-0.3,2.9-0.4,4.9c-0.1,1.9-0.3,4.1-0.4,6.3c-0.1,2.3-0.2,4.7-0.4,7.2
		c-0.1,2.5-0.2,4.9-0.4,7.4c-0.2,5.6-0.4,11.6-0.7,17.9c-1.2,0.2-2.5,0.4-3.7,0.5C643.8,352.8,642.7,353,641.5,353.2z M635.3,337.3
		c0.2,0,0.5,0,0.9,0c0.4,0,0.9,0,1.4-0.1c0.5,0,0.9,0,1.3-0.1c0.4,0,0.7-0.1,0.9-0.1c0-0.2,0-0.7,0.1-1.3c0.1-0.6,0.1-1.3,0.2-2
		c0.1-0.8,0.1-1.6,0.2-2.5c0.1-0.9,0.2-1.8,0.2-2.6c0.2-2.1,0.4-4.3,0.6-6.7l0.4-5.3l-0.9,0.1l-1.4,5.3L635.3,337.3z"/>
	<path class="st1" d="M647,353.5c1.8-5.4,3.6-10.8,5.2-16c0.7-2.2,1.4-4.5,2.2-6.9c0.7-2.4,1.5-4.8,2.2-7.2c0.7-2.4,1.4-4.7,2.1-6.9
		c0.6-2.2,1.2-4.2,1.7-6.1c2.3,0,4.4-0.1,6.4-0.4c2-0.2,4.2-0.5,6.6-0.7c-0.1,0.9-0.3,1.9-0.4,3c-0.1,1.1-0.3,2.3-0.5,3.5
		c-0.2,1.2-0.4,2.5-0.6,3.8c-0.2,1.3-0.5,3-0.7,5c-0.3,2-0.7,4.6-1.2,7.7h0.8c1.2-3.1,2.2-5.7,3-7.7c0.8-2.1,1.4-3.7,1.9-5.1
		c0.5-1.3,1-2.6,1.5-3.8c0.5-1.2,1-2.4,1.5-3.6c0.5-1.1,0.9-2.1,1.3-3c1-0.1,2-0.2,2.9-0.3c0.9-0.1,1.8-0.3,2.7-0.4
		c0.9-0.1,1.8-0.3,2.8-0.4c0.9-0.1,2-0.3,3.1-0.5c-0.4,2.4-0.8,4.8-1.2,7.3c-0.4,2.5-0.7,5-1,7.4c-0.3,2.5-0.6,4.9-0.8,7.3
		c-0.3,2.4-0.5,4.7-0.7,6.9c-0.5,5.1-0.9,10-1.3,14.8l-10.8,1.9c0-0.2,0-0.8,0.1-1.7c0.1-0.9,0.1-2,0.2-3.3c0.1-1.3,0.2-2.8,0.4-4.3
		c0.2-1.6,0.4-3.2,0.6-4.8c0.2-1.6,0.4-3.1,0.6-4.6c0.2-1.5,0.4-2.8,0.6-3.8h-0.6c-0.6,1.7-1.2,3.5-1.9,5.4
		c-0.7,1.9-1.4,3.8-2.1,5.8c-0.7,2-1.4,3.9-2.1,5.8c-0.7,1.9-1.3,3.7-1.9,5.4c-1.4,0-2.7,0.1-3.7,0.2c-1,0.1-2.2,0.1-3.6,0.2l2-22.7
		h-0.9c-0.1,0.5-0.3,1.4-0.6,2.7c-0.3,1.2-0.7,2.7-1.1,4.3c-0.4,1.6-0.9,3.3-1.4,5c-0.5,1.7-1,3.3-1.4,4.8c-0.4,1.5-0.8,2.7-1.1,3.7
		c-0.3,1-0.5,1.5-0.5,1.6L647,353.5z"/>
	<path class="st1" d="M713.4,345c-0.9,1.9-2.1,3.5-3.6,4.8c-1.5,1.3-3.3,2.4-5.3,3.1c-2,0.7-4.2,1.1-6.6,1.1c-1.7,0-3.3-0.4-5-1.3
		c-1.7-0.9-3.2-2.3-4.8-4.2l4.6-8.9c0.3,0.5,0.7,1.1,1.3,1.6c0.6,0.6,1.2,1,2,1.4c0.7,0.4,1.4,0.7,2.2,1c0.7,0.3,1.4,0.4,2,0.4
		c0.5,0,1-0.1,1.6-0.2c0.5-0.2,1-0.4,1.5-0.7c0.5-0.3,0.8-0.7,1.1-1.1c0.3-0.4,0.4-0.9,0.4-1.5c0-1-0.3-1.9-1-2.7
		c-0.6-0.8-1.4-1.6-2.4-2.4c-1-0.8-2-1.5-3.1-2.3c-1.1-0.8-2.1-1.6-3.1-2.5c-0.9-0.9-1.7-1.8-2.4-2.9c-0.7-1.1-1-2.2-1-3.6
		c0-2.1,0.6-4.1,1.9-5.9c1.3-1.8,2.9-3.4,4.8-4.7c1.9-1.3,4-2.4,6.3-3.2c2.3-0.8,4.4-1.2,6.4-1.2c1.1,0,2.2,0.1,3.2,0.4
		c1,0.3,1.8,0.7,2.6,1.3c0.7,0.6,1.3,1.3,1.7,2.2c0.4,0.9,0.7,2,0.7,3.4c0,0.6-0.1,1.1-0.2,1.7c-0.1,0.6-0.2,1.2-0.3,1.8l-9,2.6
		c0.1-0.3,0.2-0.7,0.2-1c0.1-0.3,0.1-0.7,0.1-1c0-1.2-0.2-2.1-0.7-2.7c-0.4-0.6-1-0.8-1.7-0.8c-0.3,0-0.7,0.1-1.2,0.4
		c-0.5,0.2-1,0.6-1.4,0.9c-0.5,0.4-0.9,0.8-1.2,1.4c-0.3,0.5-0.5,1.1-0.5,1.7c0,1,0.3,1.8,0.8,2.5c0.6,0.7,1.2,1.3,2.1,1.8
		c0.8,0.6,1.7,1.2,2.7,1.7c1,0.6,1.9,1.4,2.7,2.3c0.8,0.9,1.5,2.1,2.1,3.5c0.6,1.4,0.8,3.2,0.8,5.4C714.8,341,714.3,343.1,713.4,345
		z"/>
</g>
<g>
	<path class="st1" d="M273.8,221.2c-1,3.7-2.3,7.4-4,11c-1.7,3.6-3.8,7.1-6.4,10.4c-2.5,3.3-5.4,6.2-8.6,8.7
		c-3.2,2.5-6.7,4.5-10.5,6c-3.8,1.5-7.8,2.3-12.1,2.3c-0.9,0-1.8,0-2.7-0.1c-0.9-0.1-1.8-0.2-2.7-0.3c1.7-8.7,3.4-17.2,5.1-25.5
		c0.6-3.5,1.3-7.1,2-10.8c0.7-3.8,1.4-7.5,2-11.1c0.6-3.7,1.3-7.2,1.9-10.5c0.6-3.3,1.1-6.4,1.5-9.1c2.7-0.5,5.5-1,8.3-1.4
		c2.8-0.4,5.7-0.7,8.6-0.7c3.5,0,6.4,0.5,8.8,1.6c2.4,1.1,4.3,2.6,5.8,4.4c1.5,1.9,2.6,4.1,3.3,6.6c0.7,2.5,1.1,5.2,1.1,8
		C275.2,214,274.7,217.5,273.8,221.2z M250.4,214c-0.8,3.4-1.5,6.8-2.3,10.3c-0.8,3.5-1.5,7.1-2.3,10.9c-0.8,3.8-1.5,7.9-2.2,12.4
		c1.5-1,3-2.4,4.5-4.1c1.4-1.7,2.8-3.7,4.1-6c1.3-2.3,2.4-4.7,3.5-7.2c1.1-2.5,2-5,2.7-7.4c0.8-2.4,1.4-4.6,1.8-6.7
		c0.4-2.1,0.6-3.9,0.6-5.4c0-2.3-0.7-4.2-2-5.5c-1.3-1.3-3.4-2-6.2-2C251.9,207,251.2,210.6,250.4,214z"/>
	<path class="st1" d="M274.7,257.7l4.4-19c0-2.7,0-5.7-0.1-8.9c-0.1-3.2-0.2-6.4-0.4-9.6c-0.2-3.2-0.4-6.3-0.6-9.3
		c-0.2-3-0.4-5.6-0.5-8c-0.1-2.3-0.3-4.8-0.6-7.6l15.6-5.9V201c0,1.6,0,3.2,0,4.8c0,1.6,0,3.3,0,4.8c0,1.6,0,3.1,0,4.4
		c0,1.4,0,2.6,0,3.5c0.8-2.1,1.8-4.8,3-8c1.2-3.2,2.3-6.2,3.3-9.2c1.2-3.5,2.5-7.1,3.7-11l14.9,3.3c-2.7,5.4-5.4,10.8-8.1,16.2
		c-1.1,2.3-2.2,4.7-3.5,7.2c-1.2,2.5-2.4,5-3.6,7.5c-1.2,2.5-2.4,4.9-3.5,7.2c-1.2,2.3-2.2,4.5-3.2,6.5c-0.3,1.6-0.7,3.4-1.2,5.4
		c-0.5,2-0.9,3.8-1.4,5.6c-0.6,2.1-1.2,4.2-1.8,6.2L274.7,257.7z"/>
	<path class="st1" d="M304.7,259.6c1.8-8.9,3.5-17.6,5.2-26c0.6-3.5,1.3-7.2,2.1-11.1c0.7-3.9,1.4-7.7,2.1-11.5
		c0.6-3.8,1.2-7.4,1.8-10.9c0.5-3.5,1-6.7,1.3-9.6c2-0.1,3.9-0.3,5.8-0.4c1.7-0.1,3.4-0.2,5.1-0.3c1.7-0.1,3.3-0.2,4.6-0.3
		c0.8,4.9,1.6,9.5,2.2,13.9c0.3,1.9,0.7,3.9,1,5.9c0.4,2.1,0.7,4,1,5.9c0.3,1.9,0.6,3.7,1,5.4c0.3,1.7,0.6,3.3,1,4.6
		c0.3-1.3,0.5-2.9,0.9-4.6c0.3-1.7,0.7-3.6,1.1-5.5c0.4-1.9,0.8-3.9,1.2-5.9c0.4-2,0.8-4,1.2-5.9c1-4.4,1.9-9,3-13.8l11.7-1.4
		c-2.2,9.5-4.1,18.4-5.8,26.9c-0.8,3.7-1.5,7.4-2.3,11.1c-0.7,3.7-1.4,7.3-2.1,10.8c-0.6,3.5-1.2,6.7-1.6,9.6
		c-0.4,2.9-0.8,5.4-1.1,7.4c-0.2,0-0.9,0.1-2.3,0.4c-1.3,0.3-2.8,0.6-4.5,1c-1.7,0.4-3.4,0.8-5.1,1.2c-1.7,0.4-3,0.7-3.8,1
		c-0.4-5.1-0.9-10-1.4-14.6c-0.2-2-0.4-4-0.7-6.1c-0.3-2.1-0.5-4.1-0.7-6c-0.2-1.9-0.4-3.7-0.7-5.3c-0.2-1.7-0.4-3.1-0.6-4.2
		c-0.2,1.1-0.4,2.5-0.8,4.2c-0.3,1.6-0.6,3.4-1,5.3c-0.3,1.9-0.6,3.8-1,5.8c-0.3,2-0.7,3.9-1.1,5.8c-0.8,4.5-1.7,9.2-2.7,14
		L304.7,259.6z"/>
	<path class="st1" d="M377.6,258c-1.9,0.3-3.6,0.6-5.2,0.9c0.3-2.1,0.5-4.1,0.8-6.2c0.2-1.8,0.4-3.5,0.5-5.3
		c0.2-1.8,0.3-3.3,0.4-4.5h-8.3l-3.8,13.6c-1.4,0.2-3.1,0.4-5,0.6c-1.9,0.2-3.7,0.4-5.4,0.6c-2,0.3-4.1,0.5-6,0.8
		c2.6-8.4,5.1-16.7,7.6-24.8c1-3.4,2.1-7,3.2-10.7c1.1-3.7,2.2-7.4,3.4-11.1c1.1-3.7,2.2-7.2,3.2-10.7c1-3.4,1.9-6.5,2.7-9.4
		c4.3-0.3,8.8-0.7,13.3-1.1c4.5-0.4,8.9-1,13.2-1.8c-0.2,2-0.4,4.5-0.6,7.5c-0.2,3-0.4,6.3-0.6,9.8c-0.2,3.5-0.4,7.2-0.6,11.1
		c-0.2,3.9-0.4,7.6-0.6,11.4c-0.3,8.7-0.7,18-1.1,27.7c-1.9,0.3-3.8,0.6-5.8,0.8C381.3,257.4,379.5,257.7,377.6,258z M368.1,233.4
		c0.3,0,0.7,0,1.4,0c0.7,0,1.4-0.1,2.1-0.1c0.7,0,1.4-0.1,2.1-0.1c0.6,0,1.1-0.1,1.3-0.1c0-0.4,0-1,0.1-1.9c0.1-0.9,0.2-2,0.3-3.1
		c0.1-1.2,0.2-2.4,0.3-3.8c0.1-1.4,0.3-2.7,0.4-4.1c0.3-3.2,0.6-6.7,1-10.4l0.6-8.2l-1.4,0.1l-2.2,8.1L368.1,233.4z"/>
	<path class="st1" d="M386.2,258.5c2.8-8.4,5.5-16.6,8.1-24.7c1.1-3.4,2.2-7,3.4-10.7c1.2-3.7,2.3-7.4,3.5-11.1
		c1.2-3.7,2.2-7.2,3.2-10.6c1-3.4,1.9-6.6,2.6-9.5c3.5,0,6.8-0.2,10-0.6c3.1-0.4,6.5-0.7,10.2-1c-0.2,1.4-0.4,3-0.6,4.7
		c-0.2,1.7-0.5,3.6-0.8,5.4c-0.3,1.9-0.6,3.9-0.9,5.9c-0.3,2-0.7,4.6-1.2,7.8c-0.4,3.2-1.1,7.1-1.8,11.8h1.2c1.9-4.8,3.4-8.8,4.6-12
		c1.2-3.2,2.2-5.8,3-7.8c0.8-2,1.5-4,2.3-5.9c0.8-1.9,1.6-3.8,2.3-5.5c0.7-1.7,1.4-3.3,2.1-4.6c1.6-0.1,3.1-0.3,4.5-0.5
		c1.4-0.2,2.8-0.4,4.2-0.6c1.4-0.2,2.8-0.4,4.3-0.7c1.4-0.2,3-0.5,4.7-0.8c-0.6,3.7-1.2,7.4-1.8,11.3c-0.6,3.9-1.1,7.7-1.5,11.5
		c-0.4,3.8-0.9,7.6-1.3,11.3c-0.4,3.7-0.8,7.3-1.1,10.6c-0.8,7.8-1.4,15.5-2,22.9l-16.7,2.9c0-0.3,0-1.2,0.1-2.6
		c0.1-1.4,0.2-3.1,0.4-5.1c0.2-2,0.4-4.3,0.7-6.7c0.3-2.5,0.6-4.9,0.9-7.4c0.3-2.5,0.6-4.8,0.9-7.1c0.3-2.3,0.6-4.3,1-5.9h-0.9
		c-0.9,2.7-1.9,5.4-3,8.4c-1.1,2.9-2.2,5.9-3.3,8.9c-1.1,3-2.2,6-3.3,8.9c-1.1,2.9-2,5.7-2.9,8.3c-2.2,0.1-4.2,0.1-5.8,0.2
		c-1.6,0.1-3.5,0.2-5.6,0.3l3.1-35.1h-1.4c-0.1,0.8-0.4,2.2-1,4.1c-0.5,1.9-1.1,4.1-1.8,6.6c-0.7,2.5-1.4,5.1-2.2,7.8
		c-0.8,2.7-1.5,5.2-2.2,7.5c-0.7,2.3-1.2,4.2-1.7,5.7c-0.4,1.5-0.7,2.3-0.8,2.5L386.2,258.5z"/>
	<path class="st1" d="M460.2,257.4c-1.7,0.2-3.4,0.3-5.2,0.6c-1.8,0.2-3.4,0.4-4.8,0.6c-1.4,0.2-2.2,0.3-2.3,0.4
		c0.8-2.7,1.5-5.7,2.3-9c0.8-3.3,1.5-6.8,2.3-10.4c0.8-3.6,1.6-7.3,2.3-11c0.7-3.7,1.5-7.3,2.2-10.8c1.6-8.1,3.2-16.4,4.7-24.9
		l15-2.4c-1.7,8.5-3.3,16.8-5,24.9c-0.7,3.5-1.4,7.1-2.2,10.8c-0.7,3.7-1.4,7.4-2.1,11.1c-0.7,3.7-1.3,7.2-2,10.7
		c-0.7,3.4-1.3,6.5-1.8,9.3C463,257.2,461.8,257.3,460.2,257.4z"/>
	<path class="st1" d="M503.4,247.8c-1.9,2.6-3.9,4.7-5.9,6.4c-2.1,1.7-4.2,3-6.3,3.8c-2.1,0.8-4.2,1.2-6.1,1.2c-2,0-3.8-0.4-5.4-1.3
		c-1.6-0.9-3.1-2.2-4.3-4c-1.2-1.8-2.2-3.9-2.9-6.5c-0.7-2.6-1.1-5.6-1.1-9.1c0-5.9,0.8-11.8,2.5-17.6c1.7-5.8,4-11,7-15.6
		c3-4.6,6.6-8.3,10.7-11.1c4.1-2.8,8.7-4.2,13.7-4.2c1.5,0,3,0.3,4.4,0.9c1.4,0.6,2.6,1.5,3.6,2.7c1,1.1,1.8,2.5,2.4,4.2
		c0.6,1.6,0.9,3.5,0.9,5.5c0,0.4,0,0.8,0,1.2c0,0.4,0,0.8-0.1,1.3l-12.6,3.3c-0.8-1.6-1.7-2.4-2.7-2.4c-1,0-2.1,0.6-3.2,1.8
		c-1.1,1.2-2.2,2.7-3.3,4.5c-1.1,1.9-2.1,3.9-3.2,6.2c-1,2.3-1.9,4.6-2.7,7c-0.8,2.3-1.4,4.6-1.9,6.7c-0.5,2.1-0.7,3.8-0.7,5.2
		c0,2,0.3,3.4,0.8,4.3c0.5,0.8,1.3,1.2,2.2,1.2c0.7,0,1.5-0.3,2.4-0.8c0.9-0.5,1.7-1.2,2.5-2.1c0.8-0.9,1.5-1.8,2.1-2.9
		c0.6-1.1,1.1-2.1,1.3-3.2l10.9,4.4C507,242.2,505.2,245.2,503.4,247.8z"/>
	<path class="st1" d="M573.3,221.2c-1,3.7-2.3,7.4-4,11c-1.7,3.6-3.8,7.1-6.4,10.4c-2.5,3.3-5.4,6.2-8.6,8.7
		c-3.2,2.5-6.7,4.5-10.5,6c-3.8,1.5-7.8,2.3-12.1,2.3c-0.9,0-1.8,0-2.7-0.1c-0.9-0.1-1.8-0.2-2.7-0.3c1.7-8.7,3.4-17.2,5.1-25.5
		c0.6-3.5,1.3-7.1,2-10.8c0.7-3.8,1.4-7.5,2-11.1c0.6-3.7,1.3-7.2,1.9-10.5c0.6-3.3,1.1-6.4,1.5-9.1c2.7-0.5,5.5-1,8.3-1.4
		c2.8-0.4,5.7-0.7,8.6-0.7c3.5,0,6.4,0.5,8.8,1.6c2.4,1.1,4.3,2.6,5.8,4.4c1.5,1.9,2.6,4.1,3.3,6.6c0.7,2.5,1.1,5.2,1.1,8
		C574.7,214,574.2,217.5,573.3,221.2z M549.9,214c-0.8,3.4-1.5,6.8-2.3,10.3c-0.8,3.5-1.5,7.1-2.3,10.9c-0.8,3.8-1.5,7.9-2.2,12.4
		c1.5-1,3-2.4,4.5-4.1c1.4-1.7,2.8-3.7,4.1-6c1.3-2.3,2.4-4.7,3.5-7.2c1.1-2.5,2-5,2.7-7.4c0.8-2.4,1.4-4.6,1.8-6.7
		c0.4-2.1,0.6-3.9,0.6-5.4c0-2.3-0.7-4.2-2-5.5c-1.3-1.3-3.4-2-6.2-2C551.4,207,550.7,210.6,549.9,214z"/>
	<path class="st1" d="M606.7,246c0,0-0.8,1.3-2.4,3.8c-1.6,2.5-3.5,4.6-5.8,6.2c-2.2,1.6-4.6,2.8-7,3.6s-5,1.1-7.5,1.1
		c-1.5,0-3-0.2-4.5-0.7c-1.5-0.5-2.9-1.2-4.1-2.1c-1.2-0.9-2.2-2.1-3-3.6c-0.8-1.5-1.2-3.2-1.2-5.1c0-0.3,0-0.5,0-0.8
		c0-0.3,0-0.5,0.1-0.8c0.3-2.6,0.7-5.7,1.2-9.4c0.6-3.7,1.2-7.5,1.8-11.5c0.6-4,1.3-8,2.1-12c0.8-4,1.5-7.7,2.1-10.9
		c0.6-3.3,1.1-6,1.6-8.2c0.4-2.2,0.7-3.5,0.9-4c1.3-0.1,2.9-0.3,4.8-0.5c1.9-0.2,3.6-0.3,5.2-0.5c2-0.2,3.9-0.4,5.8-0.6
		c-1.7,7.6-3.1,14.5-4.4,20.7c-0.6,2.7-1.1,5.3-1.7,8c-0.5,2.7-1.1,5.1-1.5,7.3c-0.5,2.2-0.9,4.1-1.2,5.7c-0.4,1.6-0.6,2.9-0.9,3.9
		c-0.2,1-0.5,2.3-0.8,3.8c-0.3,1.5-0.4,3-0.4,4.2c0,1,0.3,1.8,0.8,2.5c0.5,0.7,1.2,1,1.9,1c1.1,0,2-0.4,2.7-1.3
		c0.7-0.9,1.3-1.9,1.8-3.1c0.5-1.2,0.8-2.4,1.1-3.6c0.2-1.2,0.4-2.2,0.6-2.9c0.4-1.8,0.8-3.9,1.3-6.1c0.5-2.2,1-4.6,1.4-7
		c0.5-2.4,1-4.9,1.4-7.4c0.5-2.5,0.9-5,1.4-7.4c1.1-5.6,2.1-11.3,3.2-17.2l14.6-0.9c-0.6,3.3-1.2,6.3-1.7,9
		c-0.5,2.7-1.1,5.8-1.7,9.3c-0.6,3.5-1.3,7.1-2.1,10.8c-0.8,3.8-1.5,7.4-2.3,11.1c-0.7,3.6-1.5,7-2.2,10
		C607.2,244.2,606.7,246,606.7,246z"/>
	<path class="st1" d="M660.3,222.5c-1.1,4.6-2.6,8.8-4.5,12.6c-1.9,3.8-4,7.2-6.5,10.2c-2.5,3-5,5.6-7.7,7.7
		c-2.7,2.1-5.4,3.7-8.1,4.8c-2.7,1.1-5.4,1.7-7.9,1.7c-2.1,0-4-0.4-5.8-1.2c-1.7-0.8-3.2-2-4.5-3.5c-1.3-1.5-2.3-3.5-3-6
		c-0.7-2.4-1.1-5.3-1.1-8.8c0-3.5,0.4-7.3,1.3-11.2c0.9-3.9,2.1-7.8,3.6-11.6c1.5-3.8,3.4-7.5,5.7-11c2.2-3.5,4.7-6.5,7.4-9.2
		c2.7-2.7,5.6-4.8,8.6-6.4c3.1-1.6,6.3-2.4,9.6-2.4c2.9,0,5.3,0.6,7.1,1.8c1.9,1.2,3.4,2.7,4.4,4.5c1.1,1.9,1.8,4,2.3,6.3
		c0.4,2.3,0.7,4.7,0.7,7C662,213,661.5,217.9,660.3,222.5z M626,239.8c0.3,0.8,0.6,1.4,1.1,2c0.4,0.6,1,1.1,1.7,1.5
		c0.7,0.4,1.4,0.6,2.2,0.6c2.9,0,5.4-1,7.7-2.9c2.2-2,4.1-4.4,5.6-7.2c1.5-2.8,2.6-5.9,3.4-9.1c0.8-3.2,1.2-6.2,1.2-8.8
		c0-0.8,0-1.6-0.1-2.5c-0.1-0.9-0.3-1.7-0.6-2.5c-0.3-0.8-0.7-1.4-1.3-1.9c-0.6-0.5-1.4-0.8-2.4-0.8c-2,0-3.9,0.5-5.7,1.5
		c-1.7,1-3.3,2.4-4.6,4c-1.4,1.7-2.6,3.6-3.6,5.7c-1,2.1-1.9,4.3-2.6,6.4c-0.7,2.2-1.3,4.3-1.6,6.4c-0.3,2.1-0.5,3.9-0.5,5.4
		C625.6,238.3,625.7,239,626,239.8z"/>
	<path class="st1" d="M696,245.3c-1.4,2.9-3.2,5.3-5.6,7.4c-2.3,2.1-5.1,3.7-8.2,4.8c-3.2,1.1-6.6,1.7-10.2,1.7
		c-2.6,0-5.1-0.7-7.7-2c-2.6-1.4-5-3.5-7.4-6.5L664,237c0.4,0.8,1.1,1.7,2,2.5c0.9,0.9,1.9,1.6,3,2.2c1.1,0.6,2.2,1.2,3.4,1.6
		c1.1,0.4,2.1,0.6,3,0.6c0.8,0,1.6-0.1,2.4-0.4c0.8-0.3,1.6-0.6,2.3-1.1c0.7-0.5,1.3-1.1,1.7-1.8c0.4-0.7,0.6-1.4,0.6-2.3
		c0-1.5-0.5-2.9-1.5-4.2c-1-1.3-2.2-2.5-3.7-3.7c-1.5-1.2-3.1-2.4-4.8-3.6c-1.7-1.2-3.3-2.5-4.7-3.8c-1.4-1.3-2.7-2.8-3.7-4.4
		c-1-1.6-1.5-3.5-1.5-5.5c0-3.3,1-6.3,3-9.2c2-2.8,4.5-5.3,7.4-7.3c3-2.1,6.2-3.7,9.7-4.9c3.5-1.2,6.8-1.8,10-1.8
		c1.7,0,3.4,0.2,4.9,0.6c1.5,0.4,2.9,1.1,4,2c1.1,0.9,2,2.1,2.7,3.5c0.7,1.4,1,3.1,1,5.2c0,0.9-0.1,1.8-0.2,2.7
		c-0.2,0.9-0.3,1.8-0.4,2.8l-13.9,4c0.1-0.5,0.2-1,0.3-1.5c0.1-0.5,0.1-1,0.1-1.5c0-1.9-0.3-3.3-1-4.1c-0.7-0.9-1.6-1.3-2.6-1.3
		c-0.5,0-1.1,0.2-1.9,0.6c-0.7,0.4-1.5,0.9-2.2,1.5c-0.7,0.6-1.4,1.3-1.9,2.1c-0.5,0.8-0.8,1.7-0.8,2.7c0,1.5,0.4,2.8,1.3,3.8
		c0.9,1,1.9,2,3.2,2.8c1.3,0.9,2.7,1.8,4.2,2.7c1.5,0.9,2.9,2.1,4.2,3.6c1.3,1.5,2.3,3.3,3.2,5.4c0.9,2.2,1.3,4.9,1.3,8.3
		C698.1,239.2,697.4,242.4,696,245.3z"/>
</g>
</svg>
