<?xml version="1.0" encoding="utf-8"?>
<!-- Generator: Adobe Illustrator 21.0.2, SVG Export Plug-In . SVG Version: 6.00 Build 0)  -->
<svg version="1.1" id="Layer_1" xmlns="http://www.w3.org/2000/svg" xmlns:xlink="http://www.w3.org/1999/xlink" x="0px" y="0px"
	 viewBox="0 0 1620 1000" style="enable-background:new 0 0 1620 1000;" xml:space="preserve">
<style type="text/css">
	.st0{fill:#FF0000;}
	.st1{fill:none;}
	.st2{fill:#FFFFFF;stroke:#000000;stroke-width:3;stroke-miterlimit:10;}
	.st3{font-family:'Bangers-Regular';}
	.st4{font-size:110px;}
	.st5{font-size:170px;}
</style>
<g>
	<path class="st0" d="M807.5,994c-1.8,0-3.1-10.4-4.1-18.7c-3-24.1-7.9-64.5-34.7-98.7c-6.8-8.7-43.4-51.9-100.1-53.6
		c-1.1,0-2.3,0-3.4,0c-65.3,0-108.3,56.4-119.9,73.7c-15.1,22.4-22.9,46-27.6,62.7c2.8-16.5,4.6-39.8-3.8-62.4
		c-13.3-35.7-52.4-66.1-95.1-74c-3.3-0.6-8-1.3-13.9-1.3c-30.9,0-77.1,19.1-141.1,58.5c-52.2,32.1-91.1,62.2-116.9,82.1
		c-14.2,11-25.5,19.7-29.1,20.7c1.2-3.5,11-15.3,22.4-28.9c19.5-23.3,49-58.6,79.1-103c51.7-76.3,100.6-148.4,80.1-190.2
		c-13.6-27.8-53.3-31.2-132.3-37.8l-8.6-0.7c-24.5-2.1-49.2-3.1-75.5-3.1c-20.4,0-37.5,0.6-50,1.1c-4.4,0.2-8.2,0.3-11.5,0.4
		c0.3,0,0.6-0.1,0.9-0.1c22.4-2.5,69.1-7.7,120.8-25.8c42.8-15,132-46.2,136-98.3c3.5-44.6-58.1-83-87.7-101.4
		c-60.9-37.9-123.9-48.9-150.9-53.6c-2.8-0.5-5.4-0.9-7.7-1.4c4,0.2,9.6,0.6,16.8,1.1c18.3,1.4,46,3.4,78.9,3.4
		c22.2,0,43.8-1,64.2-2.9c70.2-6.6,142.8-13.4,160.4-55.1c16.4-38.7-22.5-89.9-71.7-154.7c-33.4-44-66.6-76.9-84.4-94.6
		c-4.3-4.2-8.2-8.2-11-11.1c3.4,2.6,7.9,6.3,12.9,10.3c21.9,17.7,62.6,50.6,114.2,82.7c47.4,29.5,112.2,69.8,163.5,69.8
		c14.5,0,27.5-3.2,38.7-9.5c16.9-9.6,26.1-23.9,31.5-32.5c26.1-41,20.2-90.4,17.4-114.1c-0.6-4.7-1.1-9.5-1.1-12
		c1,2.3,2.3,7.2,3.7,12.4c6.2,23,17.9,65.9,50.6,101.9c12.1,13.3,40.5,44.5,80.7,44.5c0.5,0,0.9,0,1.4,0
		c33.8-0.6,58.4-22.5,70.1-35.5c32.9-36.5,35.3-87.7,36.6-115.3c0.4-8.6,0.9-18.4,2.4-19.3c1.5,0.7,3.1,10.5,4.4,19.2
		c12.3,78.6,35.8,101.2,48.4,113.4c35.3,34,81.6,37.7,99.9,37.7c4.2,0,6.8-0.2,7.3-0.2c12.5-1,55.6-7,88-41.5
		c31.3-33.3,37.7-76.9,41.5-103c0.9-6.1,1.6-10.9,2.5-14.3c1-4.1,1.9-4.2,1.9-4.2c0,0,0.9,0.2,1.7,4.7c0.6,3.7,1,9.1,1.5,15.4
		c2.1,28.9,5.7,77.4,38.8,110.5c28.6,28.6,64.1,38.2,82.8,41.4c8.1,1.4,15.9,2.1,23.8,2.1c28,0,58.8-8.7,103.1-29.2
		c72.4-33.4,125.6-72.5,154.1-93.5c9.2-6.7,17.2-12.7,20.5-14.2c-2.5,4.9-16.2,20.5-33.1,39.7c-21.2,24-50.2,57-82.3,96.7
		c-60.7,75.3-68.2,95.8-62.3,113.4c10.9,32,63.5,42.4,121.2,51c44.9,6.7,83.3,6.9,106.2,6.9c10.4,0,19.5,0.1,22.7,0.8
		c-2.8,1.2-10.8,2.8-19.2,4.5c-25.1,5.1-71.8,14.6-121.2,37.9c-36,17-111,52.4-109.9,97.4c1,39.6,62.2,67.7,95.1,82.8l0.1,0.1
		c46.1,21.2,91,29.9,122.6,33.7c-3.2,0-6.5,0-10,0c-37.8,0-74,2.1-107.6,6.2c-55.2,6.8-108,17.6-120.3,50.4
		c-2.3,6.1-3.7,15.6,5.7,35.7c11.8,25.4,38,60.8,77.8,105.2c45.2,50.4,88.3,90.5,114.1,114.5c9,8.4,16.8,15.7,21.4,20.3
		c-2.1-1.5-4.5-3.4-7.1-5.4c-28.1-21.4-93.9-71.4-183.7-102.9c-11.1-3.9-45.1-15.8-90.4-19.1c-15.2-1.1-30.9-2.2-45.8-2.2
		c-34.7,0-57.6,6.4-74.3,20.6c-34.6,29.6-33,87.5-32,122c0.3,10.7,0.7,23.9-1.2,24.6c-1.6,0-4-10.3-5.8-17.8
		c-5.4-23.1-14.6-61.7-42.9-94.7c-11.3-13.1-52.6-55.8-111.5-55.8c-2.9,0-5.8,0.1-8.7,0.3c-53.7,3.8-87.9,41.2-97.1,52.6
		c-28.2,34.8-33.9,76.4-37.3,101.3C810.8,983.4,809.3,994,807.5,994L807.5,994z"/>
	<path d="M808.8,14.2c0.9,3.6,1.9,9.7,2.8,15.2c4.3,27.7,12.4,79.1,48.8,114.2c35.7,34.4,82.5,38.1,100.9,38.1
		c4.3,0,6.9-0.2,7.4-0.2c12.6-1,56.2-7.1,88.9-41.9c13.7-14.6,24.3-33.2,31.5-55.2c6-18.5,8.6-35.9,10.5-48.7
		c0.8-5.7,1.8-12.1,2.7-15.4c0.8,3.6,1.3,10.5,1.8,16.8c1,14.1,2.5,33.4,7.8,53.5c6.3,23.9,16.9,43.4,31.4,57.9
		c28.9,28.9,64.8,38.6,83.6,41.8c8.2,1.4,16,2.1,24,2.1c28.2,0,59.2-8.8,103.8-29.3c72.6-33.5,125.8-72.6,154.4-93.6
		c5.2-3.8,10.3-7.6,14.2-10.2c-5.8,7.4-16.7,19.8-28.8,33.5c-21.2,24-50.3,57-82.3,96.8c-61.1,75.8-68.7,96.7-62.5,114.8
		c11.2,32.8,64.3,43.3,122.4,52c45,6.7,83.5,6.9,106.4,6.9c5,0,10,0,14,0.1c-3.2,0.7-6.9,1.5-10.7,2.2c-25.2,5.1-72,14.6-121.5,38
		c-36.3,17.1-111.9,52.8-110.7,98.8c0.4,17.7,12.7,35.2,36.4,51.9c19.5,13.8,42.7,24.4,59.5,32.2l0.1,0.1
		c36.9,17,73.1,26,102.4,30.9c-33.9,0.4-66.5,2.4-96.9,6.2c-55.7,6.8-109,17.8-121.5,51.4c-2.4,6.4-3.9,16.3,5.7,36.8
		c11.9,25.5,38.2,61,78,105.5c45.2,50.5,88.4,90.6,114.2,114.6c0.9,0.8,1.7,1.6,2.5,2.4c-33-24.5-92.8-65.6-170.5-92.8
		c-11.2-3.9-45.2-15.9-90.8-19.2c-15.2-1.1-31-2.2-45.9-2.2c-35.1,0-58.3,6.5-75.3,21c-35.2,30.1-33.5,88.4-32.5,123.2
		c0.2,8,0.5,16.9-0.1,21.2c-1.2-3.2-2.7-9.3-4-14.8c-5.5-23.2-14.6-62.1-43.2-95.3c-11.4-13.2-53.1-56.3-112.7-56.4
		c-2.9,0-5.9,0.1-8.8,0.3c-54.3,3.9-88.8,41.6-98.1,53.1c-28.5,35.1-34.2,77-37.7,102c-0.9,6.4-1.9,13.5-3,16.7
		c-1-3.1-1.9-10-2.6-16.2c-3-24.3-8-64.9-35-99.4c-6.8-8.7-43.9-52.5-101.3-54.1c-1.1,0-2.3-0.1-3.4-0.1
		c-66,0-109.4,56.9-121.2,74.4c-10.8,16-17.9,32.7-22.8,47c1-14,0.1-30.4-5.9-46.4c-6.9-18.6-20.4-35.7-38.8-49.5
		c-17-12.7-37.4-21.7-57.5-25.4c-3.4-0.6-8.1-1.3-14.2-1.3c-31.2,0-77.6,19.2-141.9,58.7c-52.2,32.1-91.2,62.3-117.1,82.2
		c-9.5,7.3-18.6,14.4-24.1,18c3.9-5.5,11.5-14.5,19.4-24c19.5-23.4,49.1-58.7,79.2-103.1c26.2-38.7,51-75.3,67.2-108
		c18.5-37.5,22.6-64.1,13-83.7c-6.7-13.7-20.1-22.3-43.5-27.8c-21.7-5.1-51.8-7.7-90-10.9l-8.6-0.7c-24.5-2.1-49.2-3.1-75.6-3.1
		c-10.9,0-20.8,0.2-29.6,0.4c24.2-3.7,56.2-10,90.3-22c43.1-15.1,132.9-46.5,137-99.6c3.5-45.5-58.6-84.2-88.4-102.8
		C142.5,363.1,91.5,350,59.6,343.7c17.8,1.3,41.5,2.7,68.8,2.7c22.3,0,43.9-1,64.4-2.9c70.6-6.6,143.7-13.4,161.6-56
		c16.7-39.5-22.4-91-71.9-156.2c-29-38.2-57.8-68-76.6-86.8C229,63,266.3,92.2,312.3,120.8c28,17.4,55.4,34.2,82.6,47.2
		c32.3,15.4,59,22.9,81.6,22.9c14.8,0,28.1-3.3,39.5-9.7c17.2-9.8,26.5-24.3,32.1-33c25.1-39.4,21-86.2,18-111.3
		c6.5,23.7,18.5,64.9,50.2,99.7c12.3,13.5,41,45,81.8,45c0.5,0,1,0,1.4,0c34.3-0.6,59.3-22.8,71.2-36c33.2-36.9,35.7-88.5,37-116.2
		C808,23.9,808.3,17.9,808.8,14.2 M808.6,8.5C808.6,8.5,808.5,8.5,808.6,8.5c-9.1,0.6,7,82.7-40.1,135c-4.8,5.3-30.9,34.3-69,35
		c-0.5,0-0.9,0-1.4,0c-39.5,0-67.5-30.7-79.6-44c-45.9-50.4-50.4-116-55.9-116c0,0-0.1,0-0.1,0c-5.9,1.1,18.6,72.2-17,128
		c-5.3,8.3-14.4,22.6-31,32c-11.5,6.5-24.3,9.3-38,9.3c-49.5,0-110.4-37.1-162.7-69.6c-77-47.9-128.8-96.8-133.1-96.8
		c-0.1,0-0.2,0-0.2,0.1c-2.5,2.9,47.4,42.9,99.6,111.6c49.2,64.7,87.6,115.3,71.5,153.2c-17.3,40.9-89.8,47.7-159.2,54.2
		c-22.6,2.1-44.3,2.9-64.1,2.9c-49.1,0-86.6-4.6-98.7-4.6c-2.7,0-4.1,0.2-4.2,0.8c-0.6,4.2,83.5,6.3,165,57
		c29.6,18.4,90.4,56.3,87,100c-4,51.1-93.6,82.5-135,97c-71.8,25.1-134.3,25.4-134,28c0.1,0.7,2.5,0.9,6.9,0.9
		c11.1,0,35.1-1.6,67.4-1.6c21.8,0,47.4,0.7,75.3,3.1c82.9,7,126,9.7,139.7,37.7c20.1,41.1-28.2,112.3-80,188.7
		c-53.8,79.3-105.9,129.7-101.6,134c0.2,0.2,0.5,0.3,0.8,0.3c8.1,0,60.2-49.6,147.4-103.2c80.4-49.4,119.1-58.3,140.3-58.3
		c5.7,0,10.1,0.6,13.7,1.3c38.9,7.1,79.8,34.8,94,73c15.1,40.4-3.2,83.3,0,84c0,0,0,0,0.1,0c3.1,0,7.3-44.4,33.9-84
		c9.6-14.3,52.5-73,118.7-73c1.1,0,2.2,0,3.3,0c57.7,1.7,94.4,47.2,99,53c40.3,51.5,30.9,117.9,40,118c0,0,0,0,0,0
		c9.3,0,0.7-68.8,43-121c5.4-6.7,40-48,96-52c2.9-0.2,5.8-0.3,8.6-0.3c61,0,102.5,46.2,110.4,55.3c42.6,49.6,41.6,113,49.8,113
		c0.1,0,0.1,0,0.2,0c10.6-1.1-15.7-104.6,34-147c18.9-16.1,44.9-20.2,73.3-20.2c14.8,0,30.3,1.1,45.7,2.2c41.8,3,73.5,13.2,90,19
		c115,40.3,191.8,112.1,196.8,112.1c0.1,0,0.2,0,0.2-0.1c2.7-3.4-65.4-57.7-140-141c-92.4-103.1-86.7-129.9-83.2-139.3
		c11.8-31.6,63-42.6,119.1-49.5c40.9-5,78.7-6.2,107.4-6.2c25.9,0,44.3,1,50.8,1c1.7,0,2.6-0.1,2.6-0.2c0.1-1.6-81.1,1.4-165.4-37.3
		c-32.9-15.1-93.3-42.8-94.3-81.5c-1.1-43.9,73-79,109-96c75-35.4,142.6-38.5,142-44c-0.6-5-56,2.2-131-9c-52.4-7.8-109-17.8-120-50
		c-5.7-16.7,1.3-36.7,62-112c65.9-81.7,119.5-135.1,116-139c-0.1-0.1-0.3-0.2-0.6-0.2c-7.6,0-72.2,60.1-176.4,108.2
		c-44.2,20.4-74.6,29-102.5,29c-8,0-15.7-0.7-23.5-2c-12.4-2.1-51.3-10.3-82-41c-47.9-47.9-33.4-130.7-43-131c0,0,0,0,0,0
		c-8.9,0-1.1,73.2-47,122c-33.8,35.9-79.5,40.4-87,41c-0.7,0.1-3.2,0.2-7.2,0.2c-17.7,0-63.9-3.5-98.8-37.2
		C810.8,91.7,817.4,8.5,808.6,8.5L808.6,8.5z"/>
</g>
<rect x="343.6" y="554.6" class="st1" width="954.4" height="152.9"/>
<text transform="matrix(1 0 0 1 372.2222 634.9463)" class="st2 st3 st4">Musical Writing Teams</text>
<rect x="344.6" y="340.6" class="st1" width="954.4" height="152.9"/>
<text transform="matrix(1 0 0 1 403.4321 464.7461)" class="st2 st3 st5">DYNAMIC DUOS</text>
</svg>
