<?xml version="1.0" encoding="utf-8"?>
<!-- Generator: Adobe Illustrator 21.0.2, SVG Export Plug-In . SVG Version: 6.00 Build 0)  -->
<svg version="1.1" id="Layer_1" xmlns="http://www.w3.org/2000/svg" xmlns:xlink="http://www.w3.org/1999/xlink" x="0px" y="0px"
	 viewBox="0 0 1266.8 782" style="enable-background:new 0 0 1266.8 782;" xml:space="preserve">
<style type="text/css">
	.st0{fill:#FF0000;}
	.st1{fill:#FFFFFF;stroke:#000000;stroke-width:3;stroke-miterlimit:10;}
</style>
<g>
	<path class="st0" d="M631.5,774.6c-1.2-0.7-2.1-7.9-2.9-14.3c-2.3-18.8-6.3-50.3-27.4-77c-5.4-6.8-34.3-40.5-79.1-41.8
		c-0.9,0-1.8,0-2.7,0c-51.6,0-85.5,44-94.7,57.5c-10.5,15.4-16.6,31.6-20.4,44.2c1.7-12.4,2.1-28.3-3.8-43.9
		c-10.5-27.9-41.5-51.7-75.2-57.8c-2.7-0.5-6.3-1-11-1c-24.4,0-60.8,14.9-111.3,45.6c-41.1,25-71.8,48.4-92.1,63.9
		c-10,7.6-18.8,14.3-22.1,15.8c1.7-3.3,9-11.9,17.3-21.7c15.4-18.2,38.6-45.6,62.4-80.2c40.8-59.5,79.3-115.6,63.1-148.4
		c-10.8-21.8-42.1-24.4-104.5-29.6l-6.8-0.6c-19.3-1.6-38.7-2.4-59.5-2.4c-16,0-29.6,0.5-39.4,0.8c-0.2,0-0.4,0-0.7,0
		c19.5-2.3,52-6.9,87.6-19.3c33.8-11.7,104.2-36,107.4-76.8c2.7-34.9-45.9-64.8-69.2-79.2c-48-29.5-97.7-38.1-119-41.7
		c-0.2,0-0.3-0.1-0.5-0.1c2.2,0.1,4.7,0.3,7.6,0.5c14.4,1.1,36.3,2.7,62.1,2.7c17.5,0,34.5-0.8,50.6-2.2
		c55.4-5.1,112.7-10.4,126.6-43.1c13-30.3-17.7-70.2-56.5-120.7c-26.4-34.3-52.5-59.9-66.5-73.6c-1.8-1.8-3.6-3.5-5.2-5.1
		c1.9,1.5,4.1,3.2,6.3,5c17.2,13.8,49.3,39.4,90,64.4c37.3,23,88.5,54.4,128.9,54.4c11.5,0,21.8-2.5,30.7-7.5
		c13.4-7.5,20.6-18.7,24.9-25.4c20.7-32,16-70.5,13.7-89c-0.3-2.6-0.6-5.3-0.8-7.3c0.7,2,1.5,4.9,2.2,7.7c4.9,18,14.1,51.4,40,79.5
		c9.6,10.4,32,34.7,63.8,34.7c0.4,0,0.7,0,1.1,0c26.7-0.5,46.2-17.6,55.4-27.7c26-28.5,27.9-68.4,28.9-89.9
		c0.3-6.1,0.6-12.9,1.6-14.5c1.1,1.4,2.2,8.1,3.2,14.5c3.4,21.4,9.7,61.3,38.2,88.4c27.9,26.5,64.5,29.4,78.9,29.4
		c3.3,0,5.4-0.2,5.8-0.2c9.8-0.8,43.9-5.5,69.5-32.4c24.7-26,29.8-60,32.8-80.3c0.9-6.1,1.9-13,3.1-14.1c1.1,1.2,1.7,8.7,2.2,15.3
		c1.6,21.1,4.5,60.4,30.7,86.2c22.6,22.3,50.7,29.8,65.4,32.3c6.4,1.1,12.5,1.6,18.8,1.6c22.1,0,46.4-6.8,81.4-22.7
		c57.1-26,99-56.4,121.5-72.8c6.4-4.7,12.2-8.8,15.1-10.5c-2.9,4.6-13.1,16-25.5,29.8c-16.7,18.7-39.6,44.3-64.8,75.3
		c-47.9,58.7-53.9,74.8-49.1,88.6c8.6,25.1,50.2,33.2,95.7,39.9c35.4,5.2,65.6,5.3,83.7,5.4c6.8,0,13.3,0,16.6,0.4
		c-2.8,0.9-8.2,1.9-13.8,3.1c-19.8,4-56.6,11.4-95.5,29.5c-28.4,13.3-87.6,40.9-86.7,76.1c0.8,31,49.1,52.9,75.1,64.7
		c33.8,15.3,66.8,22.3,91.3,25.6c-0.8,0-1.6,0-2.4,0c-29.8,0-58.3,1.6-84.8,4.8c-43.6,5.3-85.3,13.7-95,39.5
		c-2.5,6.5-10,26.4,65.8,109.9c35.6,39.2,69.6,70.5,89.9,89.2c5,4.6,9.7,9,13.3,12.4c-0.6-0.4-1.1-0.8-1.7-1.3
		c-22.2-16.6-74-55.6-144.8-80.1c-8.8-3-35.5-12.3-71.3-14.9c-12-0.9-24.4-1.7-36.1-1.7c-27.4,0-45.5,5-58.7,16.1
		c-27.4,23.1-26.1,68.3-25.3,95.2c0.2,8.1,0.5,17.2-0.7,18.7c-1.2-1-2.8-7.6-4.2-13.5c-4.3-18-11.5-48.1-33.9-73.8
		c-8.9-10.2-41.5-43.6-88.1-43.6c-2.3,0-4.6,0.1-6.9,0.2c-42.4,3-69.4,32.1-76.7,41c-22.3,27.2-26.8,59.6-29.5,79
		C633.8,766.5,632.8,773.9,631.5,774.6z"/>
	<path d="M632.7,16.5c0.5,2.4,0.9,5.2,1.3,7.9c3.4,21.6,9.8,61.8,38.7,89.3c28.3,26.9,65.3,29.8,79.9,29.8c3.4,0,5.5-0.2,5.9-0.2
		c10-0.8,44.5-5.6,70.5-32.8c25.1-26.3,30.4-62,33.2-81.2c0.4-3,0.9-6.3,1.4-8.8c0.4,2.8,0.6,6.5,0.9,9.9c0.8,11,2,26.1,6.2,41.8
		c5,18.7,13.4,34,24.9,45.4c22.9,22.6,51.3,30.2,66.2,32.7c6.5,1.1,12.7,1.6,19,1.6c22.3,0,46.8-6.8,82-22.9
		c57.2-26.1,99.2-56.6,121.7-72.9c2.5-1.9,5-3.7,7.3-5.3c-4.8,5.8-12,13.7-19.7,22.4c-16.7,18.7-39.6,44.4-64.9,75.3
		c-48.4,59.3-54.3,75.7-49.4,90c8.9,25.9,50.9,34.1,96.9,40.9c35.5,5.2,65.8,5.4,83.9,5.4c1.7,0,3.4,0,5,0c-0.8,0.2-1.7,0.3-2.5,0.5
		c-19.8,4-56.8,11.4-95.9,29.6c-28.7,13.4-88.5,41.3-87.6,77.5c0.4,14,10.1,27.8,29,40.9c15.4,10.8,33.7,19.1,47,25.1l0.1,0
		c26.3,11.9,52.1,18.8,73.9,22.8c-24.2,0.5-47.5,2-69.4,4.7c-44.1,5.3-86.3,13.9-96.2,40.4c-1.9,5.1-3.1,13,4.5,29.2
		c9.4,19.9,30.1,47.6,61.6,82.3c32.3,35.6,63.2,64.6,83.9,83.6c-27.2-19.3-70.7-46.9-125.6-65.9c-8.8-3.1-35.7-12.4-71.7-14.9
		c-12-0.9-24.4-1.7-36.2-1.7c-27.8,0-46.2,5.1-59.7,16.5c-28,23.6-26.6,69.2-25.8,96.4c0.1,4.6,0.3,9.6,0.2,13.2
		c-0.7-2.4-1.4-5.5-2.1-8.4c-4.3-18.1-11.6-48.5-34.2-74.5c-9-10.3-42-44.1-89.2-44.1c-2.3,0-4.7,0.1-7,0.2
		c-43,3-70.4,32.6-77.7,41.6c-22.5,27.5-27.1,60.2-29.8,79.7c-0.5,3.7-1.1,7.8-1.7,10.5c-0.5-2.7-1-6.6-1.5-10.2
		c-2.4-19-6.3-50.7-27.7-77.7c-5.4-6.8-34.8-41.1-80.3-42.4c-0.9,0-1.8,0-2.7,0c-52.3,0-86.7,44.5-96,58.2
		c-7.5,11-12.8,22.5-16.6,32.7c0.3-10-0.8-21.1-4.9-32.1c-5.5-14.6-16.2-28-30.8-38.8c-13.5-10-29.7-17-45.6-19.9
		c-2.7-0.5-6.4-1.1-11.3-1.1c-24.7,0-61.4,15-112.1,45.8c-41.2,25-71.9,48.5-92.3,64c-5.8,4.4-11.4,8.7-15.6,11.7
		c3.3-4.1,8-9.7,12.8-15.4c15.4-18.2,38.7-45.7,62.4-80.3c20.7-30.2,40.2-58.6,53-84.1c14.7-29.4,17.9-50.3,10.3-65.8
		c-5.4-10.9-16.1-17.6-34.7-22c-17.1-4-40.9-6-71-8.5l-6.8-0.6c-19.3-1.6-38.8-2.4-59.6-2.4c-4.8,0-9.4,0-13.7,0.1
		c17.6-3,39-7.8,61.7-15.6c34.1-11.8,105.1-36.3,108.4-78.1c2.8-35.9-46.3-66.1-70-80.6c-34.6-21.3-70-31.7-95.2-37.3
		c12.5,0.8,27.7,1.5,44.7,1.5c17.5,0,34.6-0.8,50.8-2.2c55.8-5.2,113.5-10.5,127.9-44c13.3-31.1-17.6-71.3-56.7-122.2
		c-19.2-24.9-38.2-45.3-52.6-59.8C184.1,57.6,210.1,76.9,241,96c22.1,13.6,43.7,26.6,65.2,36.7c25.5,12,46.6,17.9,64.5,17.9
		c11.7,0,22.3-2.6,31.4-7.7c13.7-7.7,21.4-19.5,25.5-25.9c17.6-27.2,17.1-59,15.1-79.5c5.6,18.9,15.6,46.7,37.7,70.6
		c9.7,10.5,32.5,35.2,64.9,35.2c0.4,0,0.8,0,1.2,0c27.3-0.5,47.1-17.9,56.5-28.2c26.3-28.9,28.3-69.2,29.3-90.8
		C632.4,21.6,632.6,18.9,632.7,16.5 M632.3,8C632.3,8,632.3,8,632.3,8c-7.2,0.5,5.5,64.3-31.6,105.1c-3.7,4.1-24.3,26.7-54.4,27.2
		c-0.4,0-0.7,0-1.1,0c-31.1,0-53.2-23.9-62.7-34.3c-36.2-39.2-39.7-90.3-44-90.3c0,0-0.1,0-0.1,0c-4.6,0.9,14.6,56.2-13.4,99.6
		c-4.2,6.4-11.4,17.6-24.4,24.9c-9.1,5.1-19.2,7.3-29.9,7.3c-39,0-87-28.9-128.1-54.2C182,56.1,141.1,18.1,137.7,18.1
		c-0.1,0-0.1,0-0.2,0.1c-2,2.2,37.4,33.4,78.5,86.9c38.7,50.3,69,89.7,56.4,119.2c-13.6,31.8-70.7,37.1-125.4,42.2
		c-17.8,1.6-34.9,2.2-50.5,2.2c-38.6,0-68.2-3.6-77.8-3.6c-2.1,0-3.2,0.2-3.3,0.6c-0.5,3.3,65.8,4.9,130,44.4
		c23.3,14.3,71.2,43.8,68.5,77.8c-3.1,39.8-73.7,64.2-106.4,75.5C51,482.8,1.8,483,2,485c0.1,0.5,2,0.7,5.4,0.7
		c8.8,0,27.7-1.2,53.1-1.2c17.2,0,37.3,0.6,59.4,2.4c65.3,5.5,99.2,7.5,110.1,29.4c15.9,32-22.2,87.4-63,146.9
		c-42.3,61.7-83.4,100.9-80,104.3c0.1,0.1,0.4,0.2,0.6,0.2c6.4,0,47.4-38.6,116.1-80.3c63.3-38.5,93.9-45.4,110.6-45.4
		c4.5,0,7.9,0.5,10.8,1c30.6,5.5,62.8,27.1,74.1,56.8c11.9,31.4-2.5,64.8,0,65.4c0,0,0,0,0.1,0c2.4,0,5.7-34.5,26.7-65.4
		c7.6-11.1,41.3-56.8,93.5-56.8c0.9,0,1.7,0,2.6,0c45.4,1.3,74.4,36.7,78,41.2c31.8,40.1,24.3,91.8,31.5,91.8c0,0,0,0,0,0
		c7.3,0,0.6-53.5,33.9-94.2c4.3-5.2,31.5-37.4,75.6-40.5c2.3-0.2,4.6-0.2,6.8-0.2c48,0,80.8,35.9,87,43
		c33.5,38.6,32.8,87.9,39.3,87.9c0,0,0.1,0,0.1,0c8.3-0.9-12.3-81.4,26.8-114.4c14.9-12.5,35.4-15.7,57.8-15.7
		c11.7,0,23.9,0.9,36,1.7c32.9,2.4,57.9,10.3,70.9,14.8c90.6,31.4,151.1,87.2,155,87.2c0.1,0,0.1,0,0.2-0.1
		c2.1-2.7-51.5-44.9-110.3-109.7c-72.8-80.2-68.3-101.1-65.5-108.4c9.3-24.6,49.7-33.2,93.8-38.5c32.2-3.9,62-4.8,84.6-4.8
		c20.4,0,34.9,0.8,40,0.8c1.3,0,2-0.1,2-0.2c0.1-1.2-63.9,1.1-130.3-29c-25.9-11.7-73.5-33.3-74.3-63.4
		c-0.9-34.2,57.5-61.5,85.9-74.7c59.1-27.6,112.4-30,111.9-34.2c-0.4-3.9-44.1,1.7-103.2-7c-41.3-6.1-85.9-13.9-94.5-38.9
		c-4.5-13,1-28.5,48.8-87.2c51.9-63.6,94.1-105.1,91.4-108.2c-0.1-0.1-0.2-0.2-0.5-0.2c-6,0-56.9,46.8-139,84.2
		c-34.8,15.9-58.8,22.6-80.7,22.6c-6.3,0-12.4-0.5-18.5-1.6c-9.8-1.7-40.4-8-64.6-31.9C860,78.1,871.5,13.7,863.9,13.4c0,0,0,0,0,0
		c-7,0-0.9,57-37,94.9c-26.6,28-62.6,31.4-68.5,31.9c-0.5,0-2.5,0.2-5.6,0.2c-13.9,0-50.3-2.7-77.9-29C634.1,72.7,639.3,8,632.3,8
		L632.3,8z"/>
</g>
<g>
	<path class="st1" d="M286,495c2.5-7.6,5-15,7.3-22.3c1-3.1,2-6.3,3-9.7c1-3.4,2.1-6.7,3.1-10c1-3.3,2-6.5,2.9-9.6
		c0.9-3.1,1.7-5.9,2.4-8.6c3.2,0,6.2-0.2,9-0.5c2.8-0.3,5.9-0.7,9.2-0.9c-0.2,1.3-0.4,2.7-0.6,4.2c-0.2,1.6-0.4,3.2-0.7,4.9
		c-0.3,1.7-0.5,3.5-0.8,5.3c-0.3,1.8-0.6,4.2-1,7c-0.4,2.9-1,6.4-1.6,10.7h1.1c1.7-4.3,3.1-7.9,4.2-10.8c1.1-2.9,2-5.2,2.7-7.1
		c0.7-1.8,1.4-3.6,2.1-5.4c0.7-1.7,1.4-3.4,2.1-5c0.7-1.6,1.3-3,1.9-4.2c1.4-0.1,2.8-0.3,4.1-0.4c1.3-0.2,2.5-0.4,3.8-0.6
		c1.3-0.2,2.6-0.4,3.9-0.6c1.3-0.2,2.7-0.4,4.3-0.7c-0.6,3.3-1.1,6.7-1.6,10.2c-0.5,3.5-1,6.9-1.4,10.4c-0.4,3.5-0.8,6.9-1.2,10.2
		c-0.4,3.4-0.7,6.6-1,9.6c-0.7,7.1-1.3,14-1.8,20.7l-15.1,2.7c0-0.3,0-1.1,0.1-2.3c0.1-1.3,0.2-2.8,0.3-4.6c0.1-1.8,0.3-3.9,0.6-6.1
		c0.3-2.2,0.5-4.5,0.8-6.7s0.5-4.4,0.8-6.5c0.3-2.1,0.6-3.9,0.9-5.4h-0.8c-0.8,2.4-1.7,4.9-2.7,7.6c-1,2.7-2,5.4-3,8.1
		c-1,2.7-2,5.4-3,8c-1,2.6-1.8,5.1-2.6,7.5c-2,0.1-3.8,0.1-5.2,0.2c-1.4,0.1-3.1,0.2-5,0.3l2.8-31.8h-1.3c-0.1,0.7-0.4,2-0.9,3.7
		c-0.5,1.7-1,3.7-1.6,6c-0.6,2.3-1.3,4.6-1.9,7c-0.7,2.4-1.3,4.7-1.9,6.8c-0.6,2.1-1.1,3.8-1.5,5.1c-0.4,1.3-0.6,2.1-0.7,2.3
		L286,495z"/>
	<path class="st1" d="M377.1,483.7c0,0-0.7,1.1-2.2,3.4c-1.5,2.3-3.2,4.2-5.2,5.6c-2,1.5-4.1,2.6-6.4,3.3c-2.3,0.7-4.5,1-6.8,1
		c-1.3,0-2.7-0.2-4.1-0.6c-1.4-0.4-2.6-1.1-3.7-1.9c-1.1-0.9-2-1.9-2.7-3.3c-0.7-1.3-1.1-2.9-1.1-4.6c0-0.2,0-0.5,0-0.7
		c0-0.2,0-0.5,0.1-0.7c0.2-2.3,0.6-5.2,1.1-8.5c0.5-3.3,1.1-6.8,1.6-10.4c0.6-3.6,1.2-7.2,1.9-10.8c0.7-3.6,1.3-6.9,1.9-9.9
		c0.5-3,1-5.4,1.4-7.4c0.4-2,0.7-3.2,0.8-3.6c1.2-0.1,2.7-0.3,4.3-0.4c1.7-0.2,3.2-0.3,4.7-0.4c1.8-0.2,3.6-0.3,5.3-0.5
		c-1.5,6.9-2.8,13.2-4,18.7c-0.5,2.4-1,4.8-1.5,7.2c-0.5,2.4-1,4.6-1.4,6.6c-0.4,2-0.8,3.7-1.1,5.2c-0.3,1.5-0.6,2.6-0.8,3.6
		c-0.2,0.9-0.4,2.1-0.7,3.5c-0.3,1.4-0.4,2.7-0.4,3.8c0,0.9,0.2,1.7,0.7,2.3c0.5,0.6,1,0.9,1.7,0.9c1,0,1.8-0.4,2.4-1.2
		c0.6-0.8,1.2-1.7,1.6-2.8c0.4-1.1,0.8-2.2,1-3.3c0.2-1.1,0.4-2,0.6-2.6c0.3-1.7,0.7-3.5,1.2-5.5c0.4-2,0.9-4.1,1.3-6.3
		c0.4-2.2,0.9-4.4,1.3-6.7c0.4-2.3,0.9-4.5,1.3-6.7c1-5,1.9-10.2,2.9-15.6l13.2-0.9c-0.6,3-1.1,5.7-1.6,8.1c-0.5,2.5-1,5.3-1.5,8.4
		c-0.5,3.1-1.2,6.4-1.9,9.8c-0.7,3.4-1.4,6.7-2,10c-0.7,3.3-1.3,6.3-1.9,9C377.5,482.1,377.1,483.7,377.1,483.7z"/>
	<path class="st1" d="M415.1,483.1c-1.2,2.6-2.9,4.8-5,6.7c-2.1,1.9-4.6,3.3-7.5,4.4c-2.9,1-5.9,1.5-9.2,1.5c-2.3,0-4.6-0.6-6.9-1.8
		c-2.3-1.2-4.5-3.2-6.7-5.9l6.4-12.4c0.4,0.7,1,1.5,1.8,2.3c0.8,0.8,1.7,1.4,2.7,2c1,0.6,2,1,3,1.4c1,0.4,1.9,0.6,2.7,0.6
		c0.7,0,1.4-0.1,2.2-0.3c0.8-0.2,1.4-0.6,2.1-1c0.6-0.5,1.1-1,1.5-1.6c0.4-0.6,0.6-1.3,0.6-2.1c0-1.4-0.4-2.6-1.3-3.8
		c-0.9-1.2-2-2.3-3.3-3.3c-1.3-1.1-2.8-2.1-4.3-3.2c-1.6-1.1-3-2.2-4.3-3.4c-1.3-1.2-2.4-2.5-3.3-4c-0.9-1.5-1.4-3.1-1.4-5
		c0-3,0.9-5.7,2.7-8.3c1.8-2.6,4-4.8,6.7-6.6c2.7-1.9,5.6-3.3,8.8-4.4c3.2-1.1,6.2-1.6,9-1.6c1.6,0,3,0.2,4.4,0.6
		c1.4,0.4,2.6,1,3.6,1.8c1,0.8,1.8,1.9,2.4,3.1c0.6,1.3,0.9,2.8,0.9,4.7c0,0.8-0.1,1.6-0.2,2.4c-0.1,0.8-0.3,1.7-0.4,2.6l-12.6,3.6
		c0.1-0.5,0.2-0.9,0.3-1.4c0.1-0.5,0.1-0.9,0.1-1.4c0-1.7-0.3-3-0.9-3.7c-0.6-0.8-1.4-1.2-2.4-1.2c-0.5,0-1,0.2-1.7,0.5
		c-0.7,0.3-1.3,0.8-2,1.3c-0.7,0.5-1.2,1.2-1.7,1.9c-0.5,0.7-0.7,1.5-0.7,2.4c0,1.4,0.4,2.5,1.2,3.4c0.8,0.9,1.7,1.8,2.9,2.6
		c1.2,0.8,2.4,1.6,3.8,2.4c1.4,0.8,2.6,1.9,3.8,3.2c1.2,1.3,2.1,3,2.9,4.9c0.8,2,1.2,4.5,1.2,7.5
		C416.9,477.6,416.3,480.5,415.1,483.1z"/>
	<path class="st1" d="M427.4,494c-1.5,0.1-3.1,0.3-4.7,0.5c-1.6,0.2-3.1,0.4-4.4,0.6c-1.3,0.2-2,0.3-2.1,0.3
		c0.6-2.5,1.2-5.2,1.8-8.2c0.6-3,1.2-6.1,1.9-9.4c0.6-3.3,1.2-6.6,1.8-10c0.6-3.4,1.1-6.6,1.6-9.8c1.2-7.3,2.4-14.8,3.6-22.5
		l13.5-2.1c-1.3,7.6-2.6,15.2-3.9,22.5c-0.5,3.1-1.1,6.4-1.6,9.8c-0.6,3.4-1.1,6.7-1.6,10c-0.5,3.3-1.1,6.5-1.5,9.6
		c-0.5,3.1-0.9,5.9-1.3,8.4C430,493.8,429,493.9,427.4,494z"/>
	<path class="st1" d="M465.7,485.3c-1.7,2.3-3.5,4.3-5.4,5.8c-1.9,1.6-3.8,2.7-5.7,3.5c-1.9,0.7-3.8,1.1-5.5,1.1
		c-1.8,0-3.4-0.4-4.9-1.2c-1.5-0.8-2.8-2-3.9-3.6c-1.1-1.6-2-3.6-2.6-5.9c-0.7-2.3-1-5.1-1-8.2c0-5.4,0.8-10.7,2.3-15.9
		c1.5-5.2,3.6-9.9,6.3-14.1c2.7-4.2,5.9-7.5,9.7-10.1c3.7-2.5,7.8-3.8,12.3-3.8c1.4,0,2.7,0.3,4,0.9c1.3,0.6,2.4,1.4,3.3,2.4
		c0.9,1,1.7,2.3,2.2,3.8c0.5,1.5,0.8,3.1,0.8,5c0,0.3,0,0.7,0,1.1c0,0.4,0,0.8-0.1,1.2l-11.4,3c-0.7-1.4-1.5-2.1-2.4-2.1
		c-0.9,0-1.9,0.5-2.9,1.6c-1,1.1-2,2.4-3,4.1c-1,1.7-1.9,3.6-2.9,5.6c-0.9,2.1-1.7,4.2-2.4,6.3c-0.7,2.1-1.3,4.1-1.7,6
		c-0.4,1.9-0.6,3.5-0.6,4.7c0,1.8,0.2,3.1,0.7,3.9c0.5,0.7,1.1,1.1,1.9,1.1c0.6,0,1.4-0.2,2.2-0.7c0.8-0.5,1.6-1.1,2.3-1.9
		c0.7-0.8,1.3-1.6,1.9-2.6c0.6-1,1-1.9,1.2-2.9l9.9,3.9C468.9,480.2,467.4,483,465.7,485.3z"/>
	<path class="st1" d="M496.3,494.6c-1.7,0.3-3.3,0.5-4.7,0.8c0.2-1.9,0.5-3.7,0.7-5.6c0.2-1.6,0.3-3.2,0.5-4.8
		c0.1-1.6,0.3-3,0.4-4.1h-7.5l-3.5,12.3c-1.3,0.2-2.8,0.4-4.5,0.6c-1.7,0.2-3.4,0.4-4.9,0.6c-1.8,0.2-3.7,0.5-5.5,0.7
		c2.3-7.6,4.6-15.1,6.8-22.4c0.9-3.1,1.9-6.3,2.9-9.7c1-3.4,2-6.7,3-10.1c1-3.3,2-6.5,2.9-9.6c0.9-3.1,1.7-5.9,2.4-8.5
		c3.9-0.3,7.9-0.6,12-1c4.1-0.4,8-0.9,11.9-1.6c-0.2,1.8-0.4,4.1-0.6,6.8c-0.2,2.7-0.4,5.7-0.6,8.9c-0.2,3.2-0.3,6.5-0.5,10
		c-0.2,3.5-0.3,6.9-0.5,10.3c-0.3,7.9-0.6,16.2-1,25.1c-1.7,0.3-3.5,0.5-5.2,0.7C499.6,494,498,494.3,496.3,494.6z M487.7,472.3
		c0.2,0,0.7,0,1.3,0c0.6,0,1.2-0.1,1.9-0.1c0.7,0,1.3-0.1,1.9-0.1c0.6,0,1-0.1,1.2-0.1c0-0.3,0-0.9,0.1-1.8c0.1-0.8,0.2-1.8,0.3-2.8
		c0.1-1.1,0.2-2.2,0.3-3.5c0.1-1.3,0.2-2.5,0.3-3.7c0.2-2.9,0.5-6,0.9-9.4l0.5-7.4l-1.3,0.1l-2,7.4L487.7,472.3z"/>
	<path class="st1" d="M524.9,492.9c-2,0.1-4,0.3-6,0.5c-2,0.2-4,0.5-5.9,0.9c-1.9,0.4-3.7,0.8-5.2,1.3c0.3-2.6,0.8-5.4,1.2-8.6
		c0.5-3.1,1-6.4,1.6-9.8c0.6-3.4,1.2-6.8,1.8-10.2c0.6-3.4,1.2-6.7,1.9-9.8c1.4-7.5,3-15.1,4.6-22.9l15.2-2
		c-1.6,6.6-3.1,13.1-4.5,19.3c-0.6,2.7-1.3,5.5-1.9,8.3c-0.6,2.9-1.2,5.7-1.8,8.4c-0.6,2.7-1.1,5.4-1.6,8c-0.5,2.6-0.8,4.9-1.1,6.8
		c1.4-0.1,3-0.2,4.6-0.2c1.6,0,3.1,0,4.4,0c0.1,1.1,0.1,2.2,0.3,3.2c0.1,1.1,0.2,2,0.4,2.9c0.1,0.9,0.3,1.6,0.3,2.3
		c0.1,0.7,0.2,1.1,0.2,1.3c-0.5,0-0.9,0-1.3,0c-0.4,0-0.9,0-1.3,0C528.8,492.8,526.9,492.8,524.9,492.9z"/>
	<path class="st1" d="M553.3,495.9l6.6-60.8c2.7-0.1,5.3-0.4,7.7-0.8c2.4-0.4,4.8-0.7,7.1-0.9c0,0.1-0.1,0.6-0.3,1.8
		c-0.2,1.1-0.4,2.6-0.7,4.4c-0.3,1.8-0.6,3.8-1,6.1c-0.3,2.3-0.9,5.4-1.5,9.3c-0.7,3.9-1.5,9.4-2.6,16.3h1.3
		c1.5-5.2,2.7-9.5,3.7-12.9c1-3.3,1.8-6,2.4-8.1c0.6-2.1,1.2-4.1,1.7-6c0.5-1.9,1.1-3.7,1.6-5.4c0.5-1.7,0.9-3.1,1.2-4.2h0.8
		c1,0,2.1-0.1,3.2-0.2c1.1-0.1,2.1-0.2,3-0.4c1-0.1,1.9-0.3,3-0.6c-0.1,0.5-0.2,1.6-0.4,3.2c-0.1,1.6-0.3,3.5-0.6,5.8
		c-0.2,2.3-0.5,4.7-0.7,7.4c-0.2,2.7-0.5,5.4-0.7,8c-0.2,2.6-0.4,5.1-0.7,7.4c-0.2,2.3-0.4,4.3-0.6,6h1.6l8.2-36.8
		c2-0.3,3.9-0.5,5.8-0.8c1.7-0.2,3.4-0.5,5.2-0.7c1.8-0.2,3.4-0.5,4.8-0.8c-0.9,2.4-1.7,5.1-2.6,8c-0.9,2.9-1.8,6-2.7,9.3
		c-0.9,3.3-1.8,6.5-2.6,9.8c-0.8,3.3-1.7,6.5-2.5,9.6c-1.8,7.3-3.6,14.8-5.4,22.5l-19.6,3.3l3.8-33h-1l-8.6,31.1L553.3,495.9z"/>
	<path class="st1" d="M602.2,495.6c1.6-7.6,3.1-15,4.5-22.3c0.5-3.1,1.1-6.3,1.7-9.6c0.6-3.3,1.2-6.6,1.8-9.9
		c0.5-3.3,1.1-6.4,1.6-9.5c0.5-3.1,0.9-5.8,1.2-8.3c3.3-1,6.8-1.8,10.7-2.3c3.8-0.5,7.6-0.7,11.4-0.7c2.3,0,4.1,0.3,5.6,0.8
		c1.5,0.5,2.6,1.2,3.5,2.2c0.8,0.9,1.4,2,1.8,3.3c0.3,1.3,0.5,2.7,0.5,4.2c0,2.3-0.4,4.5-1.2,6.7c-0.8,2.2-1.9,4.3-3.2,6.2
		c-1.4,2-2.9,3.8-4.7,5.4c-1.8,1.6-3.7,3-5.7,4c1,2.3,2.2,4.8,3.3,7.5c1.2,2.7,2.3,5.3,3.3,7.7c1.2,2.9,2.3,5.7,3.6,8.6l-13.4,4.6
		c-1.2-3.7-2.2-7.1-3.1-10.3c-0.4-1.3-0.8-2.7-1.2-4.1c-0.4-1.4-0.8-2.7-1.1-4c-0.3-1.3-0.6-2.4-0.9-3.4c-0.2-1-0.4-1.8-0.4-2.4
		l-1.1,0.3c-0.3,1.8-0.8,4-1.3,6.4c-0.5,2.5-0.9,4.8-1.3,7.1c-0.5,2.7-1,5.4-1.6,8.1L602.2,495.6z M622.5,458.4
		c1.1-0.1,2.4-0.6,4-1.4c1.6-0.8,3.1-1.8,4.5-2.9c1.4-1.1,2.7-2.3,3.7-3.5c1-1.2,1.6-2.3,1.6-3.2c0-0.6-0.2-1.1-0.6-1.5
		c-0.4-0.4-1-0.7-1.7-0.9c-0.7-0.2-1.5-0.3-2.4-0.4c-0.9-0.1-1.8-0.1-2.7-0.1c-0.6,0-1.3,0-1.9,0c-0.7,0-1.3,0-1.8,0L622.5,458.4z"
		/>
	<path class="st1" d="M652,494c-1.5,0.1-3.1,0.3-4.7,0.5c-1.6,0.2-3.1,0.4-4.4,0.6c-1.3,0.2-2,0.3-2.1,0.3c0.6-2.5,1.2-5.2,1.8-8.2
		c0.6-3,1.2-6.1,1.9-9.4c0.6-3.3,1.2-6.6,1.8-10c0.6-3.4,1.1-6.6,1.6-9.8c1.2-7.3,2.4-14.8,3.6-22.5l13.5-2.1
		c-1.3,7.6-2.6,15.2-3.9,22.5c-0.5,3.1-1.1,6.4-1.6,9.8c-0.6,3.4-1.1,6.7-1.6,10c-0.5,3.3-1.1,6.5-1.5,9.6c-0.5,3.1-0.9,5.9-1.3,8.4
		C654.5,493.8,653.5,493.9,652,494z"/>
	<path class="st1" d="M665.6,495.6c1.3-6.3,2.6-12.5,3.8-18.6c0.5-2.6,1-5.2,1.6-8c0.5-2.8,1-5.5,1.5-8.3c0.5-2.7,0.9-5.3,1.3-7.9
		c0.4-2.5,0.7-4.9,1-7c-1.3-0.2-2.7-0.2-4-0.2c-1.4,0.1-2.7-0.1-4-0.5c0.1-0.9,0.1-2,0.1-3.2c0-1.2,0-2.4,0.1-3.6
		c0.1-1.3,0.1-2.7,0.2-4.2c1.5,0.1,3,0.2,4.5,0.3c1.5,0.1,3,0.1,4.5,0.1c2.9,0,5.8-0.1,8.5-0.2c2.7-0.1,5.3-0.3,7.6-0.5
		c2.3-0.2,4.6-0.4,6.9-0.7l-1,4.6c-0.3,1.3-0.6,2.7-0.8,4c-0.3,1.4-0.5,2.5-0.7,3.5c-1.3,0.3-2.6,0.6-3.9,0.7
		c-1.3,0.1-2.6,0.3-3.9,0.6c-0.4,1.9-0.8,4.1-1.3,6.5c-0.5,2.4-0.9,4.8-1.3,7.4c-0.4,2.5-0.9,5.1-1.3,7.7c-0.4,2.6-0.8,5.1-1.2,7.5
		c-0.9,5.6-1.8,11.5-2.6,17.5L665.6,495.6z"/>
	<path class="st1" d="M700.8,494c-1.5,0.1-3.1,0.3-4.7,0.5c-1.6,0.2-3.1,0.4-4.4,0.6c-1.3,0.2-2,0.3-2.1,0.3
		c0.6-2.5,1.2-5.2,1.8-8.2c0.6-3,1.2-6.1,1.9-9.4c0.6-3.3,1.2-6.6,1.8-10c0.6-3.4,1.1-6.6,1.6-9.8c1.2-7.3,2.4-14.8,3.6-22.5
		l13.5-2.1c-1.3,7.6-2.6,15.2-3.9,22.5c-0.5,3.1-1.1,6.4-1.6,9.8c-0.6,3.4-1.1,6.7-1.6,10c-0.5,3.3-1.1,6.5-1.5,9.6
		c-0.5,3.1-0.9,5.9-1.3,8.4C703.4,493.8,702.4,493.9,700.8,494z"/>
	<path class="st1" d="M707.1,495.9c1.7-8.2,3.4-16.2,4.9-23.9c0.6-3.3,1.2-6.7,1.9-10.3c0.7-3.5,1.3-7,1.9-10.5
		c0.6-3.5,1.1-6.8,1.6-9.9c0.5-3.2,0.8-6,1-8.6c0.8,0.1,1.4,0.1,1.9,0.1c0.5,0,1.1,0,1.8,0c0.8,0,1.8,0,2.9,0c1.2,0,2.3-0.1,3.5-0.1
		c1.2-0.1,2.4-0.1,3.7-0.2c0.8,4,1.5,7.8,2.2,11.6c0.6,3.3,1.3,6.6,1.9,10c0.7,3.4,1.3,6.3,1.8,8.7c0.2-1.1,0.5-2.5,0.8-4
		c0.3-1.5,0.6-3.1,1-4.8c0.3-1.7,0.7-3.3,1-5c0.3-1.7,0.7-3.4,1-5c0.8-3.7,1.6-7.5,2.5-11.5l10.6-1.3c-2,8.7-3.7,17-5.2,24.8
		c-0.7,3.4-1.4,6.8-2,10.2c-0.7,3.5-1.3,6.8-1.9,9.9c-0.6,3.2-1.1,6.1-1.5,8.8c-0.4,2.7-0.7,5-1,6.8c-0.2,0-0.9,0.1-2,0.4
		c-1.2,0.3-2.5,0.6-4.1,0.9c-1.5,0.3-3.1,0.7-4.6,1c-1.5,0.3-2.7,0.7-3.4,0.9c-0.3-4.6-0.7-8.9-1.1-13c-0.2-1.8-0.4-3.6-0.6-5.4
		c-0.2-1.9-0.4-3.6-0.6-5.4c-0.2-1.7-0.5-3.3-0.7-4.8c-0.2-1.5-0.5-2.8-0.7-3.9c-0.2,1.1-0.4,2.3-0.7,3.8c-0.3,1.4-0.6,2.9-0.9,4.5
		c-0.3,1.6-0.6,3.3-0.9,5c-0.3,1.7-0.6,3.4-1,5c-0.8,3.8-1.6,7.8-2.4,12L707.1,495.9z"/>
	<path class="st1" d="M789.5,478.1c-1.9,4.3-4.2,7.9-6.9,10.8c-2.7,2.9-5.6,5.1-8.7,6.5c-3.1,1.4-6,2.1-8.8,2.1
		c-2.1,0-4.2-0.5-6.1-1.4c-1.9-0.9-3.6-2.3-5-4.2c-1.4-1.9-2.5-4.2-3.3-7c-0.8-2.8-1.2-6.1-1.2-9.8c0-7.4,1.1-13.8,3.2-19.3
		c2.1-5.5,4.8-10,8.1-13.7c3.3-3.7,6.8-6.4,10.5-8.1c3.7-1.8,7.2-2.7,10.4-2.7c2.3,0,4.3,0.4,6,1.2c1.7,0.8,3.1,1.9,4.2,3.2
		c1.1,1.3,1.9,2.9,2.4,4.7c0.5,1.8,0.7,3.7,0.7,5.7l-11.9,2.2c-0.5-2.3-1.2-3.9-2.1-4.9c-0.9-1-1.8-1.5-2.9-1.5c-1.4,0-3,1-4.8,3
		c-1.7,2-3.4,4.6-4.9,7.8c-1.5,3.2-2.8,6.7-3.8,10.5c-1,3.8-1.6,7.6-1.7,11.3c0,3.5,0.5,6.1,1.6,7.6c1.1,1.5,2.4,2.3,4.1,2.3
		c1.2,0,2.4-0.3,3.6-0.9c1.2-0.6,2.4-1.4,3.3-2.4c1-1.1,1.8-2.3,2.5-3.7c0.7-1.4,1-2.9,1.1-4.6l-9.3,1.4l1.6-8.5
		c2.7-0.3,5.4-0.7,8-1c2.2-0.3,4.5-0.6,7-1c2.5-0.4,4.6-0.8,6.5-1.1C792.6,468.7,791.4,473.8,789.5,478.1z"/>
	<path class="st1" d="M813.8,495.6c1.3-6.3,2.6-12.5,3.8-18.6c0.5-2.6,1-5.2,1.6-8c0.5-2.8,1-5.5,1.5-8.3c0.5-2.7,0.9-5.3,1.3-7.9
		c0.4-2.5,0.7-4.9,1-7c-1.3-0.2-2.7-0.2-4-0.2c-1.4,0.1-2.7-0.1-4-0.5c0.1-0.9,0.1-2,0.1-3.2c0-1.2,0-2.4,0.1-3.6
		c0.1-1.3,0.1-2.7,0.2-4.2c1.5,0.1,3,0.2,4.5,0.3c1.5,0.1,3,0.1,4.5,0.1c2.9,0,5.8-0.1,8.5-0.2c2.7-0.1,5.3-0.3,7.6-0.5
		c2.3-0.2,4.6-0.4,6.9-0.7l-1,4.6c-0.3,1.3-0.6,2.7-0.8,4c-0.3,1.4-0.5,2.5-0.7,3.5c-1.3,0.3-2.6,0.6-3.9,0.7
		c-1.3,0.1-2.6,0.3-3.9,0.6c-0.4,1.9-0.8,4.1-1.3,6.5c-0.5,2.4-0.9,4.8-1.3,7.4c-0.4,2.5-0.9,5.1-1.3,7.7c-0.4,2.6-0.8,5.1-1.2,7.5
		c-0.9,5.6-1.8,11.5-2.6,17.5L813.8,495.6z"/>
	<path class="st1" d="M838.1,495.6l11.4-60.9l27.4-2.3c-0.4,1.3-0.8,2.5-1,3.9c-0.3,1.1-0.6,2.2-0.8,3.4c-0.3,1.2-0.5,2.2-0.7,3.1
		c-0.6,0.1-1.4,0.1-2.5,0.1c-1.1,0-2.2,0.1-3.4,0.1c-1.2,0-2.4,0-3.7,0c-1.2,0-2.3,0-3.2,0l-3,15.3c1.8-0.1,3.5-0.2,5-0.3
		c1.3-0.1,2.6-0.1,3.9-0.1c1.3,0,2.3,0,2.9-0.1c-0.2,1.6-0.4,3.2-0.6,4.7c-0.2,1.5-0.4,3.1-0.7,4.7c-0.6,0.1-1.5,0.1-2.8,0.1
		c-1.3,0-2.6,0.1-3.9,0.1c-1.5,0.1-3.1,0.1-4.9,0.2l-2.9,15.8l12.7-2l-0.9,9.8L838.1,495.6z"/>
	<path class="st1" d="M894,494.6c-1.7,0.3-3.3,0.5-4.7,0.8c0.2-1.9,0.5-3.7,0.7-5.6c0.2-1.6,0.3-3.2,0.5-4.8c0.1-1.6,0.3-3,0.4-4.1
		h-7.5l-3.5,12.3c-1.3,0.2-2.8,0.4-4.5,0.6c-1.7,0.2-3.4,0.4-4.9,0.6c-1.8,0.2-3.7,0.5-5.5,0.7c2.3-7.6,4.6-15.1,6.8-22.4
		c0.9-3.1,1.9-6.3,2.9-9.7c1-3.4,2-6.7,3-10.1c1-3.3,2-6.5,2.9-9.6c0.9-3.1,1.7-5.9,2.4-8.5c3.9-0.3,7.9-0.6,12-1
		c4.1-0.4,8-0.9,11.9-1.6c-0.2,1.8-0.4,4.1-0.6,6.8c-0.2,2.7-0.4,5.7-0.6,8.9c-0.2,3.2-0.3,6.5-0.5,10c-0.2,3.5-0.3,6.9-0.5,10.3
		c-0.3,7.9-0.6,16.2-1,25.1c-1.7,0.3-3.5,0.5-5.2,0.7C897.4,494,895.8,494.3,894,494.6z M885.5,472.3c0.2,0,0.7,0,1.3,0
		c0.6,0,1.2-0.1,1.9-0.1c0.7,0,1.3-0.1,1.9-0.1c0.6,0,1-0.1,1.2-0.1c0-0.3,0-0.9,0.1-1.8c0.1-0.8,0.2-1.8,0.3-2.8
		c0.1-1.1,0.2-2.2,0.3-3.5c0.1-1.3,0.2-2.5,0.3-3.7c0.2-2.9,0.5-6,0.9-9.4l0.5-7.4l-1.3,0.1l-2,7.4L885.5,472.3z"/>
	<path class="st1" d="M901.8,495c2.5-7.6,5-15,7.3-22.3c1-3.1,2-6.3,3-9.7c1-3.4,2.1-6.7,3.1-10c1-3.3,2-6.5,2.9-9.6
		c0.9-3.1,1.7-5.9,2.4-8.6c3.2,0,6.2-0.2,9-0.5c2.8-0.3,5.9-0.7,9.2-0.9c-0.2,1.3-0.4,2.7-0.6,4.2c-0.2,1.6-0.4,3.2-0.7,4.9
		c-0.3,1.7-0.5,3.5-0.8,5.3c-0.3,1.8-0.6,4.2-1,7c-0.4,2.9-1,6.4-1.6,10.7h1.1c1.7-4.3,3.1-7.9,4.2-10.8c1.1-2.9,2-5.2,2.7-7.1
		c0.7-1.8,1.4-3.6,2.1-5.4c0.7-1.7,1.4-3.4,2.1-5c0.7-1.6,1.3-3,1.9-4.2c1.4-0.1,2.8-0.3,4.1-0.4c1.3-0.2,2.5-0.4,3.8-0.6
		c1.3-0.2,2.6-0.4,3.9-0.6c1.3-0.2,2.7-0.4,4.3-0.7c-0.6,3.3-1.1,6.7-1.6,10.2c-0.5,3.5-1,6.9-1.4,10.4c-0.4,3.5-0.8,6.9-1.2,10.2
		c-0.4,3.4-0.7,6.6-1,9.6c-0.7,7.1-1.3,14-1.8,20.7l-15.1,2.7c0-0.3,0-1.1,0.1-2.3c0.1-1.3,0.2-2.8,0.3-4.6c0.1-1.8,0.3-3.9,0.6-6.1
		c0.3-2.2,0.5-4.5,0.8-6.7c0.3-2.2,0.5-4.4,0.8-6.5c0.3-2.1,0.6-3.9,0.9-5.4h-0.8c-0.8,2.4-1.7,4.9-2.7,7.6c-1,2.7-2,5.4-3,8.1
		c-1,2.7-2,5.4-3,8c-1,2.6-1.8,5.1-2.6,7.5c-2,0.1-3.8,0.1-5.2,0.2c-1.4,0.1-3.1,0.2-5,0.3l2.8-31.8h-1.3c-0.1,0.7-0.4,2-0.9,3.7
		c-0.5,1.7-1,3.7-1.6,6c-0.6,2.3-1.3,4.6-1.9,7c-0.7,2.4-1.3,4.7-1.9,6.8c-0.6,2.1-1.1,3.8-1.5,5.1c-0.4,1.3-0.6,2.1-0.7,2.3
		L901.8,495z"/>
	<path class="st1" d="M994.6,483.1c-1.2,2.6-2.9,4.8-5,6.7c-2.1,1.9-4.6,3.3-7.5,4.4c-2.9,1-5.9,1.5-9.2,1.5c-2.3,0-4.6-0.6-6.9-1.8
		c-2.3-1.2-4.5-3.2-6.7-5.9l6.4-12.4c0.4,0.7,1,1.5,1.8,2.3c0.8,0.8,1.7,1.4,2.7,2c1,0.6,2,1,3,1.4c1,0.4,1.9,0.6,2.7,0.6
		c0.7,0,1.4-0.1,2.2-0.3c0.8-0.2,1.4-0.6,2.1-1c0.6-0.5,1.1-1,1.5-1.6c0.4-0.6,0.6-1.3,0.6-2.1c0-1.4-0.4-2.6-1.3-3.8
		c-0.9-1.2-2-2.3-3.3-3.3c-1.3-1.1-2.8-2.1-4.3-3.2c-1.6-1.1-3-2.2-4.3-3.4c-1.3-1.2-2.4-2.5-3.3-4c-0.9-1.5-1.4-3.1-1.4-5
		c0-3,0.9-5.7,2.7-8.3c1.8-2.6,4-4.8,6.7-6.6c2.7-1.9,5.6-3.3,8.8-4.4c3.2-1.1,6.2-1.6,9-1.6c1.6,0,3,0.2,4.4,0.6
		c1.4,0.4,2.6,1,3.6,1.8c1,0.8,1.8,1.9,2.4,3.1c0.6,1.3,0.9,2.8,0.9,4.7c0,0.8-0.1,1.6-0.2,2.4c-0.1,0.8-0.3,1.7-0.4,2.6l-12.6,3.6
		c0.1-0.5,0.2-0.9,0.3-1.4c0.1-0.5,0.1-0.9,0.1-1.4c0-1.7-0.3-3-0.9-3.7c-0.6-0.8-1.4-1.2-2.4-1.2c-0.5,0-1,0.2-1.7,0.5
		c-0.7,0.3-1.3,0.8-2,1.3c-0.7,0.5-1.2,1.2-1.7,1.9c-0.5,0.7-0.7,1.5-0.7,2.4c0,1.4,0.4,2.5,1.2,3.4c0.8,0.9,1.7,1.8,2.9,2.6
		c1.2,0.8,2.4,1.6,3.8,2.4c1.4,0.8,2.6,1.9,3.8,3.2c1.2,1.3,2.1,3,2.9,4.9c0.8,2,1.2,4.5,1.2,7.5
		C996.5,477.6,995.8,480.5,994.6,483.1z"/>
</g>
<g>
	<path class="st1" d="M380.3,310.1c-1.3,5.2-3.2,10.3-5.6,15.3c-2.4,5.1-5.4,9.9-8.9,14.6c-3.5,4.6-7.5,8.7-12,12.2
		c-4.5,3.5-9.4,6.3-14.7,8.4c-5.3,2.1-11,3.2-16.9,3.2c-1.3,0-2.5-0.1-3.8-0.2c-1.3-0.1-2.5-0.3-3.7-0.5c2.4-12.2,4.8-24,7.1-35.6
		c0.9-4.8,1.8-9.9,2.8-15.1c1-5.2,1.9-10.4,2.8-15.5c0.9-5.1,1.8-10,2.6-14.7c0.8-4.7,1.5-8.9,2.1-12.7c3.8-0.7,7.7-1.4,11.7-2
		c3.9-0.6,7.9-0.9,12.1-0.9c4.8,0,8.9,0.8,12.3,2.2c3.3,1.5,6.1,3.6,8.2,6.2c2.1,2.6,3.6,5.7,4.6,9.3c1,3.5,1.5,7.3,1.5,11.2
		C382.3,300,381.6,304.9,380.3,310.1z M347.6,300.1c-1.1,4.8-2.1,9.6-3.2,14.4c-1.1,4.9-2.1,9.9-3.2,15.2
		c-1.1,5.3-2.1,11.1-3.1,17.3c2.1-1.4,4.2-3.3,6.2-5.8c2-2.4,3.9-5.2,5.7-8.4c1.8-3.2,3.4-6.5,4.9-10.1c1.5-3.5,2.7-7,3.8-10.3
		c1.1-3.4,1.9-6.5,2.5-9.4c0.6-2.9,0.9-5.4,0.9-7.5c0-3.3-0.9-5.8-2.7-7.7c-1.8-1.9-4.7-2.8-8.6-2.8
		C349.7,290.3,348.7,295.3,347.6,300.1z"/>
	<path class="st1" d="M381.6,361.1l6.2-26.6c0-3.8-0.1-7.9-0.2-12.4c-0.1-4.5-0.3-8.9-0.6-13.4c-0.3-4.5-0.5-8.8-0.8-13
		c-0.3-4.2-0.5-7.9-0.7-11.1c-0.2-3.2-0.4-6.8-0.8-10.6l21.8-8.2v16.1c0,2.2,0,4.5,0,6.7c0,2.3,0,4.5-0.1,6.7c0,2.2-0.1,4.3-0.1,6.2
		c0,1.9,0,3.6,0,4.9c1.2-3,2.6-6.7,4.2-11.1c1.7-4.4,3.2-8.7,4.6-12.8c1.7-4.8,3.4-10,5.2-15.3l20.8,4.6
		c-3.8,7.6-7.6,15.1-11.2,22.6c-1.5,3.3-3.1,6.6-4.8,10.1c-1.7,3.5-3.4,7-5.1,10.5c-1.7,3.5-3.3,6.9-5,10.1
		c-1.6,3.3-3.1,6.3-4.4,9.1c-0.4,2.3-1,4.8-1.7,7.5c-0.7,2.7-1.3,5.3-1.9,7.8c-0.8,2.9-1.7,5.8-2.5,8.7L381.6,361.1z"/>
	<path class="st1" d="M423.5,363.7c2.5-12.4,4.9-24.6,7.2-36.4c0.9-4.9,1.9-10.1,2.9-15.5c1-5.4,2-10.8,2.9-16
		c0.9-5.2,1.7-10.3,2.5-15.2c0.8-4.9,1.4-9.4,1.8-13.4c2.8-0.2,5.4-0.4,8-0.5c2.3-0.2,4.7-0.3,7.1-0.5c2.4-0.1,4.6-0.3,6.4-0.5
		c1.2,6.8,2.2,13.3,3.1,19.4c0.4,2.6,0.9,5.4,1.4,8.3c0.5,2.9,1,5.6,1.4,8.3c0.4,2.6,0.9,5.2,1.3,7.6c0.4,2.4,0.9,4.6,1.3,6.4
		c0.4-1.9,0.8-4,1.2-6.4c0.4-2.4,0.9-5,1.5-7.7c0.5-2.7,1.1-5.4,1.7-8.3c0.6-2.8,1.1-5.6,1.7-8.2c1.3-6.2,2.7-12.6,4.2-19.3l16.3-2
		c-3,13.2-5.7,25.8-8,37.6c-1.1,5.1-2.1,10.3-3.1,15.5c-1,5.2-2,10.2-2.9,15.1c-0.9,4.9-1.7,9.3-2.3,13.4c-0.6,4.1-1.1,7.6-1.5,10.4
		c-0.3,0-1.3,0.2-3.1,0.6c-1.8,0.4-3.9,0.9-6.3,1.4c-2.4,0.5-4.7,1.1-7.1,1.7c-2.4,0.6-4.1,1-5.3,1.4c-0.6-7.1-1.3-13.9-2-20.4
		c-0.3-2.7-0.6-5.6-0.9-8.5c-0.4-2.9-0.7-5.7-1-8.3c-0.3-2.6-0.6-5.1-0.9-7.5c-0.3-2.3-0.6-4.3-0.9-5.9c-0.3,1.6-0.6,3.5-1.1,5.8
		c-0.4,2.3-0.9,4.7-1.3,7.3c-0.4,2.6-0.9,5.3-1.3,8.1c-0.4,2.8-0.9,5.5-1.5,8.1c-1.2,6.3-2.4,12.8-3.8,19.6L423.5,363.7z"/>
	<path class="st1" d="M525.3,361.6c-2.7,0.4-5.1,0.8-7.2,1.2c0.4-2.9,0.7-5.8,1.1-8.6c0.3-2.5,0.5-4.9,0.7-7.4
		c0.2-2.5,0.4-4.6,0.6-6.3h-11.7l-5.4,19.1c-2,0.3-4.3,0.6-7,0.9c-2.7,0.3-5.2,0.6-7.5,0.9c-2.9,0.4-5.7,0.7-8.4,1.1
		c3.6-11.7,7.1-23.3,10.6-34.7c1.4-4.8,2.9-9.7,4.5-14.9c1.6-5.2,3.1-10.4,4.7-15.5c1.6-5.2,3.1-10.1,4.5-14.9
		c1.4-4.8,2.7-9.1,3.7-13.1c6.1-0.4,12.3-1,18.5-1.6c6.3-0.6,12.4-1.5,18.4-2.5c-0.3,2.8-0.6,6.3-0.9,10.5
		c-0.3,4.2-0.6,8.8-0.9,13.7c-0.3,4.9-0.5,10.1-0.8,15.5c-0.3,5.4-0.5,10.7-0.8,15.9c-0.4,12.2-0.9,25.1-1.5,38.8
		c-2.7,0.4-5.4,0.8-8,1.1C530.4,360.8,528,361.2,525.3,361.6z M512,327.2c0.4,0,1,0,1.9-0.1c0.9,0,1.9-0.1,2.9-0.1
		c1,0,2-0.1,2.9-0.1c0.9,0,1.5-0.1,1.9-0.2c0-0.5,0.1-1.4,0.2-2.7c0.1-1.3,0.3-2.7,0.4-4.4c0.1-1.6,0.3-3.4,0.5-5.4
		c0.2-1.9,0.4-3.8,0.5-5.7c0.4-4.5,0.8-9.3,1.3-14.6l0.8-11.5l-2,0.1l-3.1,11.4L512,327.2z"/>
	<path class="st1" d="M537.4,362.3c3.9-11.7,7.7-23.2,11.2-34.5c1.5-4.8,3.1-9.7,4.7-14.9c1.6-5.2,3.2-10.4,4.8-15.5
		c1.6-5.1,3.1-10.1,4.5-14.8c1.4-4.8,2.6-9.2,3.7-13.2c4.9,0,9.6-0.3,13.9-0.8c4.4-0.5,9.1-1,14.2-1.5c-0.3,1.9-0.6,4.1-0.9,6.5
		c-0.3,2.4-0.7,5-1.1,7.6c-0.4,2.6-0.8,5.4-1.3,8.2c-0.4,2.8-1,6.4-1.6,10.8c-0.6,4.4-1.5,9.9-2.5,16.5h1.7
		c2.6-6.7,4.7-12.3,6.4-16.7c1.7-4.5,3.1-8.1,4.2-10.9c1.1-2.8,2.2-5.6,3.3-8.3c1.1-2.7,2.2-5.2,3.2-7.7c1-2.4,2-4.6,2.9-6.4
		c2.2-0.2,4.3-0.4,6.3-0.7c2-0.3,3.9-0.5,5.9-0.9c2-0.3,4-0.6,6-0.9c2-0.3,4.2-0.7,6.6-1.1c-0.9,5.1-1.7,10.4-2.5,15.7
		c-0.8,5.4-1.5,10.7-2.1,16.1c-0.6,5.3-1.2,10.6-1.8,15.8c-0.6,5.2-1.1,10.1-1.5,14.8c-1.1,10.9-2,21.6-2.8,32l-23.3,4.1
		c0-0.4,0.1-1.6,0.2-3.6c0.1-1.9,0.3-4.3,0.5-7.1c0.2-2.8,0.5-6,0.9-9.4c0.4-3.4,0.8-6.9,1.2-10.3c0.4-3.4,0.8-6.8,1.3-10
		c0.4-3.2,0.9-6,1.3-8.3h-1.2c-1.3,3.7-2.6,7.6-4.2,11.7c-1.5,4.1-3.1,8.3-4.6,12.5c-1.6,4.2-3.1,8.4-4.6,12.4
		c-1.5,4.1-2.9,7.9-4,11.6c-3.1,0.1-5.8,0.2-8,0.3c-2.2,0.1-4.8,0.3-7.8,0.5l4.3-49.1h-2c-0.2,1.1-0.6,3.1-1.3,5.8
		c-0.7,2.7-1.5,5.8-2.5,9.3c-0.9,3.5-1.9,7.1-3,10.8c-1.1,3.7-2.1,7.2-3,10.5c-0.9,3.2-1.7,5.9-2.3,7.9c-0.6,2.1-1,3.2-1.1,3.5
		L537.4,362.3z"/>
	<path class="st1" d="M640.7,360.7c-2.3,0.2-4.7,0.5-7.2,0.8c-2.5,0.3-4.8,0.6-6.8,0.9c-2,0.3-3.1,0.4-3.3,0.5
		c1.1-3.8,2.1-8,3.2-12.6c1.1-4.6,2.2-9.5,3.3-14.6c1.1-5.1,2.2-10.2,3.2-15.4c1-5.2,2-10.2,3-15.1c2.2-11.3,4.4-22.9,6.6-34.8
		l20.9-3.3c-2.3,11.8-4.6,23.4-7,34.8c-1,4.9-2,9.9-3,15.1c-1,5.2-2,10.4-2.9,15.5c-0.9,5.1-1.9,10.1-2.8,14.9
		c-0.9,4.8-1.8,9.2-2.5,13C644.6,360.4,643.1,360.5,640.7,360.7z"/>
	<path class="st1" d="M701.1,347.2c-2.6,3.6-5.4,6.6-8.3,9c-2.9,2.4-5.8,4.2-8.8,5.4c-2.9,1.1-5.8,1.7-8.6,1.7
		c-2.8,0-5.3-0.6-7.6-1.9c-2.3-1.2-4.3-3.1-6-5.6c-1.7-2.5-3.1-5.5-4.1-9.1c-1-3.6-1.5-7.8-1.5-12.7c0-8.3,1.2-16.5,3.5-24.5
		c2.3-8.1,5.6-15.3,9.8-21.8c4.2-6.4,9.2-11.6,14.9-15.5c5.8-3.9,12.1-5.9,19.1-5.9c2.1,0,4.2,0.4,6.2,1.3c2,0.9,3.7,2.1,5.1,3.7
		c1.4,1.6,2.6,3.5,3.4,5.8c0.8,2.3,1.3,4.9,1.3,7.7c0,0.5,0,1.1,0,1.7c0,0.6,0,1.2-0.1,1.8l-17.5,4.6c-1.1-2.2-2.3-3.3-3.8-3.3
		c-1.4,0-2.9,0.8-4.5,2.4c-1.6,1.6-3.1,3.7-4.6,6.4c-1.5,2.6-3,5.5-4.4,8.7c-1.4,3.2-2.7,6.5-3.7,9.7c-1.1,3.3-1.9,6.4-2.6,9.3
		c-0.7,3-1,5.4-1,7.2c0,2.8,0.4,4.8,1.1,6c0.8,1.1,1.8,1.7,3,1.7c1,0,2.1-0.4,3.3-1.1c1.2-0.7,2.4-1.7,3.5-2.9
		c1.1-1.2,2.1-2.5,2.9-4c0.9-1.5,1.5-3,1.9-4.5l15.3,6.1C706.1,339.5,703.7,343.7,701.1,347.2z"/>
	<path class="st1" d="M798.8,310.1c-1.3,5.2-3.2,10.3-5.6,15.3c-2.4,5.1-5.4,9.9-8.9,14.6c-3.5,4.6-7.5,8.7-12,12.2
		c-4.5,3.5-9.4,6.3-14.7,8.4c-5.3,2.1-11,3.2-16.9,3.2c-1.3,0-2.5-0.1-3.8-0.2c-1.3-0.1-2.5-0.3-3.7-0.5c2.4-12.2,4.8-24,7.1-35.6
		c0.9-4.8,1.8-9.9,2.8-15.1c1-5.2,1.9-10.4,2.8-15.5c0.9-5.1,1.8-10,2.6-14.7c0.8-4.7,1.5-8.9,2.1-12.7c3.8-0.7,7.7-1.4,11.7-2
		c3.9-0.6,7.9-0.9,12.1-0.9c4.8,0,8.9,0.8,12.3,2.2c3.3,1.5,6.1,3.6,8.2,6.2c2.1,2.6,3.6,5.7,4.6,9.3c1,3.5,1.5,7.3,1.5,11.2
		C800.8,300,800.1,304.9,798.8,310.1z M766.1,300.1c-1.1,4.8-2.1,9.6-3.2,14.4c-1.1,4.9-2.1,9.9-3.2,15.2
		c-1.1,5.3-2.1,11.1-3.1,17.3c2.1-1.4,4.2-3.3,6.2-5.8c2-2.4,3.9-5.2,5.7-8.4c1.8-3.2,3.4-6.5,4.9-10.1c1.5-3.5,2.7-7,3.8-10.3
		c1.1-3.4,1.9-6.5,2.5-9.4c0.6-2.9,0.9-5.4,0.9-7.5c0-3.3-0.9-5.8-2.7-7.7c-1.8-1.9-4.7-2.8-8.6-2.8
		C768.2,290.3,767.2,295.3,766.1,300.1z"/>
	<path class="st1" d="M845.5,344.8c0,0-1.1,1.8-3.4,5.3c-2.3,3.5-5,6.4-8,8.7c-3.1,2.3-6.4,4-9.8,5s-7,1.6-10.4,1.6
		c-2.1,0-4.2-0.3-6.3-1c-2.1-0.7-4.1-1.7-5.8-3c-1.7-1.3-3.1-3-4.2-5c-1.1-2-1.7-4.4-1.7-7.1c0-0.4,0-0.7,0-1.1c0-0.4,0-0.7,0.1-1.1
		c0.4-3.6,0.9-8,1.7-13.1c0.8-5.1,1.7-10.5,2.5-16c0.9-5.6,1.9-11.1,2.9-16.7c1.1-5.6,2-10.7,2.9-15.3c0.8-4.6,1.6-8.4,2.2-11.4
		c0.6-3,1-4.9,1.2-5.6c1.9-0.2,4.1-0.4,6.7-0.7c2.6-0.3,5-0.5,7.2-0.7c2.8-0.3,5.5-0.5,8.2-0.8c-2.3,10.7-4.4,20.3-6.2,29
		c-0.8,3.7-1.6,7.4-2.3,11.1c-0.8,3.7-1.5,7.1-2.1,10.2c-0.7,3.1-1.3,5.8-1.7,8c-0.5,2.2-0.9,4.1-1.2,5.5c-0.3,1.4-0.7,3.2-1.1,5.4
		c-0.4,2.2-0.6,4.1-0.6,5.9c0,1.4,0.4,2.6,1.1,3.5c0.7,0.9,1.6,1.4,2.7,1.4c1.5,0,2.8-0.6,3.7-1.8c1-1.2,1.8-2.6,2.5-4.3
		c0.7-1.7,1.2-3.4,1.5-5.1c0.3-1.7,0.6-3.1,0.9-4c0.5-2.6,1.1-5.4,1.8-8.5c0.7-3.1,1.3-6.4,2-9.8c0.7-3.4,1.3-6.9,2-10.4
		c0.7-3.5,1.3-7,1.9-10.3c1.5-7.8,3-15.8,4.4-24.1l20.4-1.3c-0.9,4.6-1.7,8.8-2.4,12.6c-0.7,3.8-1.5,8.1-2.3,13
		c-0.8,4.9-1.8,9.9-2.9,15.1c-1.1,5.2-2.1,10.4-3.1,15.5c-1,5.1-2,9.7-3,14C846.1,342.3,845.5,344.8,845.5,344.8z"/>
	<path class="st1" d="M920.4,311.9c-1.6,6.4-3.6,12.3-6.2,17.6c-2.6,5.3-5.6,10.1-9,14.3c-3.4,4.2-7,7.8-10.8,10.7
		c-3.8,3-7.5,5.2-11.4,6.7c-3.8,1.5-7.5,2.3-11,2.3c-2.9,0-5.6-0.5-8-1.7c-2.4-1.1-4.5-2.7-6.3-4.9c-1.8-2.2-3.2-4.9-4.2-8.3
		c-1-3.4-1.5-7.5-1.5-12.2c0-4.9,0.6-10.1,1.9-15.6c1.2-5.5,2.9-10.9,5.1-16.3c2.1-5.4,4.8-10.5,7.9-15.3c3.1-4.8,6.6-9.1,10.3-12.9
		c3.8-3.7,7.8-6.7,12.1-8.9c4.3-2.2,8.7-3.3,13.4-3.3c4,0,7.3,0.8,10,2.4c2.6,1.6,4.7,3.7,6.2,6.4c1.5,2.6,2.5,5.5,3.1,8.8
		c0.6,3.3,0.9,6.5,0.9,9.8C922.8,298.7,922,305.5,920.4,311.9z M872.4,336.1c0.4,1.1,0.8,2,1.5,2.8c0.6,0.8,1.4,1.5,2.3,2.1
		c0.9,0.6,1.9,0.9,3,0.9c4,0,7.6-1.4,10.7-4.1c3.1-2.7,5.7-6.1,7.8-10.1c2.1-4,3.6-8.2,4.8-12.7c1.1-4.5,1.7-8.6,1.7-12.3
		c0-1.1-0.1-2.2-0.2-3.4c-0.1-1.2-0.4-2.4-0.8-3.4c-0.4-1.1-1-2-1.9-2.7c-0.8-0.7-2-1.1-3.4-1.1c-2.9,0-5.5,0.7-7.9,2.1
		c-2.4,1.4-4.6,3.3-6.5,5.6c-1.9,2.3-3.6,5-5,7.9c-1.4,3-2.7,6-3.7,9c-1,3-1.8,6-2.2,8.9c-0.4,2.9-0.7,5.4-0.7,7.5
		C871.9,334,872.1,335,872.4,336.1z"/>
	<path class="st1" d="M970.3,343.8c-1.9,4-4.5,7.5-7.8,10.4c-3.3,2.9-7.1,5.2-11.5,6.7c-4.4,1.6-9.2,2.4-14.3,2.4
		c-3.6,0-7.1-0.9-10.7-2.8c-3.6-1.9-7-4.9-10.3-9.1l9.9-19.2c0.6,1.1,1.6,2.3,2.8,3.5c1.2,1.2,2.7,2.2,4.2,3.1
		c1.6,0.9,3.1,1.6,4.7,2.2c1.6,0.6,3,0.9,4.2,0.9c1.1,0,2.2-0.2,3.3-0.5c1.2-0.4,2.2-0.9,3.2-1.6c1-0.7,1.8-1.5,2.3-2.4
		c0.6-0.9,0.9-2,0.9-3.2c0-2.1-0.7-4.1-2.1-5.9c-1.4-1.8-3.1-3.5-5.2-5.2c-2.1-1.6-4.3-3.3-6.7-5c-2.4-1.7-4.6-3.4-6.6-5.3
		c-2-1.9-3.7-3.9-5.2-6.2c-1.4-2.3-2.1-4.8-2.1-7.7c0-4.6,1.4-8.9,4.2-12.8c2.8-4,6.2-7.4,10.4-10.3c4.2-2.9,8.7-5.1,13.6-6.8
		c4.9-1.7,9.6-2.5,13.9-2.5c2.4,0,4.7,0.3,6.8,0.9c2.1,0.6,4,1.5,5.6,2.8c1.6,1.3,2.8,2.9,3.7,4.8c0.9,1.9,1.4,4.4,1.4,7.3
		c0,1.2-0.1,2.5-0.3,3.7c-0.2,1.2-0.4,2.6-0.6,4l-19.4,5.6c0.2-0.7,0.3-1.4,0.5-2.1c0.1-0.7,0.2-1.4,0.2-2.1c0-2.6-0.5-4.6-1.4-5.8
		c-0.9-1.2-2.2-1.8-3.7-1.8c-0.7,0-1.6,0.3-2.6,0.8c-1,0.5-2.1,1.2-3.1,2.1c-1,0.8-1.9,1.8-2.6,3c-0.7,1.1-1.1,2.4-1.1,3.7
		c0,2.1,0.6,3.9,1.8,5.3c1.2,1.4,2.7,2.7,4.5,4c1.8,1.2,3.7,2.5,5.8,3.8c2.1,1.3,4,2.9,5.8,5c1.8,2,3.3,4.6,4.5,7.6
		c1.2,3,1.8,6.9,1.8,11.6C973.1,335.3,972.2,339.8,970.3,343.8z"/>
</g>
</svg>
