<?xml version="1.0" encoding="utf-8"?>
<!-- Generator: Adobe Illustrator 21.0.2, SVG Export Plug-In . SVG Version: 6.00 Build 0)  -->
<svg version="1.1" id="Layer_1" xmlns="http://www.w3.org/2000/svg" xmlns:xlink="http://www.w3.org/1999/xlink" x="0px" y="0px"
	 viewBox="0 0 607.5 375" style="enable-background:new 0 0 607.5 375;" xml:space="preserve">
<style type="text/css">
	.st0{fill:#FF0000;}
	.st1{fill:#FFFFFF;stroke:#000000;stroke-width:1;stroke-miterlimit:10;}
</style>
<g>
	<path class="st0" d="M302.6,369.8c-0.6-0.4-1-3.8-1.4-6.8c-1.1-9-3-24-13.1-36.7c-2.6-3.2-16.4-19.3-37.7-19.9c-0.4,0-0.8,0-1.3,0
		c-24.6,0-40.8,21-45.2,27.4c-4.9,7.2-7.8,14.7-9.6,20.7c0.8-5.8,0.9-13.3-1.9-20.5c-5-13.3-19.8-24.6-35.9-27.5
		c-1.3-0.2-3-0.5-5.3-0.5c-11.6,0-29,7.1-53.1,21.7c-19.6,11.9-34.2,23.1-43.9,30.5c-4.7,3.6-8.8,6.7-10.4,7.5
		c0.9-1.6,4.3-5.7,8.2-10.2c7.3-8.7,18.4-21.7,29.7-38.2c19.5-28.4,37.8-55.1,30.1-70.7c-5.2-10.4-20.1-11.7-49.8-14.1l-3.2-0.3
		c-9.2-0.8-18.5-1.1-28.4-1.1c-7.4,0-13.6,0.2-18.3,0.4c9.4-1.1,24.4-3.4,40.9-9.1c16.1-5.6,49.7-17.2,51.2-36.6
		c1.3-16.7-21.9-30.9-33-37.8c-22.6-13.9-45.9-18-56.2-19.8c0.9,0.1,1.9,0.1,2.9,0.2c6.9,0.5,17.3,1.3,29.6,1.3
		c8.3,0,16.5-0.4,24.1-1.1c26.4-2.4,53.7-5,60.4-20.6c6.2-14.5-8.4-33.5-27-57.6c-12.6-16.3-25-28.5-31.7-35.1c-0.7-0.7-1.4-1.4-2-2
		c0.8,0.6,1.6,1.3,2.5,2c8.2,6.6,23.5,18.8,42.9,30.7c17.8,10.9,42.2,25.9,61.5,25.9c5.5,0,10.4-1.2,14.6-3.6
		c6.4-3.6,9.8-8.9,11.9-12.1c9.9-15.3,7.6-33.6,6.6-42.4c-0.1-1.1-0.3-2.3-0.4-3.2c0.3,0.9,0.6,2.2,1,3.4
		c2.3,8.6,6.7,24.5,19.1,37.9c4.6,5,15.3,16.6,30.4,16.6l0.5,0c12.7-0.2,22-8.4,26.4-13.2c12.4-13.6,13.3-32.6,13.8-42.9
		c0.1-2.8,0.3-6,0.7-6.8c0.5,0.8,1,3.9,1.5,6.8c1.6,10.2,4.6,29.2,18.2,42.2c13.3,12.6,30.7,14,37.6,14c1.6,0,2.6-0.1,2.8-0.1
		c4.7-0.4,21-2.6,33.1-15.4c11.8-12.4,14.2-28.6,15.6-38.3c0.4-2.8,0.9-6.1,1.4-6.7c0.5,0.7,0.8,4.1,1,7.2
		c2.2,28.8,10.3,36.8,14.6,41.1c10.8,10.6,24.2,14.2,31.2,15.4c3,0.5,6,0.8,8.9,0.8c10.5,0,22.1-3.2,38.8-10.8
		c27.2-12.4,47.2-26.9,57.9-34.7c3-2.2,5.6-4.1,7.1-4.9c-1.5,2.3-6.5,7.8-12.1,14.1c-8,8.9-18.9,21.1-30.9,35.9
		c-22.8,28-25.7,35.7-23.4,42.3c4.1,12,24,15.8,45.7,19c16.9,2.5,31.3,2.5,39.9,2.6c3.1,0,6.1,0,7.7,0.2c-1.4,0.4-3.8,0.9-6.4,1.4
		c-9.4,1.9-27,5.4-45.5,14.1c-13.6,6.3-41.8,19.5-41.4,36.3c0.4,14.8,23.4,25.3,35.8,30.9c15.9,7.2,31.4,10.5,43,12.1
		c-0.2,0-0.4,0-0.6,0c-14.2,0-27.8,0.8-40.4,2.3c-20.8,2.5-40.7,6.5-45.3,18.8c-1.2,3.1-4.8,12.6,31.4,52.4
		c17,18.7,33.2,33.6,42.8,42.5c2.2,2,4.3,3.9,5.9,5.5c-0.1-0.1-0.2-0.2-0.3-0.2c-10.6-7.9-35.3-26.5-69-38.2
		c-4.2-1.5-16.9-5.9-34-7.1c-5.7-0.4-11.6-0.8-17.2-0.8c-13.1,0-21.7,2.4-28,7.7c-13.1,11-12.4,32.6-12.1,45.4
		c0.1,3.8,0.2,8.1-0.3,8.9c-0.5-0.4-1.3-3.6-2-6.4c-2-8.6-5.5-22.9-16.2-35.2c-4.2-4.9-19.8-20.8-42-20.8c-1.1,0-2.2,0-3.3,0.1
		c-20.2,1.4-33.1,15.3-36.6,19.6c-10.6,13-12.8,28.4-14.1,37.7C303.7,365.9,303.2,369.4,302.6,369.8z"/>
	<path d="M303.3,9.1c0.2,1,0.4,2.1,0.5,3.2c1.6,10.3,4.7,29.5,18.5,42.6c13.5,12.8,31.2,14.2,38.1,14.2c1.6,0,2.6-0.1,2.8-0.1
		c4.8-0.4,21.3-2.7,33.6-15.7c12-12.6,14.5-29.6,15.8-38.7c0.2-1.3,0.4-2.6,0.6-3.7c0.1,1.3,0.3,2.8,0.4,4.3
		c2.2,29.1,10.4,37.2,14.8,41.6c10.9,10.8,24.5,14.4,31.6,15.6c3.1,0.5,6.1,0.8,9.1,0.8c10.6,0,22.3-3.3,39.1-10.9
		c27.3-12.4,47.3-27,58-34.8c1-0.8,2.1-1.5,3-2.2c-2.3,2.7-5.5,6.3-9,10.2c-8,8.9-18.9,21.1-30.9,35.9c-23.1,28.3-25.9,36.1-23.5,43
		c4.3,12.4,24.3,16.3,46.3,19.5c16.9,2.5,31.4,2.6,40,2.6c0.6,0,1.1,0,1.7,0c-0.2,0-0.3,0.1-0.5,0.1c-9.5,1.9-27.1,5.4-45.7,14.1
		c-13.7,6.4-42.2,19.7-41.8,37c0.4,15.3,23.7,25.9,36.3,31.6c12.3,5.6,24.3,8.8,34.5,10.8c-11.3,0.2-22.2,1-32.4,2.2
		c-21,2.5-41.1,6.6-45.9,19.3c-4.4,11.7,15.9,36,31.5,53.2c15,16.5,29.4,30.1,39.2,39.1c-13-9.2-33.4-21.9-59-30.8
		c-4.2-1.5-17-5.9-34.2-7.1c-5.7-0.4-11.6-0.8-17.3-0.8c-13.3,0-22.1,2.4-28.5,7.9c-13.4,11.3-12.7,33-12.3,46
		c0.1,2,0.1,4.2,0.1,5.8c-0.3-1.1-0.6-2.3-0.9-3.5c-2.1-8.6-5.5-23.1-16.3-35.5c-4.3-4.9-20-21-42.6-21c-1.1,0-2.2,0-3.3,0.1
		c-20.5,1.4-33.6,15.5-37.1,19.8c-10.8,13.1-12.9,28.7-14.2,38c-0.2,1.6-0.5,3.4-0.7,4.7c-0.2-1.3-0.4-2.9-0.6-4.5
		c-1.1-9-3-24.2-13.2-37.1c-2.6-3.3-16.6-19.6-38.3-20.2c-0.4,0-0.9,0-1.3,0c-25,0-41.4,21.2-45.8,27.7c-3.5,5.1-6,10.4-7.8,15.2
		c0.1-4.6-0.4-9.8-2.4-14.9c-5.1-13.5-20.1-25.1-36.4-28c-1.3-0.2-3.1-0.5-5.4-0.5c-11.8,0-29.3,7.1-53.5,21.8
		c-19.6,11.9-34.3,23.1-44,30.5c-2.6,2-5.1,3.9-7,5.3c1.5-1.9,3.6-4.4,5.8-6.9c7.3-8.7,18.4-21.8,29.8-38.3
		c19.6-28.5,38.1-55.5,30.1-71.5c-5.4-10.8-20.4-12-50.4-14.5l-3.2-0.3c-9.2-0.8-18.5-1.1-28.4-1.1c-2,0-3.8,0-5.6,0
		c8.2-1.4,18.1-3.7,28.5-7.3c16.3-5.6,50.1-17.3,51.7-37.3c1.3-17.1-22.1-31.6-33.4-38.5c-16.1-9.9-32.6-14.9-44.5-17.6
		c5.8,0.3,12.7,0.6,20.4,0.6c8.4,0,16.5-0.4,24.2-1.1c26.6-2.5,54.2-5,61-21c6.4-14.9-8.4-34.1-27-58.3C97,38.3,88.3,28.9,81.5,22
		c8.7,6.7,20.7,15.7,35,24.4c17.9,11,42.4,26,61.9,26c5.6,0,10.7-1.2,15-3.7c6.5-3.7,10.2-9.3,12.2-12.4c8.2-12.7,8.2-27.4,7.3-37.2
		c2.7,9,7.5,21.9,17.8,33c4.6,5,15.5,16.8,31,16.8c0.2,0,0.4,0,0.5,0c13-0.2,22.5-8.5,27-13.5c12.6-13.8,13.5-33,14-43.3
		C303.1,11.2,303.2,10.1,303.3,9.1 M303,4.5C303,4.5,303,4.5,303,4.5c-3.4,0.2,2.6,30.7-15.1,50.1c-1.8,2-11.6,12.7-25.9,13
		c-0.2,0-0.3,0-0.5,0c-14.8,0-25.3-11.4-29.9-16.3c-17.2-18.7-18.9-43-21-43c0,0,0,0,0,0c-2.2,0.4,7,26.8-6.4,47.5
		c-2,3.1-5.4,8.4-11.6,11.9c-4.3,2.4-9.1,3.5-14.3,3.5c-18.6,0-41.5-13.8-61.1-25.8C88.4,27.4,68.9,9.3,67.3,9.3c0,0-0.1,0-0.1,0
		c-0.9,1.1,17.8,15.9,37.4,41.4c18.5,24,32.9,42.8,26.9,56.8c-6.5,15.2-33.7,17.7-59.8,20.1c-8.5,0.8-16.6,1.1-24.1,1.1
		c-18.4,0-32.5-1.7-37.1-1.7c-1,0-1.5,0.1-1.6,0.3c-0.2,1.6,31.4,2.3,61.9,21.1c11.1,6.8,33.9,20.9,32.7,37.1
		c-1.5,19-35.1,30.6-50.7,36c-27,9.3-50.4,9.4-50.3,10.4c0,0.3,0.9,0.3,2.6,0.3c4.2,0,13.2-0.6,25.3-0.6c8.2,0,17.8,0.3,28.3,1.1
		c31.1,2.6,47.3,3.6,52.5,14c7.6,15.2-10.6,41.6-30,70c-20.2,29.4-39.7,48.1-38.1,49.7c0.1,0.1,0.2,0.1,0.3,0.1
		c3,0,22.6-18.4,55.3-38.3c30.2-18.3,44.7-21.6,52.7-21.6c2.1,0,3.8,0.2,5.1,0.5c14.6,2.6,29.9,12.9,35.3,27.1
		c5.7,15-1.2,30.9,0,31.2c0,0,0,0,0,0c1.2,0,2.7-16.5,12.7-31.2c3.6-5.3,19.7-27.1,44.6-27.1c0.4,0,0.8,0,1.2,0
		c21.7,0.6,35.5,17.5,37.2,19.7c15.1,19.1,11.6,43.7,15,43.8c0,0,0,0,0,0c3.5,0,0.3-25.5,16.1-44.9c2-2.5,15-17.8,36-19.3
		c1.1-0.1,2.2-0.1,3.2-0.1c22.9,0,38.5,17.1,41.4,20.5c16,18.4,15.6,41.9,18.7,41.9c0,0,0,0,0.1,0c4-0.4-5.9-38.8,12.8-54.5
		c7.1-6,16.9-7.5,27.5-7.5c5.6,0,11.4,0.4,17.2,0.8c15.7,1.1,27.6,4.9,33.8,7c43.2,14.9,72,41.6,73.9,41.6c0,0,0.1,0,0.1,0
		c1-1.3-24.5-21.4-52.6-52.3c-34.7-38.2-32.5-48.2-31.2-51.7c4.4-11.7,23.7-15.8,44.7-18.3c15.4-1.9,29.6-2.3,40.3-2.3
		c9.7,0,16.6,0.4,19.1,0.4c0.6,0,1,0,1-0.1c0-0.6-30.5,0.5-62.1-13.8c-12.3-5.6-35-15.9-35.4-30.2c-0.4-16.3,27.4-29.3,40.9-35.6
		c28.2-13.1,53.5-14.3,53.3-16.3c-0.2-1.8-21,0.8-49.2-3.3c-19.7-2.9-40.9-6.6-45.1-18.5c-2.1-6.2,0.5-13.6,23.3-41.5
		c24.7-30.3,44.9-50.1,43.6-51.6c0-0.1-0.1-0.1-0.2-0.1c-2.8,0-27.1,22.3-66.2,40.1c-16.6,7.6-28,10.8-38.5,10.8
		c-3,0-5.9-0.3-8.8-0.8c-4.6-0.8-19.3-3.8-30.8-15.2c-18-17.8-12.5-48.5-16.1-48.6c0,0,0,0,0,0c-3.4,0-0.4,27.1-17.6,45.2
		c-12.7,13.3-29.8,15-32.7,15.2c-0.2,0-1.2,0.1-2.7,0.1c-6.6,0-24-1.3-37.1-13.8C303.9,35.3,306.4,4.5,303,4.5L303,4.5z"/>
</g>
<g>
	<path class="st1" d="M138,236.6c1.2-3.6,2.4-7.2,3.5-10.6c0.5-1.5,0.9-3,1.4-4.6c0.5-1.6,1-3.2,1.5-4.8c0.5-1.6,1-3.1,1.4-4.6
		c0.4-1.5,0.8-2.8,1.1-4.1c1.5,0,2.9-0.1,4.3-0.2c1.3-0.2,2.8-0.3,4.4-0.4c-0.1,0.6-0.2,1.3-0.3,2c-0.1,0.7-0.2,1.5-0.3,2.3
		c-0.1,0.8-0.3,1.7-0.4,2.5c-0.1,0.9-0.3,2-0.5,3.3c-0.2,1.4-0.5,3.1-0.8,5.1h0.5c0.8-2.1,1.5-3.8,2-5.2c0.5-1.4,0.9-2.5,1.3-3.4
		c0.3-0.9,0.7-1.7,1-2.5c0.3-0.8,0.7-1.6,1-2.4c0.3-0.7,0.6-1.4,0.9-2c0.7-0.1,1.3-0.1,1.9-0.2c0.6-0.1,1.2-0.2,1.8-0.3
		c0.6-0.1,1.2-0.2,1.8-0.3c0.6-0.1,1.3-0.2,2-0.3c-0.3,1.6-0.5,3.2-0.8,4.9c-0.2,1.7-0.5,3.3-0.7,5c-0.2,1.6-0.4,3.3-0.6,4.9
		c-0.2,1.6-0.3,3.1-0.5,4.6c-0.3,3.4-0.6,6.7-0.9,9.9l-7.2,1.3c0-0.1,0-0.5,0.1-1.1c0-0.6,0.1-1.3,0.2-2.2c0.1-0.9,0.2-1.8,0.3-2.9
		c0.1-1.1,0.2-2.1,0.4-3.2c0.1-1.1,0.3-2.1,0.4-3.1c0.1-1,0.3-1.8,0.4-2.5h-0.4c-0.4,1.1-0.8,2.3-1.3,3.6c-0.5,1.3-0.9,2.5-1.4,3.9
		c-0.5,1.3-1,2.6-1.4,3.8c-0.5,1.3-0.9,2.4-1.2,3.6c-1,0-1.8,0.1-2.5,0.1c-0.7,0-1.5,0.1-2.4,0.1l1.3-15.1h-0.6
		c-0.1,0.4-0.2,0.9-0.4,1.8c-0.2,0.8-0.5,1.8-0.8,2.9c-0.3,1.1-0.6,2.2-0.9,3.3c-0.3,1.2-0.6,2.2-0.9,3.2c-0.3,1-0.5,1.8-0.7,2.4
		c-0.2,0.6-0.3,1-0.3,1.1L138,236.6z"/>
	<path class="st1" d="M181.4,231.2c0,0-0.4,0.5-1.1,1.6c-0.7,1.1-1.5,2-2.5,2.7c-0.9,0.7-2,1.2-3,1.6c-1.1,0.3-2.1,0.5-3.2,0.5
		c-0.6,0-1.3-0.1-1.9-0.3c-0.7-0.2-1.3-0.5-1.8-0.9c-0.5-0.4-1-0.9-1.3-1.6c-0.3-0.6-0.5-1.4-0.5-2.2c0-0.1,0-0.2,0-0.3
		c0-0.1,0-0.2,0-0.3c0.1-1.1,0.3-2.5,0.5-4c0.2-1.6,0.5-3.2,0.8-4.9c0.3-1.7,0.6-3.4,0.9-5.2c0.3-1.7,0.6-3.3,0.9-4.7
		c0.3-1.4,0.5-2.6,0.7-3.5c0.2-0.9,0.3-1.5,0.4-1.7c0.6-0.1,1.3-0.1,2.1-0.2c0.8-0.1,1.5-0.1,2.2-0.2c0.9-0.1,1.7-0.2,2.5-0.2
		c-0.7,3.3-1.3,6.3-1.9,8.9c-0.2,1.1-0.5,2.3-0.7,3.4c-0.2,1.1-0.5,2.2-0.7,3.1c-0.2,1-0.4,1.8-0.5,2.5c-0.2,0.7-0.3,1.3-0.4,1.7
		c-0.1,0.4-0.2,1-0.3,1.7c-0.1,0.7-0.2,1.3-0.2,1.8c0,0.4,0.1,0.8,0.3,1.1c0.2,0.3,0.5,0.4,0.8,0.4c0.5,0,0.9-0.2,1.2-0.6
		c0.3-0.4,0.6-0.8,0.8-1.3c0.2-0.5,0.4-1,0.5-1.6c0.1-0.5,0.2-0.9,0.3-1.2c0.2-0.8,0.4-1.7,0.6-2.6c0.2-1,0.4-2,0.6-3
		c0.2-1,0.4-2.1,0.6-3.2c0.2-1.1,0.4-2.1,0.6-3.2c0.5-2.4,0.9-4.9,1.4-7.4l6.3-0.4c-0.3,1.4-0.5,2.7-0.7,3.9c-0.2,1.2-0.5,2.5-0.7,4
		c-0.3,1.5-0.6,3.1-0.9,4.7c-0.3,1.6-0.7,3.2-1,4.8c-0.3,1.6-0.6,3-0.9,4.3C181.6,230.4,181.4,231.2,181.4,231.2z"/>
	<path class="st1" d="M199.5,230.9c-0.6,1.2-1.4,2.3-2.4,3.2c-1,0.9-2.2,1.6-3.6,2.1c-1.4,0.5-2.8,0.7-4.4,0.7
		c-1.1,0-2.2-0.3-3.3-0.9c-1.1-0.6-2.2-1.5-3.2-2.8l3.1-5.9c0.2,0.4,0.5,0.7,0.9,1.1c0.4,0.4,0.8,0.7,1.3,1c0.5,0.3,1,0.5,1.4,0.7
		c0.5,0.2,0.9,0.3,1.3,0.3c0.3,0,0.7-0.1,1-0.2c0.4-0.1,0.7-0.3,1-0.5c0.3-0.2,0.5-0.5,0.7-0.8c0.2-0.3,0.3-0.6,0.3-1
		c0-0.7-0.2-1.3-0.6-1.8c-0.4-0.6-1-1.1-1.6-1.6c-0.6-0.5-1.3-1-2.1-1.5c-0.7-0.5-1.4-1.1-2-1.6c-0.6-0.6-1.1-1.2-1.6-1.9
		c-0.4-0.7-0.7-1.5-0.7-2.4c0-1.4,0.4-2.7,1.3-4c0.9-1.2,1.9-2.3,3.2-3.2c1.3-0.9,2.7-1.6,4.2-2.1c1.5-0.5,2.9-0.8,4.3-0.8
		c0.7,0,1.4,0.1,2.1,0.3c0.7,0.2,1.2,0.5,1.7,0.9c0.5,0.4,0.9,0.9,1.2,1.5c0.3,0.6,0.4,1.3,0.4,2.2c0,0.4,0,0.8-0.1,1.1
		c-0.1,0.4-0.1,0.8-0.2,1.2l-6,1.7c0.1-0.2,0.1-0.4,0.1-0.7c0-0.2,0.1-0.4,0.1-0.7c0-0.8-0.1-1.4-0.4-1.8c-0.3-0.4-0.7-0.6-1.1-0.6
		c-0.2,0-0.5,0.1-0.8,0.2c-0.3,0.2-0.6,0.4-0.9,0.6c-0.3,0.3-0.6,0.6-0.8,0.9c-0.2,0.4-0.3,0.7-0.3,1.1c0,0.7,0.2,1.2,0.6,1.6
		c0.4,0.4,0.8,0.8,1.4,1.2c0.6,0.4,1.1,0.8,1.8,1.2c0.6,0.4,1.2,0.9,1.8,1.5c0.6,0.6,1,1.4,1.4,2.3c0.4,0.9,0.6,2.1,0.6,3.6
		C200.4,228.3,200.1,229.7,199.5,230.9z"/>
	<path class="st1" d="M205.4,236.1c-0.7,0.1-1.5,0.1-2.3,0.2c-0.8,0.1-1.5,0.2-2.1,0.3c-0.6,0.1-1,0.1-1,0.2
		c0.3-1.2,0.6-2.5,0.8-3.9c0.3-1.4,0.6-2.9,0.9-4.5c0.3-1.6,0.6-3.1,0.9-4.8c0.3-1.6,0.5-3.2,0.8-4.7c0.6-3.5,1.2-7.1,1.7-10.7
		l6.4-1c-0.6,3.6-1.3,7.2-1.9,10.7c-0.2,1.5-0.5,3-0.8,4.7c-0.3,1.6-0.5,3.2-0.8,4.8c-0.3,1.6-0.5,3.1-0.7,4.6
		c-0.2,1.5-0.4,2.8-0.6,4C206.6,236,206.1,236.1,205.4,236.1z"/>
	<path class="st1" d="M223.6,232c-0.8,1.1-1.7,2-2.6,2.8c-0.9,0.7-1.8,1.3-2.7,1.7c-0.9,0.4-1.8,0.5-2.6,0.5c-0.9,0-1.6-0.2-2.3-0.6
		c-0.7-0.4-1.3-1-1.8-1.7c-0.5-0.8-0.9-1.7-1.3-2.8c-0.3-1.1-0.5-2.4-0.5-3.9c0-2.6,0.4-5.1,1.1-7.6c0.7-2.5,1.7-4.7,3-6.7
		c1.3-2,2.8-3.6,4.6-4.8c1.8-1.2,3.7-1.8,5.9-1.8c0.7,0,1.3,0.1,1.9,0.4c0.6,0.3,1.1,0.7,1.6,1.1c0.4,0.5,0.8,1.1,1.1,1.8
		c0.3,0.7,0.4,1.5,0.4,2.4c0,0.2,0,0.3,0,0.5c0,0.2,0,0.4,0,0.6l-5.4,1.4c-0.3-0.7-0.7-1-1.2-1c-0.4,0-0.9,0.3-1.4,0.8
		c-0.5,0.5-1,1.2-1.4,2c-0.5,0.8-0.9,1.7-1.4,2.7c-0.4,1-0.8,2-1.2,3c-0.3,1-0.6,2-0.8,2.9c-0.2,0.9-0.3,1.7-0.3,2.2
		c0,0.9,0.1,1.5,0.4,1.8c0.2,0.4,0.5,0.5,0.9,0.5c0.3,0,0.6-0.1,1-0.3c0.4-0.2,0.7-0.5,1.1-0.9c0.3-0.4,0.6-0.8,0.9-1.2
		c0.3-0.5,0.5-0.9,0.6-1.4l4.7,1.9C225.2,229.6,224.4,230.9,223.6,232z"/>
	<path class="st1" d="M238.2,236.4c-0.8,0.1-1.6,0.3-2.2,0.4c0.1-0.9,0.2-1.8,0.3-2.7c0.1-0.8,0.2-1.5,0.2-2.3
		c0.1-0.8,0.1-1.4,0.2-2h-3.6l-1.7,5.9c-0.6,0.1-1.3,0.2-2.1,0.3c-0.8,0.1-1.6,0.2-2.3,0.3c-0.9,0.1-1.7,0.2-2.6,0.3
		c1.1-3.6,2.2-7.2,3.3-10.7c0.4-1.5,0.9-3,1.4-4.6c0.5-1.6,1-3.2,1.4-4.8c0.5-1.6,0.9-3.1,1.4-4.6c0.4-1.5,0.8-2.8,1.2-4
		c1.9-0.1,3.8-0.3,5.7-0.5c1.9-0.2,3.8-0.4,5.7-0.8c-0.1,0.9-0.2,2-0.3,3.2c-0.1,1.3-0.2,2.7-0.3,4.2c-0.1,1.5-0.2,3.1-0.2,4.8
		c-0.1,1.7-0.2,3.3-0.2,4.9c-0.1,3.8-0.3,7.7-0.5,12c-0.8,0.1-1.7,0.2-2.5,0.3C239.8,236.1,239,236.2,238.2,236.4z M234.1,225.8
		c0.1,0,0.3,0,0.6,0c0.3,0,0.6,0,0.9,0c0.3,0,0.6,0,0.9,0c0.3,0,0.5,0,0.6-0.1c0-0.2,0-0.4,0.1-0.8c0-0.4,0.1-0.8,0.1-1.3
		c0-0.5,0.1-1.1,0.1-1.7c0.1-0.6,0.1-1.2,0.2-1.8c0.1-1.4,0.2-2.9,0.4-4.5l0.2-3.5l-0.6,0l-0.9,3.5L234.1,225.8z"/>
	<path class="st1" d="M251.9,235.6c-0.9,0.1-1.9,0.1-2.9,0.2c-1,0.1-1.9,0.3-2.8,0.4c-0.9,0.2-1.8,0.4-2.5,0.6
		c0.2-1.2,0.4-2.6,0.6-4.1c0.2-1.5,0.5-3,0.8-4.7c0.3-1.6,0.6-3.2,0.9-4.9c0.3-1.6,0.6-3.2,0.9-4.7c0.7-3.6,1.4-7.2,2.2-10.9
		l7.2-0.9c-0.7,3.2-1.5,6.2-2.1,9.2c-0.3,1.3-0.6,2.6-0.9,4c-0.3,1.4-0.6,2.7-0.9,4c-0.3,1.3-0.5,2.6-0.7,3.8
		c-0.2,1.2-0.4,2.3-0.5,3.3c0.7-0.1,1.4-0.1,2.2-0.1c0.8,0,1.5,0,2.1,0c0,0.5,0.1,1,0.1,1.5c0.1,0.5,0.1,1,0.2,1.4
		c0.1,0.4,0.1,0.8,0.2,1.1c0,0.3,0.1,0.5,0.1,0.6c-0.2,0-0.4,0-0.6,0c-0.2,0-0.4,0-0.6,0C253.7,235.5,252.8,235.6,251.9,235.6z"/>
	<path class="st1" d="M265.4,237l3.1-29c1.3-0.1,2.5-0.2,3.7-0.4c1.1-0.2,2.3-0.3,3.4-0.4c0,0,0,0.3-0.1,0.8
		c-0.1,0.5-0.2,1.2-0.3,2.1c-0.1,0.9-0.3,1.8-0.5,2.9c-0.2,1.1-0.4,2.5-0.7,4.4c-0.3,1.9-0.7,4.5-1.3,7.8h0.6
		c0.7-2.5,1.3-4.5,1.8-6.1c0.5-1.6,0.8-2.9,1.1-3.9c0.3-1,0.6-2,0.8-2.9c0.3-0.9,0.5-1.8,0.7-2.6c0.2-0.8,0.4-1.5,0.6-2h0.4
		c0.5,0,1,0,1.5-0.1c0.5-0.1,1-0.1,1.4-0.2c0.5-0.1,0.9-0.2,1.4-0.3c-0.1,0.2-0.1,0.7-0.2,1.5c-0.1,0.8-0.2,1.7-0.3,2.8
		c-0.1,1.1-0.2,2.3-0.3,3.5c-0.1,1.3-0.2,2.6-0.3,3.8c-0.1,1.2-0.2,2.4-0.3,3.5c-0.1,1.1-0.2,2.1-0.3,2.9h0.7l3.9-17.5
		c0.9-0.1,1.9-0.3,2.8-0.4c0.8-0.1,1.6-0.2,2.5-0.3c0.9-0.1,1.6-0.2,2.3-0.4c-0.4,1.1-0.8,2.4-1.2,3.8c-0.4,1.4-0.8,2.9-1.3,4.4
		c-0.4,1.6-0.9,3.1-1.3,4.7c-0.4,1.6-0.8,3.1-1.2,4.6c-0.9,3.5-1.7,7.1-2.6,10.7l-9.3,1.6l1.8-15.7h-0.5l-4.1,14.8L265.4,237z"/>
	<path class="st1" d="M288.7,236.9c0.7-3.6,1.5-7.2,2.1-10.6c0.2-1.5,0.5-3,0.8-4.6c0.3-1.6,0.6-3.2,0.8-4.7
		c0.3-1.6,0.5-3.1,0.7-4.5c0.2-1.5,0.4-2.8,0.6-4c1.6-0.5,3.3-0.8,5.1-1.1c1.8-0.2,3.6-0.3,5.4-0.3c1.1,0,2,0.1,2.7,0.4
		c0.7,0.2,1.3,0.6,1.7,1c0.4,0.4,0.7,1,0.8,1.6c0.2,0.6,0.2,1.3,0.2,2c0,1.1-0.2,2.2-0.6,3.2c-0.4,1-0.9,2-1.5,3
		c-0.6,0.9-1.4,1.8-2.2,2.6c-0.8,0.8-1.7,1.4-2.7,1.9c0.5,1.1,1,2.3,1.6,3.6c0.6,1.3,1.1,2.5,1.6,3.7c0.6,1.4,1.1,2.7,1.7,4.1
		l-6.4,2.2c-0.6-1.7-1-3.4-1.5-4.9c-0.2-0.6-0.4-1.3-0.6-1.9c-0.2-0.7-0.4-1.3-0.5-1.9c-0.2-0.6-0.3-1.1-0.4-1.6
		c-0.1-0.5-0.2-0.9-0.2-1.2l-0.5,0.2c-0.2,0.9-0.4,1.9-0.6,3.1c-0.2,1.2-0.4,2.3-0.6,3.4c-0.2,1.3-0.5,2.6-0.7,3.9L288.7,236.9z
		 M298.4,219.2c0.5-0.1,1.2-0.3,1.9-0.7c0.8-0.4,1.5-0.8,2.2-1.4c0.7-0.5,1.3-1.1,1.8-1.7c0.5-0.6,0.7-1.1,0.7-1.5
		c0-0.3-0.1-0.5-0.3-0.7c-0.2-0.2-0.5-0.3-0.8-0.4c-0.3-0.1-0.7-0.2-1.1-0.2c-0.4,0-0.8,0-1.3,0c-0.3,0-0.6,0-0.9,0
		c-0.3,0-0.6,0-0.8,0L298.4,219.2z"/>
	<path class="st1" d="M312.4,236.1c-0.7,0.1-1.5,0.1-2.3,0.2c-0.8,0.1-1.5,0.2-2.1,0.3c-0.6,0.1-1,0.1-1,0.2
		c0.3-1.2,0.6-2.5,0.8-3.9c0.3-1.4,0.6-2.9,0.9-4.5c0.3-1.6,0.6-3.1,0.9-4.8c0.3-1.6,0.5-3.2,0.8-4.7c0.6-3.5,1.2-7.1,1.7-10.7
		l6.4-1c-0.6,3.6-1.3,7.2-1.9,10.7c-0.2,1.5-0.5,3-0.8,4.7c-0.3,1.6-0.5,3.2-0.8,4.8c-0.3,1.6-0.5,3.1-0.7,4.6
		c-0.2,1.5-0.4,2.8-0.6,4C313.6,236,313.1,236.1,312.4,236.1z"/>
	<path class="st1" d="M318.9,236.9c0.6-3,1.2-5.9,1.8-8.9c0.2-1.2,0.5-2.5,0.7-3.8c0.2-1.3,0.5-2.6,0.7-3.9c0.2-1.3,0.4-2.5,0.6-3.8
		c0.2-1.2,0.3-2.3,0.5-3.3c-0.6-0.1-1.3-0.1-1.9-0.1c-0.6,0-1.3-0.1-1.9-0.2c0-0.4,0-0.9,0-1.5c0-0.6,0-1.1,0-1.7
		c0-0.6,0.1-1.3,0.1-2c0.7,0.1,1.4,0.1,2.1,0.1c0.7,0,1.4,0,2.1,0c1.4,0,2.8,0,4.1-0.1c1.3-0.1,2.5-0.1,3.6-0.2
		c1.1-0.1,2.2-0.2,3.3-0.3l-0.5,2.2c-0.1,0.6-0.3,1.3-0.4,1.9c-0.1,0.7-0.2,1.2-0.4,1.7c-0.6,0.2-1.2,0.3-1.8,0.3
		c-0.6,0.1-1.2,0.2-1.8,0.3c-0.2,0.9-0.4,2-0.6,3.1c-0.2,1.1-0.4,2.3-0.6,3.5c-0.2,1.2-0.4,2.4-0.6,3.7c-0.2,1.3-0.4,2.4-0.6,3.6
		c-0.4,2.7-0.9,5.5-1.2,8.4L318.9,236.9z"/>
	<path class="st1" d="M335.7,236.1c-0.7,0.1-1.5,0.1-2.3,0.2c-0.8,0.1-1.5,0.2-2.1,0.3c-0.6,0.1-1,0.1-1,0.2
		c0.3-1.2,0.6-2.5,0.8-3.9c0.3-1.4,0.6-2.9,0.9-4.5c0.3-1.6,0.6-3.1,0.9-4.8c0.3-1.6,0.5-3.2,0.8-4.7c0.6-3.5,1.2-7.1,1.7-10.7
		l6.4-1c-0.6,3.6-1.3,7.2-1.9,10.7c-0.2,1.5-0.5,3-0.8,4.7c-0.3,1.6-0.5,3.2-0.8,4.8c-0.3,1.6-0.5,3.1-0.7,4.6
		c-0.2,1.5-0.4,2.8-0.6,4C336.9,236,336.4,236.1,335.7,236.1z"/>
	<path class="st1" d="M338.7,237c0.8-3.9,1.6-7.7,2.4-11.4c0.3-1.6,0.6-3.2,0.9-4.9c0.3-1.7,0.6-3.4,0.9-5c0.3-1.6,0.5-3.2,0.7-4.7
		c0.2-1.5,0.4-2.9,0.5-4.1c0.4,0,0.7,0,0.9,0s0.5,0,0.9,0c0.4,0,0.9,0,1.4,0c0.6,0,1.1,0,1.7-0.1c0.6,0,1.1-0.1,1.8-0.1
		c0.4,1.9,0.7,3.7,1,5.5c0.3,1.6,0.6,3.1,0.9,4.8c0.3,1.6,0.6,3,0.8,4.2c0.1-0.5,0.2-1.2,0.4-1.9c0.1-0.7,0.3-1.5,0.5-2.3
		c0.2-0.8,0.3-1.6,0.5-2.4c0.2-0.8,0.3-1.6,0.5-2.4c0.4-1.8,0.8-3.6,1.2-5.5l5-0.6c-0.9,4.2-1.8,8.1-2.5,11.8
		c-0.3,1.6-0.7,3.2-1,4.9c-0.3,1.6-0.6,3.2-0.9,4.7c-0.3,1.5-0.5,2.9-0.7,4.2c-0.2,1.3-0.3,2.4-0.5,3.2c-0.1,0-0.4,0.1-1,0.2
		c-0.6,0.1-1.2,0.3-1.9,0.4c-0.7,0.2-1.5,0.3-2.2,0.5c-0.7,0.2-1.3,0.3-1.6,0.4c-0.2-2.2-0.3-4.2-0.5-6.2c-0.1-0.8-0.2-1.7-0.3-2.6
		c-0.1-0.9-0.2-1.7-0.3-2.5c-0.1-0.8-0.2-1.6-0.3-2.3c-0.1-0.7-0.2-1.3-0.3-1.8c-0.1,0.5-0.2,1.1-0.3,1.8c-0.1,0.7-0.3,1.4-0.4,2.2
		c-0.1,0.8-0.3,1.6-0.4,2.4c-0.1,0.8-0.3,1.6-0.5,2.4c-0.4,1.8-0.7,3.7-1.2,5.7L338.7,237z"/>
	<path class="st1" d="M378,228.5c-0.9,2.1-2,3.8-3.3,5.2c-1.3,1.4-2.7,2.4-4.1,3.1c-1.5,0.7-2.9,1-4.2,1c-1,0-2-0.2-2.9-0.7
		c-0.9-0.4-1.7-1.1-2.4-2c-0.7-0.9-1.2-2-1.6-3.3c-0.4-1.3-0.6-2.9-0.6-4.7c0-3.5,0.5-6.6,1.5-9.2c1-2.6,2.3-4.8,3.9-6.5
		c1.6-1.7,3.2-3,5-3.9c1.8-0.8,3.4-1.3,5-1.3c1.1,0,2.1,0.2,2.9,0.6c0.8,0.4,1.5,0.9,2,1.5c0.5,0.6,0.9,1.4,1.1,2.2
		c0.2,0.9,0.4,1.8,0.4,2.7l-5.7,1.1c-0.2-1.1-0.6-1.9-1-2.3c-0.4-0.5-0.9-0.7-1.4-0.7c-0.7,0-1.4,0.5-2.3,1.4
		c-0.8,1-1.6,2.2-2.3,3.7c-0.7,1.5-1.3,3.2-1.8,5c-0.5,1.8-0.8,3.6-0.8,5.4c0,1.7,0.3,2.9,0.8,3.6c0.5,0.7,1.2,1.1,2,1.1
		c0.6,0,1.1-0.1,1.7-0.4c0.6-0.3,1.1-0.7,1.6-1.2c0.5-0.5,0.9-1.1,1.2-1.8c0.3-0.7,0.5-1.4,0.5-2.2l-4.4,0.7l0.8-4
		c1.3-0.2,2.6-0.3,3.8-0.5c1-0.1,2.2-0.3,3.3-0.5c1.2-0.2,2.2-0.4,3.1-0.5C379.4,224.1,378.9,226.5,378,228.5z"/>
	<path class="st1" d="M389.5,236.9c0.6-3,1.2-5.9,1.8-8.9c0.2-1.2,0.5-2.5,0.7-3.8c0.2-1.3,0.5-2.6,0.7-3.9c0.2-1.3,0.4-2.5,0.6-3.8
		c0.2-1.2,0.3-2.3,0.5-3.3c-0.6-0.1-1.3-0.1-1.9-0.1c-0.6,0-1.3-0.1-1.9-0.2c0-0.4,0-0.9,0-1.5c0-0.6,0-1.1,0-1.7
		c0-0.6,0.1-1.3,0.1-2c0.7,0.1,1.4,0.1,2.1,0.1c0.7,0,1.4,0,2.1,0c1.4,0,2.8,0,4.1-0.1c1.3-0.1,2.5-0.1,3.6-0.2
		c1.1-0.1,2.2-0.2,3.3-0.3l-0.5,2.2c-0.1,0.6-0.3,1.3-0.4,1.9c-0.1,0.7-0.2,1.2-0.4,1.7c-0.6,0.2-1.2,0.3-1.8,0.3
		c-0.6,0.1-1.2,0.2-1.8,0.3c-0.2,0.9-0.4,2-0.6,3.1c-0.2,1.1-0.4,2.3-0.6,3.5c-0.2,1.2-0.4,2.4-0.6,3.7c-0.2,1.3-0.4,2.4-0.6,3.6
		c-0.4,2.7-0.9,5.5-1.2,8.4L389.5,236.9z"/>
	<path class="st1" d="M401.1,236.9l5.4-29l13.1-1.1c-0.2,0.6-0.4,1.2-0.5,1.8c-0.1,0.5-0.3,1.1-0.4,1.6c-0.1,0.6-0.2,1.1-0.3,1.5
		c-0.3,0-0.7,0-1.2,0.1c-0.5,0-1.1,0-1.6,0c-0.6,0-1.2,0-1.8,0c-0.6,0-1.1,0-1.5,0l-1.4,7.3c0.9-0.1,1.7-0.1,2.4-0.1
		c0.6,0,1.2,0,1.9,0c0.6,0,1.1,0,1.4,0c-0.1,0.8-0.2,1.5-0.3,2.2c-0.1,0.7-0.2,1.5-0.4,2.2c-0.3,0-0.7,0-1.3,0.1
		c-0.6,0-1.2,0-1.9,0.1c-0.7,0-1.5,0.1-2.4,0.1l-1.4,7.5l6-0.9l-0.4,4.7L401.1,236.9z"/>
	<path class="st1" d="M427.8,236.4c-0.8,0.1-1.6,0.3-2.2,0.4c0.1-0.9,0.2-1.8,0.3-2.7c0.1-0.8,0.2-1.5,0.2-2.3
		c0.1-0.8,0.1-1.4,0.2-2h-3.6l-1.7,5.9c-0.6,0.1-1.3,0.2-2.1,0.3c-0.8,0.1-1.6,0.2-2.3,0.3c-0.9,0.1-1.7,0.2-2.6,0.3
		c1.1-3.6,2.2-7.2,3.3-10.7c0.4-1.5,0.9-3,1.4-4.6c0.5-1.6,1-3.2,1.4-4.8c0.5-1.6,0.9-3.1,1.4-4.6c0.4-1.5,0.8-2.8,1.2-4
		c1.9-0.1,3.8-0.3,5.7-0.5c1.9-0.2,3.8-0.4,5.7-0.8c-0.1,0.9-0.2,2-0.3,3.2c-0.1,1.3-0.2,2.7-0.3,4.2c-0.1,1.5-0.2,3.1-0.2,4.8
		c-0.1,1.7-0.2,3.3-0.2,4.9c-0.1,3.8-0.3,7.7-0.5,12c-0.8,0.1-1.7,0.2-2.5,0.3C429.3,236.1,428.6,236.2,427.8,236.4z M423.7,225.8
		c0.1,0,0.3,0,0.6,0c0.3,0,0.6,0,0.9,0c0.3,0,0.6,0,0.9,0c0.3,0,0.5,0,0.6-0.1c0-0.2,0-0.4,0.1-0.8c0-0.4,0.1-0.8,0.1-1.3
		c0-0.5,0.1-1.1,0.1-1.7c0.1-0.6,0.1-1.2,0.2-1.8c0.1-1.4,0.2-2.9,0.4-4.5l0.2-3.5l-0.6,0l-0.9,3.5L423.7,225.8z"/>
	<path class="st1" d="M431.5,236.6c1.2-3.6,2.4-7.2,3.5-10.6c0.5-1.5,0.9-3,1.4-4.6c0.5-1.6,1-3.2,1.5-4.8c0.5-1.6,1-3.1,1.4-4.6
		c0.4-1.5,0.8-2.8,1.1-4.1c1.5,0,2.9-0.1,4.3-0.2c1.3-0.2,2.8-0.3,4.4-0.4c-0.1,0.6-0.2,1.3-0.3,2c-0.1,0.7-0.2,1.5-0.3,2.3
		c-0.1,0.8-0.3,1.7-0.4,2.5c-0.1,0.9-0.3,2-0.5,3.3c-0.2,1.4-0.5,3.1-0.8,5.1h0.5c0.8-2.1,1.5-3.8,2-5.2c0.5-1.4,0.9-2.5,1.3-3.4
		c0.3-0.9,0.7-1.7,1-2.5c0.3-0.8,0.7-1.6,1-2.4c0.3-0.7,0.6-1.4,0.9-2c0.7-0.1,1.3-0.1,1.9-0.2c0.6-0.1,1.2-0.2,1.8-0.3
		c0.6-0.1,1.2-0.2,1.8-0.3c0.6-0.1,1.3-0.2,2-0.3c-0.3,1.6-0.5,3.2-0.8,4.9c-0.2,1.7-0.5,3.3-0.7,5c-0.2,1.6-0.4,3.3-0.6,4.9
		c-0.2,1.6-0.3,3.1-0.5,4.6c-0.3,3.4-0.6,6.7-0.9,9.9l-7.2,1.3c0-0.1,0-0.5,0.1-1.1c0-0.6,0.1-1.3,0.2-2.2c0.1-0.9,0.2-1.8,0.3-2.9
		c0.1-1.1,0.2-2.1,0.4-3.2c0.1-1.1,0.3-2.1,0.4-3.1c0.1-1,0.3-1.8,0.4-2.5h-0.4c-0.4,1.1-0.8,2.3-1.3,3.6c-0.5,1.3-0.9,2.5-1.4,3.9
		c-0.5,1.3-1,2.6-1.4,3.8c-0.5,1.3-0.9,2.4-1.2,3.6c-1,0-1.8,0.1-2.5,0.1c-0.7,0-1.5,0.1-2.4,0.1l1.3-15.1h-0.6
		c-0.1,0.4-0.2,0.9-0.4,1.8c-0.2,0.8-0.5,1.8-0.8,2.9c-0.3,1.1-0.6,2.2-0.9,3.3c-0.3,1.2-0.6,2.2-0.9,3.2c-0.3,1-0.5,1.8-0.7,2.4
		c-0.2,0.6-0.3,1-0.3,1.1L431.5,236.6z"/>
	<path class="st1" d="M475.7,230.9c-0.6,1.2-1.4,2.3-2.4,3.2c-1,0.9-2.2,1.6-3.6,2.1c-1.4,0.5-2.8,0.7-4.4,0.7
		c-1.1,0-2.2-0.3-3.3-0.9c-1.1-0.6-2.2-1.5-3.2-2.8l3.1-5.9c0.2,0.4,0.5,0.7,0.9,1.1c0.4,0.4,0.8,0.7,1.3,1c0.5,0.3,1,0.5,1.4,0.7
		c0.5,0.2,0.9,0.3,1.3,0.3c0.3,0,0.7-0.1,1-0.2c0.4-0.1,0.7-0.3,1-0.5c0.3-0.2,0.5-0.5,0.7-0.8c0.2-0.3,0.3-0.6,0.3-1
		c0-0.7-0.2-1.3-0.6-1.8c-0.4-0.6-1-1.1-1.6-1.6c-0.6-0.5-1.3-1-2.1-1.5c-0.7-0.5-1.4-1.1-2-1.6c-0.6-0.6-1.1-1.2-1.6-1.9
		c-0.4-0.7-0.7-1.5-0.7-2.4c0-1.4,0.4-2.7,1.3-4c0.9-1.2,1.9-2.3,3.2-3.2c1.3-0.9,2.7-1.6,4.2-2.1c1.5-0.5,2.9-0.8,4.3-0.8
		c0.7,0,1.4,0.1,2.1,0.3c0.7,0.2,1.2,0.5,1.7,0.9c0.5,0.4,0.9,0.9,1.2,1.5c0.3,0.6,0.4,1.3,0.4,2.2c0,0.4,0,0.8-0.1,1.1
		c-0.1,0.4-0.1,0.8-0.2,1.2l-6,1.7c0.1-0.2,0.1-0.4,0.1-0.7c0-0.2,0.1-0.4,0.1-0.7c0-0.8-0.1-1.4-0.4-1.8c-0.3-0.4-0.7-0.6-1.1-0.6
		c-0.2,0-0.5,0.1-0.8,0.2c-0.3,0.2-0.6,0.4-0.9,0.6c-0.3,0.3-0.6,0.6-0.8,0.9c-0.2,0.4-0.3,0.7-0.3,1.1c0,0.7,0.2,1.2,0.6,1.6
		c0.4,0.4,0.8,0.8,1.4,1.2c0.6,0.4,1.1,0.8,1.8,1.2c0.6,0.4,1.2,0.9,1.8,1.5c0.6,0.6,1,1.4,1.4,2.3c0.4,0.9,0.6,2.1,0.6,3.6
		C476.6,228.3,476.3,229.7,475.7,230.9z"/>
</g>
<g>
	<path class="st1" d="M182.9,148.5c-0.6,2.5-1.5,4.9-2.7,7.3c-1.1,2.4-2.6,4.7-4.2,6.9c-1.7,2.2-3.6,4.1-5.7,5.8c-2.1,1.7-4.5,3-7,4
		c-2.5,1-5.2,1.5-8.1,1.5c-0.6,0-1.2,0-1.8-0.1c-0.6-0.1-1.2-0.1-1.8-0.2c1.1-5.8,2.3-11.5,3.4-17c0.4-2.3,0.9-4.7,1.3-7.2
		c0.5-2.5,0.9-5,1.3-7.4c0.4-2.4,0.8-4.8,1.2-7c0.4-2.2,0.7-4.2,1-6.1c1.8-0.3,3.7-0.7,5.6-0.9c1.9-0.3,3.8-0.4,5.7-0.4
		c2.3,0,4.2,0.4,5.8,1.1c1.6,0.7,2.9,1.7,3.9,3c1,1.3,1.7,2.7,2.2,4.4c0.5,1.7,0.7,3.5,0.7,5.4C183.9,143.7,183.5,146,182.9,148.5z
		 M167.3,143.7c-0.5,2.3-1,4.6-1.5,6.9c-0.5,2.3-1,4.7-1.5,7.3c-0.5,2.5-1,5.3-1.5,8.3c1-0.7,2-1.6,3-2.7c1-1.2,1.9-2.5,2.7-4
		c0.9-1.5,1.6-3.1,2.3-4.8c0.7-1.7,1.3-3.3,1.8-4.9c0.5-1.6,0.9-3.1,1.2-4.5c0.3-1.4,0.4-2.6,0.4-3.6c0-1.6-0.4-2.8-1.3-3.7
		c-0.9-0.9-2.2-1.3-4.1-1.3C168.3,139.1,167.8,141.4,167.3,143.7z"/>
	<path class="st1" d="M183.5,172.8l2.9-12.7c0-1.8,0-3.8-0.1-5.9c-0.1-2.1-0.2-4.3-0.3-6.4c-0.1-2.1-0.3-4.2-0.4-6.2
		c-0.1-2-0.2-3.8-0.3-5.3c-0.1-1.5-0.2-3.2-0.4-5.1l10.4-3.9v7.7c0,1.1,0,2.1,0,3.2c0,1.1,0,2.2,0,3.2c0,1.1,0,2,0,3
		c0,0.9,0,1.7,0,2.3c0.6-1.4,1.2-3.2,2-5.3c0.8-2.1,1.5-4.1,2.2-6.1c0.8-2.3,1.6-4.7,2.5-7.3l9.9,2.2c-1.8,3.6-3.6,7.2-5.4,10.8
		c-0.7,1.6-1.5,3.2-2.3,4.8c-0.8,1.7-1.6,3.3-2.4,5c-0.8,1.7-1.6,3.3-2.4,4.8c-0.8,1.6-1.5,3-2.1,4.4c-0.2,1.1-0.5,2.3-0.8,3.6
		c-0.3,1.3-0.6,2.5-0.9,3.7c-0.4,1.4-0.8,2.8-1.2,4.2L183.5,172.8z"/>
	<path class="st1" d="M203.5,174c1.2-5.9,2.3-11.7,3.4-17.3c0.4-2.4,0.9-4.8,1.4-7.4c0.5-2.6,0.9-5.1,1.4-7.6
		c0.4-2.5,0.8-4.9,1.2-7.3c0.4-2.3,0.6-4.5,0.9-6.4c1.3-0.1,2.6-0.2,3.8-0.3c1.1-0.1,2.2-0.2,3.4-0.2s2.2-0.1,3.1-0.2
		c0.6,3.2,1,6.3,1.5,9.3c0.2,1.3,0.4,2.6,0.7,3.9c0.2,1.4,0.5,2.7,0.7,3.9c0.2,1.3,0.4,2.5,0.6,3.6c0.2,1.2,0.4,2.2,0.6,3.1
		c0.2-0.9,0.4-1.9,0.6-3.1c0.2-1.2,0.4-2.4,0.7-3.7c0.3-1.3,0.5-2.6,0.8-3.9c0.3-1.3,0.5-2.6,0.8-3.9c0.6-2.9,1.3-6,2-9.2l7.8-0.9
		c-1.4,6.3-2.7,12.3-3.8,17.9c-0.5,2.4-1,4.9-1.5,7.4c-0.5,2.5-0.9,4.9-1.4,7.2c-0.4,2.3-0.8,4.4-1.1,6.4c-0.3,2-0.5,3.6-0.7,4.9
		c-0.1,0-0.6,0.1-1.5,0.3c-0.9,0.2-1.9,0.4-3,0.7c-1.1,0.3-2.3,0.5-3.4,0.8c-1.1,0.3-2,0.5-2.5,0.7c-0.3-3.4-0.6-6.6-1-9.7
		c-0.1-1.3-0.3-2.6-0.4-4c-0.2-1.4-0.3-2.7-0.5-4c-0.1-1.3-0.3-2.4-0.4-3.6c-0.1-1.1-0.3-2-0.4-2.8c-0.1,0.8-0.3,1.7-0.5,2.8
		c-0.2,1.1-0.4,2.3-0.6,3.5c-0.2,1.2-0.4,2.5-0.6,3.8c-0.2,1.3-0.4,2.6-0.7,3.9c-0.6,3-1.1,6.1-1.8,9.3L203.5,174z"/>
	<path class="st1" d="M252,173c-1.3,0.2-2.4,0.4-3.4,0.6c0.2-1.4,0.3-2.8,0.5-4.1c0.1-1.2,0.2-2.4,0.4-3.5c0.1-1.2,0.2-2.2,0.3-3
		h-5.6l-2.6,9.1c-0.9,0.1-2,0.3-3.3,0.4c-1.3,0.1-2.5,0.3-3.6,0.4c-1.4,0.2-2.7,0.3-4,0.5c1.7-5.6,3.4-11.1,5-16.5
		c0.7-2.3,1.4-4.6,2.1-7.1c0.7-2.5,1.5-4.9,2.2-7.4c0.7-2.5,1.5-4.8,2.1-7.1c0.7-2.3,1.3-4.4,1.8-6.2c2.9-0.2,5.8-0.5,8.8-0.8
		c3-0.3,5.9-0.7,8.8-1.2c-0.1,1.3-0.3,3-0.4,5c-0.1,2-0.3,4.2-0.4,6.5c-0.1,2.4-0.3,4.8-0.4,7.4c-0.1,2.6-0.3,5.1-0.4,7.6
		c-0.2,5.8-0.4,12-0.7,18.5c-1.3,0.2-2.6,0.4-3.8,0.5C254.5,172.6,253.3,172.8,252,173z M245.7,156.6c0.2,0,0.5,0,0.9,0
		c0.4,0,0.9,0,1.4-0.1c0.5,0,0.9,0,1.4-0.1c0.4,0,0.7-0.1,0.9-0.1c0-0.3,0-0.7,0.1-1.3c0.1-0.6,0.1-1.3,0.2-2.1
		c0.1-0.8,0.1-1.6,0.2-2.6c0.1-0.9,0.2-1.8,0.3-2.7c0.2-2.1,0.4-4.5,0.6-6.9l0.4-5.5l-1,0.1l-1.5,5.4L245.7,156.6z"/>
	<path class="st1" d="M257.8,173.3c1.9-5.6,3.7-11.1,5.4-16.5c0.7-2.3,1.5-4.6,2.2-7.1c0.8-2.5,1.5-4.9,2.3-7.4
		c0.8-2.4,1.5-4.8,2.1-7.1c0.7-2.3,1.2-4.4,1.8-6.3c2.3,0,4.6-0.1,6.6-0.4c2.1-0.3,4.3-0.5,6.8-0.7c-0.1,0.9-0.3,2-0.4,3.1
		c-0.1,1.2-0.3,2.4-0.5,3.6c-0.2,1.3-0.4,2.6-0.6,3.9c-0.2,1.3-0.5,3.1-0.8,5.2c-0.3,2.1-0.7,4.7-1.2,7.9h0.8c1.2-3.2,2.3-5.9,3.1-8
		c0.8-2.1,1.5-3.9,2-5.2c0.5-1.3,1-2.7,1.6-3.9c0.5-1.3,1-2.5,1.5-3.7c0.5-1.2,0.9-2.2,1.4-3.1c1.1-0.1,2.1-0.2,3-0.3
		c0.9-0.1,1.9-0.3,2.8-0.4c0.9-0.1,1.9-0.3,2.8-0.4c1-0.1,2-0.3,3.2-0.5c-0.4,2.4-0.8,4.9-1.2,7.5c-0.4,2.6-0.7,5.1-1,7.7
		c-0.3,2.5-0.6,5.1-0.9,7.5c-0.3,2.5-0.5,4.8-0.7,7.1c-0.5,5.2-1,10.3-1.3,15.3l-11.1,2c0-0.2,0-0.8,0.1-1.7
		c0.1-0.9,0.1-2.1,0.3-3.4c0.1-1.3,0.3-2.8,0.4-4.5c0.2-1.6,0.4-3.3,0.6-4.9c0.2-1.6,0.4-3.2,0.6-4.8c0.2-1.5,0.4-2.8,0.6-3.9h-0.6
		c-0.6,1.8-1.3,3.6-2,5.6c-0.7,2-1.5,3.9-2.2,6c-0.7,2-1.5,4-2.2,5.9c-0.7,1.9-1.4,3.8-1.9,5.5c-1.5,0-2.8,0.1-3.8,0.2
		c-1.1,0.1-2.3,0.1-3.7,0.2l2-23.4h-1c-0.1,0.5-0.3,1.5-0.6,2.7c-0.3,1.3-0.7,2.8-1.2,4.4c-0.4,1.7-0.9,3.4-1.4,5.2
		c-0.5,1.8-1,3.4-1.4,5c-0.4,1.5-0.8,2.8-1.1,3.8c-0.3,1-0.5,1.5-0.5,1.7L257.8,173.3z"/>
	<path class="st1" d="M307,172.6c-1.1,0.1-2.3,0.2-3.4,0.4c-1.2,0.1-2.3,0.3-3.2,0.4c-1,0.1-1.5,0.2-1.6,0.3c0.5-1.8,1-3.8,1.5-6
		c0.5-2.2,1-4.5,1.6-6.9c0.5-2.4,1-4.9,1.5-7.3c0.5-2.5,1-4.9,1.4-7.2c1.1-5.4,2.1-10.9,3.1-16.6l10-1.6c-1.1,5.6-2.2,11.2-3.3,16.6
		c-0.5,2.3-0.9,4.7-1.4,7.2c-0.5,2.5-1,4.9-1.4,7.4c-0.4,2.4-0.9,4.8-1.3,7.1c-0.4,2.3-0.8,4.4-1.2,6.2
		C308.9,172.4,308.1,172.5,307,172.6z"/>
	<path class="st1" d="M335.8,166.2c-1.3,1.7-2.6,3.1-4,4.3c-1.4,1.2-2.8,2-4.2,2.6c-1.4,0.5-2.8,0.8-4.1,0.8c-1.3,0-2.5-0.3-3.6-0.9
		c-1.1-0.6-2-1.5-2.8-2.6c-0.8-1.2-1.5-2.6-1.9-4.4c-0.5-1.7-0.7-3.7-0.7-6.1c0-4,0.6-7.8,1.7-11.7c1.1-3.8,2.7-7.3,4.7-10.4
		c2-3.1,4.4-5.5,7.1-7.4c2.7-1.9,5.8-2.8,9.1-2.8c1,0,2,0.2,2.9,0.6c0.9,0.4,1.7,1,2.4,1.8c0.7,0.8,1.2,1.7,1.6,2.8
		c0.4,1.1,0.6,2.3,0.6,3.7c0,0.3,0,0.5,0,0.8c0,0.3,0,0.6-0.1,0.9l-8.4,2.2c-0.5-1.1-1.1-1.6-1.8-1.6c-0.7,0-1.4,0.4-2.1,1.2
		c-0.7,0.8-1.5,1.8-2.2,3c-0.7,1.2-1.4,2.6-2.1,4.2c-0.7,1.5-1.3,3.1-1.8,4.6c-0.5,1.6-0.9,3-1.2,4.4c-0.3,1.4-0.5,2.6-0.5,3.4
		c0,1.3,0.2,2.3,0.5,2.8c0.4,0.5,0.8,0.8,1.4,0.8c0.5,0,1-0.2,1.6-0.5c0.6-0.4,1.1-0.8,1.7-1.4c0.5-0.6,1-1.2,1.4-1.9
		c0.4-0.7,0.7-1.4,0.9-2.1l7.3,2.9C338.2,162.5,337.1,164.5,335.8,166.2z"/>
	<path class="st1" d="M382.4,148.5c-0.6,2.5-1.5,4.9-2.7,7.3c-1.1,2.4-2.6,4.7-4.2,6.9c-1.7,2.2-3.6,4.1-5.7,5.8c-2.1,1.7-4.5,3-7,4
		c-2.5,1-5.2,1.5-8.1,1.5c-0.6,0-1.2,0-1.8-0.1c-0.6-0.1-1.2-0.1-1.8-0.2c1.1-5.8,2.3-11.5,3.4-17c0.4-2.3,0.9-4.7,1.3-7.2
		c0.5-2.5,0.9-5,1.3-7.4c0.4-2.4,0.8-4.8,1.2-7c0.4-2.2,0.7-4.2,1-6.1c1.8-0.3,3.7-0.7,5.6-0.9c1.9-0.3,3.8-0.4,5.7-0.4
		c2.3,0,4.2,0.4,5.8,1.1c1.6,0.7,2.9,1.7,3.9,3c1,1.3,1.7,2.7,2.2,4.4c0.5,1.7,0.7,3.5,0.7,5.4C383.3,143.7,383,146,382.4,148.5z
		 M366.8,143.7c-0.5,2.3-1,4.6-1.5,6.9c-0.5,2.3-1,4.7-1.5,7.3c-0.5,2.5-1,5.3-1.5,8.3c1-0.7,2-1.6,3-2.7c1-1.2,1.9-2.5,2.7-4
		c0.9-1.5,1.6-3.1,2.3-4.8c0.7-1.7,1.3-3.3,1.8-4.9c0.5-1.6,0.9-3.1,1.2-4.5c0.3-1.4,0.4-2.6,0.4-3.6c0-1.6-0.4-2.8-1.3-3.7
		c-0.9-0.9-2.2-1.3-4.1-1.3C367.8,139.1,367.3,141.4,366.8,143.7z"/>
	<path class="st1" d="M404.6,165c0,0-0.5,0.8-1.6,2.5c-1.1,1.7-2.4,3.1-3.8,4.2c-1.5,1.1-3,1.9-4.7,2.4c-1.7,0.5-3.3,0.8-5,0.8
		c-1,0-2-0.2-3-0.5c-1-0.3-1.9-0.8-2.7-1.4c-0.8-0.6-1.5-1.4-2-2.4c-0.5-1-0.8-2.1-0.8-3.4c0-0.2,0-0.3,0-0.5c0-0.2,0-0.3,0.1-0.5
		c0.2-1.7,0.4-3.8,0.8-6.2c0.4-2.4,0.8-5,1.2-7.6c0.4-2.6,0.9-5.3,1.4-8c0.5-2.7,1-5.1,1.4-7.3c0.4-2.2,0.8-4,1.1-5.5
		c0.3-1.5,0.5-2.3,0.6-2.7c0.9-0.1,2-0.2,3.2-0.3c1.2-0.1,2.4-0.2,3.4-0.3c1.3-0.1,2.6-0.3,3.9-0.4c-1.1,5.1-2.1,9.7-2.9,13.8
		c-0.4,1.8-0.8,3.5-1.1,5.3c-0.4,1.8-0.7,3.4-1,4.9c-0.3,1.5-0.6,2.7-0.8,3.8c-0.2,1.1-0.4,1.9-0.6,2.6c-0.1,0.7-0.3,1.5-0.5,2.6
		c-0.2,1-0.3,2-0.3,2.8c0,0.7,0.2,1.2,0.5,1.7c0.3,0.4,0.8,0.7,1.3,0.7c0.7,0,1.3-0.3,1.8-0.9c0.5-0.6,0.9-1.3,1.2-2
		c0.3-0.8,0.6-1.6,0.7-2.4c0.1-0.8,0.3-1.5,0.4-1.9c0.3-1.2,0.5-2.6,0.9-4.1c0.3-1.5,0.6-3,1-4.7c0.3-1.6,0.6-3.3,1-4.9
		c0.3-1.7,0.6-3.3,0.9-4.9c0.7-3.7,1.4-7.5,2.1-11.5l9.7-0.6c-0.4,2.2-0.8,4.2-1.1,6c-0.3,1.8-0.7,3.9-1.1,6.2
		c-0.4,2.3-0.9,4.7-1.4,7.2c-0.5,2.5-1,5-1.5,7.4c-0.5,2.4-1,4.6-1.4,6.7C404.9,163.8,404.6,165,404.6,165z"/>
	<path class="st1" d="M440.3,149.3c-0.7,3-1.7,5.8-3,8.4c-1.2,2.5-2.7,4.8-4.3,6.8c-1.6,2-3.4,3.7-5.1,5.1c-1.8,1.4-3.6,2.5-5.4,3.2
		c-1.8,0.7-3.6,1.1-5.2,1.1c-1.4,0-2.7-0.3-3.8-0.8c-1.1-0.5-2.1-1.3-3-2.3c-0.9-1-1.5-2.4-2-4c-0.5-1.6-0.7-3.6-0.7-5.8
		c0-2.4,0.3-4.8,0.9-7.4c0.6-2.6,1.4-5.2,2.4-7.8c1-2.6,2.3-5,3.8-7.3c1.5-2.3,3.1-4.4,4.9-6.1c1.8-1.8,3.7-3.2,5.7-4.3
		c2-1.1,4.2-1.6,6.4-1.6c1.9,0,3.5,0.4,4.8,1.2c1.3,0.8,2.2,1.8,2.9,3c0.7,1.2,1.2,2.6,1.5,4.2c0.3,1.6,0.4,3.1,0.4,4.7
		C441.5,143,441.1,146.3,440.3,149.3z M417.5,160.8c0.2,0.5,0.4,0.9,0.7,1.3c0.3,0.4,0.7,0.7,1.1,1c0.4,0.3,0.9,0.4,1.4,0.4
		c1.9,0,3.6-0.7,5.1-2c1.5-1.3,2.7-2.9,3.7-4.8c1-1.9,1.7-3.9,2.3-6.1c0.5-2.1,0.8-4.1,0.8-5.9c0-0.5,0-1.1-0.1-1.6
		c-0.1-0.6-0.2-1.1-0.4-1.6c-0.2-0.5-0.5-0.9-0.9-1.3c-0.4-0.4-0.9-0.5-1.6-0.5c-1.4,0-2.6,0.3-3.8,1c-1.1,0.7-2.2,1.6-3.1,2.7
		c-0.9,1.1-1.7,2.4-2.4,3.8c-0.7,1.4-1.3,2.8-1.8,4.3c-0.5,1.4-0.8,2.9-1.1,4.3c-0.2,1.4-0.3,2.6-0.3,3.6
		C417.2,159.9,417.3,160.3,417.5,160.8z"/>
	<path class="st1" d="M464.1,164.5c-0.9,1.9-2.1,3.6-3.7,4.9c-1.6,1.4-3.4,2.5-5.5,3.2c-2.1,0.8-4.4,1.1-6.8,1.1
		c-1.7,0-3.4-0.5-5.1-1.4c-1.7-0.9-3.3-2.3-4.9-4.3l4.7-9.1c0.3,0.5,0.7,1.1,1.3,1.7c0.6,0.6,1.3,1.1,2,1.5c0.7,0.4,1.5,0.8,2.2,1
		c0.7,0.3,1.4,0.4,2,0.4c0.5,0,1-0.1,1.6-0.3c0.6-0.2,1.1-0.4,1.5-0.8c0.5-0.3,0.8-0.7,1.1-1.2c0.3-0.4,0.4-1,0.4-1.5
		c0-1-0.3-1.9-1-2.8c-0.7-0.9-1.5-1.7-2.5-2.5c-1-0.8-2-1.6-3.2-2.4c-1.1-0.8-2.2-1.6-3.2-2.5c-1-0.9-1.8-1.9-2.5-3
		c-0.7-1.1-1-2.3-1-3.7c0-2.2,0.7-4.2,2-6.1c1.3-1.9,3-3.5,4.9-4.9c2-1.4,4.1-2.4,6.5-3.2c2.3-0.8,4.6-1.2,6.6-1.2
		c1.1,0,2.2,0.1,3.3,0.4c1,0.3,1.9,0.7,2.6,1.3c0.7,0.6,1.3,1.4,1.8,2.3c0.4,0.9,0.7,2.1,0.7,3.5c0,0.6-0.1,1.2-0.2,1.8
		c-0.1,0.6-0.2,1.2-0.3,1.9l-9.3,2.6c0.1-0.3,0.2-0.7,0.2-1c0.1-0.3,0.1-0.7,0.1-1c0-1.3-0.2-2.2-0.7-2.7c-0.4-0.6-1-0.9-1.8-0.9
		c-0.3,0-0.8,0.1-1.2,0.4c-0.5,0.3-1,0.6-1.5,1c-0.5,0.4-0.9,0.9-1.2,1.4c-0.3,0.5-0.5,1.1-0.5,1.8c0,1,0.3,1.9,0.9,2.5
		c0.6,0.7,1.3,1.3,2.1,1.9c0.9,0.6,1.8,1.2,2.8,1.8c1,0.6,1.9,1.4,2.8,2.4c0.9,1,1.6,2.2,2.1,3.6c0.6,1.5,0.9,3.3,0.9,5.5
		C465.5,160.5,465,162.6,464.1,164.5z"/>
</g>
</svg>
