<?xml version="1.0" encoding="utf-8"?>
<!-- Generator: Adobe Illustrator 21.0.2, SVG Export Plug-In . SVG Version: 6.00 Build 0)  -->
<svg version="1.1" id="Layer_1" xmlns="http://www.w3.org/2000/svg" xmlns:xlink="http://www.w3.org/1999/xlink" x="0px" y="0px"
	 viewBox="0 0 1590.8 982" style="enable-background:new 0 0 1590.8 982;" xml:space="preserve">
<style type="text/css">
	.st0{fill:#FF0000;}
	.st1{fill:#FFFFFF;stroke:#000000;stroke-width:3;stroke-miterlimit:10;}
</style>
<g>
	<path class="st0" d="M790.8,974c-1.8,0-3-10.1-4-18.3c-2.9-23.6-7.8-63.1-34.4-96.6c-6.7-8.5-43-50.8-99.2-52.4c-1.1,0-2.2,0-3.3,0
		c-64.6,0-107.2,55.2-118.8,72.1c-14.8,21.8-22.6,44.8-27.2,61.1c2.7-16.1,4.5-38.8-3.8-60.8c-13.2-35-51.9-64.7-94.2-72.4
		c-3.3-0.6-7.9-1.3-13.8-1.3c-30.6,0-76.3,18.7-139.7,57.2c-51.6,31.4-90.2,60.8-115.8,80.4c-14,10.7-25.2,19.3-28.8,20.3
		c1.2-3.5,11-15,22.1-28.2c19.3-22.8,48.6-57.3,78.4-100.7c51.2-74.7,99.6-145.2,79.3-186.1c-13.5-27.2-52.8-30.5-131.1-37l-8.5-0.7
		c-24.2-2-48.7-3-74.7-3c-20.2,0-37.2,0.6-49.6,1c-4,0.1-7.5,0.3-10.6,0.4c0,0,0,0,0.1,0c22.2-2.4,68.4-7.5,119.7-25.3
		c42.4-14.7,130.7-45.2,134.7-96.2c3.4-43.7-57.6-81.2-86.9-99.2c-60.3-37.1-122.7-47.8-149.4-52.4c-2.6-0.4-5-0.9-7.1-1.3
		c3.9,0.2,9.3,0.6,16.2,1.1c18.2,1.3,45.6,3.4,78.1,3.4c22,0,43.4-0.9,63.6-2.8c69.5-6.4,141.4-13.1,158.8-53.9
		c16.2-37.9-22.3-88-71-151.4c-33.1-43.1-65.9-75.2-83.6-92.5c-4.1-4-7.9-7.8-10.7-10.6c3.3,2.5,7.7,6.1,12.5,9.9
		c21.7,17.3,62,49.5,113.1,80.9c46.9,28.8,111.1,68.3,161.9,68.3c14.4,0,27.3-3.1,38.4-9.3c16.7-9.4,25.8-23.4,31.2-31.8
		c25.9-40.1,20-88.4,17.2-111.6c-0.6-4.6-1.1-9.2-1.1-11.7c1,2.3,2.3,7.1,3.7,12c6.2,22.5,17.7,64.5,50.2,99.7
		c12,13,40.2,43.5,79.9,43.5c0.5,0,0.9,0,1.4,0c33.4-0.6,57.8-22,69.4-34.7c32.5-35.7,35-85.9,36.3-112.8c0.4-8.4,0.9-18,2.4-18.8
		c1.5,0.7,3,10.3,4.4,18.8c12.2,76.9,35.5,99.1,47.9,110.9c34.9,33.2,80.8,36.8,98.9,36.8c4.2,0,6.7-0.2,7.2-0.2
		c12.3-1,55.1-6.9,87.1-40.6c31-32.6,37.3-75.3,41.1-100.8c0.9-6,1.6-10.7,2.4-14c1-3.9,1.8-4.1,1.8-4.1c0,0,0.9,0.2,1.6,4.5
		c0.6,3.6,1,8.9,1.5,15.1c2.1,28.3,5.7,75.7,38.4,108.1c28.3,28,63.5,37.4,82,40.5c8,1.4,15.7,2,23.5,2c27.7,0,58.2-8.5,102.1-28.5
		c71.7-32.7,124.4-70.9,152.6-91.5c9-6.6,17-12.3,20.2-13.9c-2.6,4.9-16.1,20-32.8,38.7c-21,23.5-49.7,55.7-81.5,94.6
		c-60.1,73.7-67.6,93.8-61.7,111c10.8,31.3,62.9,41.5,120,49.9c44.5,6.6,82.5,6.7,105.1,6.8c10.2,0,19.1,0.1,22.4,0.8
		c-2.9,1.2-10.7,2.7-18.9,4.4c-24.9,5-71.1,14.3-120,37.1c-35.7,16.6-109.9,51.3-108.8,95.3c1,38.7,61.6,66.2,94.2,81l0.1,0
		c45.3,20.6,89.6,29.1,120.8,32.9c-3,0-6.1,0-9.3,0c-37.4,0-73.2,2-106.5,6.1c-54.7,6.6-107,17.2-119.1,49.3
		c-2.2,6-3.6,15.3,5.6,34.9c11.7,24.8,37.6,59.4,77,102.9c44.7,49.3,87.4,88.6,113,112c8.8,8.1,16.4,15.1,21,19.6
		c-2-1.5-4.3-3.2-6.8-5.1c-27.8-20.9-93-69.9-181.9-100.6c-11-3.8-44.6-15.5-89.5-18.7c-15.1-1.1-30.6-2.2-45.3-2.2
		c-34.4,0-57.1,6.2-73.6,20.1c-34.3,29-32.7,85.6-31.7,119.4c0.3,10.4,0.7,23.3-1.2,24c-1.6,0-4-10-5.7-17.4
		c-5.4-22.6-14.4-60.4-42.5-92.7c-11.1-12.8-52.1-54.6-110.4-54.6c-2.9,0-5.8,0.1-8.6,0.3c-53.1,3.7-87,40.3-96.1,51.4
		c-27.9,34.1-33.6,74.8-37,99.1C794,963.6,792.6,974,790.8,974L790.8,974z"/>
	<path d="M792.1,15.8c0.9,3.5,1.8,9.4,2.7,14.7c4.3,27.1,12.3,77.4,48.4,111.8c35.3,33.6,81.7,37.2,99.9,37.2c4.2,0,6.9-0.2,7.3-0.2
		c12.5-1,55.7-7,88.1-41c13.6-14.3,24.1-32.5,31.2-54c6-18.1,8.5-35.2,10.4-47.6c0.8-5.6,1.7-11.7,2.7-14.9
		c0.8,3.5,1.3,10.2,1.7,16.4c1,13.8,2.5,32.7,7.7,52.4c6.3,23.4,16.8,42.5,31.1,56.7c28.6,28.3,64.2,37.8,82.8,40.9
		c8.1,1.4,15.9,2,23.8,2c27.9,0,58.7-8.6,102.7-28.7c71.9-32.8,124.6-71,152.9-91.6c5.1-3.7,10-7.2,13.8-9.9
		c-5.8,7.3-16.5,19.3-28.3,32.5c-21,23.5-49.8,55.7-81.5,94.7c-60.5,74.2-68,94.7-61.9,112.4c11.1,32.1,63.7,42.4,121.2,50.9
		c44.6,6.6,82.6,6.7,105.4,6.8c4.8,0,9.4,0,13.3,0.1c-3,0.7-6.5,1.4-10.1,2.1c-24.9,5-71.3,14.3-120.3,37.2
		c-36,16.8-110.8,51.7-109.7,96.7c0.4,17.4,12.6,34.5,36.1,50.9c19.4,13.5,42.3,23.9,59,31.5l0.1,0c36.3,16.5,71.8,25.2,100.6,30.1
		c-33.3,0.4-65.3,2.4-95.2,6c-55.2,6.7-107.9,17.4-120.3,50.3c-2.4,6.2-3.8,16,5.7,36.1c11.8,25,37.8,59.7,77.3,103.2
		c44.8,49.4,87.5,88.7,113.1,112.1c0.6,0.6,1.2,1.1,1.8,1.7c-32.8-24-91.7-63.8-168.1-90.3c-11.1-3.8-44.8-15.5-89.9-18.7
		c-15.1-1.1-30.7-2.2-45.5-2.2c-34.8,0-57.7,6.3-74.5,20.5c-34.9,29.4-33.2,86.5-32.2,120.6c0.2,7.8,0.5,16.4-0.1,20.6
		c-1.2-3.1-2.6-9-3.9-14.3c-5.4-22.7-14.5-60.7-42.8-93.3C1037.3,845.2,996,803,936.9,803c-2.9,0-5.8,0.1-8.7,0.3
		c-53.7,3.8-88,40.7-97.2,52c-28.2,34.4-33.9,75.4-37.3,99.9c-0.9,6.2-1.8,13.1-2.9,16.2c-1-3-1.8-9.7-2.6-15.8
		c-3-23.7-7.9-63.5-34.7-97.3c-6.8-8.6-43.5-51.3-100.3-53c-1.1,0-2.3,0-3.4,0c-65.4,0-108.4,55.7-120,72.8
		c-10.6,15.6-17.7,31.8-22.5,45.8c0.9-13.7,0-29.6-5.9-45.2c-6.9-18.2-20.2-35-38.4-48.4c-16.9-12.4-37.1-21.3-56.9-24.9
		c-3.4-0.6-8-1.3-14.1-1.3c-30.9,0-76.8,18.8-140.5,57.5c-51.7,31.4-90.4,60.9-115.9,80.4c-9.3,7.1-18.2,13.9-23.6,17.5
		c3.9-5.4,11.3-14.1,19-23.2c19.4-22.9,48.6-57.4,78.4-100.9c26-37.9,50.5-73.7,66.5-105.6c18.3-36.7,22.4-62.8,12.9-82
		c-6.7-13.4-20-21.8-43.1-27.2c-21.5-5-51.3-7.5-89.1-10.6l-8.5-0.7c-24.3-2-48.8-3-74.9-3c-10.3,0-19.8,0.2-28.3,0.4
		c23.9-3.6,55.1-9.8,88.4-21.3c42.7-14.8,131.6-45.5,135.7-97.5c3.5-44.6-58-82.4-87.6-100.6c-48.6-29.9-98.5-42.7-130.2-49
		c17.5,1.2,40.6,2.6,67.1,2.6c22,0,43.5-1,63.7-2.8c69.9-6.5,142.3-13.2,160.1-54.8c16.6-38.7-22.2-89.1-71.2-152.9
		c-28.4-36.9-56.6-65.9-75.2-84.3c22.9,18.2,59.6,46.5,104.6,74.1c27.8,17.1,54.9,33.4,81.8,46.1c32,15.1,58.4,22.4,80.8,22.4
		c14.6,0,27.8-3.2,39.1-9.5c17.1-9.5,26.3-23.8,31.8-32.3c24.7-38.3,20.8-83.9,17.9-108.5c6.4,23.3,18.4,63.3,49.6,97.2
		c12.1,13.2,40.6,44,81,44c0.5,0,1,0,1.4,0c34-0.6,58.8-22.3,70.5-35.2c32.9-36.1,35.4-86.6,36.7-113.7
		C791.3,25.1,791.6,19.3,792.1,15.8 M791.8,10C791.8,10,791.8,10,791.8,10c-9,0.6,6.9,80.9-39.7,132.1c-4.7,5.2-30.6,33.6-68.3,34.2
		c-0.5,0-0.9,0-1.4,0c-39.1,0-66.8-30-78.8-43.1C558.1,84,553.7,19.8,548.3,19.8c0,0-0.1,0-0.1,0c-5.8,1.1,18.4,70.6-16.8,125.2
		c-5.2,8.1-14.3,22.1-30.7,31.3c-11.4,6.4-24.1,9.1-37.6,9.1c-49,0-109.3-36.3-161.1-68.1c-76.2-46.9-127.5-94.7-131.8-94.7
		c-0.1,0-0.2,0-0.2,0.1c-2.5,2.8,47,42,98.7,109.2c48.7,63.3,86.7,112.8,70.8,149.9c-17.1,40-88.9,46.7-157.6,53
		c-22.4,2.1-43.9,2.8-63.5,2.8c-48.6,0-85.8-4.5-97.8-4.5c-2.6,0-4.1,0.2-4.1,0.7c-0.6,4.1,82.7,6.2,163.4,55.8
		c29.3,18,89.5,55,86.2,97.8c-3.9,50-92.6,80.7-133.7,94.9c-71.1,24.6-133,24.8-132.7,27.4c0.1,0.7,2.5,0.9,6.8,0.9
		c11,0,34.8-1.5,66.8-1.5c21.6,0,46.9,0.7,74.6,3c82.1,6.9,124.8,9.5,138.4,36.9c19.9,40.2-27.9,109.9-79.2,184.6
		c-53.2,77.6-104.8,126.9-100.6,131.1c0.2,0.2,0.4,0.3,0.8,0.3c8,0,59.6-48.5,145.9-100.9c79.6-48.3,118-57,139-57
		c5.6,0,10,0.6,13.5,1.3c38.5,7,79,34.1,93.1,71.4c14.9,39.5-3.1,81.5,0,82.2c0,0,0,0,0.1,0c3.1,0,7.2-43.4,33.6-82.2
		c9.5-14,52-71.5,117.5-71.5c1.1,0,2.2,0,3.3,0c57.1,1.7,93.5,46.1,98,51.8c39.9,50.4,30.6,115.4,39.6,115.4c0,0,0,0,0,0
		c9.2,0,0.7-67.3,42.6-118.4c5.4-6.6,39.6-47,95.1-50.9c2.9-0.2,5.7-0.3,8.5-0.3c60.4,0,101.5,45.2,109.3,54.1
		c42.2,48.5,41.2,110.5,49.3,110.5c0.1,0,0.1,0,0.2,0c10.4-1.1-15.5-102.3,33.7-143.8c18.7-15.8,44.5-19.8,72.6-19.8
		c14.7,0,30,1.1,45.2,2.2c41.4,3,72.8,12.9,89.1,18.6c113.9,39.4,189.9,109.6,194.9,109.6c0.1,0,0.2,0,0.2-0.1
		c2.7-3.3-64.7-56.5-138.6-137.9c-91.5-100.9-85.8-127.1-82.4-136.3c11.7-31,62.4-41.7,117.9-48.4c40.5-4.9,78-6.1,106.4-6.1
		c25.6,0,43.9,0.9,50.3,0.9c1.7,0,2.6-0.1,2.6-0.2c0.1-1.5-80.4,1.4-163.8-36.5c-32.5-14.8-92.4-41.9-93.4-79.7
		c-1.1-43,72.2-77.3,107.9-93.9c74.3-34.7,141.2-37.7,140.6-43c-0.6-4.9-55.4,2.2-129.7-8.8c-51.9-7.7-108-17.5-118.8-48.9
		c-5.6-16.3,1.3-35.9,61.4-109.6c65.2-80,118.3-132.1,114.9-136c-0.1-0.1-0.3-0.2-0.6-0.2c-7.5,0-71.5,58.8-174.7,105.9
		c-43.8,19.9-73.9,28.4-101.5,28.4c-7.9,0-15.5-0.7-23.3-2c-12.3-2.1-50.8-10.1-81.2-40.1c-47.4-46.9-33.1-127.9-42.6-128.1
		c0,0,0,0,0,0c-8.9,0-1.1,71.6-46.5,119.3c-33.4,35.2-78.7,39.5-86.2,40.1c-0.6,0.1-3.2,0.2-7.1,0.2c-17.5,0-63.2-3.5-97.9-36.4
		C794,91.3,800.6,10,791.8,10L791.8,10z"/>
</g>
<g>
	<path class="st1" d="M356.5,622.2c3.2-9.5,6.2-18.9,9.1-28.1c1.2-3.9,2.5-7.9,3.8-12.2c1.3-4.2,2.6-8.4,3.9-12.6
		c1.3-4.2,2.5-8.2,3.6-12.1c1.1-3.9,2.1-7.5,3-10.8c4,0,7.8-0.2,11.3-0.6c3.6-0.4,7.4-0.8,11.5-1.2c-0.2,1.6-0.5,3.4-0.7,5.3
		c-0.3,2-0.5,4-0.9,6.2c-0.3,2.2-0.7,4.4-1,6.7c-0.4,2.3-0.8,5.2-1.3,8.8c-0.5,3.6-1.2,8.1-2.1,13.5h1.4c2.1-5.5,3.8-10,5.2-13.6
		c1.4-3.6,2.5-6.6,3.4-8.9c0.9-2.3,1.8-4.5,2.7-6.7c0.9-2.2,1.8-4.3,2.6-6.2c0.8-2,1.6-3.7,2.3-5.2c1.8-0.1,3.5-0.3,5.1-0.5
		c1.6-0.2,3.2-0.4,4.8-0.7c1.6-0.3,3.2-0.5,4.8-0.8c1.6-0.3,3.4-0.6,5.4-0.9c-0.7,4.2-1.4,8.4-2.1,12.8c-0.7,4.4-1.2,8.7-1.7,13.1
		c-0.5,4.3-1,8.6-1.5,12.9c-0.5,4.2-0.9,8.3-1.3,12.1c-0.9,8.9-1.6,17.6-2.3,26l-19,3.3c0-0.4,0.1-1.3,0.2-2.9
		c0.1-1.6,0.3-3.5,0.4-5.8c0.2-2.3,0.4-4.8,0.8-7.6c0.3-2.8,0.7-5.6,1-8.4c0.3-2.8,0.7-5.5,1-8.1c0.4-2.6,0.7-4.9,1.1-6.7h-1
		c-1,3-2.1,6.2-3.4,9.5c-1.2,3.3-2.5,6.7-3.8,10.2c-1.3,3.4-2.5,6.8-3.8,10.1c-1.2,3.3-2.3,6.5-3.3,9.5c-2.5,0.1-4.7,0.2-6.5,0.3
		c-1.8,0.1-3.9,0.2-6.3,0.4l3.5-39.9h-1.6c-0.1,0.9-0.5,2.5-1.1,4.7c-0.6,2.2-1.3,4.7-2,7.5c-0.8,2.8-1.6,5.8-2.5,8.8
		c-0.9,3.1-1.7,5.9-2.5,8.5c-0.8,2.6-1.4,4.8-1.9,6.5c-0.5,1.7-0.8,2.6-0.9,2.9L356.5,622.2z"/>
	<path class="st1" d="M470.9,608c0,0-0.9,1.4-2.8,4.3c-1.9,2.9-4,5.2-6.5,7.1c-2.5,1.9-5.2,3.2-8,4.1c-2.8,0.9-5.7,1.3-8.5,1.3
		c-1.7,0-3.4-0.3-5.1-0.8c-1.7-0.5-3.3-1.3-4.7-2.4c-1.4-1.1-2.5-2.4-3.4-4.1c-0.9-1.6-1.4-3.6-1.4-5.8c0-0.3,0-0.6,0-0.9
		c0-0.3,0-0.6,0.1-0.9c0.3-2.9,0.8-6.5,1.4-10.7c0.7-4.2,1.3-8.5,2.1-13c0.7-4.5,1.5-9.1,2.4-13.6c0.9-4.6,1.7-8.7,2.3-12.4
		c0.7-3.7,1.3-6.8,1.8-9.3c0.5-2.5,0.8-4,1-4.6c1.5-0.1,3.3-0.3,5.4-0.5c2.1-0.2,4.1-0.4,5.9-0.5c2.3-0.2,4.5-0.4,6.6-0.6
		c-1.9,8.7-3.6,16.5-5,23.6c-0.7,3-1.3,6-1.9,9c-0.6,3-1.2,5.8-1.7,8.3c-0.5,2.5-1,4.7-1.4,6.5c-0.4,1.8-0.7,3.3-1,4.5
		c-0.3,1.1-0.5,2.6-0.9,4.4c-0.3,1.8-0.5,3.4-0.5,4.8c0,1.1,0.3,2.1,0.9,2.9c0.6,0.8,1.3,1.1,2.2,1.1c1.2,0,2.3-0.5,3.1-1.5
		c0.8-1,1.5-2.1,2-3.5c0.5-1.4,0.9-2.7,1.2-4.1c0.3-1.4,0.5-2.5,0.7-3.3c0.4-2.1,0.9-4.4,1.5-6.9c0.5-2.5,1.1-5.2,1.6-8
		c0.5-2.8,1.1-5.6,1.6-8.4c0.5-2.9,1.1-5.7,1.6-8.4c1.2-6.3,2.4-12.8,3.6-19.6l16.6-1.1c-0.7,3.7-1.4,7.1-2,10.2
		c-0.6,3.1-1.2,6.6-1.9,10.5c-0.7,3.9-1.5,8.1-2.3,12.3c-0.9,4.3-1.7,8.5-2.6,12.6c-0.8,4.1-1.7,7.9-2.5,11.4
		C471.4,605.9,470.9,608,470.9,608z"/>
	<path class="st1" d="M518.7,607.1c-1.6,3.3-3.7,6.1-6.3,8.4c-2.7,2.4-5.8,4.2-9.4,5.5c-3.6,1.3-7.5,1.9-11.6,1.9
		c-2.9,0-5.8-0.8-8.7-2.3c-2.9-1.5-5.7-4-8.4-7.4l8.1-15.6c0.5,0.9,1.3,1.9,2.3,2.9c1,1,2.2,1.8,3.4,2.5c1.3,0.7,2.5,1.3,3.8,1.8
		c1.3,0.5,2.4,0.7,3.4,0.7c0.9,0,1.8-0.1,2.7-0.4c0.9-0.3,1.8-0.7,2.6-1.3c0.8-0.6,1.4-1.2,1.9-2c0.5-0.8,0.7-1.6,0.7-2.6
		c0-1.7-0.6-3.3-1.7-4.8c-1.1-1.5-2.5-2.9-4.2-4.2c-1.7-1.3-3.5-2.7-5.4-4c-2-1.4-3.8-2.8-5.4-4.3c-1.6-1.5-3-3.2-4.2-5.1
		c-1.2-1.9-1.7-3.9-1.7-6.2c0-3.7,1.1-7.2,3.4-10.4c2.2-3.2,5.1-6,8.4-8.3c3.4-2.3,7.1-4.2,11.1-5.5c4-1.4,7.8-2,11.3-2
		c2,0,3.8,0.2,5.6,0.7c1.7,0.5,3.2,1.2,4.5,2.3c1.3,1,2.3,2.4,3.1,3.9c0.8,1.6,1.1,3.6,1.1,5.9c0,1-0.1,2-0.3,3
		c-0.2,1-0.3,2.1-0.5,3.2l-15.8,4.5c0.1-0.6,0.3-1.1,0.4-1.7c0.1-0.6,0.2-1.1,0.2-1.7c0-2.2-0.4-3.7-1.1-4.7c-0.8-1-1.8-1.5-3-1.5
		c-0.6,0-1.3,0.2-2.1,0.6c-0.8,0.4-1.7,1-2.5,1.7c-0.8,0.7-1.5,1.5-2.1,2.4c-0.6,0.9-0.9,1.9-0.9,3c0,1.7,0.5,3.2,1.5,4.3
		c1,1.1,2.2,2.2,3.6,3.2c1.5,1,3,2,4.7,3.1c1.7,1,3.3,2.4,4.7,4c1.5,1.7,2.7,3.7,3.6,6.2c1,2.5,1.5,5.6,1.5,9.4
		C521,600.2,520.3,603.9,518.7,607.1z"/>
	<path class="st1" d="M534.3,620.9c-1.9,0.2-3.9,0.4-5.9,0.6c-2,0.3-3.9,0.5-5.5,0.7c-1.6,0.2-2.5,0.4-2.7,0.4
		c0.7-3.1,1.5-6.5,2.2-10.3c0.8-3.8,1.5-7.7,2.3-11.8c0.8-4.1,1.6-8.3,2.3-12.5c0.7-4.2,1.4-8.3,2.1-12.3c1.5-9.2,3.1-18.6,4.6-28.3
		l17-2.7c-1.7,9.6-3.3,19-4.9,28.3c-0.7,3.9-1.3,8-2,12.3c-0.7,4.2-1.4,8.4-2.1,12.6c-0.7,4.2-1.3,8.2-1.9,12.1
		c-0.6,3.9-1.1,7.4-1.6,10.6C537.5,620.6,536.2,620.7,534.3,620.9z"/>
	<path class="st1" d="M582.3,609.9c-2.1,2.9-4.4,5.3-6.8,7.3c-2.4,2-4.7,3.4-7.1,4.4c-2.4,0.9-4.7,1.4-7,1.4c-2.3,0-4.3-0.5-6.2-1.5
		c-1.9-1-3.5-2.5-4.8-4.5c-1.4-2-2.5-4.5-3.3-7.4c-0.8-2.9-1.3-6.4-1.3-10.3c0-6.7,0.9-13.4,2.8-20c1.9-6.6,4.5-12.5,8-17.7
		c3.4-5.2,7.5-9.5,12.1-12.6c4.7-3.2,9.9-4.8,15.5-4.8c1.7,0,3.4,0.4,5,1.1c1.6,0.7,3,1.7,4.1,3c1.2,1.3,2.1,2.9,2.8,4.7
		c0.7,1.9,1,3.9,1,6.2c0,0.4,0,0.9,0,1.3c0,0.5,0,1-0.1,1.5l-14.3,3.8c-0.9-1.8-1.9-2.7-3.1-2.7c-1.2,0-2.4,0.7-3.6,2
		c-1.3,1.3-2.5,3.1-3.8,5.2c-1.2,2.1-2.4,4.5-3.6,7.1c-1.2,2.6-2.2,5.3-3.1,7.9c-0.9,2.7-1.6,5.2-2.1,7.6c-0.5,2.4-0.8,4.4-0.8,5.9
		c0,2.3,0.3,3.9,0.9,4.8c0.6,0.9,1.4,1.4,2.5,1.4c0.8,0,1.7-0.3,2.7-0.9c1-0.6,2-1.4,2.8-2.4c0.9-1,1.7-2.1,2.4-3.3
		c0.7-1.2,1.2-2.4,1.5-3.7l12.4,4.9C586.4,603.6,584.5,607,582.3,609.9z"/>
	<path class="st1" d="M620.8,621.6c-2.2,0.4-4.1,0.7-5.9,1c0.3-2.4,0.6-4.7,0.9-7c0.2-2,0.4-4,0.6-6c0.2-2,0.3-3.7,0.5-5.2h-9.5
		l-4.4,15.5c-1.6,0.2-3.5,0.4-5.7,0.7c-2.2,0.3-4.2,0.5-6.1,0.7c-2.3,0.3-4.6,0.6-6.9,0.9c2.9-9.5,5.8-18.9,8.6-28.2
		c1.2-3.9,2.4-7.9,3.6-12.2c1.3-4.2,2.5-8.4,3.8-12.6c1.3-4.2,2.5-8.2,3.6-12.1c1.2-3.9,2.2-7.4,3.1-10.7c4.9-0.4,10-0.8,15.1-1.3
		c5.1-0.5,10.1-1.2,15-2c-0.2,2.3-0.5,5.1-0.7,8.6c-0.3,3.4-0.5,7.1-0.7,11.1c-0.2,4-0.4,8.2-0.7,12.6c-0.2,4.4-0.4,8.7-0.7,12.9
		c-0.4,9.9-0.8,20.4-1.2,31.5c-2.2,0.4-4.4,0.6-6.5,0.9C625,620.9,623,621.3,620.8,621.6z M610,593.6c0.3,0,0.8,0,1.6-0.1
		c0.8,0,1.6-0.1,2.4-0.1c0.8,0,1.6-0.1,2.3-0.1c0.7,0,1.2-0.1,1.5-0.2c0-0.4,0.1-1.2,0.2-2.2c0.1-1,0.2-2.2,0.3-3.6
		c0.1-1.3,0.2-2.8,0.4-4.4c0.1-1.6,0.3-3.1,0.4-4.6c0.3-3.7,0.7-7.6,1.1-11.8l0.7-9.4l-1.6,0.1l-2.5,9.3L610,593.6z"/>
	<path class="st1" d="M656.8,619.6c-2.5,0.1-5,0.4-7.6,0.6c-2.5,0.3-5,0.7-7.5,1.1c-2.4,0.5-4.6,1-6.6,1.7c0.4-3.2,0.9-6.8,1.5-10.8
		c0.6-3.9,1.3-8,2-12.3c0.8-4.2,1.5-8.5,2.3-12.8c0.8-4.3,1.5-8.4,2.3-12.4c1.8-9.4,3.7-19,5.8-28.7l19.1-2.5
		c-2,8.3-3.8,16.4-5.7,24.3c-0.8,3.4-1.6,6.9-2.4,10.5c-0.8,3.6-1.6,7.2-2.3,10.6c-0.7,3.4-1.4,6.8-2,10c-0.6,3.2-1.1,6.1-1.4,8.6
		c1.8-0.1,3.8-0.2,5.8-0.3c2.1,0,3.9-0.1,5.5-0.1c0.1,1.4,0.2,2.7,0.3,4c0.1,1.3,0.3,2.5,0.5,3.6c0.2,1.1,0.3,2,0.4,2.9
		c0.1,0.8,0.2,1.4,0.3,1.7c-0.6,0-1.1,0-1.7-0.1c-0.5,0-1.1-0.1-1.7-0.1C661.7,619.4,659.3,619.4,656.8,619.6z"/>
	<path class="st1" d="M692.5,623.2l8.3-76.4c3.4-0.1,6.6-0.5,9.6-1c3-0.5,6-0.9,9-1.1c0,0.1-0.1,0.8-0.3,2.2
		c-0.2,1.4-0.5,3.2-0.9,5.5c-0.4,2.3-0.8,4.8-1.2,7.6c-0.4,2.8-1.1,6.7-1.9,11.7c-0.8,4.9-1.9,11.8-3.3,20.6h1.6
		c1.9-6.6,3.4-12,4.7-16.2c1.2-4.2,2.2-7.6,3-10.2c0.8-2.6,1.5-5.1,2.2-7.6c0.7-2.4,1.3-4.7,2-6.8c0.6-2.1,1.1-3.8,1.5-5.3h1
		c1.3,0,2.6-0.1,4-0.2c1.3-0.1,2.6-0.3,3.8-0.5c1.2-0.2,2.5-0.4,3.8-0.7c-0.1,0.6-0.3,2-0.5,4c-0.2,2-0.4,4.4-0.7,7.3
		c-0.3,2.8-0.6,6-0.9,9.4c-0.3,3.4-0.6,6.7-0.9,10c-0.3,3.3-0.6,6.4-0.8,9.3c-0.3,2.9-0.5,5.5-0.7,7.5h2l10.3-46.3
		c2.5-0.4,4.9-0.7,7.3-1c2.1-0.3,4.3-0.6,6.5-0.9c2.3-0.3,4.2-0.6,6-1c-1.1,3-2.2,6.4-3.3,10.1c-1.1,3.7-2.2,7.6-3.4,11.7
		c-1.2,4.1-2.3,8.2-3.3,12.4c-1.1,4.2-2.1,8.2-3.1,12.1c-2.3,9.2-4.6,18.6-6.8,28.3l-24.6,4.1l4.8-41.5h-1.3l-10.8,39.1L692.5,623.2
		z"/>
	<path class="st1" d="M753.9,622.9c2-9.5,3.8-18.9,5.7-28c0.7-3.9,1.4-7.9,2.2-12.1c0.8-4.2,1.5-8.4,2.2-12.5
		c0.7-4.1,1.3-8.1,2-11.9c0.6-3.8,1.1-7.3,1.5-10.5c4.1-1.3,8.6-2.2,13.4-2.9c4.8-0.6,9.5-0.9,14.3-0.9c2.8,0,5.2,0.3,7,1
		c1.9,0.6,3.3,1.6,4.4,2.7c1.1,1.2,1.8,2.6,2.2,4.1c0.4,1.6,0.7,3.3,0.7,5.3c0,2.9-0.5,5.7-1.5,8.4c-1,2.8-2.4,5.4-4.1,7.9
		c-1.7,2.5-3.7,4.7-5.9,6.8c-2.2,2-4.6,3.7-7.1,5c1.3,2.9,2.7,6,4.2,9.4c1.5,3.4,2.9,6.7,4.2,9.7c1.5,3.6,2.9,7.2,4.5,10.8
		l-16.9,5.8c-1.5-4.6-2.8-8.9-3.9-12.9c-0.5-1.6-1-3.4-1.5-5.1c-0.5-1.8-1-3.4-1.4-5c-0.4-1.6-0.8-3-1.1-4.3
		c-0.3-1.3-0.5-2.3-0.5-3.1l-1.4,0.4c-0.4,2.3-1,5-1.6,8.1c-0.6,3.1-1.2,6.1-1.7,8.9c-0.7,3.4-1.3,6.8-2,10.2L753.9,622.9z
		 M779.5,576.2c1.4-0.1,3.1-0.7,5.1-1.7c2-1,3.9-2.2,5.7-3.6c1.8-1.4,3.4-2.9,4.7-4.4c1.3-1.5,2-2.8,2-4c0-0.8-0.3-1.4-0.8-1.9
		c-0.5-0.5-1.2-0.8-2.1-1.1c-0.9-0.3-1.9-0.4-3-0.5c-1.1-0.1-2.2-0.1-3.4-0.1c-0.8,0-1.6,0-2.5,0.1c-0.8,0-1.6,0.1-2.2,0.1
		L779.5,576.2z"/>
	<path class="st1" d="M816.5,620.9c-1.9,0.2-3.9,0.4-5.9,0.6c-2,0.3-3.9,0.5-5.5,0.7c-1.6,0.2-2.5,0.4-2.7,0.4
		c0.7-3.1,1.5-6.5,2.2-10.3c0.8-3.8,1.5-7.7,2.3-11.8c0.8-4.1,1.6-8.3,2.3-12.5c0.7-4.2,1.4-8.3,2.1-12.3c1.5-9.2,3.1-18.6,4.6-28.3
		l17-2.7c-1.7,9.6-3.3,19-4.9,28.3c-0.7,3.9-1.3,8-2,12.3c-0.7,4.2-1.4,8.4-2.1,12.6c-0.7,4.2-1.3,8.2-1.9,12.1
		c-0.6,3.9-1.1,7.4-1.6,10.6C819.7,620.6,818.4,620.7,816.5,620.9z"/>
	<path class="st1" d="M833.7,622.9c1.7-7.9,3.3-15.7,4.8-23.3c0.7-3.2,1.3-6.6,2-10.1c0.7-3.5,1.3-7,1.9-10.4
		c0.6-3.4,1.2-6.7,1.6-9.9c0.5-3.2,0.9-6.1,1.3-8.8c-1.7-0.2-3.4-0.3-5.1-0.2c-1.7,0.1-3.4-0.1-5.1-0.6c0.1-1.1,0.1-2.5,0.1-4
		s0-3,0.1-4.5c0.1-1.6,0.1-3.4,0.2-5.3c1.9,0.1,3.8,0.3,5.7,0.3c1.9,0.1,3.8,0.1,5.7,0.1c3.7,0,7.3-0.1,10.7-0.3
		c3.4-0.2,6.6-0.4,9.6-0.6c2.9-0.3,5.8-0.6,8.7-0.9l-1.2,5.8c-0.4,1.7-0.7,3.3-1,5.1c-0.3,1.7-0.6,3.2-0.9,4.4
		c-1.6,0.4-3.2,0.7-4.8,0.9c-1.6,0.2-3.3,0.4-4.8,0.7c-0.5,2.4-1.1,5.1-1.6,8.1c-0.6,3-1.1,6.1-1.7,9.3c-0.5,3.2-1.1,6.4-1.6,9.7
		c-0.5,3.3-1,6.5-1.5,9.5c-1.2,7.1-2.3,14.5-3.3,22.1L833.7,622.9z"/>
	<path class="st1" d="M877.9,620.9c-1.9,0.2-3.9,0.4-5.9,0.6c-2,0.3-3.9,0.5-5.5,0.7c-1.6,0.2-2.5,0.4-2.7,0.4
		c0.7-3.1,1.5-6.5,2.2-10.3c0.8-3.8,1.5-7.7,2.3-11.8c0.8-4.1,1.6-8.3,2.3-12.5c0.7-4.2,1.4-8.3,2.1-12.3c1.5-9.2,3.1-18.6,4.6-28.3
		l17-2.7c-1.7,9.6-3.3,19-4.9,28.3c-0.7,3.9-1.3,8-2,12.3c-0.7,4.2-1.4,8.4-2.1,12.6c-0.7,4.2-1.3,8.2-1.9,12.1
		c-0.6,3.9-1.1,7.4-1.6,10.6C881.2,620.6,879.9,620.7,877.9,620.9z"/>
	<path class="st1" d="M885.8,623.3c2.2-10.3,4.2-20.3,6.2-30c0.7-4.2,1.5-8.5,2.3-12.9c0.8-4.4,1.6-8.8,2.3-13.2
		c0.7-4.3,1.4-8.5,2-12.5c0.6-4,1-7.6,1.3-10.8c0.9,0.1,1.7,0.1,2.4,0.1c0.7,0,1.4,0,2.3,0c1,0,2.2,0,3.7-0.1c1.5,0,2.9-0.1,4.4-0.2
		c1.5-0.1,3-0.1,4.7-0.2c1,5,1.9,9.9,2.7,14.5c0.8,4.1,1.6,8.3,2.5,12.6c0.8,4.3,1.6,8,2.2,11c0.3-1.4,0.6-3.1,1-5
		c0.4-1.9,0.8-3.9,1.2-6c0.4-2.1,0.9-4.2,1.3-6.3c0.4-2.1,0.8-4.2,1.3-6.3c1-4.7,2.1-9.5,3.2-14.4l13.3-1.6
		c-2.5,11-4.6,21.4-6.5,31.2c-0.9,4.2-1.7,8.5-2.6,12.9c-0.8,4.3-1.6,8.5-2.3,12.5c-0.7,4-1.3,7.7-1.9,11.1
		c-0.5,3.4-0.9,6.3-1.2,8.6c-0.2,0-1.1,0.2-2.6,0.5c-1.5,0.3-3.2,0.7-5.1,1.1c-1.9,0.4-3.8,0.9-5.8,1.3c-1.9,0.4-3.4,0.8-4.3,1.2
		c-0.4-5.7-0.9-11.2-1.4-16.4c-0.2-2.2-0.5-4.5-0.7-6.8c-0.3-2.3-0.5-4.6-0.8-6.7c-0.3-2.2-0.6-4.2-0.9-6c-0.3-1.9-0.6-3.5-0.9-4.8
		c-0.2,1.4-0.5,2.9-0.9,4.7c-0.4,1.8-0.7,3.7-1.1,5.7c-0.4,2-0.7,4.1-1.1,6.3c-0.4,2.2-0.8,4.3-1.2,6.3c-0.9,4.8-2,9.8-3.1,15.1
		L885.8,623.3z"/>
	<path class="st1" d="M989.4,600.9c-2.4,5.4-5.3,10-8.7,13.6c-3.4,3.7-7,6.4-10.9,8.2c-3.9,1.8-7.6,2.7-11.1,2.7
		c-2.7,0-5.2-0.6-7.7-1.7c-2.4-1.1-4.5-2.9-6.3-5.2c-1.8-2.3-3.2-5.3-4.2-8.8c-1-3.5-1.5-7.6-1.5-12.4c0-9.3,1.3-17.3,4-24.2
		c2.7-6.9,6.1-12.6,10.2-17.2c4.1-4.6,8.5-8,13.2-10.2c4.7-2.2,9.1-3.3,13.1-3.3c2.9,0,5.4,0.5,7.6,1.5c2.1,1,3.9,2.4,5.3,4
		c1.4,1.7,2.4,3.7,3,5.9c0.6,2.3,0.9,4.6,0.9,7.2l-14.9,2.8c-0.7-2.9-1.5-4.9-2.6-6.1c-1.1-1.2-2.3-1.8-3.7-1.8
		c-1.8,0-3.8,1.3-6,3.8c-2.2,2.5-4.2,5.8-6.1,9.8c-1.9,4-3.5,8.4-4.8,13.2c-1.3,4.8-2,9.5-2.2,14.2c0,4.4,0.7,7.6,2,9.5
		c1.3,1.9,3.1,2.9,5.2,2.9c1.5,0,3-0.4,4.5-1.1c1.6-0.7,3-1.7,4.2-3.1c1.2-1.3,2.3-2.9,3.1-4.6c0.8-1.8,1.3-3.7,1.4-5.8l-11.7,1.7
		l2.1-10.7c3.4-0.4,6.8-0.9,10-1.3c2.8-0.4,5.7-0.8,8.8-1.3c3.1-0.5,5.8-1,8.1-1.4C993.3,589.1,991.8,595.5,989.4,600.9z"/>
	<path class="st1" d="M1019.9,622.9c1.7-7.9,3.3-15.7,4.8-23.3c0.7-3.2,1.3-6.6,2-10.1c0.7-3.5,1.3-7,1.9-10.4
		c0.6-3.4,1.2-6.7,1.6-9.9c0.5-3.2,0.9-6.1,1.3-8.8c-1.7-0.2-3.4-0.3-5.1-0.2c-1.7,0.1-3.4-0.1-5.1-0.6c0.1-1.1,0.1-2.5,0.1-4
		s0-3,0.1-4.5c0.1-1.6,0.1-3.4,0.2-5.3c1.9,0.1,3.8,0.3,5.7,0.3c1.9,0.1,3.8,0.1,5.7,0.1c3.7,0,7.3-0.1,10.7-0.3
		c3.4-0.2,6.6-0.4,9.6-0.6c2.9-0.3,5.8-0.6,8.7-0.9l-1.2,5.8c-0.4,1.7-0.7,3.3-1,5.1c-0.3,1.7-0.6,3.2-0.9,4.4
		c-1.6,0.4-3.2,0.7-4.8,0.9c-1.6,0.2-3.3,0.4-4.8,0.7c-0.5,2.4-1.1,5.1-1.6,8.1c-0.6,3-1.1,6.1-1.7,9.3c-0.5,3.2-1.1,6.4-1.6,9.7
		c-0.5,3.3-1,6.5-1.5,9.5c-1.2,7.1-2.3,14.5-3.3,22.1L1019.9,622.9z"/>
	<path class="st1" d="M1050.4,622.9l14.3-76.5l34.4-2.9c-0.5,1.6-0.9,3.2-1.3,4.8c-0.4,1.4-0.7,2.8-1,4.3c-0.3,1.5-0.6,2.8-0.8,3.9
		c-0.7,0.1-1.8,0.1-3.1,0.2c-1.3,0-2.8,0.1-4.3,0.1c-1.5,0-3.1,0.1-4.6,0.1c-1.6,0-2.9,0-4.1,0l-3.8,19.3c2.2-0.1,4.4-0.3,6.3-0.3
		c1.6-0.1,3.2-0.1,4.9-0.1c1.7,0,2.9,0,3.7-0.1c-0.3,2-0.6,4-0.8,5.9c-0.3,1.9-0.6,3.9-0.9,5.9c-0.7,0.1-1.9,0.1-3.5,0.2
		c-1.6,0-3.3,0.1-5,0.2c-1.9,0.1-4,0.1-6.2,0.2l-3.7,19.8l15.9-2.5l-1.1,12.3L1050.4,622.9z"/>
	<path class="st1" d="M1120.8,621.6c-2.2,0.4-4.1,0.7-5.9,1c0.3-2.4,0.6-4.7,0.9-7c0.2-2,0.4-4,0.6-6c0.2-2,0.3-3.7,0.5-5.2h-9.5
		l-4.4,15.5c-1.6,0.2-3.5,0.4-5.7,0.7c-2.2,0.3-4.2,0.5-6.1,0.7c-2.3,0.3-4.6,0.6-6.9,0.9c2.9-9.5,5.8-18.9,8.6-28.2
		c1.2-3.9,2.4-7.9,3.6-12.2c1.3-4.2,2.5-8.4,3.8-12.6c1.3-4.2,2.5-8.2,3.6-12.1c1.2-3.9,2.2-7.4,3.1-10.7c4.9-0.4,10-0.8,15.1-1.3
		c5.1-0.5,10.1-1.2,15-2c-0.2,2.3-0.5,5.1-0.7,8.6c-0.3,3.4-0.5,7.1-0.7,11.1c-0.2,4-0.4,8.2-0.7,12.6c-0.2,4.4-0.4,8.7-0.7,12.9
		c-0.4,9.9-0.8,20.4-1.2,31.5c-2.2,0.4-4.4,0.6-6.5,0.9C1125,620.9,1123,621.3,1120.8,621.6z M1110,593.6c0.3,0,0.8,0,1.6-0.1
		c0.8,0,1.6-0.1,2.4-0.1c0.8,0,1.6-0.1,2.3-0.1c0.7,0,1.2-0.1,1.5-0.2c0-0.4,0.1-1.2,0.2-2.2c0.1-1,0.2-2.2,0.3-3.6
		c0.1-1.3,0.2-2.8,0.4-4.4c0.1-1.6,0.3-3.1,0.4-4.6c0.3-3.7,0.7-7.6,1.1-11.8l0.7-9.4l-1.6,0.1l-2.5,9.3L1110,593.6z"/>
	<path class="st1" d="M1130.6,622.2c3.2-9.5,6.2-18.9,9.1-28.1c1.2-3.9,2.5-7.9,3.8-12.2c1.3-4.2,2.6-8.4,3.9-12.6
		c1.3-4.2,2.5-8.2,3.6-12.1c1.1-3.9,2.1-7.5,3-10.8c4,0,7.8-0.2,11.3-0.6c3.6-0.4,7.4-0.8,11.5-1.2c-0.2,1.6-0.5,3.4-0.7,5.3
		c-0.3,2-0.5,4-0.9,6.2c-0.3,2.2-0.7,4.4-1,6.7c-0.4,2.3-0.8,5.2-1.3,8.8c-0.5,3.6-1.2,8.1-2.1,13.5h1.4c2.1-5.5,3.8-10,5.2-13.6
		c1.4-3.6,2.5-6.6,3.4-8.9c0.9-2.3,1.8-4.5,2.7-6.7c0.9-2.2,1.8-4.3,2.6-6.2c0.8-2,1.6-3.7,2.3-5.2c1.8-0.1,3.5-0.3,5.1-0.5
		c1.6-0.2,3.2-0.4,4.8-0.7c1.6-0.3,3.2-0.5,4.8-0.8c1.6-0.3,3.4-0.6,5.4-0.9c-0.7,4.2-1.4,8.4-2.1,12.8c-0.7,4.4-1.2,8.7-1.7,13.1
		c-0.5,4.3-1,8.6-1.5,12.9c-0.5,4.2-0.9,8.3-1.3,12.1c-0.9,8.9-1.6,17.6-2.3,26l-19,3.3c0-0.4,0.1-1.3,0.2-2.9
		c0.1-1.6,0.3-3.5,0.4-5.8c0.2-2.3,0.4-4.8,0.8-7.6c0.3-2.8,0.7-5.6,1-8.4c0.3-2.8,0.7-5.5,1-8.1c0.4-2.6,0.7-4.9,1.1-6.7h-1
		c-1,3-2.1,6.2-3.4,9.5c-1.2,3.3-2.5,6.7-3.8,10.2c-1.3,3.4-2.5,6.8-3.8,10.1c-1.2,3.3-2.3,6.5-3.3,9.5c-2.5,0.1-4.7,0.2-6.5,0.3
		c-1.8,0.1-3.9,0.2-6.3,0.4l3.5-39.9h-1.6c-0.1,0.9-0.5,2.5-1.1,4.7c-0.6,2.2-1.3,4.7-2,7.5c-0.8,2.8-1.6,5.8-2.5,8.8
		c-0.9,3.1-1.7,5.9-2.5,8.5c-0.8,2.6-1.4,4.8-1.9,6.5c-0.5,1.7-0.8,2.6-0.9,2.9L1130.6,622.2z"/>
	<path class="st1" d="M1247.2,607.1c-1.6,3.3-3.7,6.1-6.3,8.4c-2.7,2.4-5.8,4.2-9.4,5.5c-3.6,1.3-7.5,1.9-11.6,1.9
		c-2.9,0-5.8-0.8-8.7-2.3c-2.9-1.5-5.7-4-8.4-7.4l8.1-15.6c0.5,0.9,1.3,1.9,2.3,2.9c1,1,2.2,1.8,3.4,2.5c1.3,0.7,2.5,1.3,3.8,1.8
		c1.3,0.5,2.4,0.7,3.4,0.7c0.9,0,1.8-0.1,2.7-0.4c0.9-0.3,1.8-0.7,2.6-1.3c0.8-0.6,1.4-1.2,1.9-2c0.5-0.8,0.7-1.6,0.7-2.6
		c0-1.7-0.6-3.3-1.7-4.8c-1.1-1.5-2.5-2.9-4.2-4.2c-1.7-1.3-3.5-2.7-5.4-4c-2-1.4-3.8-2.8-5.4-4.3c-1.6-1.5-3-3.2-4.2-5.1
		c-1.2-1.9-1.7-3.9-1.7-6.2c0-3.7,1.1-7.2,3.4-10.4c2.2-3.2,5.1-6,8.4-8.3c3.4-2.3,7.1-4.2,11.1-5.5c4-1.4,7.8-2,11.3-2
		c2,0,3.8,0.2,5.6,0.7c1.7,0.5,3.2,1.2,4.5,2.3c1.3,1,2.3,2.4,3.1,3.9c0.8,1.6,1.1,3.6,1.1,5.9c0,1-0.1,2-0.3,3
		c-0.2,1-0.3,2.1-0.5,3.2l-15.8,4.5c0.1-0.6,0.3-1.1,0.4-1.7c0.1-0.6,0.2-1.1,0.2-1.7c0-2.2-0.4-3.7-1.1-4.7c-0.8-1-1.8-1.5-3-1.5
		c-0.6,0-1.3,0.2-2.1,0.6c-0.8,0.4-1.7,1-2.5,1.7c-0.8,0.7-1.5,1.5-2.1,2.4c-0.6,0.9-0.9,1.9-0.9,3c0,1.7,0.5,3.2,1.5,4.3
		c1,1.1,2.2,2.2,3.6,3.2c1.5,1,3,2,4.7,3.1c1.7,1,3.3,2.4,4.7,4c1.5,1.7,2.7,3.7,3.6,6.2c1,2.5,1.5,5.6,1.5,9.4
		C1249.5,600.2,1248.8,603.9,1247.2,607.1z"/>
</g>
<g>
	<path class="st1" d="M475,389.7c-1.7,6.5-4,12.9-7.1,19.3c-3,6.4-6.8,12.5-11.2,18.3c-4.4,5.8-9.5,10.9-15.1,15.3
		c-5.6,4.4-11.8,7.9-18.4,10.6c-6.7,2.7-13.8,4-21.3,4c-1.6,0-3.1-0.1-4.7-0.2c-1.6-0.2-3.1-0.4-4.7-0.6c3-15.3,6-30.2,8.9-44.7
		c1.1-6.1,2.3-12.4,3.5-19c1.2-6.6,2.4-13.1,3.5-19.5c1.1-6.4,2.2-12.6,3.3-18.5c1.1-5.9,1.9-11.2,2.6-16c4.8-0.9,9.7-1.7,14.6-2.5
		c4.9-0.8,10-1.2,15.2-1.2c6.1,0,11.2,0.9,15.4,2.8c4.2,1.9,7.6,4.5,10.3,7.8c2.6,3.3,4.6,7.2,5.8,11.6c1.2,4.4,1.9,9.1,1.9,14.1
		C477.5,377.1,476.7,383.2,475,389.7z M433.9,377.2c-1.3,6-2.7,12-4,18.1c-1.3,6.1-2.7,12.5-4,19.1c-1.3,6.7-2.6,13.9-3.9,21.8
		c2.7-1.8,5.3-4.2,7.8-7.2c2.5-3,4.9-6.6,7.2-10.6c2.2-4,4.3-8.2,6.1-12.6c1.9-4.4,3.5-8.8,4.8-13c1.3-4.2,2.4-8.1,3.1-11.8
		c0.7-3.7,1.1-6.8,1.1-9.5c0-4.1-1.2-7.3-3.5-9.6c-2.3-2.3-5.9-3.5-10.9-3.5C436.5,364.9,435.2,371.2,433.9,377.2z"/>
	<path class="st1" d="M476.7,453.8l7.7-33.4c0-4.8-0.1-9.9-0.3-15.5c-0.2-5.6-0.4-11.2-0.8-16.9c-0.3-5.7-0.7-11.1-1-16.4
		c-0.3-5.3-0.6-9.9-0.8-14c-0.2-4-0.6-8.5-1-13.4l27.4-10.3v20.3c0,2.8,0,5.6,0,8.5c0,2.9,0,5.7-0.1,8.5c-0.1,2.8-0.1,5.4-0.1,7.8
		c0,2.4,0,4.5,0,6.2c1.5-3.8,3.2-8.4,5.3-14c2.1-5.5,4-10.9,5.8-16.1c2.1-6.1,4.3-12.5,6.6-19.3l26.1,5.8c-4.8,9.5-9.5,19-14.1,28.4
		c-1.9,4.1-3.9,8.3-6.1,12.7c-2.1,4.4-4.3,8.8-6.4,13.1c-2.1,4.4-4.2,8.6-6.2,12.7c-2,4.1-3.9,7.9-5.6,11.5c-0.6,2.9-1.3,6-2.1,9.5
		c-0.8,3.4-1.7,6.7-2.4,9.8c-1,3.7-2.1,7.3-3.2,11L476.7,453.8z"/>
	<path class="st1" d="M529.3,457.1c3.1-15.6,6.2-30.9,9.1-45.7c1.1-6.2,2.3-12.7,3.6-19.5c1.3-6.8,2.5-13.5,3.6-20.1
		c1.1-6.6,2.2-13,3.1-19.1c1-6.2,1.7-11.8,2.3-16.9c3.5-0.2,6.8-0.4,10.1-0.7c2.9-0.2,5.9-0.4,8.9-0.6c3-0.2,5.7-0.4,8.1-0.6
		c1.5,8.5,2.7,16.7,3.9,24.4c0.6,3.3,1.1,6.8,1.8,10.4c0.6,3.6,1.2,7.1,1.8,10.4c0.6,3.3,1.1,6.5,1.7,9.6c0.6,3.1,1.1,5.7,1.7,8.1
		c0.4-2.3,1-5,1.5-8.1c0.6-3,1.2-6.3,1.9-9.6c0.7-3.4,1.4-6.8,2.1-10.4c0.7-3.5,1.4-7,2.1-10.3c1.7-7.8,3.4-15.9,5.2-24.3l20.5-2.5
		c-3.8,16.6-7.2,32.4-10.1,47.2c-1.3,6.4-2.7,12.9-4,19.5c-1.3,6.5-2.5,12.9-3.6,19c-1.1,6.1-2.1,11.7-2.9,16.9
		c-0.8,5.2-1.4,9.5-1.9,13.1c-0.3,0-1.7,0.2-4,0.7c-2.3,0.5-4.9,1.1-7.9,1.7c-3,0.7-6,1.4-8.9,2.1c-3,0.7-5.2,1.3-6.6,1.7
		c-0.8-9-1.6-17.5-2.5-25.6c-0.3-3.4-0.7-7-1.2-10.6c-0.4-3.7-0.9-7.2-1.3-10.5c-0.4-3.3-0.8-6.5-1.2-9.4c-0.4-2.9-0.8-5.4-1.1-7.4
		c-0.3,2-0.8,4.4-1.3,7.3c-0.6,2.9-1.1,6-1.7,9.2c-0.6,3.3-1.1,6.7-1.7,10.1c-0.6,3.5-1.2,6.9-1.9,10.2c-1.5,7.9-3,16.1-4.7,24.6
		L529.3,457.1z"/>
	<path class="st1" d="M657.3,454.5c-3.4,0.6-6.4,1.1-9.1,1.5c0.4-3.7,0.9-7.3,1.3-10.8c0.3-3.1,0.6-6.2,0.9-9.3
		c0.3-3.1,0.5-5.8,0.8-8h-14.6l-6.7,23.9c-2.5,0.3-5.4,0.7-8.8,1.1c-3.4,0.4-6.5,0.7-9.4,1.1c-3.6,0.4-7.1,0.9-10.6,1.3
		c4.5-14.7,8.9-29.3,13.3-43.6c1.8-6,3.7-12.2,5.6-18.8c2-6.5,3.9-13.1,5.9-19.5c2-6.5,3.8-12.7,5.6-18.7c1.8-6,3.4-11.5,4.7-16.5
		c7.6-0.6,15.4-1.2,23.3-2c7.9-0.8,15.6-1.8,23.1-3.2c-0.3,3.5-0.7,8-1.1,13.2c-0.4,5.3-0.8,11-1.1,17.2c-0.3,6.2-0.7,12.7-1,19.5
		c-0.3,6.8-0.7,13.4-1,20c-0.6,15.3-1.2,31.5-1.9,48.7c-3.4,0.6-6.7,1-10.1,1.3C663.7,453.4,660.6,453.9,657.3,454.5z M640.6,411.2
		c0.4,0,1.3,0,2.4-0.1c1.2-0.1,2.4-0.1,3.7-0.2c1.3-0.1,2.5-0.1,3.6-0.2c1.1-0.1,1.9-0.1,2.4-0.2c0-0.7,0.1-1.8,0.3-3.4
		c0.2-1.6,0.3-3.4,0.5-5.5c0.2-2.1,0.4-4.3,0.6-6.7c0.2-2.4,0.4-4.8,0.7-7.2c0.4-5.7,1-11.8,1.7-18.3l1-14.5l-2.5,0.2l-3.9,14.3
		L640.6,411.2z"/>
	<path class="st1" d="M672.4,455.3c4.9-14.7,9.7-29.2,14.1-43.4c1.9-6,3.9-12.2,5.9-18.8c2-6.5,4-13,6.1-19.5
		c2-6.4,3.9-12.6,5.6-18.6c1.7-6,3.3-11.5,4.6-16.6c6.2,0,12-0.3,17.5-1c5.5-0.7,11.4-1.3,17.8-1.8c-0.3,2.4-0.7,5.2-1.1,8.2
		c-0.4,3.1-0.8,6.2-1.3,9.6c-0.5,3.3-1,6.8-1.6,10.3c-0.6,3.5-1.2,8.1-2,13.6c-0.8,5.5-1.9,12.5-3.2,20.8h2.2
		c3.3-8.4,5.9-15.4,8.1-21c2.1-5.6,3.9-10.2,5.2-13.7c1.3-3.5,2.7-7,4.1-10.4c1.4-3.4,2.7-6.6,4-9.6c1.3-3,2.5-5.7,3.6-8.1
		c2.8-0.2,5.4-0.5,7.9-0.8c2.5-0.3,4.9-0.7,7.4-1.1c2.5-0.4,5-0.8,7.5-1.2c2.5-0.4,5.3-0.9,8.3-1.4c-1.1,6.4-2.2,13-3.2,19.8
		c-1,6.8-1.9,13.5-2.7,20.2c-0.8,6.7-1.5,13.3-2.3,19.9c-0.7,6.5-1.4,12.8-1.9,18.6c-1.3,13.7-2.5,27.2-3.5,40.2l-29.3,5.2
		c0-0.6,0.1-2.1,0.3-4.5c0.2-2.4,0.4-5.4,0.7-9c0.3-3.5,0.7-7.5,1.2-11.8c0.5-4.3,1-8.6,1.5-13c0.5-4.3,1-8.5,1.6-12.6
		c0.6-4,1.1-7.5,1.7-10.4h-1.5c-1.6,4.7-3.3,9.6-5.2,14.7c-1.9,5.2-3.8,10.4-5.8,15.7c-2,5.3-3.9,10.5-5.8,15.6
		c-1.9,5.1-3.6,10-5,14.6c-3.9,0.1-7.3,0.2-10.1,0.4c-2.8,0.2-6.1,0.4-9.8,0.6l5.4-61.7h-2.5c-0.2,1.4-0.8,3.9-1.7,7.2
		c-0.9,3.4-1.9,7.3-3.1,11.6c-1.2,4.4-2.4,8.9-3.8,13.6c-1.3,4.7-2.6,9.1-3.8,13.1c-1.2,4-2.2,7.4-2.9,10c-0.8,2.6-1.2,4.1-1.3,4.4
		L672.4,455.3z"/>
	<path class="st1" d="M802.4,453.4c-2.9,0.3-6,0.6-9.1,1c-3.1,0.4-6,0.7-8.5,1.1c-2.5,0.3-3.9,0.6-4.1,0.7c1.3-4.8,2.7-10.1,4-15.9
		c1.3-5.8,2.7-11.9,4.1-18.3c1.4-6.4,2.7-12.8,4-19.4c1.3-6.5,2.6-12.9,3.8-19c2.8-14.2,5.6-28.8,8.2-43.7l26.3-4.2
		c-2.9,14.9-5.8,29.4-8.8,43.7c-1.2,6.1-2.5,12.4-3.8,19c-1.3,6.5-2.5,13-3.7,19.5c-1.2,6.4-2.4,12.7-3.5,18.7
		c-1.2,6-2.2,11.5-3.1,16.4C807.3,453,805.3,453.1,802.4,453.4z"/>
	<path class="st1" d="M878.2,436.4c-3.3,4.5-6.8,8.3-10.4,11.3c-3.6,3.1-7.3,5.3-11,6.7c-3.7,1.4-7.3,2.2-10.8,2.2
		c-3.5,0-6.6-0.8-9.5-2.3c-2.9-1.6-5.4-3.9-7.5-7c-2.1-3.1-3.8-6.9-5.1-11.5c-1.3-4.5-1.9-9.9-1.9-16c0-10.4,1.5-20.7,4.4-30.8
		c2.9-10.1,7-19.3,12.3-27.4c5.3-8.1,11.5-14.6,18.8-19.5c7.2-4.9,15.2-7.4,24-7.4c2.7,0,5.3,0.6,7.7,1.7c2.5,1.1,4.6,2.7,6.4,4.7
		c1.8,2,3.2,4.4,4.3,7.3c1.1,2.9,1.6,6.1,1.6,9.6c0,0.7,0,1.4,0,2.1c0,0.7-0.1,1.5-0.2,2.2l-22.1,5.8c-1.3-2.8-2.9-4.2-4.7-4.2
		c-1.8,0-3.7,1-5.6,3.1c-2,2.1-3.9,4.7-5.8,8c-1.9,3.3-3.8,6.9-5.6,11c-1.8,4-3.4,8.1-4.7,12.2c-1.3,4.1-2.4,8-3.3,11.7
		c-0.8,3.7-1.3,6.7-1.3,9.1c0,3.5,0.5,6,1.4,7.5c1,1.4,2.2,2.2,3.8,2.2c1.2,0,2.6-0.5,4.2-1.4c1.6-0.9,3-2.2,4.4-3.7
		c1.3-1.5,2.6-3.2,3.7-5.1c1.1-1.9,1.9-3.8,2.4-5.7l19.2,7.6C884.5,426.7,881.5,431.9,878.2,436.4z"/>
	<path class="st1" d="M1001,389.7c-1.7,6.5-4,12.9-7.1,19.3c-3,6.4-6.8,12.5-11.2,18.3c-4.4,5.8-9.5,10.9-15.1,15.3
		c-5.6,4.4-11.8,7.9-18.4,10.6c-6.7,2.7-13.8,4-21.3,4c-1.6,0-3.1-0.1-4.7-0.2c-1.6-0.2-3.1-0.4-4.7-0.6c3-15.3,6-30.2,8.9-44.7
		c1.1-6.1,2.3-12.4,3.5-19c1.2-6.6,2.4-13.1,3.5-19.5c1.1-6.4,2.2-12.6,3.3-18.5c1.1-5.9,1.9-11.2,2.6-16c4.8-0.9,9.7-1.7,14.6-2.5
		c4.9-0.8,10-1.2,15.2-1.2c6.1,0,11.2,0.9,15.4,2.8c4.2,1.9,7.6,4.5,10.3,7.8c2.6,3.3,4.6,7.2,5.8,11.6c1.2,4.4,1.9,9.1,1.9,14.1
		C1003.6,377.1,1002.7,383.2,1001,389.7z M960,377.2c-1.3,6-2.7,12-4,18.1c-1.3,6.1-2.7,12.5-4,19.1c-1.3,6.7-2.6,13.9-3.9,21.8
		c2.7-1.8,5.3-4.2,7.8-7.2c2.5-3,4.9-6.6,7.2-10.6c2.2-4,4.3-8.2,6.1-12.6c1.9-4.4,3.5-8.8,4.8-13c1.3-4.2,2.4-8.1,3.1-11.8
		c0.7-3.7,1.1-6.8,1.1-9.5c0-4.1-1.2-7.3-3.5-9.6c-2.3-2.3-5.9-3.5-10.9-3.5C962.6,364.9,961.3,371.2,960,377.2z"/>
	<path class="st1" d="M1059.8,433.4c0,0-1.4,2.2-4.3,6.7c-2.9,4.4-6.2,8.1-10.1,11c-3.9,2.9-8,5-12.4,6.3s-8.8,2-13.1,2
		c-2.6,0-5.2-0.4-7.9-1.2c-2.7-0.8-5.1-2.1-7.2-3.7c-2.1-1.7-3.9-3.8-5.3-6.3c-1.4-2.5-2.1-5.5-2.1-9c0-0.4,0-0.9,0-1.3
		c0-0.4,0.1-0.9,0.2-1.3c0.4-4.5,1.2-10,2.2-16.5c1-6.4,2.1-13.1,3.2-20.1c1.1-7,2.4-14,3.7-21c1.3-7,2.6-13.4,3.6-19.2
		c1.1-5.8,2-10.6,2.8-14.4c0.8-3.8,1.3-6.2,1.5-7.1c2.4-0.2,5.2-0.5,8.4-0.8c3.3-0.3,6.3-0.6,9.1-0.8c3.5-0.3,6.9-0.7,10.3-1
		c-2.9,13.4-5.5,25.6-7.7,36.4c-1,4.7-2,9.3-2.9,14c-1,4.7-1.9,8.9-2.7,12.8c-0.8,3.9-1.6,7.2-2.2,10.1c-0.6,2.8-1.1,5.1-1.5,6.9
		c-0.4,1.8-0.8,4-1.3,6.7c-0.5,2.7-0.8,5.2-0.8,7.4c0,1.8,0.4,3.2,1.3,4.4c0.9,1.2,2,1.7,3.4,1.7c1.9,0,3.5-0.7,4.7-2.2
		c1.2-1.5,2.3-3.3,3.1-5.4c0.8-2.1,1.5-4.2,1.9-6.4c0.4-2.2,0.8-3.9,1.1-5.1c0.7-3.2,1.4-6.8,2.3-10.7c0.8-3.9,1.7-8,2.5-12.3
		c0.8-4.3,1.7-8.6,2.5-13.1c0.8-4.4,1.7-8.8,2.4-13c1.9-9.8,3.8-19.8,5.6-30.3l25.6-1.7c-1.1,5.8-2.1,11-3,15.8
		c-0.9,4.8-1.9,10.2-2.9,16.3c-1.1,6.1-2.3,12.4-3.6,19c-1.3,6.6-2.7,13.1-4,19.5c-1.3,6.4-2.6,12.2-3.8,17.5
		C1060.6,430.2,1059.8,433.4,1059.8,433.4z"/>
	<path class="st1" d="M1154,392c-2,8-4.6,15.4-7.8,22.1c-3.3,6.7-7,12.7-11.4,18c-4.3,5.3-8.8,9.8-13.6,13.5
		c-4.7,3.7-9.5,6.5-14.3,8.5c-4.8,1.9-9.4,2.9-13.8,2.9c-3.7,0-7.1-0.7-10.1-2.1c-3-1.4-5.7-3.4-7.9-6.2c-2.2-2.7-4-6.2-5.3-10.5
		c-1.3-4.3-1.9-9.4-1.9-15.4c0-6.2,0.8-12.7,2.4-19.6c1.6-6.9,3.7-13.7,6.4-20.5c2.7-6.8,6-13.2,9.9-19.3c3.9-6.1,8.2-11.5,13-16.2
		c4.7-4.7,9.8-8.5,15.2-11.2c5.4-2.8,11-4.2,16.8-4.2c5.1,0,9.2,1,12.5,3.1c3.3,2.1,5.9,4.7,7.7,8c1.9,3.3,3.2,7,4,11.1
		c0.8,4.1,1.2,8.2,1.2,12.3C1156.9,375.4,1155.9,384,1154,392z M1093.6,422.4c0.4,1.3,1.1,2.5,1.9,3.5c0.8,1,1.8,1.9,2.9,2.6
		c1.2,0.7,2.4,1.1,3.8,1.1c5,0,9.5-1.7,13.5-5.2c3.9-3.4,7.2-7.6,9.8-12.6c2.6-5,4.6-10.3,6-16c1.4-5.7,2.1-10.8,2.1-15.5
		c0-1.3-0.1-2.8-0.3-4.3c-0.2-1.6-0.5-3-1-4.3c-0.5-1.3-1.3-2.5-2.4-3.4c-1.1-0.9-2.5-1.4-4.3-1.4c-3.6,0-6.9,0.9-9.9,2.7
		c-3,1.8-5.8,4.1-8.2,7.1c-2.4,2.9-4.5,6.3-6.3,10c-1.8,3.7-3.3,7.5-4.6,11.3c-1.3,3.8-2.2,7.6-2.8,11.2c-0.6,3.7-0.8,6.8-0.8,9.5
		C1092.9,419.8,1093.2,421.1,1093.6,422.4z"/>
	<path class="st1" d="M1216.6,432.1c-2.4,5-5.7,9.4-9.8,13.1c-4.1,3.7-8.9,6.5-14.5,8.5c-5.6,2-11.5,3-17.9,3c-4.5,0-9-1.2-13.5-3.6
		c-4.5-2.4-8.8-6.2-13-11.4l12.5-24.1c0.8,1.4,2,2.9,3.5,4.4c1.6,1.5,3.3,2.8,5.3,3.9c2,1.1,3.9,2,5.9,2.7c2,0.7,3.7,1.1,5.3,1.1
		c1.3,0,2.7-0.2,4.2-0.7c1.5-0.4,2.8-1.1,4-2c1.2-0.9,2.2-1.9,2.9-3.1c0.7-1.2,1.1-2.5,1.1-4.1c0-2.7-0.9-5.1-2.6-7.4
		c-1.7-2.3-3.9-4.4-6.5-6.5c-2.6-2.1-5.4-4.1-8.4-6.2c-3-2.1-5.8-4.3-8.3-6.7c-2.5-2.3-4.7-4.9-6.5-7.8c-1.8-2.9-2.7-6.1-2.7-9.6
		c0-5.8,1.7-11.1,5.2-16.1c3.5-5,7.8-9.3,13-12.9c5.2-3.6,10.9-6.5,17.1-8.6c6.2-2.1,12-3.2,17.5-3.2c3,0,5.9,0.4,8.6,1.1
		c2.7,0.7,5,1.9,7,3.5c2,1.6,3.5,3.6,4.7,6.1c1.2,2.4,1.8,5.5,1.8,9.1c0,1.6-0.1,3.1-0.4,4.7c-0.3,1.6-0.5,3.2-0.8,5l-24.4,7
		c0.2-0.9,0.4-1.8,0.6-2.7c0.2-0.9,0.3-1.8,0.3-2.7c0-3.3-0.6-5.7-1.8-7.2c-1.2-1.5-2.7-2.2-4.6-2.2c-0.9,0-2,0.3-3.3,1
		c-1.3,0.7-2.6,1.5-3.9,2.6c-1.3,1.1-2.4,2.3-3.3,3.7c-0.9,1.4-1.3,3-1.3,4.7c0,2.7,0.8,4.9,2.3,6.7c1.5,1.8,3.4,3.4,5.6,5
		c2.2,1.6,4.7,3.1,7.3,4.7c2.6,1.6,5.1,3.7,7.3,6.2c2.2,2.6,4.1,5.7,5.6,9.6c1.5,3.8,2.3,8.7,2.3,14.6
		C1220.2,421.4,1219,427.1,1216.6,432.1z"/>
</g>
</svg>
