<?xml version="1.0" encoding="utf-8"?>
<!-- Generator: Adobe Illustrator 21.0.2, SVG Export Plug-In . SVG Version: 6.00 Build 0)  -->
<svg version="1.1" id="Layer_1" xmlns="http://www.w3.org/2000/svg" xmlns:xlink="http://www.w3.org/1999/xlink" x="0px" y="0px"
	 viewBox="0 0 1620 1000" style="enable-background:new 0 0 1620 1000;" xml:space="preserve">
<style type="text/css">
	.st0{fill:#FF0000;}
	.st1{fill:#FFFFFF;stroke:#000000;stroke-width:3;stroke-miterlimit:10;}
</style>
<g>
	<path class="st0" d="M807.5,994c-1.8,0-3.1-10.4-4.1-18.7c-3-24.1-7.9-64.5-34.7-98.7c-6.8-8.7-43.4-51.9-100.1-53.6
		c-1.1,0-2.3,0-3.4,0c-65.3,0-108.3,56.4-119.9,73.7c-15.1,22.4-22.9,46-27.6,62.7c2.8-16.5,4.6-39.8-3.8-62.4
		c-13.3-35.7-52.4-66.1-95.1-74c-3.3-0.6-8-1.3-13.9-1.3c-30.9,0-77.1,19.1-141.1,58.5c-52.2,32.1-91.1,62.2-116.9,82.1
		c-14.2,11-25.5,19.7-29.1,20.7c1.2-3.5,11-15.3,22.4-28.9c19.5-23.3,49-58.6,79.1-103c51.7-76.3,100.6-148.4,80.1-190.2
		c-13.6-27.8-53.3-31.2-132.3-37.8l-8.6-0.7c-24.5-2.1-49.2-3.1-75.5-3.1c-20.4,0-37.5,0.6-50,1.1c-4.4,0.2-8.2,0.3-11.5,0.4
		c0.3,0,0.6-0.1,0.9-0.1c22.4-2.5,69.1-7.7,120.8-25.8c42.8-15,132-46.2,136-98.3c3.5-44.6-58.1-83-87.7-101.4
		c-60.9-37.9-123.9-48.9-150.9-53.6c-2.8-0.5-5.4-0.9-7.7-1.4c4,0.2,9.6,0.6,16.8,1.1c18.3,1.4,46,3.4,78.9,3.4
		c22.2,0,43.8-1,64.2-2.9c70.2-6.6,142.8-13.4,160.4-55.1c16.4-38.7-22.5-89.9-71.7-154.7c-33.4-44-66.6-76.9-84.4-94.6
		c-4.3-4.2-8.2-8.2-11-11.1c3.4,2.6,7.9,6.3,12.9,10.3c21.9,17.7,62.6,50.6,114.2,82.7c47.4,29.5,112.2,69.8,163.5,69.8
		c14.5,0,27.5-3.2,38.7-9.5c16.9-9.6,26.1-23.9,31.5-32.5c26.1-41,20.2-90.4,17.4-114.1c-0.6-4.7-1.1-9.5-1.1-12
		c1,2.3,2.3,7.2,3.7,12.4c6.2,23,17.9,65.9,50.6,101.9c12.1,13.3,40.5,44.5,80.7,44.5c0.5,0,0.9,0,1.4,0
		c33.8-0.6,58.4-22.5,70.1-35.5c32.9-36.5,35.3-87.7,36.6-115.3c0.4-8.6,0.9-18.4,2.4-19.3c1.5,0.7,3.1,10.5,4.4,19.2
		c12.3,78.6,35.8,101.2,48.4,113.4c35.3,34,81.6,37.7,99.9,37.7c4.2,0,6.8-0.2,7.3-0.2c12.5-1,55.6-7,88-41.5
		c31.3-33.3,37.7-76.9,41.5-103c0.9-6.1,1.6-10.9,2.5-14.3c1-4.1,1.9-4.2,1.9-4.2c0,0,0.9,0.2,1.7,4.7c0.6,3.7,1,9.1,1.5,15.4
		c2.1,28.9,5.7,77.4,38.8,110.5c28.6,28.6,64.1,38.2,82.8,41.4c8.1,1.4,15.9,2.1,23.8,2.1c28,0,58.8-8.7,103.1-29.2
		c72.4-33.4,125.6-72.5,154.1-93.5c9.2-6.7,17.2-12.7,20.5-14.2c-2.5,4.9-16.2,20.5-33.1,39.7c-21.2,24-50.2,57-82.3,96.7
		c-60.7,75.3-68.2,95.8-62.3,113.4c10.9,32,63.5,42.4,121.2,51c44.9,6.7,83.3,6.9,106.2,6.9c10.4,0,19.5,0.1,22.7,0.8
		c-2.8,1.2-10.8,2.8-19.2,4.5c-25.1,5.1-71.8,14.6-121.2,37.9c-36,17-111,52.4-109.9,97.4c1,39.6,62.2,67.7,95.1,82.8l0.1,0.1
		c46.1,21.2,91,29.9,122.6,33.7c-3.2,0-6.5,0-10,0c-37.8,0-74,2.1-107.6,6.2c-55.2,6.8-108,17.6-120.3,50.4
		c-2.3,6.1-3.7,15.6,5.7,35.7c11.8,25.4,38,60.8,77.8,105.2c45.2,50.4,88.3,90.5,114.1,114.5c9,8.4,16.8,15.7,21.4,20.3
		c-2.1-1.5-4.5-3.4-7.1-5.4c-28.1-21.4-93.9-71.4-183.7-102.9c-11.1-3.9-45.1-15.8-90.4-19.1c-15.2-1.1-30.9-2.2-45.8-2.2
		c-34.7,0-57.6,6.4-74.3,20.6c-34.6,29.6-33,87.5-32,122c0.3,10.7,0.7,23.9-1.2,24.6c-1.6,0-4-10.3-5.8-17.8
		c-5.4-23.1-14.6-61.7-42.9-94.7c-11.3-13.1-52.6-55.8-111.5-55.8c-2.9,0-5.8,0.1-8.7,0.3c-53.7,3.8-87.9,41.2-97.1,52.6
		c-28.2,34.8-33.9,76.4-37.3,101.3C810.8,983.4,809.3,994,807.5,994L807.5,994z"/>
	<path d="M808.8,14.2c0.9,3.6,1.9,9.7,2.8,15.2c4.3,27.7,12.4,79.1,48.8,114.2c35.7,34.4,82.5,38.1,100.9,38.1
		c4.3,0,6.9-0.2,7.4-0.2c12.6-1,56.2-7.1,88.9-41.9c13.7-14.6,24.3-33.2,31.5-55.2c6-18.5,8.6-35.9,10.5-48.7
		c0.8-5.7,1.8-12.1,2.7-15.4c0.8,3.6,1.3,10.5,1.8,16.8c1,14.1,2.5,33.4,7.8,53.5c6.3,23.9,16.9,43.4,31.4,57.9
		c28.9,28.9,64.8,38.6,83.6,41.8c8.2,1.4,16,2.1,24,2.1c28.2,0,59.2-8.8,103.8-29.3c72.6-33.5,125.8-72.6,154.4-93.6
		c5.2-3.8,10.3-7.6,14.2-10.2c-5.8,7.4-16.7,19.8-28.8,33.5c-21.2,24-50.3,57-82.3,96.8c-61.1,75.8-68.7,96.7-62.5,114.8
		c11.2,32.8,64.3,43.3,122.4,52c45,6.7,83.5,6.9,106.4,6.9c5,0,10,0,14,0.1c-3.2,0.7-6.9,1.5-10.7,2.2c-25.2,5.1-72,14.6-121.5,38
		c-36.3,17.1-111.9,52.8-110.7,98.8c0.4,17.7,12.7,35.2,36.4,51.9c19.5,13.8,42.7,24.4,59.5,32.2l0.1,0.1
		c36.9,17,73.1,26,102.4,30.9c-33.9,0.4-66.5,2.4-96.9,6.2c-55.7,6.8-109,17.8-121.5,51.4c-2.4,6.4-3.9,16.3,5.7,36.8
		c11.9,25.5,38.2,61,78,105.5c45.2,50.5,88.4,90.6,114.2,114.6c0.9,0.8,1.7,1.6,2.5,2.4c-33-24.5-92.8-65.6-170.5-92.8
		c-11.2-3.9-45.2-15.9-90.8-19.2c-15.2-1.1-31-2.2-45.9-2.2c-35.1,0-58.3,6.5-75.3,21c-35.2,30.1-33.5,88.4-32.5,123.2
		c0.2,8,0.5,16.9-0.1,21.2c-1.2-3.2-2.7-9.3-4-14.8c-5.5-23.2-14.6-62.1-43.2-95.3c-11.4-13.2-53.1-56.3-112.7-56.4
		c-2.9,0-5.9,0.1-8.8,0.3c-54.3,3.9-88.8,41.6-98.1,53.1c-28.5,35.1-34.2,77-37.7,102c-0.9,6.4-1.9,13.5-3,16.7
		c-1-3.1-1.9-10-2.6-16.2c-3-24.3-8-64.9-35-99.4c-6.8-8.7-43.9-52.5-101.3-54.1c-1.1,0-2.3-0.1-3.4-0.1
		c-66,0-109.4,56.9-121.2,74.4c-10.8,16-17.9,32.7-22.8,47c1-14,0.1-30.4-5.9-46.4c-6.9-18.6-20.4-35.7-38.8-49.5
		c-17-12.7-37.4-21.7-57.5-25.4c-3.4-0.6-8.1-1.3-14.2-1.3c-31.2,0-77.6,19.2-141.9,58.7c-52.2,32.1-91.2,62.3-117.1,82.2
		c-9.5,7.3-18.6,14.4-24.1,18c3.9-5.5,11.5-14.5,19.4-24c19.5-23.4,49.1-58.7,79.2-103.1c26.2-38.7,51-75.3,67.2-108
		c18.5-37.5,22.6-64.1,13-83.7c-6.7-13.7-20.1-22.3-43.5-27.8c-21.7-5.1-51.8-7.7-90-10.9l-8.6-0.7c-24.5-2.1-49.2-3.1-75.6-3.1
		c-10.9,0-20.8,0.2-29.6,0.4c24.2-3.7,56.2-10,90.3-22c43.1-15.1,132.9-46.5,137-99.6c3.5-45.5-58.6-84.2-88.4-102.8
		C142.5,363.1,91.5,350,59.6,343.7c17.8,1.3,41.5,2.7,68.8,2.7c22.3,0,43.9-1,64.4-2.9c70.6-6.6,143.7-13.4,161.6-56
		c16.7-39.5-22.4-91-71.9-156.2c-29-38.2-57.8-68-76.6-86.8C229,63,266.3,92.2,312.3,120.8c28,17.4,55.4,34.2,82.6,47.2
		c32.3,15.4,59,22.9,81.6,22.9c14.8,0,28.1-3.3,39.5-9.7c17.2-9.8,26.5-24.3,32.1-33c25.1-39.4,21-86.2,18-111.3
		c6.5,23.7,18.5,64.9,50.2,99.7c12.3,13.5,41,45,81.8,45c0.5,0,1,0,1.4,0c34.3-0.6,59.3-22.8,71.2-36c33.2-36.9,35.7-88.5,37-116.2
		C808,23.9,808.3,17.9,808.8,14.2 M808.6,8.5C808.6,8.5,808.5,8.5,808.6,8.5c-9.1,0.6,7,82.7-40.1,135c-4.8,5.3-30.9,34.3-69,35
		c-0.5,0-0.9,0-1.4,0c-39.5,0-67.5-30.7-79.6-44c-45.9-50.4-50.4-116-55.9-116c0,0-0.1,0-0.1,0c-5.9,1.1,18.6,72.2-17,128
		c-5.3,8.3-14.4,22.6-31,32c-11.5,6.5-24.3,9.3-38,9.3c-49.5,0-110.4-37.1-162.7-69.6c-77-47.9-128.8-96.8-133.1-96.8
		c-0.1,0-0.2,0-0.2,0.1c-2.5,2.9,47.4,42.9,99.6,111.6c49.2,64.7,87.6,115.3,71.5,153.2c-17.3,40.9-89.8,47.7-159.2,54.2
		c-22.6,2.1-44.3,2.9-64.1,2.9c-49.1,0-86.6-4.6-98.7-4.6c-2.7,0-4.1,0.2-4.2,0.8c-0.6,4.2,83.5,6.3,165,57
		c29.6,18.4,90.4,56.3,87,100c-4,51.1-93.6,82.5-135,97c-71.8,25.1-134.3,25.4-134,28c0.1,0.7,2.5,0.9,6.9,0.9
		c11.1,0,35.1-1.6,67.4-1.6c21.8,0,47.4,0.7,75.3,3.1c82.9,7,126,9.7,139.7,37.7c20.1,41.1-28.2,112.3-80,188.7
		c-53.8,79.3-105.9,129.7-101.6,134c0.2,0.2,0.5,0.3,0.8,0.3c8.1,0,60.2-49.6,147.4-103.2c80.4-49.4,119.1-58.3,140.3-58.3
		c5.7,0,10.1,0.6,13.7,1.3c38.9,7.1,79.8,34.8,94,73c15.1,40.4-3.2,83.3,0,84c0,0,0,0,0.1,0c3.1,0,7.3-44.4,33.9-84
		c9.6-14.3,52.5-73,118.7-73c1.1,0,2.2,0,3.3,0c57.7,1.7,94.4,47.2,99,53c40.3,51.5,30.9,117.9,40,118c0,0,0,0,0,0
		c9.3,0,0.7-68.8,43-121c5.4-6.7,40-48,96-52c2.9-0.2,5.8-0.3,8.6-0.3c61,0,102.5,46.2,110.4,55.3c42.6,49.6,41.6,113,49.8,113
		c0.1,0,0.1,0,0.2,0c10.6-1.1-15.7-104.6,34-147c18.9-16.1,44.9-20.2,73.3-20.2c14.8,0,30.3,1.1,45.7,2.2c41.8,3,73.5,13.2,90,19
		c115,40.3,191.8,112.1,196.8,112.1c0.1,0,0.2,0,0.2-0.1c2.7-3.4-65.4-57.7-140-141c-92.4-103.1-86.7-129.9-83.2-139.3
		c11.8-31.6,63-42.6,119.1-49.5c40.9-5,78.7-6.2,107.4-6.2c25.9,0,44.3,1,50.8,1c1.7,0,2.6-0.1,2.6-0.2c0.1-1.6-81.1,1.4-165.4-37.3
		c-32.9-15.1-93.3-42.8-94.3-81.5c-1.1-43.9,73-79,109-96c75-35.4,142.6-38.5,142-44c-0.6-5-56,2.2-131-9c-52.4-7.8-109-17.8-120-50
		c-5.7-16.7,1.3-36.7,62-112c65.9-81.7,119.5-135.1,116-139c-0.1-0.1-0.3-0.2-0.6-0.2c-7.6,0-72.2,60.1-176.4,108.2
		c-44.2,20.4-74.6,29-102.5,29c-8,0-15.7-0.7-23.5-2c-12.4-2.1-51.3-10.3-82-41c-47.9-47.9-33.4-130.7-43-131c0,0,0,0,0,0
		c-8.9,0-1.1,73.2-47,122c-33.8,35.9-79.5,40.4-87,41c-0.7,0.1-3.2,0.2-7.2,0.2c-17.7,0-63.9-3.5-98.8-37.2
		C810.8,91.7,817.4,8.5,808.6,8.5L808.6,8.5z"/>
</g>
<g>
	<path class="st1" d="M368.9,634.3c3.2-9.8,6.3-19.3,9.2-28.7c1.2-4,2.5-8.1,3.9-12.4c1.3-4.3,2.6-8.6,4-12.9
		c1.3-4.3,2.5-8.4,3.7-12.3c1.1-4,2.1-7.6,3-11c4,0,7.8-0.2,11.4-0.7c3.6-0.4,7.5-0.8,11.7-1.2c-0.2,1.6-0.5,3.4-0.7,5.4
		c-0.3,2-0.6,4.1-0.9,6.3c-0.3,2.2-0.7,4.5-1,6.8c-0.4,2.3-0.8,5.4-1.3,9c-0.5,3.7-1.2,8.2-2.1,13.8h1.4c2.1-5.6,3.9-10.2,5.3-13.9
		c1.4-3.7,2.5-6.7,3.4-9.1c0.9-2.3,1.8-4.6,2.7-6.9c0.9-2.2,1.8-4.4,2.6-6.4c0.8-2,1.6-3.8,2.4-5.3c1.8-0.1,3.6-0.3,5.2-0.5
		c1.6-0.2,3.2-0.5,4.8-0.7c1.6-0.3,3.2-0.5,4.9-0.8c1.6-0.3,3.5-0.6,5.4-0.9c-0.7,4.3-1.4,8.6-2.1,13.1c-0.7,4.5-1.2,8.9-1.8,13.4
		c-0.5,4.4-1,8.8-1.5,13.1c-0.5,4.3-0.9,8.4-1.3,12.3c-0.9,9.1-1.6,18-2.3,26.6l-19.1,3.4c0-0.4,0.1-1.4,0.2-3
		c0.1-1.6,0.3-3.6,0.4-5.9c0.2-2.3,0.4-5,0.8-7.8c0.3-2.9,0.7-5.7,1-8.6s0.7-5.6,1-8.3c0.4-2.7,0.7-5,1.1-6.9h-1
		c-1,3.1-2.2,6.3-3.4,9.7c-1.2,3.4-2.5,6.9-3.8,10.4c-1.3,3.5-2.5,7-3.8,10.3c-1.2,3.4-2.3,6.6-3.3,9.7c-2.6,0.1-4.8,0.2-6.6,0.3
		c-1.8,0.1-4,0.2-6.4,0.4l3.5-40.8H398c-0.1,1-0.5,2.5-1.1,4.8c-0.6,2.2-1.3,4.8-2,7.7c-0.8,2.9-1.6,5.9-2.5,9
		c-0.9,3.1-1.7,6-2.5,8.7c-0.8,2.7-1.4,4.9-1.9,6.6c-0.5,1.7-0.8,2.7-0.9,2.9L368.9,634.3z"/>
	<path class="st1" d="M484.5,619.8c0,0-0.9,1.5-2.8,4.4c-1.9,2.9-4.1,5.4-6.6,7.3c-2.5,1.9-5.2,3.3-8.1,4.2
		c-2.9,0.9-5.7,1.3-8.6,1.3c-1.7,0-3.4-0.3-5.2-0.8c-1.8-0.5-3.3-1.4-4.7-2.5c-1.4-1.1-2.5-2.5-3.5-4.2c-0.9-1.7-1.4-3.7-1.4-5.9
		c0-0.3,0-0.6,0-0.9c0-0.3,0-0.6,0.1-0.9c0.3-3,0.8-6.6,1.4-10.9c0.7-4.3,1.4-8.7,2.1-13.3c0.7-4.6,1.5-9.3,2.4-13.9
		c0.9-4.7,1.7-8.9,2.4-12.7c0.7-3.8,1.3-7,1.8-9.5c0.5-2.5,0.8-4.1,1-4.7c1.5-0.1,3.4-0.3,5.5-0.5c2.1-0.2,4.1-0.4,5.9-0.6
		c2.3-0.2,4.5-0.4,6.7-0.7c-1.9,8.9-3.6,16.9-5.1,24.1c-0.7,3.1-1.3,6.2-1.9,9.2c-0.6,3.1-1.2,5.9-1.8,8.5c-0.6,2.6-1,4.8-1.4,6.7
		c-0.4,1.9-0.7,3.4-1,4.6c-0.3,1.2-0.6,2.7-0.9,4.5c-0.3,1.8-0.5,3.4-0.5,4.9c0,1.2,0.3,2.1,0.9,2.9c0.6,0.8,1.3,1.2,2.2,1.2
		c1.2,0,2.3-0.5,3.1-1.5c0.8-1,1.5-2.2,2-3.6c0.5-1.4,1-2.8,1.2-4.2c0.3-1.4,0.5-2.5,0.7-3.4c0.4-2.1,0.9-4.5,1.5-7.1
		c0.5-2.6,1.1-5.3,1.6-8.1c0.5-2.8,1.1-5.7,1.6-8.6c0.5-2.9,1.1-5.8,1.6-8.6c1.2-6.5,2.5-13.1,3.6-20l16.7-1.1
		c-0.7,3.8-1.4,7.3-2,10.5c-0.6,3.2-1.2,6.7-1.9,10.8c-0.7,4-1.5,8.2-2.4,12.6c-0.9,4.4-1.7,8.7-2.6,12.9c-0.8,4.2-1.7,8.1-2.5,11.6
		C485,617.7,484.5,619.8,484.5,619.8z"/>
	<path class="st1" d="M532.8,618.9c-1.6,3.3-3.7,6.2-6.4,8.6c-2.7,2.4-5.8,4.3-9.5,5.6c-3.6,1.3-7.5,2-11.7,2
		c-2.9,0-5.9-0.8-8.8-2.4c-2.9-1.6-5.8-4.1-8.5-7.5l8.1-15.9c0.5,1,1.3,1.9,2.3,2.9c1,1,2.2,1.9,3.5,2.6c1.3,0.7,2.6,1.3,3.9,1.8
		c1.3,0.5,2.4,0.7,3.5,0.7c0.9,0,1.8-0.1,2.8-0.4c1-0.3,1.8-0.7,2.6-1.3c0.8-0.6,1.4-1.3,1.9-2c0.5-0.8,0.7-1.7,0.7-2.7
		c0-1.8-0.6-3.4-1.7-4.9c-1.1-1.5-2.5-2.9-4.2-4.3c-1.7-1.4-3.5-2.7-5.5-4.1c-2-1.4-3.8-2.9-5.4-4.4s-3.1-3.3-4.2-5.2
		c-1.2-1.9-1.8-4-1.8-6.4c0-3.8,1.1-7.4,3.4-10.7c2.3-3.3,5.1-6.1,8.5-8.5c3.4-2.4,7.1-4.3,11.2-5.7c4-1.4,7.8-2.1,11.4-2.1
		c2,0,3.9,0.2,5.6,0.7c1.8,0.5,3.3,1.2,4.6,2.3c1.3,1.1,2.3,2.4,3.1,4c0.8,1.6,1.2,3.6,1.2,6c0,1-0.1,2.1-0.3,3.1
		c-0.2,1-0.3,2.1-0.5,3.3l-16,4.6c0.1-0.6,0.3-1.2,0.4-1.8c0.1-0.6,0.2-1.2,0.2-1.8c0-2.2-0.4-3.8-1.2-4.8c-0.8-1-1.8-1.5-3-1.5
		c-0.6,0-1.3,0.2-2.1,0.7c-0.8,0.4-1.7,1-2.5,1.7c-0.8,0.7-1.6,1.5-2.1,2.5c-0.6,1-0.9,2-0.9,3.1c0,1.8,0.5,3.2,1.5,4.4
		c1,1.2,2.2,2.3,3.7,3.3c1.5,1,3.1,2.1,4.8,3.1c1.7,1.1,3.3,2.4,4.8,4.1c1.5,1.7,2.7,3.8,3.7,6.3c1,2.5,1.5,5.7,1.5,9.6
		C535.1,611.9,534.3,615.6,532.8,618.9z"/>
	<path class="st1" d="M548.5,633c-1.9,0.2-3.9,0.4-6,0.7c-2.1,0.3-3.9,0.5-5.6,0.7c-1.6,0.2-2.5,0.4-2.7,0.4
		c0.7-3.2,1.5-6.7,2.3-10.5c0.8-3.8,1.6-7.9,2.4-12.1c0.8-4.2,1.6-8.5,2.3-12.8c0.7-4.3,1.4-8.5,2.1-12.5c1.5-9.4,3.1-19,4.6-28.9
		l17.2-2.8c-1.7,9.8-3.3,19.5-5,28.9c-0.7,4-1.3,8.2-2,12.5c-0.7,4.3-1.4,8.6-2.1,12.9c-0.7,4.3-1.3,8.4-1.9,12.4
		c-0.6,4-1.1,7.6-1.6,10.8C551.7,632.7,550.4,632.8,548.5,633z"/>
	<path class="st1" d="M597,621.8c-2.2,3-4.4,5.5-6.8,7.5c-2.4,2-4.8,3.5-7.2,4.5c-2.4,1-4.8,1.4-7,1.4c-2.3,0-4.3-0.5-6.2-1.5
		c-1.9-1-3.5-2.6-4.9-4.6c-1.4-2.1-2.5-4.6-3.4-7.6c-0.8-3-1.3-6.5-1.3-10.6c0-6.9,1-13.7,2.9-20.4c1.9-6.7,4.6-12.7,8-18.1
		c3.4-5.4,7.5-9.7,12.3-12.9c4.7-3.3,10-4.9,15.7-4.9c1.8,0,3.4,0.4,5.1,1.1c1.6,0.7,3,1.8,4.2,3.1c1.2,1.3,2.1,2.9,2.8,4.8
		c0.7,1.9,1,4,1,6.4c0,0.4,0,0.9,0,1.4c0,0.5,0,1-0.1,1.5l-14.4,3.9c-0.9-1.8-1.9-2.8-3.1-2.8c-1.2,0-2.4,0.7-3.7,2
		c-1.3,1.4-2.5,3.1-3.8,5.3c-1.2,2.2-2.5,4.6-3.6,7.3c-1.2,2.7-2.2,5.4-3.1,8.1c-0.9,2.7-1.6,5.3-2.1,7.8c-0.5,2.5-0.8,4.5-0.8,6
		c0,2.3,0.3,4,0.9,5c0.6,1,1.4,1.4,2.5,1.4c0.8,0,1.7-0.3,2.8-0.9c1-0.6,2-1.4,2.9-2.4c0.9-1,1.7-2.1,2.4-3.4
		c0.7-1.2,1.2-2.5,1.5-3.7l12.5,5.1C601.1,615.3,599.2,618.8,597,621.8z"/>
	<path class="st1" d="M635.9,633.7c-2.2,0.4-4.2,0.7-5.9,1c0.3-2.4,0.6-4.8,0.9-7.1c0.2-2.1,0.4-4.1,0.6-6.2
		c0.2-2.1,0.3-3.8,0.5-5.3h-9.6L618,632c-1.6,0.2-3.5,0.5-5.7,0.7c-2.2,0.3-4.3,0.5-6.2,0.7c-2.3,0.3-4.7,0.6-6.9,0.9
		c2.9-9.8,5.8-19.4,8.7-28.8c1.2-4,2.4-8.1,3.7-12.4c1.3-4.3,2.6-8.6,3.9-12.9c1.3-4.3,2.5-8.4,3.7-12.4c1.2-4,2.2-7.6,3.1-10.9
		c5-0.4,10.1-0.8,15.2-1.3c5.2-0.5,10.2-1.2,15.1-2.1c-0.2,2.3-0.5,5.3-0.7,8.7c-0.3,3.5-0.5,7.3-0.7,11.4
		c-0.2,4.1-0.4,8.4-0.7,12.9c-0.2,4.5-0.4,8.9-0.7,13.2c-0.4,10.1-0.8,20.9-1.2,32.2c-2.2,0.4-4.4,0.7-6.6,0.9
		C640.1,633,638.1,633.4,635.9,633.7z M625,605.1c0.3,0,0.8,0,1.6-0.1c0.8,0,1.6-0.1,2.4-0.1c0.8,0,1.6-0.1,2.4-0.1
		c0.7,0,1.2-0.1,1.5-0.2c0-0.4,0.1-1.2,0.2-2.3c0.1-1.1,0.2-2.3,0.3-3.6c0.1-1.4,0.2-2.8,0.4-4.5c0.1-1.6,0.3-3.2,0.4-4.7
		c0.3-3.7,0.7-7.8,1.1-12.1l0.7-9.6l-1.6,0.1l-2.5,9.5L625,605.1z"/>
	<path class="st1" d="M672.2,631.6c-2.5,0.1-5.1,0.4-7.6,0.7c-2.6,0.3-5.1,0.7-7.5,1.2c-2.5,0.5-4.7,1-6.7,1.7c0.4-3.3,1-7,1.5-11
		c0.6-4,1.3-8.2,2-12.5c0.8-4.3,1.5-8.7,2.3-13.1c0.8-4.4,1.6-8.6,2.4-12.6c1.8-9.6,3.8-19.4,5.8-29.4l19.2-2.5
		c-2,8.5-3.9,16.8-5.7,24.9c-0.8,3.4-1.6,7-2.4,10.7c-0.8,3.7-1.6,7.3-2.3,10.8c-0.7,3.5-1.4,6.9-2,10.2c-0.6,3.3-1.1,6.2-1.4,8.8
		c1.8-0.1,3.8-0.2,5.9-0.3c2.1,0,3.9-0.1,5.6-0.1c0.1,1.4,0.2,2.8,0.3,4.1c0.1,1.4,0.3,2.6,0.5,3.7c0.2,1.1,0.3,2.1,0.4,2.9
		c0.1,0.8,0.2,1.4,0.3,1.7c-0.6,0-1.2,0-1.7-0.1c-0.5,0-1.1-0.1-1.7-0.1C677.2,631.4,674.8,631.5,672.2,631.6z"/>
	<path class="st1" d="M708.3,635.4l8.4-78.1c3.4-0.1,6.7-0.5,9.7-1c3-0.5,6.1-0.9,9.1-1.2c0,0.1-0.1,0.8-0.3,2.3
		c-0.2,1.4-0.5,3.3-0.9,5.6c-0.4,2.3-0.8,4.9-1.2,7.8c-0.4,2.9-1.1,6.9-1.9,11.9c-0.8,5.1-2,12.1-3.4,21h1.6
		c1.9-6.7,3.5-12.3,4.7-16.6c1.2-4.3,2.3-7.8,3-10.5c0.8-2.7,1.5-5.3,2.2-7.8c0.7-2.5,1.4-4.8,2-6.9c0.6-2.1,1.1-3.9,1.5-5.4h1
		c1.3,0,2.7-0.1,4-0.2c1.4-0.1,2.6-0.3,3.8-0.5c1.2-0.2,2.5-0.4,3.8-0.7c-0.1,0.7-0.3,2-0.5,4.1c-0.2,2.1-0.4,4.5-0.7,7.4
		c-0.3,2.9-0.6,6.1-0.9,9.6c-0.3,3.5-0.6,6.9-0.9,10.2c-0.3,3.3-0.6,6.5-0.8,9.5c-0.3,3-0.5,5.6-0.7,7.7h2l10.5-47.3
		c2.5-0.4,4.9-0.7,7.4-1c2.1-0.3,4.3-0.6,6.6-0.9c2.3-0.3,4.3-0.6,6.1-1c-1.1,3.1-2.2,6.5-3.3,10.3c-1.1,3.8-2.2,7.8-3.4,11.9
		c-1.2,4.2-2.3,8.4-3.4,12.7c-1.1,4.3-2.1,8.4-3.1,12.3c-2.3,9.4-4.6,19-6.8,28.9l-24.9,4.2l4.8-42.5H742l-10.9,39.9L708.3,635.4z"
		/>
	<path class="st1" d="M770.3,635.1c2-9.8,3.9-19.3,5.7-28.6c0.7-4,1.4-8.1,2.2-12.4c0.8-4.3,1.6-8.5,2.3-12.8
		c0.7-4.2,1.4-8.3,2-12.2c0.6-3.9,1.1-7.5,1.5-10.7c4.2-1.3,8.7-2.3,13.5-2.9c4.8-0.6,9.6-0.9,14.4-0.9c2.9,0,5.2,0.3,7.1,1
		c1.9,0.7,3.3,1.6,4.4,2.8c1.1,1.2,1.8,2.6,2.3,4.2c0.4,1.6,0.7,3.4,0.7,5.4c0,2.9-0.5,5.8-1.5,8.6c-1,2.8-2.4,5.5-4.1,8
		c-1.7,2.5-3.7,4.8-5.9,6.9c-2.2,2.1-4.6,3.8-7.2,5.1c1.3,2.9,2.7,6.1,4.2,9.6c1.5,3.5,2.9,6.8,4.2,10c1.5,3.7,3,7.3,4.5,11
		l-17.1,5.9c-1.5-4.7-2.8-9.1-4-13.2c-0.5-1.7-1-3.4-1.5-5.2c-0.5-1.8-1-3.5-1.4-5.1c-0.4-1.6-0.8-3.1-1.1-4.3
		c-0.3-1.3-0.5-2.3-0.5-3.1l-1.4,0.4c-0.4,2.3-1,5.1-1.6,8.2c-0.6,3.2-1.2,6.2-1.7,9.1c-0.7,3.4-1.3,6.9-2,10.5L770.3,635.1z
		 M796.2,587.3c1.4-0.1,3.1-0.7,5.1-1.8c2-1,3.9-2.3,5.8-3.7c1.8-1.4,3.4-2.9,4.7-4.5c1.3-1.5,2-2.9,2-4.1c0-0.8-0.3-1.4-0.8-1.9
		c-0.5-0.5-1.2-0.8-2.1-1.1c-0.9-0.3-1.9-0.4-3-0.5c-1.1-0.1-2.2-0.1-3.4-0.1c-0.8,0-1.6,0-2.5,0.1c-0.8,0-1.6,0.1-2.3,0.1
		L796.2,587.3z"/>
	<path class="st1" d="M833.5,633c-1.9,0.2-3.9,0.4-6,0.7c-2.1,0.3-3.9,0.5-5.6,0.7c-1.6,0.2-2.5,0.4-2.7,0.4
		c0.7-3.2,1.5-6.7,2.3-10.5c0.8-3.8,1.6-7.9,2.4-12.1c0.8-4.2,1.6-8.5,2.3-12.8c0.7-4.3,1.4-8.5,2.1-12.5c1.5-9.4,3.1-19,4.6-28.9
		l17.2-2.8c-1.7,9.8-3.3,19.5-5,28.9c-0.7,4-1.3,8.2-2,12.5c-0.7,4.3-1.4,8.6-2.1,12.9c-0.7,4.3-1.3,8.4-1.9,12.4
		c-0.6,4-1.1,7.6-1.6,10.8C836.7,632.7,835.4,632.8,833.5,633z"/>
	<path class="st1" d="M850.8,635.1c1.7-8.1,3.3-16,4.8-23.9c0.7-3.3,1.3-6.7,2-10.3c0.7-3.6,1.3-7.1,1.9-10.6
		c0.6-3.5,1.2-6.9,1.6-10.1c0.5-3.3,0.9-6.3,1.3-9c-1.7-0.2-3.4-0.3-5.1-0.2c-1.7,0.1-3.4-0.1-5.1-0.7c0.1-1.2,0.1-2.5,0.1-4.1
		s0-3.1,0.1-4.6c0.1-1.7,0.1-3.5,0.2-5.4c1.9,0.1,3.8,0.3,5.7,0.3c1.9,0.1,3.8,0.1,5.7,0.1c3.7,0,7.4-0.1,10.8-0.3
		c3.5-0.2,6.7-0.4,9.7-0.7c3-0.3,5.9-0.6,8.7-0.9l-1.2,5.9c-0.4,1.7-0.7,3.4-1,5.2c-0.3,1.8-0.6,3.3-0.9,4.5
		c-1.6,0.4-3.2,0.8-4.9,0.9c-1.6,0.2-3.3,0.4-4.9,0.7c-0.5,2.5-1.1,5.3-1.7,8.3c-0.6,3-1.2,6.2-1.7,9.5c-0.5,3.3-1.1,6.6-1.6,10
		c-0.5,3.4-1,6.6-1.5,9.7c-1.2,7.3-2.3,14.8-3.3,22.5L850.8,635.1z"/>
	<path class="st1" d="M895.5,633c-1.9,0.2-3.9,0.4-6,0.7c-2.1,0.3-3.9,0.5-5.6,0.7c-1.6,0.2-2.5,0.4-2.7,0.4
		c0.7-3.2,1.5-6.7,2.3-10.5c0.8-3.8,1.6-7.9,2.4-12.1c0.8-4.2,1.6-8.5,2.3-12.8c0.7-4.3,1.4-8.5,2.1-12.5c1.5-9.4,3.1-19,4.6-28.9
		l17.2-2.8c-1.7,9.8-3.3,19.5-5,28.9c-0.7,4-1.3,8.2-2,12.5c-0.7,4.3-1.4,8.6-2.1,12.9c-0.7,4.3-1.3,8.4-1.9,12.4
		c-0.6,4-1.1,7.6-1.6,10.8C898.8,632.7,897.5,632.8,895.5,633z"/>
	<path class="st1" d="M903.5,635.5c2.2-10.6,4.3-20.8,6.3-30.7c0.7-4.3,1.5-8.7,2.4-13.2c0.8-4.5,1.6-9,2.4-13.5
		c0.7-4.4,1.4-8.7,2-12.8c0.6-4.1,1-7.8,1.3-11.1c1,0.1,1.8,0.1,2.4,0.1s1.4,0,2.3,0c1,0,2.3,0,3.7-0.1c1.5,0,2.9-0.1,4.4-0.2
		c1.5-0.1,3-0.1,4.7-0.2c1,5.1,1.9,10.1,2.8,14.9c0.8,4.2,1.6,8.5,2.5,12.9c0.8,4.4,1.6,8.1,2.3,11.2c0.3-1.5,0.6-3.2,1-5.1
		c0.4-1.9,0.8-4,1.2-6.1c0.4-2.1,0.9-4.3,1.3-6.4c0.4-2.2,0.8-4.3,1.3-6.4c1-4.8,2.1-9.7,3.2-14.7l13.4-1.6
		c-2.5,11.2-4.7,21.9-6.6,31.9c-0.9,4.3-1.7,8.7-2.6,13.1c-0.8,4.4-1.6,8.7-2.4,12.8c-0.7,4.1-1.4,7.8-1.9,11.3
		c-0.5,3.5-0.9,6.4-1.2,8.7c-0.2,0-1.1,0.2-2.6,0.5c-1.5,0.3-3.2,0.7-5.2,1.2c-1.9,0.4-3.9,0.9-5.8,1.3c-1.9,0.4-3.4,0.8-4.3,1.2
		c-0.4-5.9-0.9-11.4-1.4-16.7c-0.2-2.3-0.5-4.6-0.7-7c-0.3-2.4-0.5-4.7-0.8-6.9c-0.3-2.2-0.6-4.3-0.9-6.2c-0.3-1.9-0.6-3.6-0.9-4.9
		c-0.2,1.4-0.5,3-0.9,4.8c-0.4,1.8-0.7,3.8-1.1,5.8c-0.4,2.1-0.7,4.2-1.1,6.4c-0.4,2.2-0.8,4.4-1.2,6.4c-1,4.9-2,10-3.1,15.4
		L903.5,635.5z"/>
	<path class="st1" d="M1008.1,612.6c-2.4,5.5-5.3,10.2-8.7,13.9c-3.4,3.7-7.1,6.5-11,8.4c-3.9,1.8-7.6,2.8-11.2,2.8
		c-2.7,0-5.3-0.6-7.8-1.8c-2.5-1.2-4.6-3-6.4-5.3c-1.8-2.4-3.2-5.4-4.2-9c-1-3.6-1.5-7.8-1.5-12.6c0-9.5,1.4-17.7,4.1-24.8
		c2.7-7,6.1-12.9,10.3-17.6c4.1-4.7,8.6-8.2,13.3-10.5c4.7-2.3,9.1-3.4,13.3-3.4c2.9,0,5.5,0.5,7.6,1.5c2.2,1,3.9,2.4,5.3,4.1
		c1.4,1.7,2.4,3.7,3,6.1c0.6,2.3,0.9,4.7,0.9,7.3l-15.1,2.9c-0.7-2.9-1.5-5-2.6-6.3c-1.1-1.2-2.3-1.9-3.7-1.9c-1.8,0-3.8,1.3-6,3.9
		c-2.2,2.6-4.3,6-6.2,10.1c-1.9,4.1-3.5,8.6-4.8,13.5c-1.3,4.9-2.1,9.8-2.2,14.5c0,4.5,0.7,7.8,2,9.7c1.4,1.9,3.1,2.9,5.2,2.9
		c1.5,0,3-0.4,4.6-1.1c1.6-0.7,3-1.8,4.2-3.1c1.2-1.4,2.3-2.9,3.1-4.7c0.8-1.8,1.3-3.8,1.4-5.9l-11.8,1.8l2.1-10.9
		c3.4-0.4,6.8-0.9,10.1-1.3c2.8-0.4,5.7-0.8,8.9-1.3c3.1-0.5,5.8-1,8.2-1.4C1012,600.5,1010.5,607,1008.1,612.6z"/>
	<path class="st1" d="M1038.9,635.1c1.7-8.1,3.3-16,4.8-23.9c0.7-3.3,1.3-6.7,2-10.3c0.7-3.6,1.3-7.1,1.9-10.6
		c0.6-3.5,1.2-6.9,1.6-10.1c0.5-3.3,0.9-6.3,1.3-9c-1.7-0.2-3.4-0.3-5.1-0.2c-1.7,0.1-3.4-0.1-5.1-0.7c0.1-1.2,0.1-2.5,0.1-4.1
		s0-3.1,0.1-4.6c0.1-1.7,0.1-3.5,0.2-5.4c1.9,0.1,3.8,0.3,5.7,0.3c1.9,0.1,3.8,0.1,5.7,0.1c3.7,0,7.4-0.1,10.8-0.3
		c3.5-0.2,6.7-0.4,9.7-0.7c3-0.3,5.9-0.6,8.7-0.9l-1.2,5.9c-0.4,1.7-0.7,3.4-1,5.2c-0.3,1.8-0.6,3.3-0.9,4.5
		c-1.6,0.4-3.2,0.8-4.9,0.9c-1.6,0.2-3.3,0.4-4.9,0.7c-0.5,2.5-1.1,5.3-1.7,8.3c-0.6,3-1.2,6.2-1.7,9.5c-0.5,3.3-1.1,6.6-1.6,10
		c-0.5,3.4-1,6.6-1.5,9.7c-1.2,7.3-2.3,14.8-3.3,22.5L1038.9,635.1z"/>
	<path class="st1" d="M1069.7,635.1l14.4-78.2l34.8-3c-0.5,1.6-1,3.3-1.3,4.9c-0.4,1.4-0.7,2.8-1,4.3c-0.3,1.5-0.6,2.8-0.8,4
		c-0.7,0.1-1.8,0.1-3.1,0.2c-1.4,0-2.8,0.1-4.3,0.1c-1.5,0-3.1,0.1-4.7,0.1c-1.6,0-3,0-4.1,0l-3.9,19.7c2.3-0.1,4.4-0.3,6.4-0.3
		c1.6-0.1,3.3-0.1,5-0.1c1.7,0,2.9,0,3.7-0.1c-0.3,2.1-0.6,4.1-0.8,6c-0.3,2-0.6,4-0.9,6.1c-0.7,0.1-1.9,0.1-3.6,0.2
		c-1.6,0-3.3,0.1-5,0.2c-1.9,0.1-4,0.1-6.3,0.2l-3.7,20.2l16.1-2.5l-1.1,12.5L1069.7,635.1z"/>
	<path class="st1" d="M1140.8,633.7c-2.2,0.4-4.2,0.7-5.9,1c0.3-2.4,0.6-4.8,0.9-7.1c0.2-2.1,0.4-4.1,0.6-6.2
		c0.2-2.1,0.3-3.8,0.5-5.3h-9.6l-4.4,15.8c-1.6,0.2-3.5,0.5-5.7,0.7c-2.2,0.3-4.3,0.5-6.2,0.7c-2.3,0.3-4.7,0.6-6.9,0.9
		c2.9-9.8,5.8-19.4,8.7-28.8c1.2-4,2.4-8.1,3.7-12.4c1.3-4.3,2.6-8.6,3.9-12.9c1.3-4.3,2.5-8.4,3.7-12.4c1.2-4,2.2-7.6,3.1-10.9
		c5-0.4,10.1-0.8,15.2-1.3c5.2-0.5,10.2-1.2,15.1-2.1c-0.2,2.3-0.5,5.3-0.7,8.7c-0.3,3.5-0.5,7.3-0.7,11.4
		c-0.2,4.1-0.4,8.4-0.7,12.9c-0.2,4.5-0.4,8.9-0.7,13.2c-0.4,10.1-0.8,20.9-1.2,32.2c-2.2,0.4-4.4,0.7-6.6,0.9
		C1145,633,1143,633.4,1140.8,633.7z M1129.9,605.1c0.3,0,0.8,0,1.6-0.1c0.8,0,1.6-0.1,2.4-0.1c0.8,0,1.6-0.1,2.4-0.1
		c0.7,0,1.2-0.1,1.5-0.2c0-0.4,0.1-1.2,0.2-2.3c0.1-1.1,0.2-2.3,0.3-3.6c0.1-1.4,0.2-2.8,0.4-4.5c0.1-1.6,0.3-3.2,0.4-4.7
		c0.3-3.7,0.7-7.8,1.1-12.1l0.7-9.6l-1.6,0.1l-2.5,9.5L1129.9,605.1z"/>
	<path class="st1" d="M1150.7,634.3c3.2-9.8,6.3-19.3,9.2-28.7c1.2-4,2.5-8.1,3.9-12.4c1.3-4.3,2.6-8.6,4-12.9
		c1.3-4.3,2.5-8.4,3.7-12.3c1.1-4,2.1-7.6,3-11c4,0,7.8-0.2,11.4-0.7c3.6-0.4,7.5-0.8,11.7-1.2c-0.2,1.6-0.5,3.4-0.7,5.4
		c-0.3,2-0.6,4.1-0.9,6.3c-0.3,2.2-0.7,4.5-1,6.8c-0.4,2.3-0.8,5.4-1.3,9c-0.5,3.7-1.2,8.2-2.1,13.8h1.4c2.1-5.6,3.9-10.2,5.3-13.9
		c1.4-3.7,2.5-6.7,3.4-9.1c0.9-2.3,1.8-4.6,2.7-6.9c0.9-2.2,1.8-4.4,2.6-6.4c0.8-2,1.6-3.8,2.4-5.3c1.8-0.1,3.6-0.3,5.2-0.5
		c1.6-0.2,3.2-0.5,4.8-0.7c1.6-0.3,3.2-0.5,4.9-0.8c1.6-0.3,3.5-0.6,5.4-0.9c-0.7,4.3-1.4,8.6-2.1,13.1c-0.7,4.5-1.2,8.9-1.8,13.4
		c-0.5,4.4-1,8.8-1.5,13.1c-0.5,4.3-0.9,8.4-1.3,12.3c-0.9,9.1-1.6,18-2.3,26.6l-19.1,3.4c0-0.4,0.1-1.4,0.2-3
		c0.1-1.6,0.3-3.6,0.4-5.9c0.2-2.3,0.4-5,0.8-7.8c0.3-2.9,0.7-5.7,1-8.6s0.7-5.6,1-8.3c0.4-2.7,0.7-5,1.1-6.9h-1
		c-1,3.1-2.2,6.3-3.4,9.7c-1.2,3.4-2.5,6.9-3.8,10.4c-1.3,3.5-2.5,7-3.8,10.3c-1.2,3.4-2.3,6.6-3.3,9.7c-2.6,0.1-4.8,0.2-6.6,0.3
		c-1.8,0.1-4,0.2-6.4,0.4l3.5-40.8h-1.6c-0.1,1-0.5,2.5-1.1,4.8c-0.6,2.2-1.3,4.8-2,7.7c-0.8,2.9-1.6,5.9-2.5,9
		c-0.9,3.1-1.7,6-2.5,8.7c-0.8,2.7-1.4,4.9-1.9,6.6c-0.5,1.7-0.8,2.7-0.9,2.9L1150.7,634.3z"/>
	<path class="st1" d="M1268.4,618.9c-1.6,3.3-3.7,6.2-6.4,8.6c-2.7,2.4-5.8,4.3-9.5,5.6c-3.6,1.3-7.5,2-11.7,2
		c-2.9,0-5.9-0.8-8.8-2.4c-2.9-1.6-5.8-4.1-8.5-7.5l8.1-15.9c0.5,1,1.3,1.9,2.3,2.9c1,1,2.2,1.9,3.5,2.6c1.3,0.7,2.6,1.3,3.9,1.8
		c1.3,0.5,2.4,0.7,3.5,0.7c0.9,0,1.8-0.1,2.8-0.4c1-0.3,1.8-0.7,2.6-1.3c0.8-0.6,1.4-1.3,1.9-2c0.5-0.8,0.7-1.7,0.7-2.7
		c0-1.8-0.6-3.4-1.7-4.9c-1.1-1.5-2.5-2.9-4.2-4.3c-1.7-1.4-3.5-2.7-5.5-4.1c-2-1.4-3.8-2.9-5.4-4.4s-3.1-3.3-4.2-5.2
		c-1.2-1.9-1.8-4-1.8-6.4c0-3.8,1.1-7.4,3.4-10.7c2.3-3.3,5.1-6.1,8.5-8.5c3.4-2.4,7.1-4.3,11.2-5.7c4-1.4,7.8-2.1,11.4-2.1
		c2,0,3.9,0.2,5.6,0.7c1.8,0.5,3.3,1.2,4.6,2.3c1.3,1.1,2.3,2.4,3.1,4c0.8,1.6,1.2,3.6,1.2,6c0,1-0.1,2.1-0.3,3.1
		c-0.2,1-0.3,2.1-0.5,3.3l-16,4.6c0.1-0.6,0.3-1.2,0.4-1.8c0.1-0.6,0.2-1.2,0.2-1.8c0-2.2-0.4-3.8-1.2-4.8c-0.8-1-1.8-1.5-3-1.5
		c-0.6,0-1.3,0.2-2.1,0.7c-0.8,0.4-1.7,1-2.5,1.7c-0.8,0.7-1.6,1.5-2.1,2.5c-0.6,1-0.9,2-0.9,3.1c0,1.8,0.5,3.2,1.5,4.4
		c1,1.2,2.2,2.3,3.7,3.3c1.5,1,3.1,2.1,4.8,3.1c1.7,1.1,3.3,2.4,4.8,4.1c1.5,1.7,2.7,3.8,3.7,6.3c1,2.5,1.5,5.7,1.5,9.6
		C1270.8,611.9,1270,615.6,1268.4,618.9z"/>
</g>
<g>
	<path class="st1" d="M488.6,396.7c-1.7,6.6-4.1,13.2-7.1,19.7c-3.1,6.5-6.8,12.8-11.3,18.7c-4.5,6-9.5,11.2-15.2,15.6
		c-5.7,4.5-11.9,8.1-18.6,10.8c-6.7,2.7-13.9,4.1-21.5,4.1c-1.6,0-3.2-0.1-4.8-0.3c-1.6-0.2-3.2-0.4-4.8-0.6
		c3.1-15.6,6.1-30.9,9-45.7c1.1-6.2,2.3-12.7,3.6-19.5c1.2-6.7,2.4-13.4,3.6-20c1.1-6.6,2.2-12.9,3.3-18.9c1.1-6,2-11.4,2.6-16.3
		c4.9-0.9,9.8-1.8,14.8-2.6c5-0.8,10.1-1.2,15.3-1.2c6.1,0,11.3,1,15.6,2.9c4.2,1.9,7.7,4.6,10.4,8c2.7,3.4,4.6,7.4,5.9,11.9
		c1.2,4.5,1.9,9.3,1.9,14.4C491.2,383.8,490.3,390,488.6,396.7z M447.1,383.8c-1.4,6.1-2.7,12.3-4.1,18.5
		c-1.4,6.2-2.7,12.8-4.1,19.6c-1.4,6.8-2.7,14.2-3.9,22.3c2.7-1.8,5.4-4.3,7.9-7.4c2.5-3.1,5-6.7,7.2-10.8c2.3-4.1,4.3-8.4,6.2-12.9
		c1.9-4.5,3.5-9,4.8-13.3c1.4-4.3,2.4-8.3,3.1-12.1c0.7-3.7,1.1-7,1.1-9.7c0-4.2-1.2-7.5-3.5-9.9c-2.3-2.4-6-3.6-11-3.6
		C449.8,371.3,448.5,377.7,447.1,383.8z"/>
	<path class="st1" d="M490.3,462.2l7.8-34.2c0-4.9-0.1-10.2-0.3-15.9c-0.2-5.7-0.4-11.5-0.8-17.3c-0.3-5.8-0.7-11.4-1-16.7
		c-0.3-5.4-0.6-10.1-0.9-14.3c-0.2-4.1-0.6-8.7-1-13.7l27.7-10.5v20.7c0,2.8,0,5.7,0,8.7c0,2.9,0,5.8-0.1,8.7
		c-0.1,2.8-0.1,5.5-0.1,8c0,2.5,0,4.6,0,6.3c1.5-3.9,3.3-8.6,5.4-14.3c2.1-5.7,4.1-11.2,5.9-16.5c2.2-6.2,4.4-12.8,6.6-19.7l26.4,6
		c-4.9,9.7-9.6,19.4-14.3,29.1c-1.9,4.2-4,8.5-6.1,13c-2.2,4.5-4.3,9-6.5,13.4c-2.2,4.5-4.2,8.8-6.3,13c-2,4.2-3.9,8.1-5.6,11.7
		c-0.6,2.9-1.3,6.2-2.1,9.7c-0.9,3.5-1.7,6.9-2.5,10c-1,3.7-2.1,7.5-3.2,11.2L490.3,462.2z"/>
	<path class="st1" d="M543.5,465.6c3.2-16,6.2-31.6,9.2-46.8c1.1-6.3,2.4-13,3.7-20c1.3-7,2.5-13.8,3.7-20.6
		c1.1-6.7,2.2-13.3,3.1-19.6c1-6.3,1.7-12,2.3-17.3c3.5-0.2,6.9-0.5,10.2-0.7c2.9-0.2,6-0.4,9-0.6s5.8-0.4,8.2-0.6
		c1.5,8.7,2.8,17.1,3.9,25c0.6,3.4,1.2,6.9,1.8,10.6c0.6,3.7,1.2,7.2,1.8,10.6c0.6,3.4,1.1,6.7,1.7,9.8c0.6,3.1,1.1,5.9,1.7,8.2
		c0.5-2.4,1-5.1,1.5-8.2c0.6-3.1,1.2-6.4,1.9-9.9c0.7-3.5,1.4-7,2.1-10.6c0.7-3.6,1.4-7.1,2.1-10.5c1.7-7.9,3.5-16.2,5.3-24.8
		l20.7-2.5c-3.9,17-7.3,33.1-10.2,48.3c-1.4,6.6-2.7,13.2-4,19.9c-1.3,6.7-2.5,13.1-3.7,19.4c-1.1,6.2-2.1,12-2.9,17.3
		c-0.8,5.3-1.4,9.7-1.9,13.3c-0.3,0-1.7,0.3-4,0.8c-2.3,0.5-5,1.1-8,1.8c-3,0.7-6,1.4-9,2.1c-3,0.7-5.2,1.3-6.7,1.8
		c-0.8-9.2-1.6-17.9-2.5-26.2c-0.3-3.5-0.7-7.1-1.2-10.9c-0.5-3.7-0.9-7.3-1.3-10.7c-0.4-3.4-0.8-6.6-1.2-9.6
		c-0.4-3-0.8-5.5-1.1-7.6c-0.3,2-0.8,4.5-1.4,7.5c-0.6,2.9-1.1,6.1-1.7,9.4c-0.6,3.3-1.1,6.8-1.7,10.4c-0.6,3.6-1.2,7.1-1.9,10.5
		c-1.5,8-3.1,16.4-4.8,25.2L543.5,465.6z"/>
	<path class="st1" d="M672.7,462.9c-3.4,0.6-6.5,1.1-9.2,1.5c0.5-3.7,0.9-7.4,1.4-11.1c0.3-3.2,0.7-6.3,0.9-9.5
		c0.3-3.2,0.5-5.9,0.8-8.2h-14.8l-6.8,24.5c-2.5,0.3-5.4,0.7-8.8,1.1c-3.4,0.4-6.6,0.8-9.5,1.1c-3.6,0.5-7.2,0.9-10.7,1.4
		c4.5-15.1,9-29.9,13.4-44.5c1.8-6.1,3.7-12.5,5.7-19.2c2-6.7,4-13.3,5.9-20c2-6.6,3.9-13,5.7-19.1c1.8-6.1,3.4-11.7,4.8-16.8
		c7.7-0.6,15.6-1.2,23.5-2c8-0.8,15.8-1.9,23.4-3.2c-0.3,3.6-0.7,8.1-1.1,13.5c-0.4,5.4-0.8,11.2-1.1,17.6c-0.3,6.3-0.7,13-1,19.9
		c-0.3,6.9-0.7,13.7-1,20.4c-0.6,15.6-1.2,32.2-1.9,49.8c-3.4,0.6-6.8,1-10.2,1.4C679.2,461.8,676.1,462.3,672.7,462.9z
		 M655.9,418.7c0.5,0,1.3,0,2.5-0.1c1.2-0.1,2.4-0.1,3.7-0.2c1.3-0.1,2.5-0.1,3.7-0.2c1.1-0.1,1.9-0.1,2.4-0.3
		c0-0.7,0.1-1.8,0.3-3.5c0.2-1.6,0.3-3.5,0.5-5.6c0.2-2.1,0.4-4.4,0.6-6.9c0.2-2.5,0.5-4.9,0.7-7.3c0.5-5.8,1-12,1.7-18.7l1-14.8
		l-2.5,0.2l-3.9,14.6L655.9,418.7z"/>
	<path class="st1" d="M688,463.7c5-15.1,9.7-29.9,14.3-44.4c1.9-6.1,3.9-12.5,5.9-19.2c2-6.7,4.1-13.3,6.1-19.9
		c2-6.6,3.9-12.9,5.7-19c1.8-6.1,3.3-11.8,4.7-17c6.2,0,12.1-0.3,17.7-1c5.6-0.7,11.6-1.3,18-1.9c-0.3,2.5-0.7,5.3-1.1,8.4
		c-0.4,3.1-0.8,6.4-1.4,9.8c-0.5,3.4-1,6.9-1.6,10.5c-0.6,3.6-1.2,8.3-2,13.9c-0.8,5.7-1.9,12.8-3.2,21.2h2.2
		c3.3-8.6,6-15.8,8.2-21.5c2.2-5.7,3.9-10.4,5.3-14c1.4-3.6,2.7-7.2,4.2-10.6c1.4-3.5,2.8-6.7,4.1-9.9c1.3-3.1,2.5-5.9,3.7-8.2
		c2.8-0.2,5.5-0.5,8-0.9c2.5-0.3,5-0.7,7.5-1.1c2.5-0.4,5-0.8,7.6-1.2c2.6-0.4,5.4-0.9,8.4-1.4c-1.1,6.6-2.2,13.3-3.2,20.2
		c-1,6.9-1.9,13.8-2.7,20.7c-0.8,6.9-1.6,13.6-2.3,20.3c-0.7,6.7-1.4,13-2,19c-1.4,14.1-2.5,27.8-3.6,41.1l-29.6,5.3
		c0-0.6,0.1-2.1,0.3-4.6c0.2-2.5,0.4-5.6,0.7-9.2c0.3-3.6,0.7-7.6,1.2-12.1c0.5-4.4,1-8.8,1.5-13.3c0.5-4.4,1-8.7,1.6-12.8
		c0.6-4.1,1.1-7.7,1.7-10.6h-1.5c-1.6,4.8-3.3,9.8-5.3,15c-1.9,5.3-3.9,10.6-5.9,16.1c-2,5.4-3.9,10.8-5.9,16
		c-1.9,5.2-3.6,10.2-5.1,15c-4,0.1-7.4,0.3-10.2,0.4c-2.8,0.2-6.1,0.4-9.9,0.6l5.4-63.1h-2.6c-0.2,1.5-0.8,3.9-1.7,7.4
		c-0.9,3.5-2,7.4-3.1,11.9c-1.2,4.5-2.5,9.1-3.8,13.9c-1.4,4.8-2.6,9.3-3.8,13.4c-1.2,4.1-2.2,7.5-3,10.2c-0.8,2.7-1.2,4.2-1.4,4.5
		L688,463.7z"/>
	<path class="st1" d="M819.2,461.8c-2.9,0.3-6,0.6-9.2,1c-3.2,0.4-6,0.8-8.6,1.1c-2.5,0.3-3.9,0.6-4.2,0.7
		c1.4-4.9,2.7-10.3,4.1-16.2c1.4-6,2.7-12.2,4.2-18.7c1.4-6.5,2.8-13.1,4.1-19.8c1.3-6.7,2.6-13.1,3.8-19.4
		c2.8-14.5,5.6-29.4,8.3-44.7l26.5-4.2c-2.9,15.2-5.9,30.1-8.8,44.7c-1.2,6.2-2.5,12.7-3.8,19.4c-1.3,6.7-2.5,13.3-3.7,19.9
		c-1.2,6.6-2.4,12.9-3.6,19.1c-1.2,6.2-2.2,11.8-3.1,16.7C824.2,461.3,822.2,461.5,819.2,461.8z"/>
	<path class="st1" d="M895.8,444.4c-3.3,4.6-6.9,8.4-10.5,11.6c-3.7,3.1-7.4,5.4-11.1,6.9c-3.7,1.5-7.4,2.2-10.9,2.2
		c-3.5,0-6.7-0.8-9.6-2.4c-2.9-1.6-5.4-4-7.6-7.1c-2.2-3.2-3.9-7.1-5.2-11.7c-1.3-4.6-2-10.1-2-16.3c0-10.7,1.5-21.2,4.4-31.5
		c2.9-10.4,7.1-19.7,12.4-28c5.3-8.3,11.6-14.9,19-20c7.3-5,15.4-7.6,24.2-7.6c2.7,0,5.3,0.6,7.8,1.7c2.5,1.1,4.6,2.7,6.5,4.8
		c1.8,2,3.3,4.5,4.3,7.5c1.1,2.9,1.6,6.2,1.6,9.9c0,0.7,0,1.4,0,2.1c0,0.7-0.1,1.5-0.2,2.3l-22.3,5.9c-1.4-2.8-2.9-4.2-4.8-4.2
		c-1.8,0-3.7,1-5.7,3.1c-2,2.1-3.9,4.8-5.9,8.2c-1.9,3.3-3.8,7.1-5.6,11.2c-1.8,4.1-3.4,8.3-4.8,12.5c-1.4,4.2-2.5,8.2-3.3,12
		c-0.8,3.8-1.3,6.9-1.3,9.3c0,3.6,0.5,6.2,1.4,7.6c1,1.5,2.2,2.2,3.8,2.2c1.2,0,2.7-0.5,4.2-1.4c1.6-1,3.1-2.2,4.4-3.7
		c1.4-1.5,2.6-3.3,3.7-5.2c1.1-1.9,1.9-3.9,2.4-5.8l19.4,7.8C902.2,434.4,899.2,439.8,895.8,444.4z"/>
	<path class="st1" d="M1019.8,396.7c-1.7,6.6-4.1,13.2-7.1,19.7c-3.1,6.5-6.8,12.8-11.3,18.7c-4.5,6-9.5,11.2-15.2,15.6
		c-5.7,4.5-11.9,8.1-18.6,10.8c-6.7,2.7-13.9,4.1-21.5,4.1c-1.6,0-3.2-0.1-4.8-0.3c-1.6-0.2-3.2-0.4-4.8-0.6
		c3.1-15.6,6.1-30.9,9-45.7c1.1-6.2,2.3-12.7,3.6-19.5c1.2-6.7,2.4-13.4,3.6-20c1.1-6.6,2.2-12.9,3.3-18.9c1.1-6,2-11.4,2.6-16.3
		c4.9-0.9,9.8-1.8,14.8-2.6c5-0.8,10.1-1.2,15.3-1.2c6.1,0,11.3,1,15.6,2.9c4.2,1.9,7.7,4.6,10.4,8c2.7,3.4,4.6,7.4,5.9,11.9
		c1.2,4.5,1.9,9.3,1.9,14.4C1022.4,383.8,1021.5,390,1019.8,396.7z M978.4,383.8c-1.4,6.1-2.7,12.3-4.1,18.5
		c-1.4,6.2-2.7,12.8-4.1,19.6c-1.4,6.8-2.7,14.2-3.9,22.3c2.7-1.8,5.4-4.3,7.9-7.4c2.5-3.1,5-6.7,7.2-10.8c2.3-4.1,4.3-8.4,6.2-12.9
		c1.9-4.5,3.5-9,4.8-13.3c1.4-4.3,2.4-8.3,3.1-12.1c0.7-3.7,1.1-7,1.1-9.7c0-4.2-1.2-7.5-3.5-9.9c-2.3-2.4-6-3.6-11-3.6
		C981,371.3,979.7,377.7,978.4,383.8z"/>
	<path class="st1" d="M1079.2,441.3c0,0-1.4,2.3-4.3,6.8c-2.9,4.5-6.3,8.3-10.2,11.2c-3.9,2.9-8.1,5.1-12.5,6.5s-8.8,2-13.3,2
		c-2.6,0-5.3-0.4-8-1.3c-2.7-0.9-5.2-2.1-7.3-3.8c-2.2-1.7-3.9-3.9-5.4-6.5c-1.4-2.6-2.1-5.7-2.1-9.2c0-0.5,0-0.9,0-1.4
		c0-0.5,0.1-0.9,0.2-1.4c0.5-4.6,1.2-10.3,2.2-16.8c1-6.6,2.1-13.4,3.2-20.6c1.1-7.1,2.4-14.3,3.7-21.5c1.4-7.2,2.6-13.7,3.7-19.6
		c1.1-5.9,2-10.8,2.8-14.7c0.8-3.9,1.3-6.3,1.5-7.2c2.4-0.2,5.2-0.5,8.5-0.9c3.3-0.3,6.3-0.6,9.2-0.8c3.5-0.3,7-0.7,10.4-1
		c-2.9,13.7-5.6,26.1-7.8,37.2c-1,4.8-2,9.5-3,14.3c-1,4.8-1.9,9.1-2.7,13.1c-0.9,4-1.6,7.4-2.2,10.3c-0.6,2.9-1.1,5.2-1.5,7.1
		c-0.4,1.8-0.8,4.1-1.4,6.9c-0.5,2.8-0.8,5.3-0.8,7.6c0,1.8,0.5,3.3,1.4,4.5c0.9,1.2,2,1.8,3.4,1.8c1.9,0,3.5-0.8,4.8-2.3
		c1.2-1.5,2.3-3.4,3.1-5.5c0.9-2.2,1.5-4.3,1.9-6.5c0.4-2.2,0.8-3.9,1.1-5.2c0.7-3.3,1.4-6.9,2.3-11c0.9-4,1.7-8.2,2.6-12.6
		c0.9-4.4,1.7-8.8,2.5-13.3c0.9-4.5,1.7-9,2.5-13.3c1.9-10,3.8-20.3,5.6-30.9l25.8-1.7c-1.1,5.9-2.2,11.3-3.1,16.1
		c-0.9,4.9-1.9,10.4-3,16.7c-1.1,6.2-2.3,12.7-3.7,19.5c-1.4,6.7-2.7,13.4-4,19.9c-1.3,6.5-2.6,12.5-3.8,17.9
		C1080,438.1,1079.2,441.3,1079.2,441.3z"/>
	<path class="st1" d="M1174.3,399c-2,8.2-4.6,15.8-7.9,22.6c-3.3,6.9-7.1,13-11.5,18.4c-4.4,5.4-8.9,10-13.7,13.8
		c-4.8,3.8-9.6,6.7-14.5,8.7c-4.9,2-9.5,3-13.9,3c-3.7,0-7.1-0.7-10.2-2.1c-3.1-1.4-5.7-3.5-8-6.3c-2.3-2.8-4.1-6.3-5.4-10.7
		c-1.3-4.4-2-9.6-2-15.7c0-6.3,0.8-13,2.4-20.1c1.6-7,3.7-14,6.5-20.9c2.7-6.9,6.1-13.5,10-19.7c4-6.2,8.3-11.8,13.1-16.6
		c4.8-4.8,9.9-8.6,15.3-11.5c5.4-2.8,11.1-4.2,17-4.2c5.1,0,9.3,1,12.7,3.1c3.3,2.1,6,4.8,7.8,8.2c1.9,3.3,3.2,7.1,4,11.3
		c0.8,4.2,1.2,8.4,1.2,12.6C1177.3,382.1,1176.3,390.8,1174.3,399z M1113.3,430.1c0.5,1.4,1.1,2.6,1.9,3.6c0.8,1,1.8,1.9,3,2.6
		c1.2,0.7,2.5,1.1,3.8,1.1c5.1,0,9.6-1.8,13.6-5.3c4-3.5,7.3-7.8,9.9-12.9c2.6-5.1,4.6-10.5,6-16.3c1.4-5.8,2.1-11.1,2.1-15.8
		c0-1.4-0.1-2.8-0.3-4.4c-0.2-1.6-0.5-3.1-1-4.4c-0.5-1.4-1.3-2.5-2.4-3.5c-1.1-1-2.5-1.4-4.3-1.4c-3.6,0-7,0.9-10,2.7
		c-3.1,1.8-5.8,4.2-8.2,7.2c-2.4,3-4.6,6.4-6.4,10.2c-1.8,3.8-3.4,7.6-4.7,11.6c-1.3,3.9-2.2,7.7-2.8,11.5c-0.6,3.7-0.9,7-0.9,9.7
		C1112.7,427.4,1112.9,428.7,1113.3,430.1z"/>
	<path class="st1" d="M1237.5,440c-2.4,5.2-5.7,9.6-9.9,13.3c-4.1,3.7-9,6.6-14.6,8.7c-5.6,2-11.6,3.1-18.1,3.1
		c-4.5,0-9.1-1.2-13.6-3.7c-4.5-2.4-8.9-6.3-13.1-11.6l12.6-24.6c0.8,1.5,2,3,3.6,4.5c1.6,1.5,3.4,2.9,5.4,4c2,1.1,4,2.1,6,2.8
		c2,0.7,3.8,1.1,5.4,1.1c1.4,0,2.8-0.2,4.2-0.7c1.5-0.5,2.8-1.1,4.1-2c1.2-0.9,2.2-2,3-3.1c0.7-1.2,1.1-2.6,1.1-4.2
		c0-2.7-0.9-5.2-2.6-7.6c-1.8-2.3-3.9-4.5-6.5-6.6c-2.6-2.1-5.4-4.2-8.5-6.4c-3.1-2.2-5.9-4.4-8.4-6.8c-2.5-2.4-4.7-5-6.5-8
		c-1.8-2.9-2.7-6.2-2.7-9.9c0-5.9,1.8-11.4,5.3-16.5c3.5-5.1,7.9-9.5,13.2-13.2c5.3-3.7,11-6.6,17.3-8.8c6.2-2.2,12.1-3.2,17.7-3.2
		c3.1,0,5.9,0.4,8.7,1.1c2.7,0.7,5.1,1.9,7.1,3.6c2,1.6,3.6,3.7,4.8,6.2c1.2,2.5,1.8,5.6,1.8,9.4c0,1.6-0.1,3.2-0.4,4.8
		c-0.3,1.6-0.5,3.3-0.8,5.1l-24.7,7.1c0.2-0.9,0.4-1.8,0.6-2.7c0.2-0.9,0.3-1.8,0.3-2.7c0-3.4-0.6-5.9-1.8-7.4
		c-1.2-1.5-2.7-2.3-4.7-2.3c-0.9,0-2,0.3-3.3,1c-1.3,0.7-2.6,1.6-3.9,2.6c-1.3,1.1-2.4,2.4-3.3,3.8c-0.9,1.5-1.4,3.1-1.4,4.8
		c0,2.7,0.8,5,2.3,6.8c1.5,1.8,3.4,3.5,5.7,5.1c2.3,1.6,4.7,3.2,7.4,4.8c2.7,1.6,5.1,3.8,7.4,6.4c2.3,2.6,4.2,5.9,5.7,9.8
		c1.5,3.9,2.3,8.9,2.3,14.9C1241.2,429.1,1240,434.9,1237.5,440z"/>
</g>
</svg>
